<svg xmlns="http://www.w3.org/2000/svg" viewBox="0 0 512 512"><path d="M260.6 80a11.4 11.4 0 1 0 22.8 0 11.4 11.4 0 1 0-22.8 0zm32 0a11.4 11.4 0 1 0 22.8 0 11.4 11.4 0 1 0-22.8 0zm0 32a11.4 11.4 0 1 0 22.8 0 11.4 11.4 0 1 0-22.8 0zm32 0a11.4 11.4 0 1 0 22.8 0 11.4 11.4 0 1 0-22.8 0zm-224 32a11.4 11.4 0 1 0 22.8 0 11.4 11.4 0 1 0-22.8 0zm32 0a11.4 11.4 0 1 0 22.8 0 11.4 11.4 0 1 0-22.8 0zm32 0a11.4 11.4 0 1 0 22.8 0 11.4 11.4 0 1 0-22.8 0zm32 0a11.4 11.4 0 1 0 22.8 0 11.4 11.4 0 1 0-22.8 0zm32 0a11.4 11.4 0 1 0 22.8 0 11.4 11.4 0 1 0-22.8 0zm32 0a11.4 11.4 0 1 0 22.8 0 11.4 11.4 0 1 0-22.8 0zm32 0a11.4 11.4 0 1 0 22.8 0 11.4 11.4 0 1 0-22.8 0zm32 0a11.4 11.4 0 1 0 22.8 0 11.4 11.4 0 1 0-22.8 0zm32 0a11.4 11.4 0 1 0 22.8 0 11.4 11.4 0 1 0-22.8 0zm32 0a11.4 11.4 0 1 0 22.8 0 11.4 11.4 0 1 0-22.8 0zm-320 32a11.4 11.4 0 1 0 22.8 0 11.4 11.4 0 1 0-22.8 0zm32 0a11.4 11.4 0 1 0 22.8 0 11.4 11.4 0 1 0-22.8 0zm32 0a11.4 11.4 0 1 0 22.8 0 11.4 11.4 0 1 0-22.8 0zm32 0a11.4 11.4 0 1 0 22.8 0 11.4 11.4 0 1 0-22.8 0zm32 0a11.4 11.4 0 1 0 22.8 0 11.4 11.4 0 1 0-22.8 0zm32 0a11.4 11.4 0 1 0 22.8 0 11.4 11.4 0 1 0-22.8 0zm32 0a11.4 11.4 0 1 0 22.8 0 11.4 11.4 0 1 0-22.8 0zm32 0a11.4 11.4 0 1 0 22.8 0 11.4 11.4 0 1 0-22.8 0zm32 0a11.4 11.4 0 1 0 22.8 0 11.4 11.4 0 1 0-22.8 0zm32 0a11.4 11.4 0 1 0 22.8 0 11.4 11.4 0 1 0-22.8 0zm32 0a11.4 11.4 0 1 0 22.8 0 11.4 11.4 0 1 0-22.8 0zm32 0a11.4 11.4 0 1 0 22.8 0 11.4 11.4 0 1 0-22.8 0zm-224 32a11.4 11.4 0 1 0 22.8 0 11.4 11.4 0 1 0-22.8 0zm32 0a11.4 11.4 0 1 0 22.8 0 11.4 11.4 0 1 0-22.8 0zm32 0a11.4 11.4 0 1 0 22.8 0 11.4 11.4 0 1 0-22.8 0zm128 0a11.4 11.4 0 1 0 22.8 0 11.4 11.4 0 1 0-22.8 0zm32 0a11.4 11.4 0 1 0 22.8 0 11.4 11.4 0 1 0-22.8 0zm32 0a11.4 11.4 0 1 0 22.8 0 11.4 11.4 0 1 0-22.8 0zm-320 32a11.4 11.4 0 1 0 22.8 0 11.4 11.4 0 1 0-22.8 0zm32 0a11.4 11.4 0 1 0 22.8 0 11.4 11.4 0 1 0-22.8 0zm32 0a11.4 11.4 0 1 0 22.8 0 11.4 11.4 0 1 0-22.8 0zm32 0a11.4 11.4 0 1 0 22.8 0 11.4 11.4 0 1 0-22.8 0zm96 0a11.4 11.4 0 1 0 22.8 0 11.4 11.4 0 1 0-22.8 0zm96 0a11.4 11.4 0 1 0 22.8 0 11.4 11.4 0 1 0-22.8 0zm32 0a11.4 11.4 0 1 0 22.8 0 11.4 11.4 0 1 0-22.8 0zm32 0a11.4 11.4 0 1 0 22.8 0 11.4 11.4 0 1 0-22.8 0zm-384 32a11.4 11.4 0 1 0 22.8 0 11.4 11.4 0 1 0-22.8 0zm32 0a11.4 11.4 0 1 0 22.8 0 11.4 11.4 0 1 0-22.8 0zm32 0a11.4 11.4 0 1 0 22.8 0 11.4 11.4 0 1 0-22.8 0zm32 0a11.4 11.4 0 1 0 22.8 0 11.4 11.4 0 1 0-22.8 0zm96 0a11.4 11.4 0 1 0 22.8 0 11.4 11.4 0 1 0-22.8 0zm32 0a11.4 11.4 0 1 0 22.8 0 11.4 11.4 0 1 0-22.8 0zm32 0a11.4 11.4 0 1 0 22.8 0 11.4 11.4 0 1 0-22.8 0zm96 0a11.4 11.4 0 1 0 22.8 0 11.4 11.4 0 1 0-22.8 0zm32 0a11.4 11.4 0 1 0 22.8 0 11.4 11.4 0 1 0-22.8 0zm-416 32a11.4 11.4 0 1 0 22.8 0 11.4 11.4 0 1 0-22.8 0zm32 0a11.4 11.4 0 1 0 22.8 0 11.4 11.4 0 1 0-22.8 0zm32 0a11.4 11.4 0 1 0 22.8 0 11.4 11.4 0 1 0-22.8 0zm32 0a11.4 11.4 0 1 0 22.8 0 11.4 11.4 0 1 0-22.8 0zm32 0a11.4 11.4 0 1 0 22.8 0 11.4 11.4 0 1 0-22.8 0zm96 0a11.4 11.4 0 1 0 22.8 0 11.4 11.4 0 1 0-22.8 0zm32 0a11.4 11.4 0 1 0 22.8 0 11.4 11.4 0 1 0-22.8 0zm32 0a11.4 11.4 0 1 0 22.8 0 11.4 11.4 0 1 0-22.8 0zm96 0a11.4 11.4 0 1 0 22.8 0 11.4 11.4 0 1 0-22.8 0zm32 0a11.4 11.4 0 1 0 22.8 0 11.4 11.4 0 1 0-22.8 0zm-480 32a11.4 11.4 0 1 0 22.8 0 11.4 11.4 0 1 0-22.8 0zm32 0a11.4 11.4 0 1 0 22.8 0 11.4 11.4 0 1 0-22.8 0zm32 0a11.4 11.4 0 1 0 22.8 0 11.4 11.4 0 1 0-22.8 0zm32 0a11.4 11.4 0 1 0 22.8 0 11.4 11.4 0 1 0-22.8 0zm64 0a11.4 11.4 0 1 0 22.8 0 11.4 11.4 0 1 0-22.8 0zm32 0a11.4 11.4 0 1 0 22.8 0 11.4 11.4 0 1 0-22.8 0zm32 0a11.4 11.4 0 1 0 22.8 0 11.4 11.4 0 1 0-22.8 0zm96 0a11.4 11.4 0 1 0 22.8 0 11.4 11.4 0 1 0-22.8 0zm96 0a11.4 11.4 0 1 0 22.8 0 11.4 11.4 0 1 0-22.8 0zm32 0a11.4 11.4 0 1 0 22.8 0 11.4 11.4 0 1 0-22.8 0zm32 0a11.4 11.4 0 1 0 22.8 0 11.4 11.4 0 1 0-22.8 0zm-480 32a11.4 11.4 0 1 0 22.8 0 11.4 11.4 0 1 0-22.8 0zm32 0a11.4 11.4 0 1 0 22.8 0 11.4 11.4 0 1 0-22.8 0zm128 0a11.4 11.4 0 1 0 22.8 0 11.4 11.4 0 1 0-22.8 0zm32 0a11.4 11.4 0 1 0 22.8 0 11.4 11.4 0 1 0-22.8 0zm32 0a11.4 11.4 0 1 0 22.8 0 11.4 11.4 0 1 0-22.8 0zm32 0a11.4 11.4 0 1 0 22.8 0 11.4 11.4 0 1 0-22.8 0zm128 0a11.4 11.4 0 1 0 22.8 0 11.4 11.4 0 1 0-22.8 0zm32 0a11.4 11.4 0 1 0 22.8 0 11.4 11.4 0 1 0-22.8 0zm32 0a11.4 11.4 0 1 0 22.8 0 11.4 11.4 0 1 0-22.8 0zm-256 32a11.4 11.4 0 1 0 22.8 0 11.4 11.4 0 1 0-22.8 0zm32 0a11.4 11.4 0 1 0 22.8 0 11.4 11.4 0 1 0-22.8 0zm32 0a11.4 11.4 0 1 0 22.8 0 11.4 11.4 0 1 0-22.8 0zm32 0a11.4 11.4 0 1 0 22.8 0 11.4 11.4 0 1 0-22.8 0zm32 0a11.4 11.4 0 1 0 22.8 0 11.4 11.4 0 1 0-22.8 0zm32 0a11.4 11.4 0 1 0 22.8 0 11.4 11.4 0 1 0-22.8 0zm32 0a11.4 11.4 0 1 0 22.8 0 11.4 11.4 0 1 0-22.8 0zm32 0a11.4 11.4 0 1 0 22.8 0 11.4 11.4 0 1 0-22.8 0zm32 0a11.4 11.4 0 1 0 22.8 0 11.4 11.4 0 1 0-22.8 0zm-224 32a11.4 11.4 0 1 0 22.8 0 11.4 11.4 0 1 0-22.8 0zm32 0a11.4 11.4 0 1 0 22.8 0 11.4 11.4 0 1 0-22.8 0zm32 0a11.4 11.4 0 1 0 22.8 0 11.4 11.4 0 1 0-22.8 0zm32 0a11.4 11.4 0 1 0 22.8 0 11.4 11.4 0 1 0-22.8 0zm32 0a11.4 11.4 0 1 0 22.8 0 11.4 11.4 0 1 0-22.8 0zm32 0a11.4 11.4 0 1 0 22.8 0 11.4 11.4 0 1 0-22.8 0zm32 0a11.4 11.4 0 1 0 22.8 0 11.4 11.4 0 1 0-22.8 0z"/></svg>