<svg xmlns="http://www.w3.org/2000/svg" viewBox="0 0 512 512"><path d="M68.6 16a11.4 11.4 0 1 0 22.8 0 11.4 11.4 0 1 0-22.8 0zm32 0a11.4 11.4 0 1 0 22.8 0 11.4 11.4 0 1 0-22.8 0zm32 0a11.4 11.4 0 1 0 22.8 0 11.4 11.4 0 1 0-22.8 0zm32 0a11.4 11.4 0 1 0 22.8 0 11.4 11.4 0 1 0-22.8 0zm32 0a11.4 11.4 0 1 0 22.8 0 11.4 11.4 0 1 0-22.8 0zm32 0a11.4 11.4 0 1 0 22.8 0 11.4 11.4 0 1 0-22.8 0zm32 0a11.4 11.4 0 1 0 22.8 0 11.4 11.4 0 1 0-22.8 0zm32 0a11.4 11.4 0 1 0 22.8 0 11.4 11.4 0 1 0-22.8 0zm32 0a11.4 11.4 0 1 0 22.8 0 11.4 11.4 0 1 0-22.8 0zm32 0a11.4 11.4 0 1 0 22.8 0 11.4 11.4 0 1 0-22.8 0zm32 0a11.4 11.4 0 1 0 22.8 0 11.4 11.4 0 1 0-22.8 0zm32 0a11.4 11.4 0 1 0 22.8 0 11.4 11.4 0 1 0-22.8 0zm-384 32a11.4 11.4 0 1 0 22.8 0 11.4 11.4 0 1 0-22.8 0zm416 0a11.4 11.4 0 1 0 22.8 0 11.4 11.4 0 1 0-22.8 0zM4.6 80a11.4 11.4 0 1 0 22.8 0 11.4 11.4 0 1 0-22.8 0zm480 0a11.4 11.4 0 1 0 22.8 0 11.4 11.4 0 1 0-22.8 0zm-480 32a11.4 11.4 0 1 0 22.8 0 11.4 11.4 0 1 0-22.8 0zm480 0a11.4 11.4 0 1 0 22.8 0 11.4 11.4 0 1 0-22.8 0zm-480 32a11.4 11.4 0 1 0 22.8 0 11.4 11.4 0 1 0-22.8 0zm160 0a11.4 11.4 0 1 0 22.8 0 11.4 11.4 0 1 0-22.8 0zm32 0a11.4 11.4 0 1 0 22.8 0 11.4 11.4 0 1 0-22.8 0zm32 0a11.4 11.4 0 1 0 22.8 0 11.4 11.4 0 1 0-22.8 0zm32 0a11.4 11.4 0 1 0 22.8 0 11.4 11.4 0 1 0-22.8 0zm32 0a11.4 11.4 0 1 0 22.8 0 11.4 11.4 0 1 0-22.8 0zm192 0a11.4 11.4 0 1 0 22.8 0 11.4 11.4 0 1 0-22.8 0zm-480 32a11.4 11.4 0 1 0 22.8 0 11.4 11.4 0 1 0-22.8 0zm160 0a11.4 11.4 0 1 0 22.8 0 11.4 11.4 0 1 0-22.8 0zm160 0a11.4 11.4 0 1 0 22.8 0 11.4 11.4 0 1 0-22.8 0zm160 0a11.4 11.4 0 1 0 22.8 0 11.4 11.4 0 1 0-22.8 0zm-480 32a11.4 11.4 0 1 0 22.8 0 11.4 11.4 0 1 0-22.8 0zm160 0a11.4 11.4 0 1 0 22.8 0 11.4 11.4 0 1 0-22.8 0zm160 0a11.4 11.4 0 1 0 22.8 0 11.4 11.4 0 1 0-22.8 0zm160 0a11.4 11.4 0 1 0 22.8 0 11.4 11.4 0 1 0-22.8 0zm-480 32a11.4 11.4 0 1 0 22.8 0 11.4 11.4 0 1 0-22.8 0zm160 0a11.4 11.4 0 1 0 22.8 0 11.4 11.4 0 1 0-22.8 0zm32 0a11.4 11.4 0 1 0 22.8 0 11.4 11.4 0 1 0-22.8 0zm32 0a11.4 11.4 0 1 0 22.8 0 11.4 11.4 0 1 0-22.8 0zm32 0a11.4 11.4 0 1 0 22.8 0 11.4 11.4 0 1 0-22.8 0zm32 0a11.4 11.4 0 1 0 22.8 0 11.4 11.4 0 1 0-22.8 0zm192 0a11.4 11.4 0 1 0 22.8 0 11.4 11.4 0 1 0-22.8 0zm-480 32a11.4 11.4 0 1 0 22.8 0 11.4 11.4 0 1 0-22.8 0zm160 0a11.4 11.4 0 1 0 22.8 0 11.4 11.4 0 1 0-22.8 0zm160 0a11.4 11.4 0 1 0 22.8 0 11.4 11.4 0 1 0-22.8 0zm160 0a11.4 11.4 0 1 0 22.8 0 11.4 11.4 0 1 0-22.8 0zm-480 32a11.4 11.4 0 1 0 22.8 0 11.4 11.4 0 1 0-22.8 0zm160 0a11.4 11.4 0 1 0 22.8 0 11.4 11.4 0 1 0-22.8 0zm160 0a11.4 11.4 0 1 0 22.8 0 11.4 11.4 0 1 0-22.8 0zm160 0a11.4 11.4 0 1 0 22.8 0 11.4 11.4 0 1 0-22.8 0zm-480 32a11.4 11.4 0 1 0 22.8 0 11.4 11.4 0 1 0-22.8 0zm160 0a11.4 11.4 0 1 0 22.8 0 11.4 11.4 0 1 0-22.8 0zm160 0a11.4 11.4 0 1 0 22.8 0 11.4 11.4 0 1 0-22.8 0zm160 0a11.4 11.4 0 1 0 22.8 0 11.4 11.4 0 1 0-22.8 0zm-480 32a11.4 11.4 0 1 0 22.8 0 11.4 11.4 0 1 0-22.8 0zm160 0a11.4 11.4 0 1 0 22.8 0 11.4 11.4 0 1 0-22.8 0zm32 0a11.4 11.4 0 1 0 22.8 0 11.4 11.4 0 1 0-22.8 0zm32 0a11.4 11.4 0 1 0 22.8 0 11.4 11.4 0 1 0-22.8 0zm32 0a11.4 11.4 0 1 0 22.8 0 11.4 11.4 0 1 0-22.8 0zm32 0a11.4 11.4 0 1 0 22.8 0 11.4 11.4 0 1 0-22.8 0zm192 0a11.4 11.4 0 1 0 22.8 0 11.4 11.4 0 1 0-22.8 0zm-480 32a11.4 11.4 0 1 0 22.8 0 11.4 11.4 0 1 0-22.8 0zm480 0a11.4 11.4 0 1 0 22.8 0 11.4 11.4 0 1 0-22.8 0zm-480 32a11.4 11.4 0 1 0 22.8 0 11.4 11.4 0 1 0-22.8 0zm480 0a11.4 11.4 0 1 0 22.8 0 11.4 11.4 0 1 0-22.8 0zm-448 32a11.4 11.4 0 1 0 22.8 0 11.4 11.4 0 1 0-22.8 0zm416 0a11.4 11.4 0 1 0 22.8 0 11.4 11.4 0 1 0-22.8 0zm-384 32a11.4 11.4 0 1 0 22.8 0 11.4 11.4 0 1 0-22.8 0zm32 0a11.4 11.4 0 1 0 22.8 0 11.4 11.4 0 1 0-22.8 0zm32 0a11.4 11.4 0 1 0 22.8 0 11.4 11.4 0 1 0-22.8 0zm32 0a11.4 11.4 0 1 0 22.8 0 11.4 11.4 0 1 0-22.8 0zm32 0a11.4 11.4 0 1 0 22.8 0 11.4 11.4 0 1 0-22.8 0zm32 0a11.4 11.4 0 1 0 22.8 0 11.4 11.4 0 1 0-22.8 0zm32 0a11.4 11.4 0 1 0 22.8 0 11.4 11.4 0 1 0-22.8 0zm32 0a11.4 11.4 0 1 0 22.8 0 11.4 11.4 0 1 0-22.8 0zm32 0a11.4 11.4 0 1 0 22.8 0 11.4 11.4 0 1 0-22.8 0zm32 0a11.4 11.4 0 1 0 22.8 0 11.4 11.4 0 1 0-22.8 0zm32 0a11.4 11.4 0 1 0 22.8 0 11.4 11.4 0 1 0-22.8 0zm32 0a11.4 11.4 0 1 0 22.8 0 11.4 11.4 0 1 0-22.8 0z"/></svg>