<svg xmlns="http://www.w3.org/2000/svg" viewBox="0 0 512 512"><path d="M324.6 48a11.4 11.4 0 1 0 22.8 0 11.4 11.4 0 1 0-22.8 0m-32 32a11.4 11.4 0 1 0 22.8 0 11.4 11.4 0 1 0-22.8 0m32 0a11.4 11.4 0 1 0 22.8 0 11.4 11.4 0 1 0-22.8 0m32 0a11.4 11.4 0 1 0 22.8 0 11.4 11.4 0 1 0-22.8 0m-96 32a11.4 11.4 0 1 0 22.8 0 11.4 11.4 0 1 0-22.8 0m32 0a11.4 11.4 0 1 0 22.8 0 11.4 11.4 0 1 0-22.8 0m32 0a11.4 11.4 0 1 0 22.8 0 11.4 11.4 0 1 0-22.8 0m-96 32a11.4 11.4 0 1 0 22.8 0 11.4 11.4 0 1 0-22.8 0m32 0a11.4 11.4 0 1 0 22.8 0 11.4 11.4 0 1 0-22.8 0m32 0a11.4 11.4 0 1 0 22.8 0 11.4 11.4 0 1 0-22.8 0m-96 32a11.4 11.4 0 1 0 22.8 0 11.4 11.4 0 1 0-22.8 0m32 0a11.4 11.4 0 1 0 22.8 0 11.4 11.4 0 1 0-22.8 0m32 0a11.4 11.4 0 1 0 22.8 0 11.4 11.4 0 1 0-22.8 0m-96 32a11.4 11.4 0 1 0 22.8 0 11.4 11.4 0 1 0-22.8 0m32 0a11.4 11.4 0 1 0 22.8 0 11.4 11.4 0 1 0-22.8 0m32 0a11.4 11.4 0 1 0 22.8 0 11.4 11.4 0 1 0-22.8 0m-96 32a11.4 11.4 0 1 0 22.8 0 11.4 11.4 0 1 0-22.8 0m32 0a11.4 11.4 0 1 0 22.8 0 11.4 11.4 0 1 0-22.8 0m32 0a11.4 11.4 0 1 0 22.8 0 11.4 11.4 0 1 0-22.8 0m-64 32a11.4 11.4 0 1 0 22.8 0 11.4 11.4 0 1 0-22.8 0m32 0a11.4 11.4 0 1 0 22.8 0 11.4 11.4 0 1 0-22.8 0m32 0a11.4 11.4 0 1 0 22.8 0 11.4 11.4 0 1 0-22.8 0m-32 32a11.4 11.4 0 1 0 22.8 0 11.4 11.4 0 1 0-22.8 0m32 0a11.4 11.4 0 1 0 22.8 0 11.4 11.4 0 1 0-22.8 0m32 0a11.4 11.4 0 1 0 22.8 0 11.4 11.4 0 1 0-22.8 0m-32 32a11.4 11.4 0 1 0 22.8 0 11.4 11.4 0 1 0-22.8 0m32 0a11.4 11.4 0 1 0 22.8 0 11.4 11.4 0 1 0-22.8 0m32 0a11.4 11.4 0 1 0 22.8 0 11.4 11.4 0 1 0-22.8 0m-32 32a11.4 11.4 0 1 0 22.8 0 11.4 11.4 0 1 0-22.8 0m32 0a11.4 11.4 0 1 0 22.8 0 11.4 11.4 0 1 0-22.8 0m32 0a11.4 11.4 0 1 0 22.8 0 11.4 11.4 0 1 0-22.8 0m-32 32a11.4 11.4 0 1 0 22.8 0 11.4 11.4 0 1 0-22.8 0m32 0a11.4 11.4 0 1 0 22.8 0 11.4 11.4 0 1 0-22.8 0m32 0a11.4 11.4 0 1 0 22.8 0 11.4 11.4 0 1 0-22.8 0m-32 32a11.4 11.4 0 1 0 22.8 0 11.4 11.4 0 1 0-22.8 0m32 0a11.4 11.4 0 1 0 22.8 0 11.4 11.4 0 1 0-22.8 0m32 0a11.4 11.4 0 1 0 22.8 0 11.4 11.4 0 1 0-22.8 0m-32 32a11.4 11.4 0 1 0 22.8 0 11.4 11.4 0 1 0-22.8 0"/></svg>