<svg xmlns="http://www.w3.org/2000/svg" viewBox="0 0 512 512"><path d="M68.6 16a11.4 11.4 0 1 0 22.8 0 11.4 11.4 0 1 0-22.8 0m32 0a11.4 11.4 0 1 0 22.8 0 11.4 11.4 0 1 0-22.8 0m32 0a11.4 11.4 0 1 0 22.8 0 11.4 11.4 0 1 0-22.8 0m32 0a11.4 11.4 0 1 0 22.8 0 11.4 11.4 0 1 0-22.8 0m160 0a11.4 11.4 0 1 0 22.8 0 11.4 11.4 0 1 0-22.8 0m32 0a11.4 11.4 0 1 0 22.8 0 11.4 11.4 0 1 0-22.8 0m32 0a11.4 11.4 0 1 0 22.8 0 11.4 11.4 0 1 0-22.8 0m32 0a11.4 11.4 0 1 0 22.8 0 11.4 11.4 0 1 0-22.8 0m-384 32a11.4 11.4 0 1 0 22.8 0 11.4 11.4 0 1 0-22.8 0m32 0a11.4 11.4 0 1 0 22.8 0 11.4 11.4 0 1 0-22.8 0m32 0a11.4 11.4 0 1 0 22.8 0 11.4 11.4 0 1 0-22.8 0m32 0a11.4 11.4 0 1 0 22.8 0 11.4 11.4 0 1 0-22.8 0m32 0a11.4 11.4 0 1 0 22.8 0 11.4 11.4 0 1 0-22.8 0m160 0a11.4 11.4 0 1 0 22.8 0 11.4 11.4 0 1 0-22.8 0m32 0a11.4 11.4 0 1 0 22.8 0 11.4 11.4 0 1 0-22.8 0m32 0a11.4 11.4 0 1 0 22.8 0 11.4 11.4 0 1 0-22.8 0m32 0a11.4 11.4 0 1 0 22.8 0 11.4 11.4 0 1 0-22.8 0m32 0a11.4 11.4 0 1 0 22.8 0 11.4 11.4 0 1 0-22.8 0M4.6 80a11.4 11.4 0 1 0 22.8 0 11.4 11.4 0 1 0-22.8 0m32 0a11.4 11.4 0 1 0 22.8 0 11.4 11.4 0 1 0-22.8 0m32 0a11.4 11.4 0 1 0 22.8 0 11.4 11.4 0 1 0-22.8 0m352 0a11.4 11.4 0 1 0 22.8 0 11.4 11.4 0 1 0-22.8 0m32 0a11.4 11.4 0 1 0 22.8 0 11.4 11.4 0 1 0-22.8 0m32 0a11.4 11.4 0 1 0 22.8 0 11.4 11.4 0 1 0-22.8 0m-480 32a11.4 11.4 0 1 0 22.8 0 11.4 11.4 0 1 0-22.8 0m32 0a11.4 11.4 0 1 0 22.8 0 11.4 11.4 0 1 0-22.8 0m416 0a11.4 11.4 0 1 0 22.8 0 11.4 11.4 0 1 0-22.8 0m32 0a11.4 11.4 0 1 0 22.8 0 11.4 11.4 0 1 0-22.8 0m-480 32a11.4 11.4 0 1 0 22.8 0 11.4 11.4 0 1 0-22.8 0m32 0a11.4 11.4 0 1 0 22.8 0 11.4 11.4 0 1 0-22.8 0m416 0a11.4 11.4 0 1 0 22.8 0 11.4 11.4 0 1 0-22.8 0m32 0a11.4 11.4 0 1 0 22.8 0 11.4 11.4 0 1 0-22.8 0m-480 32a11.4 11.4 0 1 0 22.8 0 11.4 11.4 0 1 0-22.8 0m32 0a11.4 11.4 0 1 0 22.8 0 11.4 11.4 0 1 0-22.8 0m160 0a11.4 11.4 0 1 0 22.8 0 11.4 11.4 0 1 0-22.8 0m32 0a11.4 11.4 0 1 0 22.8 0 11.4 11.4 0 1 0-22.8 0m32 0a11.4 11.4 0 1 0 22.8 0 11.4 11.4 0 1 0-22.8 0m32 0a11.4 11.4 0 1 0 22.8 0 11.4 11.4 0 1 0-22.8 0m160 0a11.4 11.4 0 1 0 22.8 0 11.4 11.4 0 1 0-22.8 0m32 0a11.4 11.4 0 1 0 22.8 0 11.4 11.4 0 1 0-22.8 0m-320 32a11.4 11.4 0 1 0 22.8 0 11.4 11.4 0 1 0-22.8 0m32 0a11.4 11.4 0 1 0 22.8 0 11.4 11.4 0 1 0-22.8 0m32 0a11.4 11.4 0 1 0 22.8 0 11.4 11.4 0 1 0-22.8 0m32 0a11.4 11.4 0 1 0 22.8 0 11.4 11.4 0 1 0-22.8 0m32 0a11.4 11.4 0 1 0 22.8 0 11.4 11.4 0 1 0-22.8 0m32 0a11.4 11.4 0 1 0 22.8 0 11.4 11.4 0 1 0-22.8 0m-160 32a11.4 11.4 0 1 0 22.8 0 11.4 11.4 0 1 0-22.8 0m32 0a11.4 11.4 0 1 0 22.8 0 11.4 11.4 0 1 0-22.8 0m32 0a11.4 11.4 0 1 0 22.8 0 11.4 11.4 0 1 0-22.8 0m32 0a11.4 11.4 0 1 0 22.8 0 11.4 11.4 0 1 0-22.8 0m32 0a11.4 11.4 0 1 0 22.8 0 11.4 11.4 0 1 0-22.8 0m32 0a11.4 11.4 0 1 0 22.8 0 11.4 11.4 0 1 0-22.8 0m-160 32a11.4 11.4 0 1 0 22.8 0 11.4 11.4 0 1 0-22.8 0m32 0a11.4 11.4 0 1 0 22.8 0 11.4 11.4 0 1 0-22.8 0m32 0a11.4 11.4 0 1 0 22.8 0 11.4 11.4 0 1 0-22.8 0m32 0a11.4 11.4 0 1 0 22.8 0 11.4 11.4 0 1 0-22.8 0m32 0a11.4 11.4 0 1 0 22.8 0 11.4 11.4 0 1 0-22.8 0m32 0a11.4 11.4 0 1 0 22.8 0 11.4 11.4 0 1 0-22.8 0m-160 32a11.4 11.4 0 1 0 22.8 0 11.4 11.4 0 1 0-22.8 0m32 0a11.4 11.4 0 1 0 22.8 0 11.4 11.4 0 1 0-22.8 0m32 0a11.4 11.4 0 1 0 22.8 0 11.4 11.4 0 1 0-22.8 0m32 0a11.4 11.4 0 1 0 22.8 0 11.4 11.4 0 1 0-22.8 0m32 0a11.4 11.4 0 1 0 22.8 0 11.4 11.4 0 1 0-22.8 0m32 0a11.4 11.4 0 1 0 22.8 0 11.4 11.4 0 1 0-22.8 0m-320 32a11.4 11.4 0 1 0 22.8 0 11.4 11.4 0 1 0-22.8 0m32 0a11.4 11.4 0 1 0 22.8 0 11.4 11.4 0 1 0-22.8 0m160 0a11.4 11.4 0 1 0 22.8 0 11.4 11.4 0 1 0-22.8 0m32 0a11.4 11.4 0 1 0 22.8 0 11.4 11.4 0 1 0-22.8 0m32 0a11.4 11.4 0 1 0 22.8 0 11.4 11.4 0 1 0-22.8 0m32 0a11.4 11.4 0 1 0 22.8 0 11.4 11.4 0 1 0-22.8 0m-288 32a11.4 11.4 0 1 0 22.8 0 11.4 11.4 0 1 0-22.8 0m32 0a11.4 11.4 0 1 0 22.8 0 11.4 11.4 0 1 0-22.8 0m352 0a11.4 11.4 0 1 0 22.8 0 11.4 11.4 0 1 0-22.8 0m32 0a11.4 11.4 0 1 0 22.8 0 11.4 11.4 0 1 0-22.8 0m-416 32a11.4 11.4 0 1 0 22.8 0 11.4 11.4 0 1 0-22.8 0m32 0a11.4 11.4 0 1 0 22.8 0 11.4 11.4 0 1 0-22.8 0m320 0a11.4 11.4 0 1 0 22.8 0 11.4 11.4 0 1 0-22.8 0m32 0a11.4 11.4 0 1 0 22.8 0 11.4 11.4 0 1 0-22.8 0m32 0a11.4 11.4 0 1 0 22.8 0 11.4 11.4 0 1 0-22.8 0m32 0a11.4 11.4 0 1 0 22.8 0 11.4 11.4 0 1 0-22.8 0m-448 32a11.4 11.4 0 1 0 22.8 0 11.4 11.4 0 1 0-22.8 0m32 0a11.4 11.4 0 1 0 22.8 0 11.4 11.4 0 1 0-22.8 0m32 0a11.4 11.4 0 1 0 22.8 0 11.4 11.4 0 1 0-22.8 0m288 0a11.4 11.4 0 1 0 22.8 0 11.4 11.4 0 1 0-22.8 0m32 0a11.4 11.4 0 1 0 22.8 0 11.4 11.4 0 1 0-22.8 0m32 0a11.4 11.4 0 1 0 22.8 0 11.4 11.4 0 1 0-22.8 0m32 0a11.4 11.4 0 1 0 22.8 0 11.4 11.4 0 1 0-22.8 0m-416 32a11.4 11.4 0 1 0 22.8 0 11.4 11.4 0 1 0-22.8 0m32 0a11.4 11.4 0 1 0 22.8 0 11.4 11.4 0 1 0-22.8 0m32 0a11.4 11.4 0 1 0 22.8 0 11.4 11.4 0 1 0-22.8 0m32 0a11.4 11.4 0 1 0 22.8 0 11.4 11.4 0 1 0-22.8 0m32 0a11.4 11.4 0 1 0 22.8 0 11.4 11.4 0 1 0-22.8 0m224 0a11.4 11.4 0 1 0 22.8 0 11.4 11.4 0 1 0-22.8 0m32 0a11.4 11.4 0 1 0 22.8 0 11.4 11.4 0 1 0-22.8 0m-352 32a11.4 11.4 0 1 0 22.8 0 11.4 11.4 0 1 0-22.8 0m32 0a11.4 11.4 0 1 0 22.8 0 11.4 11.4 0 1 0-22.8 0m32 0a11.4 11.4 0 1 0 22.8 0 11.4 11.4 0 1 0-22.8 0m32 0a11.4 11.4 0 1 0 22.8 0 11.4 11.4 0 1 0-22.8 0"/></svg>