<svg xmlns="http://www.w3.org/2000/svg" viewBox="0 0 512 512"><path d="M100.6 16a11.4 11.4 0 1 0 22.8 0 11.4 11.4 0 1 0-22.8 0m32 0a11.4 11.4 0 1 0 22.8 0 11.4 11.4 0 1 0-22.8 0m32 0a11.4 11.4 0 1 0 22.8 0 11.4 11.4 0 1 0-22.8 0m192 0a11.4 11.4 0 1 0 22.8 0 11.4 11.4 0 1 0-22.8 0m32 0a11.4 11.4 0 1 0 22.8 0 11.4 11.4 0 1 0-22.8 0m-320 32a11.4 11.4 0 1 0 22.8 0 11.4 11.4 0 1 0-22.8 0m32 0a11.4 11.4 0 1 0 22.8 0 11.4 11.4 0 1 0-22.8 0m32 0a11.4 11.4 0 1 0 22.8 0 11.4 11.4 0 1 0-22.8 0m32 0a11.4 11.4 0 1 0 22.8 0 11.4 11.4 0 1 0-22.8 0m32 0a11.4 11.4 0 1 0 22.8 0 11.4 11.4 0 1 0-22.8 0m128 0a11.4 11.4 0 1 0 22.8 0 11.4 11.4 0 1 0-22.8 0m32 0a11.4 11.4 0 1 0 22.8 0 11.4 11.4 0 1 0-22.8 0m32 0a11.4 11.4 0 1 0 22.8 0 11.4 11.4 0 1 0-22.8 0m-352 32a11.4 11.4 0 1 0 22.8 0 11.4 11.4 0 1 0-22.8 0m32 0a11.4 11.4 0 1 0 22.8 0 11.4 11.4 0 1 0-22.8 0m32 0a11.4 11.4 0 1 0 22.8 0 11.4 11.4 0 1 0-22.8 0m32 0a11.4 11.4 0 1 0 22.8 0 11.4 11.4 0 1 0-22.8 0m32 0a11.4 11.4 0 1 0 22.8 0 11.4 11.4 0 1 0-22.8 0m32 0a11.4 11.4 0 1 0 22.8 0 11.4 11.4 0 1 0-22.8 0m128 0a11.4 11.4 0 1 0 22.8 0 11.4 11.4 0 1 0-22.8 0m32 0a11.4 11.4 0 1 0 22.8 0 11.4 11.4 0 1 0-22.8 0m32 0a11.4 11.4 0 1 0 22.8 0 11.4 11.4 0 1 0-22.8 0m-352 32a11.4 11.4 0 1 0 22.8 0 11.4 11.4 0 1 0-22.8 0m32 0a11.4 11.4 0 1 0 22.8 0 11.4 11.4 0 1 0-22.8 0m96 0a11.4 11.4 0 1 0 22.8 0 11.4 11.4 0 1 0-22.8 0m32 0a11.4 11.4 0 1 0 22.8 0 11.4 11.4 0 1 0-22.8 0m128 0a11.4 11.4 0 1 0 22.8 0 11.4 11.4 0 1 0-22.8 0m32 0a11.4 11.4 0 1 0 22.8 0 11.4 11.4 0 1 0-22.8 0m-352 32a11.4 11.4 0 1 0 22.8 0 11.4 11.4 0 1 0-22.8 0m32 0a11.4 11.4 0 1 0 22.8 0 11.4 11.4 0 1 0-22.8 0m128 0a11.4 11.4 0 1 0 22.8 0 11.4 11.4 0 1 0-22.8 0m32 0a11.4 11.4 0 1 0 22.8 0 11.4 11.4 0 1 0-22.8 0m128 0a11.4 11.4 0 1 0 22.8 0 11.4 11.4 0 1 0-22.8 0m32 0a11.4 11.4 0 1 0 22.8 0 11.4 11.4 0 1 0-22.8 0m-352 32a11.4 11.4 0 1 0 22.8 0 11.4 11.4 0 1 0-22.8 0m160 0a11.4 11.4 0 1 0 22.8 0 11.4 11.4 0 1 0-22.8 0m32 0a11.4 11.4 0 1 0 22.8 0 11.4 11.4 0 1 0-22.8 0m96 0a11.4 11.4 0 1 0 22.8 0 11.4 11.4 0 1 0-22.8 0m32 0a11.4 11.4 0 1 0 22.8 0 11.4 11.4 0 1 0-22.8 0m32 0a11.4 11.4 0 1 0 22.8 0 11.4 11.4 0 1 0-22.8 0m-192 32a11.4 11.4 0 1 0 22.8 0 11.4 11.4 0 1 0-22.8 0m32 0a11.4 11.4 0 1 0 22.8 0 11.4 11.4 0 1 0-22.8 0m32 0a11.4 11.4 0 1 0 22.8 0 11.4 11.4 0 1 0-22.8 0m32 0a11.4 11.4 0 1 0 22.8 0 11.4 11.4 0 1 0-22.8 0m32 0a11.4 11.4 0 1 0 22.8 0 11.4 11.4 0 1 0-22.8 0m32 0a11.4 11.4 0 1 0 22.8 0 11.4 11.4 0 1 0-22.8 0m32 0a11.4 11.4 0 1 0 22.8 0 11.4 11.4 0 1 0-22.8 0m-192 32a11.4 11.4 0 1 0 22.8 0 11.4 11.4 0 1 0-22.8 0m32 0a11.4 11.4 0 1 0 22.8 0 11.4 11.4 0 1 0-22.8 0m32 0a11.4 11.4 0 1 0 22.8 0 11.4 11.4 0 1 0-22.8 0m32 0a11.4 11.4 0 1 0 22.8 0 11.4 11.4 0 1 0-22.8 0m32 0a11.4 11.4 0 1 0 22.8 0 11.4 11.4 0 1 0-22.8 0m32 0a11.4 11.4 0 1 0 22.8 0 11.4 11.4 0 1 0-22.8 0m32 0a11.4 11.4 0 1 0 22.8 0 11.4 11.4 0 1 0-22.8 0m-224 32a11.4 11.4 0 1 0 22.8 0 11.4 11.4 0 1 0-22.8 0m32 0a11.4 11.4 0 1 0 22.8 0 11.4 11.4 0 1 0-22.8 0m32 0a11.4 11.4 0 1 0 22.8 0 11.4 11.4 0 1 0-22.8 0m32 0a11.4 11.4 0 1 0 22.8 0 11.4 11.4 0 1 0-22.8 0m32 0a11.4 11.4 0 1 0 22.8 0 11.4 11.4 0 1 0-22.8 0m32 0a11.4 11.4 0 1 0 22.8 0 11.4 11.4 0 1 0-22.8 0m32 0a11.4 11.4 0 1 0 22.8 0 11.4 11.4 0 1 0-22.8 0m-192 32a11.4 11.4 0 1 0 22.8 0 11.4 11.4 0 1 0-22.8 0m32 0a11.4 11.4 0 1 0 22.8 0 11.4 11.4 0 1 0-22.8 0m32 0a11.4 11.4 0 1 0 22.8 0 11.4 11.4 0 1 0-22.8 0m96 0a11.4 11.4 0 1 0 22.8 0 11.4 11.4 0 1 0-22.8 0m32 0a11.4 11.4 0 1 0 22.8 0 11.4 11.4 0 1 0-22.8 0m-192 32a11.4 11.4 0 1 0 22.8 0 11.4 11.4 0 1 0-22.8 0m32 0a11.4 11.4 0 1 0 22.8 0 11.4 11.4 0 1 0-22.8 0m32 0a11.4 11.4 0 1 0 22.8 0 11.4 11.4 0 1 0-22.8 0m96 0a11.4 11.4 0 1 0 22.8 0 11.4 11.4 0 1 0-22.8 0m32 0a11.4 11.4 0 1 0 22.8 0 11.4 11.4 0 1 0-22.8 0m160 0a11.4 11.4 0 1 0 22.8 0 11.4 11.4 0 1 0-22.8 0m-352 32a11.4 11.4 0 1 0 22.8 0 11.4 11.4 0 1 0-22.8 0m32 0a11.4 11.4 0 1 0 22.8 0 11.4 11.4 0 1 0-22.8 0m128 0a11.4 11.4 0 1 0 22.8 0 11.4 11.4 0 1 0-22.8 0m32 0a11.4 11.4 0 1 0 22.8 0 11.4 11.4 0 1 0-22.8 0m128 0a11.4 11.4 0 1 0 22.8 0 11.4 11.4 0 1 0-22.8 0m32 0a11.4 11.4 0 1 0 22.8 0 11.4 11.4 0 1 0-22.8 0m-352 32a11.4 11.4 0 1 0 22.8 0 11.4 11.4 0 1 0-22.8 0m32 0a11.4 11.4 0 1 0 22.8 0 11.4 11.4 0 1 0-22.8 0m128 0a11.4 11.4 0 1 0 22.8 0 11.4 11.4 0 1 0-22.8 0m32 0a11.4 11.4 0 1 0 22.8 0 11.4 11.4 0 1 0-22.8 0m96 0a11.4 11.4 0 1 0 22.8 0 11.4 11.4 0 1 0-22.8 0m32 0a11.4 11.4 0 1 0 22.8 0 11.4 11.4 0 1 0-22.8 0m-352 32a11.4 11.4 0 1 0 22.8 0 11.4 11.4 0 1 0-22.8 0m32 0a11.4 11.4 0 1 0 22.8 0 11.4 11.4 0 1 0-22.8 0m32 0a11.4 11.4 0 1 0 22.8 0 11.4 11.4 0 1 0-22.8 0m128 0a11.4 11.4 0 1 0 22.8 0 11.4 11.4 0 1 0-22.8 0m32 0a11.4 11.4 0 1 0 22.8 0 11.4 11.4 0 1 0-22.8 0m32 0a11.4 11.4 0 1 0 22.8 0 11.4 11.4 0 1 0-22.8 0m32 0a11.4 11.4 0 1 0 22.8 0 11.4 11.4 0 1 0-22.8 0m32 0a11.4 11.4 0 1 0 22.8 0 11.4 11.4 0 1 0-22.8 0m32 0a11.4 11.4 0 1 0 22.8 0 11.4 11.4 0 1 0-22.8 0m-352 32a11.4 11.4 0 1 0 22.8 0 11.4 11.4 0 1 0-22.8 0m32 0a11.4 11.4 0 1 0 22.8 0 11.4 11.4 0 1 0-22.8 0m32 0a11.4 11.4 0 1 0 22.8 0 11.4 11.4 0 1 0-22.8 0m128 0a11.4 11.4 0 1 0 22.8 0 11.4 11.4 0 1 0-22.8 0m32 0a11.4 11.4 0 1 0 22.8 0 11.4 11.4 0 1 0-22.8 0m32 0a11.4 11.4 0 1 0 22.8 0 11.4 11.4 0 1 0-22.8 0m32 0a11.4 11.4 0 1 0 22.8 0 11.4 11.4 0 1 0-22.8 0m32 0a11.4 11.4 0 1 0 22.8 0 11.4 11.4 0 1 0-22.8 0m-320 32a11.4 11.4 0 1 0 22.8 0 11.4 11.4 0 1 0-22.8 0m32 0a11.4 11.4 0 1 0 22.8 0 11.4 11.4 0 1 0-22.8 0m192 0a11.4 11.4 0 1 0 22.8 0 11.4 11.4 0 1 0-22.8 0m32 0a11.4 11.4 0 1 0 22.8 0 11.4 11.4 0 1 0-22.8 0m32 0a11.4 11.4 0 1 0 22.8 0 11.4 11.4 0 1 0-22.8 0"/></svg>