<svg xmlns="http://www.w3.org/2000/svg" viewBox="0 0 512 512"><path d="M100.6 144a11.4 11.4 0 1 0 22.8 0 11.4 11.4 0 1 0-22.8 0zm32 0a11.4 11.4 0 1 0 22.8 0 11.4 11.4 0 1 0-22.8 0zm32 0a11.4 11.4 0 1 0 22.8 0 11.4 11.4 0 1 0-22.8 0zm32 0a11.4 11.4 0 1 0 22.8 0 11.4 11.4 0 1 0-22.8 0zm32 0a11.4 11.4 0 1 0 22.8 0 11.4 11.4 0 1 0-22.8 0zm32 0a11.4 11.4 0 1 0 22.8 0 11.4 11.4 0 1 0-22.8 0zm32 0a11.4 11.4 0 1 0 22.8 0 11.4 11.4 0 1 0-22.8 0zm32 0a11.4 11.4 0 1 0 22.8 0 11.4 11.4 0 1 0-22.8 0zm32 0a11.4 11.4 0 1 0 22.8 0 11.4 11.4 0 1 0-22.8 0zm32 0a11.4 11.4 0 1 0 22.8 0 11.4 11.4 0 1 0-22.8 0zm-288 32a11.4 11.4 0 1 0 22.8 0 11.4 11.4 0 1 0-22.8 0zm32 0a11.4 11.4 0 1 0 22.8 0 11.4 11.4 0 1 0-22.8 0zm32 0a11.4 11.4 0 1 0 22.8 0 11.4 11.4 0 1 0-22.8 0zm32 0a11.4 11.4 0 1 0 22.8 0 11.4 11.4 0 1 0-22.8 0zm32 0a11.4 11.4 0 1 0 22.8 0 11.4 11.4 0 1 0-22.8 0zm32 0a11.4 11.4 0 1 0 22.8 0 11.4 11.4 0 1 0-22.8 0zm32 0a11.4 11.4 0 1 0 22.8 0 11.4 11.4 0 1 0-22.8 0zm32 0a11.4 11.4 0 1 0 22.8 0 11.4 11.4 0 1 0-22.8 0zm32 0a11.4 11.4 0 1 0 22.8 0 11.4 11.4 0 1 0-22.8 0zm32 0a11.4 11.4 0 1 0 22.8 0 11.4 11.4 0 1 0-22.8 0zm-288 64a11.4 11.4 0 1 0 22.8 0 11.4 11.4 0 1 0-22.8 0zm32 0a11.4 11.4 0 1 0 22.8 0 11.4 11.4 0 1 0-22.8 0zm32 0a11.4 11.4 0 1 0 22.8 0 11.4 11.4 0 1 0-22.8 0zm32 0a11.4 11.4 0 1 0 22.8 0 11.4 11.4 0 1 0-22.8 0zm32 0a11.4 11.4 0 1 0 22.8 0 11.4 11.4 0 1 0-22.8 0zm32 0a11.4 11.4 0 1 0 22.8 0 11.4 11.4 0 1 0-22.8 0zm32 0a11.4 11.4 0 1 0 22.8 0 11.4 11.4 0 1 0-22.8 0zm32 0a11.4 11.4 0 1 0 22.8 0 11.4 11.4 0 1 0-22.8 0zm32 0a11.4 11.4 0 1 0 22.8 0 11.4 11.4 0 1 0-22.8 0zm32 0a11.4 11.4 0 1 0 22.8 0 11.4 11.4 0 1 0-22.8 0zm-288 32a11.4 11.4 0 1 0 22.8 0 11.4 11.4 0 1 0-22.8 0zm32 0a11.4 11.4 0 1 0 22.8 0 11.4 11.4 0 1 0-22.8 0zm32 0a11.4 11.4 0 1 0 22.8 0 11.4 11.4 0 1 0-22.8 0zm32 0a11.4 11.4 0 1 0 22.8 0 11.4 11.4 0 1 0-22.8 0zm32 0a11.4 11.4 0 1 0 22.8 0 11.4 11.4 0 1 0-22.8 0zm32 0a11.4 11.4 0 1 0 22.8 0 11.4 11.4 0 1 0-22.8 0zm32 0a11.4 11.4 0 1 0 22.8 0 11.4 11.4 0 1 0-22.8 0zm32 0a11.4 11.4 0 1 0 22.8 0 11.4 11.4 0 1 0-22.8 0zm32 0a11.4 11.4 0 1 0 22.8 0 11.4 11.4 0 1 0-22.8 0zm32 0a11.4 11.4 0 1 0 22.8 0 11.4 11.4 0 1 0-22.8 0zm-288 64a11.4 11.4 0 1 0 22.8 0 11.4 11.4 0 1 0-22.8 0zm32 0a11.4 11.4 0 1 0 22.8 0 11.4 11.4 0 1 0-22.8 0zm32 0a11.4 11.4 0 1 0 22.8 0 11.4 11.4 0 1 0-22.8 0zm32 0a11.4 11.4 0 1 0 22.8 0 11.4 11.4 0 1 0-22.8 0zm32 0a11.4 11.4 0 1 0 22.8 0 11.4 11.4 0 1 0-22.8 0zm32 0a11.4 11.4 0 1 0 22.8 0 11.4 11.4 0 1 0-22.8 0zm32 0a11.4 11.4 0 1 0 22.8 0 11.4 11.4 0 1 0-22.8 0zm32 0a11.4 11.4 0 1 0 22.8 0 11.4 11.4 0 1 0-22.8 0zm32 0a11.4 11.4 0 1 0 22.8 0 11.4 11.4 0 1 0-22.8 0zm32 0a11.4 11.4 0 1 0 22.8 0 11.4 11.4 0 1 0-22.8 0zm-288 32a11.4 11.4 0 1 0 22.8 0 11.4 11.4 0 1 0-22.8 0zm32 0a11.4 11.4 0 1 0 22.8 0 11.4 11.4 0 1 0-22.8 0zm32 0a11.4 11.4 0 1 0 22.8 0 11.4 11.4 0 1 0-22.8 0zm32 0a11.4 11.4 0 1 0 22.8 0 11.4 11.4 0 1 0-22.8 0zm32 0a11.4 11.4 0 1 0 22.8 0 11.4 11.4 0 1 0-22.8 0zm32 0a11.4 11.4 0 1 0 22.8 0 11.4 11.4 0 1 0-22.8 0zm32 0a11.4 11.4 0 1 0 22.8 0 11.4 11.4 0 1 0-22.8 0zm32 0a11.4 11.4 0 1 0 22.8 0 11.4 11.4 0 1 0-22.8 0zm32 0a11.4 11.4 0 1 0 22.8 0 11.4 11.4 0 1 0-22.8 0zm32 0a11.4 11.4 0 1 0 22.8 0 11.4 11.4 0 1 0-22.8 0z"/></svg>