<svg xmlns="http://www.w3.org/2000/svg" viewBox="0 0 512 512"><path d="M100.6 80a11.4 11.4 0 1 0 22.8 0 11.4 11.4 0 1 0-22.8 0m32 0a11.4 11.4 0 1 0 22.8 0 11.4 11.4 0 1 0-22.8 0m32 0a11.4 11.4 0 1 0 22.8 0 11.4 11.4 0 1 0-22.8 0m32 0a11.4 11.4 0 1 0 22.8 0 11.4 11.4 0 1 0-22.8 0m32 0a11.4 11.4 0 1 0 22.8 0 11.4 11.4 0 1 0-22.8 0m32 0a11.4 11.4 0 1 0 22.8 0 11.4 11.4 0 1 0-22.8 0m32 0a11.4 11.4 0 1 0 22.8 0 11.4 11.4 0 1 0-22.8 0m32 0a11.4 11.4 0 1 0 22.8 0 11.4 11.4 0 1 0-22.8 0m32 0a11.4 11.4 0 1 0 22.8 0 11.4 11.4 0 1 0-22.8 0m32 0a11.4 11.4 0 1 0 22.8 0 11.4 11.4 0 1 0-22.8 0m-320 32a11.4 11.4 0 1 0 22.8 0 11.4 11.4 0 1 0-22.8 0m32 0a11.4 11.4 0 1 0 22.8 0 11.4 11.4 0 1 0-22.8 0m288 0a11.4 11.4 0 1 0 22.8 0 11.4 11.4 0 1 0-22.8 0m32 0a11.4 11.4 0 1 0 22.8 0 11.4 11.4 0 1 0-22.8 0m-384 32a11.4 11.4 0 1 0 22.8 0 11.4 11.4 0 1 0-22.8 0m32 0a11.4 11.4 0 1 0 22.8 0 11.4 11.4 0 1 0-22.8 0m352 0a11.4 11.4 0 1 0 22.8 0 11.4 11.4 0 1 0-22.8 0m32 0a11.4 11.4 0 1 0 22.8 0 11.4 11.4 0 1 0-22.8 0m-448 32a11.4 11.4 0 1 0 22.8 0 11.4 11.4 0 1 0-22.8 0m32 0a11.4 11.4 0 1 0 22.8 0 11.4 11.4 0 1 0-22.8 0m32 0a11.4 11.4 0 1 0 22.8 0 11.4 11.4 0 1 0-22.8 0m32 0a11.4 11.4 0 1 0 22.8 0 11.4 11.4 0 1 0-22.8 0m288 0a11.4 11.4 0 1 0 22.8 0 11.4 11.4 0 1 0-22.8 0m32 0a11.4 11.4 0 1 0 22.8 0 11.4 11.4 0 1 0-22.8 0m32 0a11.4 11.4 0 1 0 22.8 0 11.4 11.4 0 1 0-22.8 0m32 0a11.4 11.4 0 1 0 22.8 0 11.4 11.4 0 1 0-22.8 0m-480 32a11.4 11.4 0 1 0 22.8 0 11.4 11.4 0 1 0-22.8 0m32 0a11.4 11.4 0 1 0 22.8 0 11.4 11.4 0 1 0-22.8 0m32 0a11.4 11.4 0 1 0 22.8 0 11.4 11.4 0 1 0-22.8 0m32 0a11.4 11.4 0 1 0 22.8 0 11.4 11.4 0 1 0-22.8 0m32 0a11.4 11.4 0 1 0 22.8 0 11.4 11.4 0 1 0-22.8 0m32 0a11.4 11.4 0 1 0 22.8 0 11.4 11.4 0 1 0-22.8 0m160 0a11.4 11.4 0 1 0 22.8 0 11.4 11.4 0 1 0-22.8 0m32 0a11.4 11.4 0 1 0 22.8 0 11.4 11.4 0 1 0-22.8 0m32 0a11.4 11.4 0 1 0 22.8 0 11.4 11.4 0 1 0-22.8 0m32 0a11.4 11.4 0 1 0 22.8 0 11.4 11.4 0 1 0-22.8 0m32 0a11.4 11.4 0 1 0 22.8 0 11.4 11.4 0 1 0-22.8 0m32 0a11.4 11.4 0 1 0 22.8 0 11.4 11.4 0 1 0-22.8 0m-480 32a11.4 11.4 0 1 0 22.8 0 11.4 11.4 0 1 0-22.8 0m32 0a11.4 11.4 0 1 0 22.8 0 11.4 11.4 0 1 0-22.8 0m96 0a11.4 11.4 0 1 0 22.8 0 11.4 11.4 0 1 0-22.8 0m32 0a11.4 11.4 0 1 0 22.8 0 11.4 11.4 0 1 0-22.8 0m32 0a11.4 11.4 0 1 0 22.8 0 11.4 11.4 0 1 0-22.8 0m96 0a11.4 11.4 0 1 0 22.8 0 11.4 11.4 0 1 0-22.8 0m32 0a11.4 11.4 0 1 0 22.8 0 11.4 11.4 0 1 0-22.8 0m32 0a11.4 11.4 0 1 0 22.8 0 11.4 11.4 0 1 0-22.8 0m96 0a11.4 11.4 0 1 0 22.8 0 11.4 11.4 0 1 0-22.8 0m32 0a11.4 11.4 0 1 0 22.8 0 11.4 11.4 0 1 0-22.8 0m-480 32a11.4 11.4 0 1 0 22.8 0 11.4 11.4 0 1 0-22.8 0m32 0a11.4 11.4 0 1 0 22.8 0 11.4 11.4 0 1 0-22.8 0m160 0a11.4 11.4 0 1 0 22.8 0 11.4 11.4 0 1 0-22.8 0m32 0a11.4 11.4 0 1 0 22.8 0 11.4 11.4 0 1 0-22.8 0m32 0a11.4 11.4 0 1 0 22.8 0 11.4 11.4 0 1 0-22.8 0m32 0a11.4 11.4 0 1 0 22.8 0 11.4 11.4 0 1 0-22.8 0m160 0a11.4 11.4 0 1 0 22.8 0 11.4 11.4 0 1 0-22.8 0m32 0a11.4 11.4 0 1 0 22.8 0 11.4 11.4 0 1 0-22.8 0m-480 32a11.4 11.4 0 1 0 22.8 0 11.4 11.4 0 1 0-22.8 0m32 0a11.4 11.4 0 1 0 22.8 0 11.4 11.4 0 1 0-22.8 0m192 0a11.4 11.4 0 1 0 22.8 0 11.4 11.4 0 1 0-22.8 0m32 0a11.4 11.4 0 1 0 22.8 0 11.4 11.4 0 1 0-22.8 0m192 0a11.4 11.4 0 1 0 22.8 0 11.4 11.4 0 1 0-22.8 0m32 0a11.4 11.4 0 1 0 22.8 0 11.4 11.4 0 1 0-22.8 0m-480 32a11.4 11.4 0 1 0 22.8 0 11.4 11.4 0 1 0-22.8 0m32 0a11.4 11.4 0 1 0 22.8 0 11.4 11.4 0 1 0-22.8 0m416 0a11.4 11.4 0 1 0 22.8 0 11.4 11.4 0 1 0-22.8 0m32 0a11.4 11.4 0 1 0 22.8 0 11.4 11.4 0 1 0-22.8 0m-448 32a11.4 11.4 0 1 0 22.8 0 11.4 11.4 0 1 0-22.8 0m32 0a11.4 11.4 0 1 0 22.8 0 11.4 11.4 0 1 0-22.8 0m352 0a11.4 11.4 0 1 0 22.8 0 11.4 11.4 0 1 0-22.8 0m32 0a11.4 11.4 0 1 0 22.8 0 11.4 11.4 0 1 0-22.8 0m-384 32a11.4 11.4 0 1 0 22.8 0 11.4 11.4 0 1 0-22.8 0m32 0a11.4 11.4 0 1 0 22.8 0 11.4 11.4 0 1 0-22.8 0m288 0a11.4 11.4 0 1 0 22.8 0 11.4 11.4 0 1 0-22.8 0m32 0a11.4 11.4 0 1 0 22.8 0 11.4 11.4 0 1 0-22.8 0m-320 32a11.4 11.4 0 1 0 22.8 0 11.4 11.4 0 1 0-22.8 0m32 0a11.4 11.4 0 1 0 22.8 0 11.4 11.4 0 1 0-22.8 0m32 0a11.4 11.4 0 1 0 22.8 0 11.4 11.4 0 1 0-22.8 0m32 0a11.4 11.4 0 1 0 22.8 0 11.4 11.4 0 1 0-22.8 0m32 0a11.4 11.4 0 1 0 22.8 0 11.4 11.4 0 1 0-22.8 0m32 0a11.4 11.4 0 1 0 22.8 0 11.4 11.4 0 1 0-22.8 0m32 0a11.4 11.4 0 1 0 22.8 0 11.4 11.4 0 1 0-22.8 0m32 0a11.4 11.4 0 1 0 22.8 0 11.4 11.4 0 1 0-22.8 0m32 0a11.4 11.4 0 1 0 22.8 0 11.4 11.4 0 1 0-22.8 0m32 0a11.4 11.4 0 1 0 22.8 0 11.4 11.4 0 1 0-22.8 0"/></svg>