<svg xmlns="http://www.w3.org/2000/svg" viewBox="0 0 512 512"><path d="M100.6 16a11.4 11.4 0 1 0 22.8 0 11.4 11.4 0 1 0-22.8 0zm32 0a11.4 11.4 0 1 0 22.8 0 11.4 11.4 0 1 0-22.8 0zm32 0a11.4 11.4 0 1 0 22.8 0 11.4 11.4 0 1 0-22.8 0zm32 0a11.4 11.4 0 1 0 22.8 0 11.4 11.4 0 1 0-22.8 0zm32 0a11.4 11.4 0 1 0 22.8 0 11.4 11.4 0 1 0-22.8 0zm32 0a11.4 11.4 0 1 0 22.8 0 11.4 11.4 0 1 0-22.8 0zm32 0a11.4 11.4 0 1 0 22.8 0 11.4 11.4 0 1 0-22.8 0zm32 0a11.4 11.4 0 1 0 22.8 0 11.4 11.4 0 1 0-22.8 0zm32 0a11.4 11.4 0 1 0 22.8 0 11.4 11.4 0 1 0-22.8 0zm-256 32a11.4 11.4 0 1 0 22.8 0 11.4 11.4 0 1 0-22.8 0zm32 0a11.4 11.4 0 1 0 22.8 0 11.4 11.4 0 1 0-22.8 0zm32 0a11.4 11.4 0 1 0 22.8 0 11.4 11.4 0 1 0-22.8 0zm32 0a11.4 11.4 0 1 0 22.8 0 11.4 11.4 0 1 0-22.8 0zm32 0a11.4 11.4 0 1 0 22.8 0 11.4 11.4 0 1 0-22.8 0zm32 0a11.4 11.4 0 1 0 22.8 0 11.4 11.4 0 1 0-22.8 0zm32 0a11.4 11.4 0 1 0 22.8 0 11.4 11.4 0 1 0-22.8 0zm32 0a11.4 11.4 0 1 0 22.8 0 11.4 11.4 0 1 0-22.8 0zm32 0a11.4 11.4 0 1 0 22.8 0 11.4 11.4 0 1 0-22.8 0zm32 0a11.4 11.4 0 1 0 22.8 0 11.4 11.4 0 1 0-22.8 0zm-288 32a11.4 11.4 0 1 0 22.8 0 11.4 11.4 0 1 0-22.8 0zm32 0a11.4 11.4 0 1 0 22.8 0 11.4 11.4 0 1 0-22.8 0zm32 0a11.4 11.4 0 1 0 22.8 0 11.4 11.4 0 1 0-22.8 0zm32 0a11.4 11.4 0 1 0 22.8 0 11.4 11.4 0 1 0-22.8 0zm32 0a11.4 11.4 0 1 0 22.8 0 11.4 11.4 0 1 0-22.8 0zm32 0a11.4 11.4 0 1 0 22.8 0 11.4 11.4 0 1 0-22.8 0zm32 0a11.4 11.4 0 1 0 22.8 0 11.4 11.4 0 1 0-22.8 0zm32 0a11.4 11.4 0 1 0 22.8 0 11.4 11.4 0 1 0-22.8 0zm32 0a11.4 11.4 0 1 0 22.8 0 11.4 11.4 0 1 0-22.8 0zm32 0a11.4 11.4 0 1 0 22.8 0 11.4 11.4 0 1 0-22.8 0zm-288 32a11.4 11.4 0 1 0 22.8 0 11.4 11.4 0 1 0-22.8 0zm32 0a11.4 11.4 0 1 0 22.8 0 11.4 11.4 0 1 0-22.8 0zm32 0a11.4 11.4 0 1 0 22.8 0 11.4 11.4 0 1 0-22.8 0zm32 0a11.4 11.4 0 1 0 22.8 0 11.4 11.4 0 1 0-22.8 0zm32 0a11.4 11.4 0 1 0 22.8 0 11.4 11.4 0 1 0-22.8 0zm32 0a11.4 11.4 0 1 0 22.8 0 11.4 11.4 0 1 0-22.8 0zm32 0a11.4 11.4 0 1 0 22.8 0 11.4 11.4 0 1 0-22.8 0zm32 0a11.4 11.4 0 1 0 22.8 0 11.4 11.4 0 1 0-22.8 0zm32 0a11.4 11.4 0 1 0 22.8 0 11.4 11.4 0 1 0-22.8 0zm32 0a11.4 11.4 0 1 0 22.8 0 11.4 11.4 0 1 0-22.8 0zm-288 32a11.4 11.4 0 1 0 22.8 0 11.4 11.4 0 1 0-22.8 0zm32 0a11.4 11.4 0 1 0 22.8 0 11.4 11.4 0 1 0-22.8 0zm32 0a11.4 11.4 0 1 0 22.8 0 11.4 11.4 0 1 0-22.8 0zm32 0a11.4 11.4 0 1 0 22.8 0 11.4 11.4 0 1 0-22.8 0zm32 0a11.4 11.4 0 1 0 22.8 0 11.4 11.4 0 1 0-22.8 0zm32 0a11.4 11.4 0 1 0 22.8 0 11.4 11.4 0 1 0-22.8 0zm32 0a11.4 11.4 0 1 0 22.8 0 11.4 11.4 0 1 0-22.8 0zm32 0a11.4 11.4 0 1 0 22.8 0 11.4 11.4 0 1 0-22.8 0zm32 0a11.4 11.4 0 1 0 22.8 0 11.4 11.4 0 1 0-22.8 0zm32 0a11.4 11.4 0 1 0 22.8 0 11.4 11.4 0 1 0-22.8 0zm-288 32a11.4 11.4 0 1 0 22.8 0 11.4 11.4 0 1 0-22.8 0zm32 0a11.4 11.4 0 1 0 22.8 0 11.4 11.4 0 1 0-22.8 0zm32 0a11.4 11.4 0 1 0 22.8 0 11.4 11.4 0 1 0-22.8 0zm32 0a11.4 11.4 0 1 0 22.8 0 11.4 11.4 0 1 0-22.8 0zm32 0a11.4 11.4 0 1 0 22.8 0 11.4 11.4 0 1 0-22.8 0zm32 0a11.4 11.4 0 1 0 22.8 0 11.4 11.4 0 1 0-22.8 0zm32 0a11.4 11.4 0 1 0 22.8 0 11.4 11.4 0 1 0-22.8 0zm32 0a11.4 11.4 0 1 0 22.8 0 11.4 11.4 0 1 0-22.8 0zm32 0a11.4 11.4 0 1 0 22.8 0 11.4 11.4 0 1 0-22.8 0zm32 0a11.4 11.4 0 1 0 22.8 0 11.4 11.4 0 1 0-22.8 0zm64 0a11.4 11.4 0 1 0 22.8 0 11.4 11.4 0 1 0-22.8 0zm-384 32a11.4 11.4 0 1 0 22.8 0 11.4 11.4 0 1 0-22.8 0zm32 0a11.4 11.4 0 1 0 22.8 0 11.4 11.4 0 1 0-22.8 0zm32 0a11.4 11.4 0 1 0 22.8 0 11.4 11.4 0 1 0-22.8 0zm32 0a11.4 11.4 0 1 0 22.8 0 11.4 11.4 0 1 0-22.8 0zm32 0a11.4 11.4 0 1 0 22.8 0 11.4 11.4 0 1 0-22.8 0zm32 0a11.4 11.4 0 1 0 22.8 0 11.4 11.4 0 1 0-22.8 0zm32 0a11.4 11.4 0 1 0 22.8 0 11.4 11.4 0 1 0-22.8 0zm32 0a11.4 11.4 0 1 0 22.8 0 11.4 11.4 0 1 0-22.8 0zm32 0a11.4 11.4 0 1 0 22.8 0 11.4 11.4 0 1 0-22.8 0zm32 0a11.4 11.4 0 1 0 22.8 0 11.4 11.4 0 1 0-22.8 0zm32 0a11.4 11.4 0 1 0 22.8 0 11.4 11.4 0 1 0-22.8 0zm64 0a11.4 11.4 0 1 0 22.8 0 11.4 11.4 0 1 0-22.8 0zm-384 32a11.4 11.4 0 1 0 22.8 0 11.4 11.4 0 1 0-22.8 0zm32 0a11.4 11.4 0 1 0 22.8 0 11.4 11.4 0 1 0-22.8 0zm32 0a11.4 11.4 0 1 0 22.8 0 11.4 11.4 0 1 0-22.8 0zm32 0a11.4 11.4 0 1 0 22.8 0 11.4 11.4 0 1 0-22.8 0zm32 0a11.4 11.4 0 1 0 22.8 0 11.4 11.4 0 1 0-22.8 0zm32 0a11.4 11.4 0 1 0 22.8 0 11.4 11.4 0 1 0-22.8 0zm32 0a11.4 11.4 0 1 0 22.8 0 11.4 11.4 0 1 0-22.8 0zm32 0a11.4 11.4 0 1 0 22.8 0 11.4 11.4 0 1 0-22.8 0zm32 0a11.4 11.4 0 1 0 22.8 0 11.4 11.4 0 1 0-22.8 0zm32 0a11.4 11.4 0 1 0 22.8 0 11.4 11.4 0 1 0-22.8 0zm64 0a11.4 11.4 0 1 0 22.8 0 11.4 11.4 0 1 0-22.8 0zm32 0a11.4 11.4 0 1 0 22.8 0 11.4 11.4 0 1 0-22.8 0zm-384 32a11.4 11.4 0 1 0 22.8 0 11.4 11.4 0 1 0-22.8 0zm32 0a11.4 11.4 0 1 0 22.8 0 11.4 11.4 0 1 0-22.8 0zm32 0a11.4 11.4 0 1 0 22.8 0 11.4 11.4 0 1 0-22.8 0zm32 0a11.4 11.4 0 1 0 22.8 0 11.4 11.4 0 1 0-22.8 0zm32 0a11.4 11.4 0 1 0 22.8 0 11.4 11.4 0 1 0-22.8 0zm32 0a11.4 11.4 0 1 0 22.8 0 11.4 11.4 0 1 0-22.8 0zm32 0a11.4 11.4 0 1 0 22.8 0 11.4 11.4 0 1 0-22.8 0zm128 0a11.4 11.4 0 1 0 22.8 0 11.4 11.4 0 1 0-22.8 0zm32 0a11.4 11.4 0 1 0 22.8 0 11.4 11.4 0 1 0-22.8 0zm-352 32a11.4 11.4 0 1 0 22.8 0 11.4 11.4 0 1 0-22.8 0zm32 0a11.4 11.4 0 1 0 22.8 0 11.4 11.4 0 1 0-22.8 0zm32 0a11.4 11.4 0 1 0 22.8 0 11.4 11.4 0 1 0-22.8 0zm160 0a11.4 11.4 0 1 0 22.8 0 11.4 11.4 0 1 0-22.8 0zm32 0a11.4 11.4 0 1 0 22.8 0 11.4 11.4 0 1 0-22.8 0zm32 0a11.4 11.4 0 1 0 22.8 0 11.4 11.4 0 1 0-22.8 0zm32 0a11.4 11.4 0 1 0 22.8 0 11.4 11.4 0 1 0-22.8 0zm32 0a11.4 11.4 0 1 0 22.8 0 11.4 11.4 0 1 0-22.8 0zm-352 32a11.4 11.4 0 1 0 22.8 0 11.4 11.4 0 1 0-22.8 0zm32 0a11.4 11.4 0 1 0 22.8 0 11.4 11.4 0 1 0-22.8 0zm32 0a11.4 11.4 0 1 0 22.8 0 11.4 11.4 0 1 0-22.8 0zm64 0a11.4 11.4 0 1 0 22.8 0 11.4 11.4 0 1 0-22.8 0zm32 0a11.4 11.4 0 1 0 22.8 0 11.4 11.4 0 1 0-22.8 0zm32 0a11.4 11.4 0 1 0 22.8 0 11.4 11.4 0 1 0-22.8 0zm32 0a11.4 11.4 0 1 0 22.8 0 11.4 11.4 0 1 0-22.8 0zm32 0a11.4 11.4 0 1 0 22.8 0 11.4 11.4 0 1 0-22.8 0zm32 0a11.4 11.4 0 1 0 22.8 0 11.4 11.4 0 1 0-22.8 0zm32 0a11.4 11.4 0 1 0 22.8 0 11.4 11.4 0 1 0-22.8 0zm-320 32a11.4 11.4 0 1 0 22.8 0 11.4 11.4 0 1 0-22.8 0zm32 0a11.4 11.4 0 1 0 22.8 0 11.4 11.4 0 1 0-22.8 0zm32 0a11.4 11.4 0 1 0 22.8 0 11.4 11.4 0 1 0-22.8 0zm64 0a11.4 11.4 0 1 0 22.8 0 11.4 11.4 0 1 0-22.8 0zm32 0a11.4 11.4 0 1 0 22.8 0 11.4 11.4 0 1 0-22.8 0zm32 0a11.4 11.4 0 1 0 22.8 0 11.4 11.4 0 1 0-22.8 0zm-192 32a11.4 11.4 0 1 0 22.8 0 11.4 11.4 0 1 0-22.8 0zm32 0a11.4 11.4 0 1 0 22.8 0 11.4 11.4 0 1 0-22.8 0zm32 0a11.4 11.4 0 1 0 22.8 0 11.4 11.4 0 1 0-22.8 0zm64 0a11.4 11.4 0 1 0 22.8 0 11.4 11.4 0 1 0-22.8 0zm32 0a11.4 11.4 0 1 0 22.8 0 11.4 11.4 0 1 0-22.8 0zm32 0a11.4 11.4 0 1 0 22.8 0 11.4 11.4 0 1 0-22.8 0zm-192 32a11.4 11.4 0 1 0 22.8 0 11.4 11.4 0 1 0-22.8 0zm32 0a11.4 11.4 0 1 0 22.8 0 11.4 11.4 0 1 0-22.8 0zm32 0a11.4 11.4 0 1 0 22.8 0 11.4 11.4 0 1 0-22.8 0zm64 0a11.4 11.4 0 1 0 22.8 0 11.4 11.4 0 1 0-22.8 0zm32 0a11.4 11.4 0 1 0 22.8 0 11.4 11.4 0 1 0-22.8 0zm-32 32a11.4 11.4 0 1 0 22.8 0 11.4 11.4 0 1 0-22.8 0zm32 0a11.4 11.4 0 1 0 22.8 0 11.4 11.4 0 1 0-22.8 0zm-32 32a11.4 11.4 0 1 0 22.8 0 11.4 11.4 0 1 0-22.8 0zm32 0a11.4 11.4 0 1 0 22.8 0 11.4 11.4 0 1 0-22.8 0z"/></svg>