<svg xmlns="http://www.w3.org/2000/svg" viewBox="0 0 512 512"><path d="M226.3 8a5.7 5.7 0 1 0 11.4 0 5.7 5.7 0 1 0-11.4 0zm16 0a5.7 5.7 0 1 0 11.4 0 5.7 5.7 0 1 0-11.4 0zm16 0a5.7 5.7 0 1 0 11.4 0 5.7 5.7 0 1 0-11.4 0zm16 0a5.7 5.7 0 1 0 11.4 0 5.7 5.7 0 1 0-11.4 0zm-64 16a5.7 5.7 0 1 0 11.4 0 5.7 5.7 0 1 0-11.4 0zm16 0a5.7 5.7 0 1 0 11.4 0 5.7 5.7 0 1 0-11.4 0zm16 0a5.7 5.7 0 1 0 11.4 0 5.7 5.7 0 1 0-11.4 0zm16 0a5.7 5.7 0 1 0 11.4 0 5.7 5.7 0 1 0-11.4 0zm16 0a5.7 5.7 0 1 0 11.4 0 5.7 5.7 0 1 0-11.4 0zm16 0a5.7 5.7 0 1 0 11.4 0 5.7 5.7 0 1 0-11.4 0zm-80 16a5.7 5.7 0 1 0 11.4 0 5.7 5.7 0 1 0-11.4 0zm16 0a5.7 5.7 0 1 0 11.4 0 5.7 5.7 0 1 0-11.4 0zm16 0a5.7 5.7 0 1 0 11.4 0 5.7 5.7 0 1 0-11.4 0zm16 0a5.7 5.7 0 1 0 11.4 0 5.7 5.7 0 1 0-11.4 0zm16 0a5.7 5.7 0 1 0 11.4 0 5.7 5.7 0 1 0-11.4 0zm16 0a5.7 5.7 0 1 0 11.4 0 5.7 5.7 0 1 0-11.4 0zm-96 16a5.7 5.7 0 1 0 11.4 0 5.7 5.7 0 1 0-11.4 0zm16 0a5.7 5.7 0 1 0 11.4 0 5.7 5.7 0 1 0-11.4 0zm16 0a5.7 5.7 0 1 0 11.4 0 5.7 5.7 0 1 0-11.4 0zm16 0a5.7 5.7 0 1 0 11.4 0 5.7 5.7 0 1 0-11.4 0zm16 0a5.7 5.7 0 1 0 11.4 0 5.7 5.7 0 1 0-11.4 0zm16 0a5.7 5.7 0 1 0 11.4 0 5.7 5.7 0 1 0-11.4 0zm16 0a5.7 5.7 0 1 0 11.4 0 5.7 5.7 0 1 0-11.4 0zm16 0a5.7 5.7 0 1 0 11.4 0 5.7 5.7 0 1 0-11.4 0zm-224 16a5.7 5.7 0 1 0 11.4 0 5.7 5.7 0 1 0-11.4 0zm16 0a5.7 5.7 0 1 0 11.4 0 5.7 5.7 0 1 0-11.4 0zm16 0a5.7 5.7 0 1 0 11.4 0 5.7 5.7 0 1 0-11.4 0zm16 0a5.7 5.7 0 1 0 11.4 0 5.7 5.7 0 1 0-11.4 0zm16 0a5.7 5.7 0 1 0 11.4 0 5.7 5.7 0 1 0-11.4 0zm16 0a5.7 5.7 0 1 0 11.4 0 5.7 5.7 0 1 0-11.4 0zm16 0a5.7 5.7 0 1 0 11.4 0 5.7 5.7 0 1 0-11.4 0zm16 0a5.7 5.7 0 1 0 11.4 0 5.7 5.7 0 1 0-11.4 0zm16 0a5.7 5.7 0 1 0 11.4 0 5.7 5.7 0 1 0-11.4 0zm16 0a5.7 5.7 0 1 0 11.4 0 5.7 5.7 0 1 0-11.4 0zm16 0a5.7 5.7 0 1 0 11.4 0 5.7 5.7 0 1 0-11.4 0zm16 0a5.7 5.7 0 1 0 11.4 0 5.7 5.7 0 1 0-11.4 0zm16 0a5.7 5.7 0 1 0 11.4 0 5.7 5.7 0 1 0-11.4 0zm16 0a5.7 5.7 0 1 0 11.4 0 5.7 5.7 0 1 0-11.4 0zm16 0a5.7 5.7 0 1 0 11.4 0 5.7 5.7 0 1 0-11.4 0zm16 0a5.7 5.7 0 1 0 11.4 0 5.7 5.7 0 1 0-11.4 0zm16 0a5.7 5.7 0 1 0 11.4 0 5.7 5.7 0 1 0-11.4 0zm16 0a5.7 5.7 0 1 0 11.4 0 5.7 5.7 0 1 0-11.4 0zm16 0a5.7 5.7 0 1 0 11.4 0 5.7 5.7 0 1 0-11.4 0zm16 0a5.7 5.7 0 1 0 11.4 0 5.7 5.7 0 1 0-11.4 0zm16 0a5.7 5.7 0 1 0 11.4 0 5.7 5.7 0 1 0-11.4 0zm16 0a5.7 5.7 0 1 0 11.4 0 5.7 5.7 0 1 0-11.4 0zm-352 16a5.7 5.7 0 1 0 11.4 0 5.7 5.7 0 1 0-11.4 0zm16 0a5.7 5.7 0 1 0 11.4 0 5.7 5.7 0 1 0-11.4 0zm16 0a5.7 5.7 0 1 0 11.4 0 5.7 5.7 0 1 0-11.4 0zm16 0a5.7 5.7 0 1 0 11.4 0 5.7 5.7 0 1 0-11.4 0zm16 0a5.7 5.7 0 1 0 11.4 0 5.7 5.7 0 1 0-11.4 0zm16 0a5.7 5.7 0 1 0 11.4 0 5.7 5.7 0 1 0-11.4 0zm16 0a5.7 5.7 0 1 0 11.4 0 5.7 5.7 0 1 0-11.4 0zm16 0a5.7 5.7 0 1 0 11.4 0 5.7 5.7 0 1 0-11.4 0zm16 0a5.7 5.7 0 1 0 11.4 0 5.7 5.7 0 1 0-11.4 0zm16 0a5.7 5.7 0 1 0 11.4 0 5.7 5.7 0 1 0-11.4 0zm16 0a5.7 5.7 0 1 0 11.4 0 5.7 5.7 0 1 0-11.4 0zm16 0a5.7 5.7 0 1 0 11.4 0 5.7 5.7 0 1 0-11.4 0zm16 0a5.7 5.7 0 1 0 11.4 0 5.7 5.7 0 1 0-11.4 0zm16 0a5.7 5.7 0 1 0 11.4 0 5.7 5.7 0 1 0-11.4 0zm16 0a5.7 5.7 0 1 0 11.4 0 5.7 5.7 0 1 0-11.4 0zm16 0a5.7 5.7 0 1 0 11.4 0 5.7 5.7 0 1 0-11.4 0zm16 0a5.7 5.7 0 1 0 11.4 0 5.7 5.7 0 1 0-11.4 0zm16 0a5.7 5.7 0 1 0 11.4 0 5.7 5.7 0 1 0-11.4 0zm16 0a5.7 5.7 0 1 0 11.4 0 5.7 5.7 0 1 0-11.4 0zm16 0a5.7 5.7 0 1 0 11.4 0 5.7 5.7 0 1 0-11.4 0zm16 0a5.7 5.7 0 1 0 11.4 0 5.7 5.7 0 1 0-11.4 0zm16 0a5.7 5.7 0 1 0 11.4 0 5.7 5.7 0 1 0-11.4 0zm16 0a5.7 5.7 0 1 0 11.4 0 5.7 5.7 0 1 0-11.4 0zm16 0a5.7 5.7 0 1 0 11.4 0 5.7 5.7 0 1 0-11.4 0zm-368 16a5.7 5.7 0 1 0 11.4 0 5.7 5.7 0 1 0-11.4 0zm16 0a5.7 5.7 0 1 0 11.4 0 5.7 5.7 0 1 0-11.4 0zm16 0a5.7 5.7 0 1 0 11.4 0 5.7 5.7 0 1 0-11.4 0zm16 0a5.7 5.7 0 1 0 11.4 0 5.7 5.7 0 1 0-11.4 0zm16 0a5.7 5.7 0 1 0 11.4 0 5.7 5.7 0 1 0-11.4 0zm16 0a5.7 5.7 0 1 0 11.4 0 5.7 5.7 0 1 0-11.4 0zm16 0a5.7 5.7 0 1 0 11.4 0 5.7 5.7 0 1 0-11.4 0zm16 0a5.7 5.7 0 1 0 11.4 0 5.7 5.7 0 1 0-11.4 0zm16 0a5.7 5.7 0 1 0 11.4 0 5.7 5.7 0 1 0-11.4 0zm16 0a5.7 5.7 0 1 0 11.4 0 5.7 5.7 0 1 0-11.4 0zm16 0a5.7 5.7 0 1 0 11.4 0 5.7 5.7 0 1 0-11.4 0zm16 0a5.7 5.7 0 1 0 11.4 0 5.7 5.7 0 1 0-11.4 0zm16 0a5.7 5.7 0 1 0 11.4 0 5.7 5.7 0 1 0-11.4 0zm16 0a5.7 5.7 0 1 0 11.4 0 5.7 5.7 0 1 0-11.4 0zm16 0a5.7 5.7 0 1 0 11.4 0 5.7 5.7 0 1 0-11.4 0zm16 0a5.7 5.7 0 1 0 11.4 0 5.7 5.7 0 1 0-11.4 0zm16 0a5.7 5.7 0 1 0 11.4 0 5.7 5.7 0 1 0-11.4 0zm16 0a5.7 5.7 0 1 0 11.4 0 5.7 5.7 0 1 0-11.4 0zm16 0a5.7 5.7 0 1 0 11.4 0 5.7 5.7 0 1 0-11.4 0zm16 0a5.7 5.7 0 1 0 11.4 0 5.7 5.7 0 1 0-11.4 0zm16 0a5.7 5.7 0 1 0 11.4 0 5.7 5.7 0 1 0-11.4 0zm16 0a5.7 5.7 0 1 0 11.4 0 5.7 5.7 0 1 0-11.4 0zm16 0a5.7 5.7 0 1 0 11.4 0 5.7 5.7 0 1 0-11.4 0zm16 0a5.7 5.7 0 1 0 11.4 0 5.7 5.7 0 1 0-11.4 0zm-368 16a5.7 5.7 0 1 0 11.4 0 5.7 5.7 0 1 0-11.4 0zm16 0a5.7 5.7 0 1 0 11.4 0 5.7 5.7 0 1 0-11.4 0zm16 0a5.7 5.7 0 1 0 11.4 0 5.7 5.7 0 1 0-11.4 0zm16 0a5.7 5.7 0 1 0 11.4 0 5.7 5.7 0 1 0-11.4 0zm16 0a5.7 5.7 0 1 0 11.4 0 5.7 5.7 0 1 0-11.4 0zm16 0a5.7 5.7 0 1 0 11.4 0 5.7 5.7 0 1 0-11.4 0zm16 0a5.7 5.7 0 1 0 11.4 0 5.7 5.7 0 1 0-11.4 0zm16 0a5.7 5.7 0 1 0 11.4 0 5.7 5.7 0 1 0-11.4 0zm16 0a5.7 5.7 0 1 0 11.4 0 5.7 5.7 0 1 0-11.4 0zm16 0a5.7 5.7 0 1 0 11.4 0 5.7 5.7 0 1 0-11.4 0zm16 0a5.7 5.7 0 1 0 11.4 0 5.7 5.7 0 1 0-11.4 0zm16 0a5.7 5.7 0 1 0 11.4 0 5.7 5.7 0 1 0-11.4 0zm16 0a5.7 5.7 0 1 0 11.4 0 5.7 5.7 0 1 0-11.4 0zm16 0a5.7 5.7 0 1 0 11.4 0 5.7 5.7 0 1 0-11.4 0zm16 0a5.7 5.7 0 1 0 11.4 0 5.7 5.7 0 1 0-11.4 0zm16 0a5.7 5.7 0 1 0 11.4 0 5.7 5.7 0 1 0-11.4 0zm16 0a5.7 5.7 0 1 0 11.4 0 5.7 5.7 0 1 0-11.4 0zm16 0a5.7 5.7 0 1 0 11.4 0 5.7 5.7 0 1 0-11.4 0zm16 0a5.7 5.7 0 1 0 11.4 0 5.7 5.7 0 1 0-11.4 0zm16 0a5.7 5.7 0 1 0 11.4 0 5.7 5.7 0 1 0-11.4 0zm16 0a5.7 5.7 0 1 0 11.4 0 5.7 5.7 0 1 0-11.4 0zm16 0a5.7 5.7 0 1 0 11.4 0 5.7 5.7 0 1 0-11.4 0zm16 0a5.7 5.7 0 1 0 11.4 0 5.7 5.7 0 1 0-11.4 0zm16 0a5.7 5.7 0 1 0 11.4 0 5.7 5.7 0 1 0-11.4 0zm-368 16a5.7 5.7 0 1 0 11.4 0 5.7 5.7 0 1 0-11.4 0zm16 0a5.7 5.7 0 1 0 11.4 0 5.7 5.7 0 1 0-11.4 0zm16 0a5.7 5.7 0 1 0 11.4 0 5.7 5.7 0 1 0-11.4 0zm16 0a5.7 5.7 0 1 0 11.4 0 5.7 5.7 0 1 0-11.4 0zm16 0a5.7 5.7 0 1 0 11.4 0 5.7 5.7 0 1 0-11.4 0zm16 0a5.7 5.7 0 1 0 11.4 0 5.7 5.7 0 1 0-11.4 0zm16 0a5.7 5.7 0 1 0 11.4 0 5.7 5.7 0 1 0-11.4 0zm16 0a5.7 5.7 0 1 0 11.4 0 5.7 5.7 0 1 0-11.4 0zm16 0a5.7 5.7 0 1 0 11.4 0 5.7 5.7 0 1 0-11.4 0zm16 0a5.7 5.7 0 1 0 11.4 0 5.7 5.7 0 1 0-11.4 0zm16 0a5.7 5.7 0 1 0 11.4 0 5.7 5.7 0 1 0-11.4 0zm16 0a5.7 5.7 0 1 0 11.4 0 5.7 5.7 0 1 0-11.4 0zm16 0a5.7 5.7 0 1 0 11.4 0 5.7 5.7 0 1 0-11.4 0zm16 0a5.7 5.7 0 1 0 11.4 0 5.7 5.7 0 1 0-11.4 0zm16 0a5.7 5.7 0 1 0 11.4 0 5.7 5.7 0 1 0-11.4 0zm16 0a5.7 5.7 0 1 0 11.4 0 5.7 5.7 0 1 0-11.4 0zm16 0a5.7 5.7 0 1 0 11.4 0 5.7 5.7 0 1 0-11.4 0zm16 0a5.7 5.7 0 1 0 11.4 0 5.7 5.7 0 1 0-11.4 0zm16 0a5.7 5.7 0 1 0 11.4 0 5.7 5.7 0 1 0-11.4 0zm16 0a5.7 5.7 0 1 0 11.4 0 5.7 5.7 0 1 0-11.4 0zm16 0a5.7 5.7 0 1 0 11.4 0 5.7 5.7 0 1 0-11.4 0zm16 0a5.7 5.7 0 1 0 11.4 0 5.7 5.7 0 1 0-11.4 0zm16 0a5.7 5.7 0 1 0 11.4 0 5.7 5.7 0 1 0-11.4 0zm16 0a5.7 5.7 0 1 0 11.4 0 5.7 5.7 0 1 0-11.4 0zm-368 16a5.7 5.7 0 1 0 11.4 0 5.7 5.7 0 1 0-11.4 0zm16 0a5.7 5.7 0 1 0 11.4 0 5.7 5.7 0 1 0-11.4 0zm16 0a5.7 5.7 0 1 0 11.4 0 5.7 5.7 0 1 0-11.4 0zm16 0a5.7 5.7 0 1 0 11.4 0 5.7 5.7 0 1 0-11.4 0zm16 0a5.7 5.7 0 1 0 11.4 0 5.7 5.7 0 1 0-11.4 0zm16 0a5.7 5.7 0 1 0 11.4 0 5.7 5.7 0 1 0-11.4 0zm16 0a5.7 5.7 0 1 0 11.4 0 5.7 5.7 0 1 0-11.4 0zm16 0a5.7 5.7 0 1 0 11.4 0 5.7 5.7 0 1 0-11.4 0zm16 0a5.7 5.7 0 1 0 11.4 0 5.7 5.7 0 1 0-11.4 0zm16 0a5.7 5.7 0 1 0 11.4 0 5.7 5.7 0 1 0-11.4 0zm16 0a5.7 5.7 0 1 0 11.4 0 5.7 5.7 0 1 0-11.4 0zm16 0a5.7 5.7 0 1 0 11.4 0 5.7 5.7 0 1 0-11.4 0zm16 0a5.7 5.7 0 1 0 11.4 0 5.7 5.7 0 1 0-11.4 0zm16 0a5.7 5.7 0 1 0 11.4 0 5.7 5.7 0 1 0-11.4 0zm16 0a5.7 5.7 0 1 0 11.4 0 5.7 5.7 0 1 0-11.4 0zm16 0a5.7 5.7 0 1 0 11.4 0 5.7 5.7 0 1 0-11.4 0zm16 0a5.7 5.7 0 1 0 11.4 0 5.7 5.7 0 1 0-11.4 0zm16 0a5.7 5.7 0 1 0 11.4 0 5.7 5.7 0 1 0-11.4 0zm16 0a5.7 5.7 0 1 0 11.4 0 5.7 5.7 0 1 0-11.4 0zm16 0a5.7 5.7 0 1 0 11.4 0 5.7 5.7 0 1 0-11.4 0zm16 0a5.7 5.7 0 1 0 11.4 0 5.7 5.7 0 1 0-11.4 0zm16 0a5.7 5.7 0 1 0 11.4 0 5.7 5.7 0 1 0-11.4 0zm16 0a5.7 5.7 0 1 0 11.4 0 5.7 5.7 0 1 0-11.4 0zm16 0a5.7 5.7 0 1 0 11.4 0 5.7 5.7 0 1 0-11.4 0zm-368 16a5.7 5.7 0 1 0 11.4 0 5.7 5.7 0 1 0-11.4 0zm16 0a5.7 5.7 0 1 0 11.4 0 5.7 5.7 0 1 0-11.4 0zm16 0a5.7 5.7 0 1 0 11.4 0 5.7 5.7 0 1 0-11.4 0zm16 0a5.7 5.7 0 1 0 11.4 0 5.7 5.7 0 1 0-11.4 0zm16 0a5.7 5.7 0 1 0 11.4 0 5.7 5.7 0 1 0-11.4 0zm16 0a5.7 5.7 0 1 0 11.4 0 5.7 5.7 0 1 0-11.4 0zm16 0a5.7 5.7 0 1 0 11.4 0 5.7 5.7 0 1 0-11.4 0zm16 0a5.7 5.7 0 1 0 11.4 0 5.7 5.7 0 1 0-11.4 0zm16 0a5.7 5.7 0 1 0 11.4 0 5.7 5.7 0 1 0-11.4 0zm16 0a5.7 5.7 0 1 0 11.4 0 5.7 5.7 0 1 0-11.4 0zm16 0a5.7 5.7 0 1 0 11.4 0 5.7 5.7 0 1 0-11.4 0zm16 0a5.7 5.7 0 1 0 11.4 0 5.7 5.7 0 1 0-11.4 0zm16 0a5.7 5.7 0 1 0 11.4 0 5.7 5.7 0 1 0-11.4 0zm16 0a5.7 5.7 0 1 0 11.4 0 5.7 5.7 0 1 0-11.4 0zm16 0a5.7 5.7 0 1 0 11.4 0 5.7 5.7 0 1 0-11.4 0zm16 0a5.7 5.7 0 1 0 11.4 0 5.7 5.7 0 1 0-11.4 0zm16 0a5.7 5.7 0 1 0 11.4 0 5.7 5.7 0 1 0-11.4 0zm16 0a5.7 5.7 0 1 0 11.4 0 5.7 5.7 0 1 0-11.4 0zm16 0a5.7 5.7 0 1 0 11.4 0 5.7 5.7 0 1 0-11.4 0zm16 0a5.7 5.7 0 1 0 11.4 0 5.7 5.7 0 1 0-11.4 0zm16 0a5.7 5.7 0 1 0 11.4 0 5.7 5.7 0 1 0-11.4 0zm16 0a5.7 5.7 0 1 0 11.4 0 5.7 5.7 0 1 0-11.4 0zm16 0a5.7 5.7 0 1 0 11.4 0 5.7 5.7 0 1 0-11.4 0zm16 0a5.7 5.7 0 1 0 11.4 0 5.7 5.7 0 1 0-11.4 0zm-368 16a5.7 5.7 0 1 0 11.4 0 5.7 5.7 0 1 0-11.4 0zm16 0a5.7 5.7 0 1 0 11.4 0 5.7 5.7 0 1 0-11.4 0zm16 0a5.7 5.7 0 1 0 11.4 0 5.7 5.7 0 1 0-11.4 0zm16 0a5.7 5.7 0 1 0 11.4 0 5.7 5.7 0 1 0-11.4 0zm16 0a5.7 5.7 0 1 0 11.4 0 5.7 5.7 0 1 0-11.4 0zm16 0a5.7 5.7 0 1 0 11.4 0 5.7 5.7 0 1 0-11.4 0zm16 0a5.7 5.7 0 1 0 11.4 0 5.7 5.7 0 1 0-11.4 0zm16 0a5.7 5.7 0 1 0 11.4 0 5.7 5.7 0 1 0-11.4 0zm16 0a5.7 5.7 0 1 0 11.4 0 5.7 5.7 0 1 0-11.4 0zm16 0a5.7 5.7 0 1 0 11.4 0 5.7 5.7 0 1 0-11.4 0zm80 0a5.7 5.7 0 1 0 11.4 0 5.7 5.7 0 1 0-11.4 0zm16 0a5.7 5.7 0 1 0 11.4 0 5.7 5.7 0 1 0-11.4 0zm16 0a5.7 5.7 0 1 0 11.4 0 5.7 5.7 0 1 0-11.4 0zm16 0a5.7 5.7 0 1 0 11.4 0 5.7 5.7 0 1 0-11.4 0zm16 0a5.7 5.7 0 1 0 11.4 0 5.7 5.7 0 1 0-11.4 0zm16 0a5.7 5.7 0 1 0 11.4 0 5.7 5.7 0 1 0-11.4 0zm16 0a5.7 5.7 0 1 0 11.4 0 5.7 5.7 0 1 0-11.4 0zm16 0a5.7 5.7 0 1 0 11.4 0 5.7 5.7 0 1 0-11.4 0zm16 0a5.7 5.7 0 1 0 11.4 0 5.7 5.7 0 1 0-11.4 0zm16 0a5.7 5.7 0 1 0 11.4 0 5.7 5.7 0 1 0-11.4 0zm-384 16a5.7 5.7 0 1 0 11.4 0 5.7 5.7 0 1 0-11.4 0zm16 0a5.7 5.7 0 1 0 11.4 0 5.7 5.7 0 1 0-11.4 0zm16 0a5.7 5.7 0 1 0 11.4 0 5.7 5.7 0 1 0-11.4 0zm16 0a5.7 5.7 0 1 0 11.4 0 5.7 5.7 0 1 0-11.4 0zm16 0a5.7 5.7 0 1 0 11.4 0 5.7 5.7 0 1 0-11.4 0zm16 0a5.7 5.7 0 1 0 11.4 0 5.7 5.7 0 1 0-11.4 0zm16 0a5.7 5.7 0 1 0 11.4 0 5.7 5.7 0 1 0-11.4 0zm16 0a5.7 5.7 0 1 0 11.4 0 5.7 5.7 0 1 0-11.4 0zm16 0a5.7 5.7 0 1 0 11.4 0 5.7 5.7 0 1 0-11.4 0zm16 0a5.7 5.7 0 1 0 11.4 0 5.7 5.7 0 1 0-11.4 0zm112 0a5.7 5.7 0 1 0 11.4 0 5.7 5.7 0 1 0-11.4 0zm16 0a5.7 5.7 0 1 0 11.4 0 5.7 5.7 0 1 0-11.4 0zm16 0a5.7 5.7 0 1 0 11.4 0 5.7 5.7 0 1 0-11.4 0zm16 0a5.7 5.7 0 1 0 11.4 0 5.7 5.7 0 1 0-11.4 0zm16 0a5.7 5.7 0 1 0 11.4 0 5.7 5.7 0 1 0-11.4 0zm16 0a5.7 5.7 0 1 0 11.4 0 5.7 5.7 0 1 0-11.4 0zm16 0a5.7 5.7 0 1 0 11.4 0 5.7 5.7 0 1 0-11.4 0zm16 0a5.7 5.7 0 1 0 11.4 0 5.7 5.7 0 1 0-11.4 0zm16 0a5.7 5.7 0 1 0 11.4 0 5.7 5.7 0 1 0-11.4 0zm16 0a5.7 5.7 0 1 0 11.4 0 5.7 5.7 0 1 0-11.4 0zm-432 16a5.7 5.7 0 1 0 11.4 0 5.7 5.7 0 1 0-11.4 0zm16 0a5.7 5.7 0 1 0 11.4 0 5.7 5.7 0 1 0-11.4 0zm16 0a5.7 5.7 0 1 0 11.4 0 5.7 5.7 0 1 0-11.4 0zm16 0a5.7 5.7 0 1 0 11.4 0 5.7 5.7 0 1 0-11.4 0zm16 0a5.7 5.7 0 1 0 11.4 0 5.7 5.7 0 1 0-11.4 0zm16 0a5.7 5.7 0 1 0 11.4 0 5.7 5.7 0 1 0-11.4 0zm16 0a5.7 5.7 0 1 0 11.4 0 5.7 5.7 0 1 0-11.4 0zm16 0a5.7 5.7 0 1 0 11.4 0 5.7 5.7 0 1 0-11.4 0zm16 0a5.7 5.7 0 1 0 11.4 0 5.7 5.7 0 1 0-11.4 0zm16 0a5.7 5.7 0 1 0 11.4 0 5.7 5.7 0 1 0-11.4 0zm16 0a5.7 5.7 0 1 0 11.4 0 5.7 5.7 0 1 0-11.4 0zm144 0a5.7 5.7 0 1 0 11.4 0 5.7 5.7 0 1 0-11.4 0zm16 0a5.7 5.7 0 1 0 11.4 0 5.7 5.7 0 1 0-11.4 0zm16 0a5.7 5.7 0 1 0 11.4 0 5.7 5.7 0 1 0-11.4 0zm16 0a5.7 5.7 0 1 0 11.4 0 5.7 5.7 0 1 0-11.4 0zm16 0a5.7 5.7 0 1 0 11.4 0 5.7 5.7 0 1 0-11.4 0zm16 0a5.7 5.7 0 1 0 11.4 0 5.7 5.7 0 1 0-11.4 0zm16 0a5.7 5.7 0 1 0 11.4 0 5.7 5.7 0 1 0-11.4 0zm16 0a5.7 5.7 0 1 0 11.4 0 5.7 5.7 0 1 0-11.4 0zm16 0a5.7 5.7 0 1 0 11.4 0 5.7 5.7 0 1 0-11.4 0zm16 0a5.7 5.7 0 1 0 11.4 0 5.7 5.7 0 1 0-11.4 0zm16 0a5.7 5.7 0 1 0 11.4 0 5.7 5.7 0 1 0-11.4 0zm-480 16a5.7 5.7 0 1 0 11.4 0 5.7 5.7 0 1 0-11.4 0zm16 0a5.7 5.7 0 1 0 11.4 0 5.7 5.7 0 1 0-11.4 0zm16 0a5.7 5.7 0 1 0 11.4 0 5.7 5.7 0 1 0-11.4 0zm16 0a5.7 5.7 0 1 0 11.4 0 5.7 5.7 0 1 0-11.4 0zm16 0a5.7 5.7 0 1 0 11.4 0 5.7 5.7 0 1 0-11.4 0zm16 0a5.7 5.7 0 1 0 11.4 0 5.7 5.7 0 1 0-11.4 0zm16 0a5.7 5.7 0 1 0 11.4 0 5.7 5.7 0 1 0-11.4 0zm16 0a5.7 5.7 0 1 0 11.4 0 5.7 5.7 0 1 0-11.4 0zm16 0a5.7 5.7 0 1 0 11.4 0 5.7 5.7 0 1 0-11.4 0zm16 0a5.7 5.7 0 1 0 11.4 0 5.7 5.7 0 1 0-11.4 0zm16 0a5.7 5.7 0 1 0 11.4 0 5.7 5.7 0 1 0-11.4 0zm176 0a5.7 5.7 0 1 0 11.4 0 5.7 5.7 0 1 0-11.4 0zm16 0a5.7 5.7 0 1 0 11.4 0 5.7 5.7 0 1 0-11.4 0zm16 0a5.7 5.7 0 1 0 11.4 0 5.7 5.7 0 1 0-11.4 0zm16 0a5.7 5.7 0 1 0 11.4 0 5.7 5.7 0 1 0-11.4 0zm16 0a5.7 5.7 0 1 0 11.4 0 5.7 5.7 0 1 0-11.4 0zm16 0a5.7 5.7 0 1 0 11.4 0 5.7 5.7 0 1 0-11.4 0zm16 0a5.7 5.7 0 1 0 11.4 0 5.7 5.7 0 1 0-11.4 0zm16 0a5.7 5.7 0 1 0 11.4 0 5.7 5.7 0 1 0-11.4 0zm16 0a5.7 5.7 0 1 0 11.4 0 5.7 5.7 0 1 0-11.4 0zm16 0a5.7 5.7 0 1 0 11.4 0 5.7 5.7 0 1 0-11.4 0zm16 0a5.7 5.7 0 1 0 11.4 0 5.7 5.7 0 1 0-11.4 0zm-496 16a5.7 5.7 0 1 0 11.4 0 5.7 5.7 0 1 0-11.4 0zm16 0a5.7 5.7 0 1 0 11.4 0 5.7 5.7 0 1 0-11.4 0zm16 0a5.7 5.7 0 1 0 11.4 0 5.7 5.7 0 1 0-11.4 0zm16 0a5.7 5.7 0 1 0 11.4 0 5.7 5.7 0 1 0-11.4 0zm16 0a5.7 5.7 0 1 0 11.4 0 5.7 5.7 0 1 0-11.4 0zm16 0a5.7 5.7 0 1 0 11.4 0 5.7 5.7 0 1 0-11.4 0zm16 0a5.7 5.7 0 1 0 11.4 0 5.7 5.7 0 1 0-11.4 0zm16 0a5.7 5.7 0 1 0 11.4 0 5.7 5.7 0 1 0-11.4 0zm16 0a5.7 5.7 0 1 0 11.4 0 5.7 5.7 0 1 0-11.4 0zm16 0a5.7 5.7 0 1 0 11.4 0 5.7 5.7 0 1 0-11.4 0zm16 0a5.7 5.7 0 1 0 11.4 0 5.7 5.7 0 1 0-11.4 0zm176 0a5.7 5.7 0 1 0 11.4 0 5.7 5.7 0 1 0-11.4 0zm16 0a5.7 5.7 0 1 0 11.4 0 5.7 5.7 0 1 0-11.4 0zm16 0a5.7 5.7 0 1 0 11.4 0 5.7 5.7 0 1 0-11.4 0zm16 0a5.7 5.7 0 1 0 11.4 0 5.7 5.7 0 1 0-11.4 0zm16 0a5.7 5.7 0 1 0 11.4 0 5.7 5.7 0 1 0-11.4 0zm16 0a5.7 5.7 0 1 0 11.4 0 5.7 5.7 0 1 0-11.4 0zm16 0a5.7 5.7 0 1 0 11.4 0 5.7 5.7 0 1 0-11.4 0zm16 0a5.7 5.7 0 1 0 11.4 0 5.7 5.7 0 1 0-11.4 0zm16 0a5.7 5.7 0 1 0 11.4 0 5.7 5.7 0 1 0-11.4 0zm16 0a5.7 5.7 0 1 0 11.4 0 5.7 5.7 0 1 0-11.4 0zm16 0a5.7 5.7 0 1 0 11.4 0 5.7 5.7 0 1 0-11.4 0zm-496 16a5.7 5.7 0 1 0 11.4 0 5.7 5.7 0 1 0-11.4 0zm16 0a5.7 5.7 0 1 0 11.4 0 5.7 5.7 0 1 0-11.4 0zm16 0a5.7 5.7 0 1 0 11.4 0 5.7 5.7 0 1 0-11.4 0zm16 0a5.7 5.7 0 1 0 11.4 0 5.7 5.7 0 1 0-11.4 0zm16 0a5.7 5.7 0 1 0 11.4 0 5.7 5.7 0 1 0-11.4 0zm16 0a5.7 5.7 0 1 0 11.4 0 5.7 5.7 0 1 0-11.4 0zm16 0a5.7 5.7 0 1 0 11.4 0 5.7 5.7 0 1 0-11.4 0zm16 0a5.7 5.7 0 1 0 11.4 0 5.7 5.7 0 1 0-11.4 0zm16 0a5.7 5.7 0 1 0 11.4 0 5.7 5.7 0 1 0-11.4 0zm16 0a5.7 5.7 0 1 0 11.4 0 5.7 5.7 0 1 0-11.4 0zm16 0a5.7 5.7 0 1 0 11.4 0 5.7 5.7 0 1 0-11.4 0zm176 0a5.7 5.7 0 1 0 11.4 0 5.7 5.7 0 1 0-11.4 0zm16 0a5.7 5.7 0 1 0 11.4 0 5.7 5.7 0 1 0-11.4 0zm16 0a5.7 5.7 0 1 0 11.4 0 5.7 5.7 0 1 0-11.4 0zm16 0a5.7 5.7 0 1 0 11.4 0 5.7 5.7 0 1 0-11.4 0zm16 0a5.7 5.7 0 1 0 11.4 0 5.7 5.7 0 1 0-11.4 0zm16 0a5.7 5.7 0 1 0 11.4 0 5.7 5.7 0 1 0-11.4 0zm16 0a5.7 5.7 0 1 0 11.4 0 5.7 5.7 0 1 0-11.4 0zm16 0a5.7 5.7 0 1 0 11.4 0 5.7 5.7 0 1 0-11.4 0zm16 0a5.7 5.7 0 1 0 11.4 0 5.7 5.7 0 1 0-11.4 0zm16 0a5.7 5.7 0 1 0 11.4 0 5.7 5.7 0 1 0-11.4 0zm16 0a5.7 5.7 0 1 0 11.4 0 5.7 5.7 0 1 0-11.4 0zm-496 16a5.7 5.7 0 1 0 11.4 0 5.7 5.7 0 1 0-11.4 0zm16 0a5.7 5.7 0 1 0 11.4 0 5.7 5.7 0 1 0-11.4 0zm16 0a5.7 5.7 0 1 0 11.4 0 5.7 5.7 0 1 0-11.4 0zm16 0a5.7 5.7 0 1 0 11.4 0 5.7 5.7 0 1 0-11.4 0zm16 0a5.7 5.7 0 1 0 11.4 0 5.7 5.7 0 1 0-11.4 0zm16 0a5.7 5.7 0 1 0 11.4 0 5.7 5.7 0 1 0-11.4 0zm16 0a5.7 5.7 0 1 0 11.4 0 5.7 5.7 0 1 0-11.4 0zm16 0a5.7 5.7 0 1 0 11.4 0 5.7 5.7 0 1 0-11.4 0zm16 0a5.7 5.7 0 1 0 11.4 0 5.7 5.7 0 1 0-11.4 0zm16 0a5.7 5.7 0 1 0 11.4 0 5.7 5.7 0 1 0-11.4 0zm16 0a5.7 5.7 0 1 0 11.4 0 5.7 5.7 0 1 0-11.4 0zm176 0a5.7 5.7 0 1 0 11.4 0 5.7 5.7 0 1 0-11.4 0zm16 0a5.7 5.7 0 1 0 11.4 0 5.7 5.7 0 1 0-11.4 0zm16 0a5.7 5.7 0 1 0 11.4 0 5.7 5.7 0 1 0-11.4 0zm16 0a5.7 5.7 0 1 0 11.4 0 5.7 5.7 0 1 0-11.4 0zm16 0a5.7 5.7 0 1 0 11.4 0 5.7 5.7 0 1 0-11.4 0zm16 0a5.7 5.7 0 1 0 11.4 0 5.7 5.7 0 1 0-11.4 0zm16 0a5.7 5.7 0 1 0 11.4 0 5.7 5.7 0 1 0-11.4 0zm16 0a5.7 5.7 0 1 0 11.4 0 5.7 5.7 0 1 0-11.4 0zm16 0a5.7 5.7 0 1 0 11.4 0 5.7 5.7 0 1 0-11.4 0zm16 0a5.7 5.7 0 1 0 11.4 0 5.7 5.7 0 1 0-11.4 0zm16 0a5.7 5.7 0 1 0 11.4 0 5.7 5.7 0 1 0-11.4 0zm-480 16a5.7 5.7 0 1 0 11.4 0 5.7 5.7 0 1 0-11.4 0zm16 0a5.7 5.7 0 1 0 11.4 0 5.7 5.7 0 1 0-11.4 0zm16 0a5.7 5.7 0 1 0 11.4 0 5.7 5.7 0 1 0-11.4 0zm16 0a5.7 5.7 0 1 0 11.4 0 5.7 5.7 0 1 0-11.4 0zm16 0a5.7 5.7 0 1 0 11.4 0 5.7 5.7 0 1 0-11.4 0zm16 0a5.7 5.7 0 1 0 11.4 0 5.7 5.7 0 1 0-11.4 0zm16 0a5.7 5.7 0 1 0 11.4 0 5.7 5.7 0 1 0-11.4 0zm16 0a5.7 5.7 0 1 0 11.4 0 5.7 5.7 0 1 0-11.4 0zm16 0a5.7 5.7 0 1 0 11.4 0 5.7 5.7 0 1 0-11.4 0zm16 0a5.7 5.7 0 1 0 11.4 0 5.7 5.7 0 1 0-11.4 0zm16 0a5.7 5.7 0 1 0 11.4 0 5.7 5.7 0 1 0-11.4 0zm144 0a5.7 5.7 0 1 0 11.4 0 5.7 5.7 0 1 0-11.4 0zm16 0a5.7 5.7 0 1 0 11.4 0 5.7 5.7 0 1 0-11.4 0zm16 0a5.7 5.7 0 1 0 11.4 0 5.7 5.7 0 1 0-11.4 0zm16 0a5.7 5.7 0 1 0 11.4 0 5.7 5.7 0 1 0-11.4 0zm16 0a5.7 5.7 0 1 0 11.4 0 5.7 5.7 0 1 0-11.4 0zm16 0a5.7 5.7 0 1 0 11.4 0 5.7 5.7 0 1 0-11.4 0zm16 0a5.7 5.7 0 1 0 11.4 0 5.7 5.7 0 1 0-11.4 0zm16 0a5.7 5.7 0 1 0 11.4 0 5.7 5.7 0 1 0-11.4 0zm16 0a5.7 5.7 0 1 0 11.4 0 5.7 5.7 0 1 0-11.4 0zm16 0a5.7 5.7 0 1 0 11.4 0 5.7 5.7 0 1 0-11.4 0zm16 0a5.7 5.7 0 1 0 11.4 0 5.7 5.7 0 1 0-11.4 0zm-432 16a5.7 5.7 0 1 0 11.4 0 5.7 5.7 0 1 0-11.4 0zm16 0a5.7 5.7 0 1 0 11.4 0 5.7 5.7 0 1 0-11.4 0zm16 0a5.7 5.7 0 1 0 11.4 0 5.7 5.7 0 1 0-11.4 0zm16 0a5.7 5.7 0 1 0 11.4 0 5.7 5.7 0 1 0-11.4 0zm16 0a5.7 5.7 0 1 0 11.4 0 5.7 5.7 0 1 0-11.4 0zm16 0a5.7 5.7 0 1 0 11.4 0 5.7 5.7 0 1 0-11.4 0zm16 0a5.7 5.7 0 1 0 11.4 0 5.7 5.7 0 1 0-11.4 0zm16 0a5.7 5.7 0 1 0 11.4 0 5.7 5.7 0 1 0-11.4 0zm16 0a5.7 5.7 0 1 0 11.4 0 5.7 5.7 0 1 0-11.4 0zm16 0a5.7 5.7 0 1 0 11.4 0 5.7 5.7 0 1 0-11.4 0zm112 0a5.7 5.7 0 1 0 11.4 0 5.7 5.7 0 1 0-11.4 0zm16 0a5.7 5.7 0 1 0 11.4 0 5.7 5.7 0 1 0-11.4 0zm16 0a5.7 5.7 0 1 0 11.4 0 5.7 5.7 0 1 0-11.4 0zm16 0a5.7 5.7 0 1 0 11.4 0 5.7 5.7 0 1 0-11.4 0zm16 0a5.7 5.7 0 1 0 11.4 0 5.7 5.7 0 1 0-11.4 0zm16 0a5.7 5.7 0 1 0 11.4 0 5.7 5.7 0 1 0-11.4 0zm16 0a5.7 5.7 0 1 0 11.4 0 5.7 5.7 0 1 0-11.4 0zm16 0a5.7 5.7 0 1 0 11.4 0 5.7 5.7 0 1 0-11.4 0zm16 0a5.7 5.7 0 1 0 11.4 0 5.7 5.7 0 1 0-11.4 0zm16 0a5.7 5.7 0 1 0 11.4 0 5.7 5.7 0 1 0-11.4 0zm-384 16a5.7 5.7 0 1 0 11.4 0 5.7 5.7 0 1 0-11.4 0zm16 0a5.7 5.7 0 1 0 11.4 0 5.7 5.7 0 1 0-11.4 0zm16 0a5.7 5.7 0 1 0 11.4 0 5.7 5.7 0 1 0-11.4 0zm16 0a5.7 5.7 0 1 0 11.4 0 5.7 5.7 0 1 0-11.4 0zm16 0a5.7 5.7 0 1 0 11.4 0 5.7 5.7 0 1 0-11.4 0zm16 0a5.7 5.7 0 1 0 11.4 0 5.7 5.7 0 1 0-11.4 0zm16 0a5.7 5.7 0 1 0 11.4 0 5.7 5.7 0 1 0-11.4 0zm16 0a5.7 5.7 0 1 0 11.4 0 5.7 5.7 0 1 0-11.4 0zm16 0a5.7 5.7 0 1 0 11.4 0 5.7 5.7 0 1 0-11.4 0zm16 0a5.7 5.7 0 1 0 11.4 0 5.7 5.7 0 1 0-11.4 0zm80 0a5.7 5.7 0 1 0 11.4 0 5.7 5.7 0 1 0-11.4 0zm16 0a5.7 5.7 0 1 0 11.4 0 5.7 5.7 0 1 0-11.4 0zm16 0a5.7 5.7 0 1 0 11.4 0 5.7 5.7 0 1 0-11.4 0zm16 0a5.7 5.7 0 1 0 11.4 0 5.7 5.7 0 1 0-11.4 0zm16 0a5.7 5.7 0 1 0 11.4 0 5.7 5.7 0 1 0-11.4 0zm16 0a5.7 5.7 0 1 0 11.4 0 5.7 5.7 0 1 0-11.4 0zm16 0a5.7 5.7 0 1 0 11.4 0 5.7 5.7 0 1 0-11.4 0zm16 0a5.7 5.7 0 1 0 11.4 0 5.7 5.7 0 1 0-11.4 0zm16 0a5.7 5.7 0 1 0 11.4 0 5.7 5.7 0 1 0-11.4 0zm16 0a5.7 5.7 0 1 0 11.4 0 5.7 5.7 0 1 0-11.4 0zm-368 16a5.7 5.7 0 1 0 11.4 0 5.7 5.7 0 1 0-11.4 0zm16 0a5.7 5.7 0 1 0 11.4 0 5.7 5.7 0 1 0-11.4 0zm16 0a5.7 5.7 0 1 0 11.4 0 5.7 5.7 0 1 0-11.4 0zm16 0a5.7 5.7 0 1 0 11.4 0 5.7 5.7 0 1 0-11.4 0zm16 0a5.7 5.7 0 1 0 11.4 0 5.7 5.7 0 1 0-11.4 0zm16 0a5.7 5.7 0 1 0 11.4 0 5.7 5.7 0 1 0-11.4 0zm16 0a5.7 5.7 0 1 0 11.4 0 5.7 5.7 0 1 0-11.4 0zm16 0a5.7 5.7 0 1 0 11.4 0 5.7 5.7 0 1 0-11.4 0zm16 0a5.7 5.7 0 1 0 11.4 0 5.7 5.7 0 1 0-11.4 0zm16 0a5.7 5.7 0 1 0 11.4 0 5.7 5.7 0 1 0-11.4 0zm16 0a5.7 5.7 0 1 0 11.4 0 5.7 5.7 0 1 0-11.4 0zm16 0a5.7 5.7 0 1 0 11.4 0 5.7 5.7 0 1 0-11.4 0zm16 0a5.7 5.7 0 1 0 11.4 0 5.7 5.7 0 1 0-11.4 0zm16 0a5.7 5.7 0 1 0 11.4 0 5.7 5.7 0 1 0-11.4 0zm16 0a5.7 5.7 0 1 0 11.4 0 5.7 5.7 0 1 0-11.4 0zm16 0a5.7 5.7 0 1 0 11.4 0 5.7 5.7 0 1 0-11.4 0zm16 0a5.7 5.7 0 1 0 11.4 0 5.7 5.7 0 1 0-11.4 0zm16 0a5.7 5.7 0 1 0 11.4 0 5.7 5.7 0 1 0-11.4 0zm16 0a5.7 5.7 0 1 0 11.4 0 5.7 5.7 0 1 0-11.4 0zm16 0a5.7 5.7 0 1 0 11.4 0 5.7 5.7 0 1 0-11.4 0zm16 0a5.7 5.7 0 1 0 11.4 0 5.7 5.7 0 1 0-11.4 0zm16 0a5.7 5.7 0 1 0 11.4 0 5.7 5.7 0 1 0-11.4 0zm16 0a5.7 5.7 0 1 0 11.4 0 5.7 5.7 0 1 0-11.4 0zm16 0a5.7 5.7 0 1 0 11.4 0 5.7 5.7 0 1 0-11.4 0zm-368 16a5.7 5.7 0 1 0 11.4 0 5.7 5.7 0 1 0-11.4 0zm16 0a5.7 5.7 0 1 0 11.4 0 5.7 5.7 0 1 0-11.4 0zm16 0a5.7 5.7 0 1 0 11.4 0 5.7 5.7 0 1 0-11.4 0zm16 0a5.7 5.7 0 1 0 11.4 0 5.7 5.7 0 1 0-11.4 0zm16 0a5.7 5.7 0 1 0 11.4 0 5.7 5.7 0 1 0-11.4 0zm16 0a5.7 5.7 0 1 0 11.4 0 5.7 5.7 0 1 0-11.4 0zm16 0a5.7 5.7 0 1 0 11.4 0 5.7 5.7 0 1 0-11.4 0zm16 0a5.7 5.7 0 1 0 11.4 0 5.7 5.7 0 1 0-11.4 0zm16 0a5.7 5.7 0 1 0 11.4 0 5.7 5.7 0 1 0-11.4 0zm16 0a5.7 5.7 0 1 0 11.4 0 5.7 5.7 0 1 0-11.4 0zm16 0a5.7 5.7 0 1 0 11.4 0 5.7 5.7 0 1 0-11.4 0zm16 0a5.7 5.7 0 1 0 11.4 0 5.7 5.7 0 1 0-11.4 0zm16 0a5.7 5.7 0 1 0 11.4 0 5.7 5.7 0 1 0-11.4 0zm16 0a5.7 5.7 0 1 0 11.4 0 5.7 5.7 0 1 0-11.4 0zm16 0a5.7 5.7 0 1 0 11.4 0 5.7 5.7 0 1 0-11.4 0zm16 0a5.7 5.7 0 1 0 11.4 0 5.7 5.7 0 1 0-11.4 0zm16 0a5.7 5.7 0 1 0 11.4 0 5.7 5.7 0 1 0-11.4 0zm16 0a5.7 5.7 0 1 0 11.4 0 5.7 5.7 0 1 0-11.4 0zm16 0a5.7 5.7 0 1 0 11.4 0 5.7 5.7 0 1 0-11.4 0zm16 0a5.7 5.7 0 1 0 11.4 0 5.7 5.7 0 1 0-11.4 0zm16 0a5.7 5.7 0 1 0 11.4 0 5.7 5.7 0 1 0-11.4 0zm16 0a5.7 5.7 0 1 0 11.4 0 5.7 5.7 0 1 0-11.4 0zm16 0a5.7 5.7 0 1 0 11.4 0 5.7 5.7 0 1 0-11.4 0zm16 0a5.7 5.7 0 1 0 11.4 0 5.7 5.7 0 1 0-11.4 0zm-368 16a5.7 5.7 0 1 0 11.4 0 5.7 5.7 0 1 0-11.4 0zm16 0a5.7 5.7 0 1 0 11.4 0 5.7 5.7 0 1 0-11.4 0zm16 0a5.7 5.7 0 1 0 11.4 0 5.7 5.7 0 1 0-11.4 0zm16 0a5.7 5.7 0 1 0 11.4 0 5.7 5.7 0 1 0-11.4 0zm16 0a5.7 5.7 0 1 0 11.4 0 5.7 5.7 0 1 0-11.4 0zm16 0a5.7 5.7 0 1 0 11.4 0 5.7 5.7 0 1 0-11.4 0zm16 0a5.7 5.7 0 1 0 11.4 0 5.7 5.7 0 1 0-11.4 0zm16 0a5.7 5.7 0 1 0 11.4 0 5.7 5.7 0 1 0-11.4 0zm16 0a5.7 5.7 0 1 0 11.4 0 5.7 5.7 0 1 0-11.4 0zm16 0a5.7 5.7 0 1 0 11.4 0 5.7 5.7 0 1 0-11.4 0zm16 0a5.7 5.7 0 1 0 11.4 0 5.7 5.7 0 1 0-11.4 0zm16 0a5.7 5.7 0 1 0 11.4 0 5.7 5.7 0 1 0-11.4 0zm16 0a5.7 5.7 0 1 0 11.4 0 5.7 5.7 0 1 0-11.4 0zm16 0a5.7 5.7 0 1 0 11.4 0 5.7 5.7 0 1 0-11.4 0zm16 0a5.7 5.7 0 1 0 11.4 0 5.7 5.7 0 1 0-11.4 0zm16 0a5.7 5.7 0 1 0 11.4 0 5.7 5.7 0 1 0-11.4 0zm16 0a5.7 5.7 0 1 0 11.4 0 5.7 5.7 0 1 0-11.4 0zm16 0a5.7 5.7 0 1 0 11.4 0 5.7 5.7 0 1 0-11.4 0zm16 0a5.7 5.7 0 1 0 11.4 0 5.7 5.7 0 1 0-11.4 0zm16 0a5.7 5.7 0 1 0 11.4 0 5.7 5.7 0 1 0-11.4 0zm16 0a5.7 5.7 0 1 0 11.4 0 5.7 5.7 0 1 0-11.4 0zm16 0a5.7 5.7 0 1 0 11.4 0 5.7 5.7 0 1 0-11.4 0zm16 0a5.7 5.7 0 1 0 11.4 0 5.7 5.7 0 1 0-11.4 0zm16 0a5.7 5.7 0 1 0 11.4 0 5.7 5.7 0 1 0-11.4 0zm-368 16a5.7 5.7 0 1 0 11.4 0 5.7 5.7 0 1 0-11.4 0zm16 0a5.7 5.7 0 1 0 11.4 0 5.7 5.7 0 1 0-11.4 0zm16 0a5.7 5.7 0 1 0 11.4 0 5.7 5.7 0 1 0-11.4 0zm16 0a5.7 5.7 0 1 0 11.4 0 5.7 5.7 0 1 0-11.4 0zm16 0a5.7 5.7 0 1 0 11.4 0 5.7 5.7 0 1 0-11.4 0zm16 0a5.7 5.7 0 1 0 11.4 0 5.7 5.7 0 1 0-11.4 0zm16 0a5.7 5.7 0 1 0 11.4 0 5.7 5.7 0 1 0-11.4 0zm16 0a5.7 5.7 0 1 0 11.4 0 5.7 5.7 0 1 0-11.4 0zm16 0a5.7 5.7 0 1 0 11.4 0 5.7 5.7 0 1 0-11.4 0zm16 0a5.7 5.7 0 1 0 11.4 0 5.7 5.7 0 1 0-11.4 0zm16 0a5.7 5.7 0 1 0 11.4 0 5.7 5.7 0 1 0-11.4 0zm16 0a5.7 5.7 0 1 0 11.4 0 5.7 5.7 0 1 0-11.4 0zm16 0a5.7 5.7 0 1 0 11.4 0 5.7 5.7 0 1 0-11.4 0zm16 0a5.7 5.7 0 1 0 11.4 0 5.7 5.7 0 1 0-11.4 0zm16 0a5.7 5.7 0 1 0 11.4 0 5.7 5.7 0 1 0-11.4 0zm16 0a5.7 5.7 0 1 0 11.4 0 5.7 5.7 0 1 0-11.4 0zm16 0a5.7 5.7 0 1 0 11.4 0 5.7 5.7 0 1 0-11.4 0zm16 0a5.7 5.7 0 1 0 11.4 0 5.7 5.7 0 1 0-11.4 0zm16 0a5.7 5.7 0 1 0 11.4 0 5.7 5.7 0 1 0-11.4 0zm16 0a5.7 5.7 0 1 0 11.4 0 5.7 5.7 0 1 0-11.4 0zm16 0a5.7 5.7 0 1 0 11.4 0 5.7 5.7 0 1 0-11.4 0zm16 0a5.7 5.7 0 1 0 11.4 0 5.7 5.7 0 1 0-11.4 0zm16 0a5.7 5.7 0 1 0 11.4 0 5.7 5.7 0 1 0-11.4 0zm16 0a5.7 5.7 0 1 0 11.4 0 5.7 5.7 0 1 0-11.4 0zm-368 16a5.7 5.7 0 1 0 11.4 0 5.7 5.7 0 1 0-11.4 0zm16 0a5.7 5.7 0 1 0 11.4 0 5.7 5.7 0 1 0-11.4 0zm16 0a5.7 5.7 0 1 0 11.4 0 5.7 5.7 0 1 0-11.4 0zm16 0a5.7 5.7 0 1 0 11.4 0 5.7 5.7 0 1 0-11.4 0zm16 0a5.7 5.7 0 1 0 11.4 0 5.7 5.7 0 1 0-11.4 0zm16 0a5.7 5.7 0 1 0 11.4 0 5.7 5.7 0 1 0-11.4 0zm16 0a5.7 5.7 0 1 0 11.4 0 5.7 5.7 0 1 0-11.4 0zm16 0a5.7 5.7 0 1 0 11.4 0 5.7 5.7 0 1 0-11.4 0zm16 0a5.7 5.7 0 1 0 11.4 0 5.7 5.7 0 1 0-11.4 0zm16 0a5.7 5.7 0 1 0 11.4 0 5.7 5.7 0 1 0-11.4 0zm16 0a5.7 5.7 0 1 0 11.4 0 5.7 5.7 0 1 0-11.4 0zm16 0a5.7 5.7 0 1 0 11.4 0 5.7 5.7 0 1 0-11.4 0zm16 0a5.7 5.7 0 1 0 11.4 0 5.7 5.7 0 1 0-11.4 0zm16 0a5.7 5.7 0 1 0 11.4 0 5.7 5.7 0 1 0-11.4 0zm16 0a5.7 5.7 0 1 0 11.4 0 5.7 5.7 0 1 0-11.4 0zm16 0a5.7 5.7 0 1 0 11.4 0 5.7 5.7 0 1 0-11.4 0zm16 0a5.7 5.7 0 1 0 11.4 0 5.7 5.7 0 1 0-11.4 0zm16 0a5.7 5.7 0 1 0 11.4 0 5.7 5.7 0 1 0-11.4 0zm16 0a5.7 5.7 0 1 0 11.4 0 5.7 5.7 0 1 0-11.4 0zm16 0a5.7 5.7 0 1 0 11.4 0 5.7 5.7 0 1 0-11.4 0zm16 0a5.7 5.7 0 1 0 11.4 0 5.7 5.7 0 1 0-11.4 0zm16 0a5.7 5.7 0 1 0 11.4 0 5.7 5.7 0 1 0-11.4 0zm16 0a5.7 5.7 0 1 0 11.4 0 5.7 5.7 0 1 0-11.4 0zm16 0a5.7 5.7 0 1 0 11.4 0 5.7 5.7 0 1 0-11.4 0zm-368 16a5.7 5.7 0 1 0 11.4 0 5.7 5.7 0 1 0-11.4 0zm16 0a5.7 5.7 0 1 0 11.4 0 5.7 5.7 0 1 0-11.4 0zm16 0a5.7 5.7 0 1 0 11.4 0 5.7 5.7 0 1 0-11.4 0zm16 0a5.7 5.7 0 1 0 11.4 0 5.7 5.7 0 1 0-11.4 0zm16 0a5.7 5.7 0 1 0 11.4 0 5.7 5.7 0 1 0-11.4 0zm16 0a5.7 5.7 0 1 0 11.4 0 5.7 5.7 0 1 0-11.4 0zm16 0a5.7 5.7 0 1 0 11.4 0 5.7 5.7 0 1 0-11.4 0zm16 0a5.7 5.7 0 1 0 11.4 0 5.7 5.7 0 1 0-11.4 0zm16 0a5.7 5.7 0 1 0 11.4 0 5.7 5.7 0 1 0-11.4 0zm16 0a5.7 5.7 0 1 0 11.4 0 5.7 5.7 0 1 0-11.4 0zm16 0a5.7 5.7 0 1 0 11.4 0 5.7 5.7 0 1 0-11.4 0zm16 0a5.7 5.7 0 1 0 11.4 0 5.7 5.7 0 1 0-11.4 0zm16 0a5.7 5.7 0 1 0 11.4 0 5.7 5.7 0 1 0-11.4 0zm16 0a5.7 5.7 0 1 0 11.4 0 5.7 5.7 0 1 0-11.4 0zm16 0a5.7 5.7 0 1 0 11.4 0 5.7 5.7 0 1 0-11.4 0zm16 0a5.7 5.7 0 1 0 11.4 0 5.7 5.7 0 1 0-11.4 0zm16 0a5.7 5.7 0 1 0 11.4 0 5.7 5.7 0 1 0-11.4 0zm16 0a5.7 5.7 0 1 0 11.4 0 5.7 5.7 0 1 0-11.4 0zm16 0a5.7 5.7 0 1 0 11.4 0 5.7 5.7 0 1 0-11.4 0zm16 0a5.7 5.7 0 1 0 11.4 0 5.7 5.7 0 1 0-11.4 0zm16 0a5.7 5.7 0 1 0 11.4 0 5.7 5.7 0 1 0-11.4 0zm16 0a5.7 5.7 0 1 0 11.4 0 5.7 5.7 0 1 0-11.4 0zm16 0a5.7 5.7 0 1 0 11.4 0 5.7 5.7 0 1 0-11.4 0zm16 0a5.7 5.7 0 1 0 11.4 0 5.7 5.7 0 1 0-11.4 0zm-352 16a5.7 5.7 0 1 0 11.4 0 5.7 5.7 0 1 0-11.4 0zm16 0a5.7 5.7 0 1 0 11.4 0 5.7 5.7 0 1 0-11.4 0zm16 0a5.7 5.7 0 1 0 11.4 0 5.7 5.7 0 1 0-11.4 0zm16 0a5.7 5.7 0 1 0 11.4 0 5.7 5.7 0 1 0-11.4 0zm16 0a5.7 5.7 0 1 0 11.4 0 5.7 5.7 0 1 0-11.4 0zm16 0a5.7 5.7 0 1 0 11.4 0 5.7 5.7 0 1 0-11.4 0zm16 0a5.7 5.7 0 1 0 11.4 0 5.7 5.7 0 1 0-11.4 0zm16 0a5.7 5.7 0 1 0 11.4 0 5.7 5.7 0 1 0-11.4 0zm16 0a5.7 5.7 0 1 0 11.4 0 5.7 5.7 0 1 0-11.4 0zm16 0a5.7 5.7 0 1 0 11.4 0 5.7 5.7 0 1 0-11.4 0zm16 0a5.7 5.7 0 1 0 11.4 0 5.7 5.7 0 1 0-11.4 0zm16 0a5.7 5.7 0 1 0 11.4 0 5.7 5.7 0 1 0-11.4 0zm16 0a5.7 5.7 0 1 0 11.4 0 5.7 5.7 0 1 0-11.4 0zm16 0a5.7 5.7 0 1 0 11.4 0 5.7 5.7 0 1 0-11.4 0zm16 0a5.7 5.7 0 1 0 11.4 0 5.7 5.7 0 1 0-11.4 0zm16 0a5.7 5.7 0 1 0 11.4 0 5.7 5.7 0 1 0-11.4 0zm16 0a5.7 5.7 0 1 0 11.4 0 5.7 5.7 0 1 0-11.4 0zm16 0a5.7 5.7 0 1 0 11.4 0 5.7 5.7 0 1 0-11.4 0zm16 0a5.7 5.7 0 1 0 11.4 0 5.7 5.7 0 1 0-11.4 0zm16 0a5.7 5.7 0 1 0 11.4 0 5.7 5.7 0 1 0-11.4 0zm16 0a5.7 5.7 0 1 0 11.4 0 5.7 5.7 0 1 0-11.4 0zm16 0a5.7 5.7 0 1 0 11.4 0 5.7 5.7 0 1 0-11.4 0zm-224 16a5.7 5.7 0 1 0 11.4 0 5.7 5.7 0 1 0-11.4 0zm16 0a5.7 5.7 0 1 0 11.4 0 5.7 5.7 0 1 0-11.4 0zm16 0a5.7 5.7 0 1 0 11.4 0 5.7 5.7 0 1 0-11.4 0zm16 0a5.7 5.7 0 1 0 11.4 0 5.7 5.7 0 1 0-11.4 0zm16 0a5.7 5.7 0 1 0 11.4 0 5.7 5.7 0 1 0-11.4 0zm16 0a5.7 5.7 0 1 0 11.4 0 5.7 5.7 0 1 0-11.4 0zm16 0a5.7 5.7 0 1 0 11.4 0 5.7 5.7 0 1 0-11.4 0zm16 0a5.7 5.7 0 1 0 11.4 0 5.7 5.7 0 1 0-11.4 0zm-96 16a5.7 5.7 0 1 0 11.4 0 5.7 5.7 0 1 0-11.4 0zm16 0a5.7 5.7 0 1 0 11.4 0 5.7 5.7 0 1 0-11.4 0zm16 0a5.7 5.7 0 1 0 11.4 0 5.7 5.7 0 1 0-11.4 0zm16 0a5.7 5.7 0 1 0 11.4 0 5.7 5.7 0 1 0-11.4 0zm16 0a5.7 5.7 0 1 0 11.4 0 5.7 5.7 0 1 0-11.4 0zm16 0a5.7 5.7 0 1 0 11.4 0 5.7 5.7 0 1 0-11.4 0zm-80 16a5.7 5.7 0 1 0 11.4 0 5.7 5.7 0 1 0-11.4 0zm16 0a5.7 5.7 0 1 0 11.4 0 5.7 5.7 0 1 0-11.4 0zm16 0a5.7 5.7 0 1 0 11.4 0 5.7 5.7 0 1 0-11.4 0zm16 0a5.7 5.7 0 1 0 11.4 0 5.7 5.7 0 1 0-11.4 0zm16 0a5.7 5.7 0 1 0 11.4 0 5.7 5.7 0 1 0-11.4 0zm16 0a5.7 5.7 0 1 0 11.4 0 5.7 5.7 0 1 0-11.4 0zm-64 16a5.7 5.7 0 1 0 11.4 0 5.7 5.7 0 1 0-11.4 0zm16 0a5.7 5.7 0 1 0 11.4 0 5.7 5.7 0 1 0-11.4 0zm16 0a5.7 5.7 0 1 0 11.4 0 5.7 5.7 0 1 0-11.4 0zm16 0a5.7 5.7 0 1 0 11.4 0 5.7 5.7 0 1 0-11.4 0z"/></svg>