<svg xmlns="http://www.w3.org/2000/svg" viewBox="0 0 512 512"><path d="M322.3 56a5.7 5.7 0 1 0 11.4 0 5.7 5.7 0 1 0-11.4 0zm16 0a5.7 5.7 0 1 0 11.4 0 5.7 5.7 0 1 0-11.4 0zm16 0a5.7 5.7 0 1 0 11.4 0 5.7 5.7 0 1 0-11.4 0zm16 0a5.7 5.7 0 1 0 11.4 0 5.7 5.7 0 1 0-11.4 0zm16 0a5.7 5.7 0 1 0 11.4 0 5.7 5.7 0 1 0-11.4 0zm-80 16a5.7 5.7 0 1 0 11.4 0 5.7 5.7 0 1 0-11.4 0zm16 0a5.7 5.7 0 1 0 11.4 0 5.7 5.7 0 1 0-11.4 0zm16 0a5.7 5.7 0 1 0 11.4 0 5.7 5.7 0 1 0-11.4 0zm16 0a5.7 5.7 0 1 0 11.4 0 5.7 5.7 0 1 0-11.4 0zm16 0a5.7 5.7 0 1 0 11.4 0 5.7 5.7 0 1 0-11.4 0zm16 0a5.7 5.7 0 1 0 11.4 0 5.7 5.7 0 1 0-11.4 0zm16 0a5.7 5.7 0 1 0 11.4 0 5.7 5.7 0 1 0-11.4 0zm-112 16a5.7 5.7 0 1 0 11.4 0 5.7 5.7 0 1 0-11.4 0zm16 0a5.7 5.7 0 1 0 11.4 0 5.7 5.7 0 1 0-11.4 0zm16 0a5.7 5.7 0 1 0 11.4 0 5.7 5.7 0 1 0-11.4 0zm16 0a5.7 5.7 0 1 0 11.4 0 5.7 5.7 0 1 0-11.4 0zm16 0a5.7 5.7 0 1 0 11.4 0 5.7 5.7 0 1 0-11.4 0zm16 0a5.7 5.7 0 1 0 11.4 0 5.7 5.7 0 1 0-11.4 0zm16 0a5.7 5.7 0 1 0 11.4 0 5.7 5.7 0 1 0-11.4 0zm16 0a5.7 5.7 0 1 0 11.4 0 5.7 5.7 0 1 0-11.4 0zm16 0a5.7 5.7 0 1 0 11.4 0 5.7 5.7 0 1 0-11.4 0zm-112 16a5.7 5.7 0 1 0 11.4 0 5.7 5.7 0 1 0-11.4 0zm16 0a5.7 5.7 0 1 0 11.4 0 5.7 5.7 0 1 0-11.4 0zm16 0a5.7 5.7 0 1 0 11.4 0 5.7 5.7 0 1 0-11.4 0zm16 0a5.7 5.7 0 1 0 11.4 0 5.7 5.7 0 1 0-11.4 0zm16 0a5.7 5.7 0 1 0 11.4 0 5.7 5.7 0 1 0-11.4 0zm16 0a5.7 5.7 0 1 0 11.4 0 5.7 5.7 0 1 0-11.4 0zm16 0a5.7 5.7 0 1 0 11.4 0 5.7 5.7 0 1 0-11.4 0zm16 0a5.7 5.7 0 1 0 11.4 0 5.7 5.7 0 1 0-11.4 0zm16 0a5.7 5.7 0 1 0 11.4 0 5.7 5.7 0 1 0-11.4 0zm-112 16a5.7 5.7 0 1 0 11.4 0 5.7 5.7 0 1 0-11.4 0zm16 0a5.7 5.7 0 1 0 11.4 0 5.7 5.7 0 1 0-11.4 0zm16 0a5.7 5.7 0 1 0 11.4 0 5.7 5.7 0 1 0-11.4 0zm16 0a5.7 5.7 0 1 0 11.4 0 5.7 5.7 0 1 0-11.4 0zm16 0a5.7 5.7 0 1 0 11.4 0 5.7 5.7 0 1 0-11.4 0zm16 0a5.7 5.7 0 1 0 11.4 0 5.7 5.7 0 1 0-11.4 0zm16 0a5.7 5.7 0 1 0 11.4 0 5.7 5.7 0 1 0-11.4 0zm16 0a5.7 5.7 0 1 0 11.4 0 5.7 5.7 0 1 0-11.4 0zm16 0a5.7 5.7 0 1 0 11.4 0 5.7 5.7 0 1 0-11.4 0zm-208 16a5.7 5.7 0 1 0 11.4 0 5.7 5.7 0 1 0-11.4 0zm16 0a5.7 5.7 0 1 0 11.4 0 5.7 5.7 0 1 0-11.4 0zm16 0a5.7 5.7 0 1 0 11.4 0 5.7 5.7 0 1 0-11.4 0zm64 0a5.7 5.7 0 1 0 11.4 0 5.7 5.7 0 1 0-11.4 0zm16 0a5.7 5.7 0 1 0 11.4 0 5.7 5.7 0 1 0-11.4 0zm16 0a5.7 5.7 0 1 0 11.4 0 5.7 5.7 0 1 0-11.4 0zm16 0a5.7 5.7 0 1 0 11.4 0 5.7 5.7 0 1 0-11.4 0zm16 0a5.7 5.7 0 1 0 11.4 0 5.7 5.7 0 1 0-11.4 0zm16 0a5.7 5.7 0 1 0 11.4 0 5.7 5.7 0 1 0-11.4 0zm16 0a5.7 5.7 0 1 0 11.4 0 5.7 5.7 0 1 0-11.4 0zm16 0a5.7 5.7 0 1 0 11.4 0 5.7 5.7 0 1 0-11.4 0zm-224 16a5.7 5.7 0 1 0 11.4 0 5.7 5.7 0 1 0-11.4 0zm16 0a5.7 5.7 0 1 0 11.4 0 5.7 5.7 0 1 0-11.4 0zm16 0a5.7 5.7 0 1 0 11.4 0 5.7 5.7 0 1 0-11.4 0zm16 0a5.7 5.7 0 1 0 11.4 0 5.7 5.7 0 1 0-11.4 0zm16 0a5.7 5.7 0 1 0 11.4 0 5.7 5.7 0 1 0-11.4 0zm64 0a5.7 5.7 0 1 0 11.4 0 5.7 5.7 0 1 0-11.4 0zm16 0a5.7 5.7 0 1 0 11.4 0 5.7 5.7 0 1 0-11.4 0zm16 0a5.7 5.7 0 1 0 11.4 0 5.7 5.7 0 1 0-11.4 0zm16 0a5.7 5.7 0 1 0 11.4 0 5.7 5.7 0 1 0-11.4 0zm16 0a5.7 5.7 0 1 0 11.4 0 5.7 5.7 0 1 0-11.4 0zm16 0a5.7 5.7 0 1 0 11.4 0 5.7 5.7 0 1 0-11.4 0zm16 0a5.7 5.7 0 1 0 11.4 0 5.7 5.7 0 1 0-11.4 0zm-240 16a5.7 5.7 0 1 0 11.4 0 5.7 5.7 0 1 0-11.4 0zm16 0a5.7 5.7 0 1 0 11.4 0 5.7 5.7 0 1 0-11.4 0zm16 0a5.7 5.7 0 1 0 11.4 0 5.7 5.7 0 1 0-11.4 0zm16 0a5.7 5.7 0 1 0 11.4 0 5.7 5.7 0 1 0-11.4 0zm16 0a5.7 5.7 0 1 0 11.4 0 5.7 5.7 0 1 0-11.4 0zm16 0a5.7 5.7 0 1 0 11.4 0 5.7 5.7 0 1 0-11.4 0zm16 0a5.7 5.7 0 1 0 11.4 0 5.7 5.7 0 1 0-11.4 0zm64 0a5.7 5.7 0 1 0 11.4 0 5.7 5.7 0 1 0-11.4 0zm16 0a5.7 5.7 0 1 0 11.4 0 5.7 5.7 0 1 0-11.4 0zm16 0a5.7 5.7 0 1 0 11.4 0 5.7 5.7 0 1 0-11.4 0zm16 0a5.7 5.7 0 1 0 11.4 0 5.7 5.7 0 1 0-11.4 0zm16 0a5.7 5.7 0 1 0 11.4 0 5.7 5.7 0 1 0-11.4 0zm16 0a5.7 5.7 0 1 0 11.4 0 5.7 5.7 0 1 0-11.4 0zm-256 16a5.7 5.7 0 1 0 11.4 0 5.7 5.7 0 1 0-11.4 0zm16 0a5.7 5.7 0 1 0 11.4 0 5.7 5.7 0 1 0-11.4 0zm16 0a5.7 5.7 0 1 0 11.4 0 5.7 5.7 0 1 0-11.4 0zm16 0a5.7 5.7 0 1 0 11.4 0 5.7 5.7 0 1 0-11.4 0zm16 0a5.7 5.7 0 1 0 11.4 0 5.7 5.7 0 1 0-11.4 0zm16 0a5.7 5.7 0 1 0 11.4 0 5.7 5.7 0 1 0-11.4 0zm16 0a5.7 5.7 0 1 0 11.4 0 5.7 5.7 0 1 0-11.4 0zm16 0a5.7 5.7 0 1 0 11.4 0 5.7 5.7 0 1 0-11.4 0zm16 0a5.7 5.7 0 1 0 11.4 0 5.7 5.7 0 1 0-11.4 0zm64 0a5.7 5.7 0 1 0 11.4 0 5.7 5.7 0 1 0-11.4 0zm16 0a5.7 5.7 0 1 0 11.4 0 5.7 5.7 0 1 0-11.4 0zm16 0a5.7 5.7 0 1 0 11.4 0 5.7 5.7 0 1 0-11.4 0zm16 0a5.7 5.7 0 1 0 11.4 0 5.7 5.7 0 1 0-11.4 0zm16 0a5.7 5.7 0 1 0 11.4 0 5.7 5.7 0 1 0-11.4 0zm-272 16a5.7 5.7 0 1 0 11.4 0 5.7 5.7 0 1 0-11.4 0zm16 0a5.7 5.7 0 1 0 11.4 0 5.7 5.7 0 1 0-11.4 0zm16 0a5.7 5.7 0 1 0 11.4 0 5.7 5.7 0 1 0-11.4 0zm16 0a5.7 5.7 0 1 0 11.4 0 5.7 5.7 0 1 0-11.4 0zm16 0a5.7 5.7 0 1 0 11.4 0 5.7 5.7 0 1 0-11.4 0zm16 0a5.7 5.7 0 1 0 11.4 0 5.7 5.7 0 1 0-11.4 0zm16 0a5.7 5.7 0 1 0 11.4 0 5.7 5.7 0 1 0-11.4 0zm16 0a5.7 5.7 0 1 0 11.4 0 5.7 5.7 0 1 0-11.4 0zm16 0a5.7 5.7 0 1 0 11.4 0 5.7 5.7 0 1 0-11.4 0zm16 0a5.7 5.7 0 1 0 11.4 0 5.7 5.7 0 1 0-11.4 0zm16 0a5.7 5.7 0 1 0 11.4 0 5.7 5.7 0 1 0-11.4 0zm64 0a5.7 5.7 0 1 0 11.4 0 5.7 5.7 0 1 0-11.4 0zm16 0a5.7 5.7 0 1 0 11.4 0 5.7 5.7 0 1 0-11.4 0zm16 0a5.7 5.7 0 1 0 11.4 0 5.7 5.7 0 1 0-11.4 0zm-272 16a5.7 5.7 0 1 0 11.4 0 5.7 5.7 0 1 0-11.4 0zm16 0a5.7 5.7 0 1 0 11.4 0 5.7 5.7 0 1 0-11.4 0zm16 0a5.7 5.7 0 1 0 11.4 0 5.7 5.7 0 1 0-11.4 0zm16 0a5.7 5.7 0 1 0 11.4 0 5.7 5.7 0 1 0-11.4 0zm16 0a5.7 5.7 0 1 0 11.4 0 5.7 5.7 0 1 0-11.4 0zm16 0a5.7 5.7 0 1 0 11.4 0 5.7 5.7 0 1 0-11.4 0zm16 0a5.7 5.7 0 1 0 11.4 0 5.7 5.7 0 1 0-11.4 0zm16 0a5.7 5.7 0 1 0 11.4 0 5.7 5.7 0 1 0-11.4 0zm16 0a5.7 5.7 0 1 0 11.4 0 5.7 5.7 0 1 0-11.4 0zm16 0a5.7 5.7 0 1 0 11.4 0 5.7 5.7 0 1 0-11.4 0zm16 0a5.7 5.7 0 1 0 11.4 0 5.7 5.7 0 1 0-11.4 0zm16 0a5.7 5.7 0 1 0 11.4 0 5.7 5.7 0 1 0-11.4 0zm16 0a5.7 5.7 0 1 0 11.4 0 5.7 5.7 0 1 0-11.4 0zm64 0a5.7 5.7 0 1 0 11.4 0 5.7 5.7 0 1 0-11.4 0zm-272 16a5.7 5.7 0 1 0 11.4 0 5.7 5.7 0 1 0-11.4 0zm16 0a5.7 5.7 0 1 0 11.4 0 5.7 5.7 0 1 0-11.4 0zm16 0a5.7 5.7 0 1 0 11.4 0 5.7 5.7 0 1 0-11.4 0zm16 0a5.7 5.7 0 1 0 11.4 0 5.7 5.7 0 1 0-11.4 0zm16 0a5.7 5.7 0 1 0 11.4 0 5.7 5.7 0 1 0-11.4 0zm16 0a5.7 5.7 0 1 0 11.4 0 5.7 5.7 0 1 0-11.4 0zm16 0a5.7 5.7 0 1 0 11.4 0 5.7 5.7 0 1 0-11.4 0zm16 0a5.7 5.7 0 1 0 11.4 0 5.7 5.7 0 1 0-11.4 0zm16 0a5.7 5.7 0 1 0 11.4 0 5.7 5.7 0 1 0-11.4 0zm16 0a5.7 5.7 0 1 0 11.4 0 5.7 5.7 0 1 0-11.4 0zm16 0a5.7 5.7 0 1 0 11.4 0 5.7 5.7 0 1 0-11.4 0zm16 0a5.7 5.7 0 1 0 11.4 0 5.7 5.7 0 1 0-11.4 0zm16 0a5.7 5.7 0 1 0 11.4 0 5.7 5.7 0 1 0-11.4 0zm16 0a5.7 5.7 0 1 0 11.4 0 5.7 5.7 0 1 0-11.4 0zm16 0a5.7 5.7 0 1 0 11.4 0 5.7 5.7 0 1 0-11.4 0zm-240 16a5.7 5.7 0 1 0 11.4 0 5.7 5.7 0 1 0-11.4 0zm16 0a5.7 5.7 0 1 0 11.4 0 5.7 5.7 0 1 0-11.4 0zm16 0a5.7 5.7 0 1 0 11.4 0 5.7 5.7 0 1 0-11.4 0zm16 0a5.7 5.7 0 1 0 11.4 0 5.7 5.7 0 1 0-11.4 0zm16 0a5.7 5.7 0 1 0 11.4 0 5.7 5.7 0 1 0-11.4 0zm16 0a5.7 5.7 0 1 0 11.4 0 5.7 5.7 0 1 0-11.4 0zm16 0a5.7 5.7 0 1 0 11.4 0 5.7 5.7 0 1 0-11.4 0zm16 0a5.7 5.7 0 1 0 11.4 0 5.7 5.7 0 1 0-11.4 0zm16 0a5.7 5.7 0 1 0 11.4 0 5.7 5.7 0 1 0-11.4 0zm16 0a5.7 5.7 0 1 0 11.4 0 5.7 5.7 0 1 0-11.4 0zm16 0a5.7 5.7 0 1 0 11.4 0 5.7 5.7 0 1 0-11.4 0zm16 0a5.7 5.7 0 1 0 11.4 0 5.7 5.7 0 1 0-11.4 0zm16 0a5.7 5.7 0 1 0 11.4 0 5.7 5.7 0 1 0-11.4 0zm16 0a5.7 5.7 0 1 0 11.4 0 5.7 5.7 0 1 0-11.4 0zm16 0a5.7 5.7 0 1 0 11.4 0 5.7 5.7 0 1 0-11.4 0zm16 0a5.7 5.7 0 1 0 11.4 0 5.7 5.7 0 1 0-11.4 0zm-256 16a5.7 5.7 0 1 0 11.4 0 5.7 5.7 0 1 0-11.4 0zm16 0a5.7 5.7 0 1 0 11.4 0 5.7 5.7 0 1 0-11.4 0zm16 0a5.7 5.7 0 1 0 11.4 0 5.7 5.7 0 1 0-11.4 0zm16 0a5.7 5.7 0 1 0 11.4 0 5.7 5.7 0 1 0-11.4 0zm16 0a5.7 5.7 0 1 0 11.4 0 5.7 5.7 0 1 0-11.4 0zm16 0a5.7 5.7 0 1 0 11.4 0 5.7 5.7 0 1 0-11.4 0zm16 0a5.7 5.7 0 1 0 11.4 0 5.7 5.7 0 1 0-11.4 0zm16 0a5.7 5.7 0 1 0 11.4 0 5.7 5.7 0 1 0-11.4 0zm16 0a5.7 5.7 0 1 0 11.4 0 5.7 5.7 0 1 0-11.4 0zm16 0a5.7 5.7 0 1 0 11.4 0 5.7 5.7 0 1 0-11.4 0zm16 0a5.7 5.7 0 1 0 11.4 0 5.7 5.7 0 1 0-11.4 0zm16 0a5.7 5.7 0 1 0 11.4 0 5.7 5.7 0 1 0-11.4 0zm16 0a5.7 5.7 0 1 0 11.4 0 5.7 5.7 0 1 0-11.4 0zm16 0a5.7 5.7 0 1 0 11.4 0 5.7 5.7 0 1 0-11.4 0zm16 0a5.7 5.7 0 1 0 11.4 0 5.7 5.7 0 1 0-11.4 0zm16 0a5.7 5.7 0 1 0 11.4 0 5.7 5.7 0 1 0-11.4 0zm16 0a5.7 5.7 0 1 0 11.4 0 5.7 5.7 0 1 0-11.4 0zm-272 16a5.7 5.7 0 1 0 11.4 0 5.7 5.7 0 1 0-11.4 0zm16 0a5.7 5.7 0 1 0 11.4 0 5.7 5.7 0 1 0-11.4 0zm16 0a5.7 5.7 0 1 0 11.4 0 5.7 5.7 0 1 0-11.4 0zm16 0a5.7 5.7 0 1 0 11.4 0 5.7 5.7 0 1 0-11.4 0zm16 0a5.7 5.7 0 1 0 11.4 0 5.7 5.7 0 1 0-11.4 0zm16 0a5.7 5.7 0 1 0 11.4 0 5.7 5.7 0 1 0-11.4 0zm16 0a5.7 5.7 0 1 0 11.4 0 5.7 5.7 0 1 0-11.4 0zm16 0a5.7 5.7 0 1 0 11.4 0 5.7 5.7 0 1 0-11.4 0zm16 0a5.7 5.7 0 1 0 11.4 0 5.7 5.7 0 1 0-11.4 0zm16 0a5.7 5.7 0 1 0 11.4 0 5.7 5.7 0 1 0-11.4 0zm16 0a5.7 5.7 0 1 0 11.4 0 5.7 5.7 0 1 0-11.4 0zm16 0a5.7 5.7 0 1 0 11.4 0 5.7 5.7 0 1 0-11.4 0zm16 0a5.7 5.7 0 1 0 11.4 0 5.7 5.7 0 1 0-11.4 0zm16 0a5.7 5.7 0 1 0 11.4 0 5.7 5.7 0 1 0-11.4 0zm16 0a5.7 5.7 0 1 0 11.4 0 5.7 5.7 0 1 0-11.4 0zm16 0a5.7 5.7 0 1 0 11.4 0 5.7 5.7 0 1 0-11.4 0zm16 0a5.7 5.7 0 1 0 11.4 0 5.7 5.7 0 1 0-11.4 0zm-272 16a5.7 5.7 0 1 0 11.4 0 5.7 5.7 0 1 0-11.4 0zm16 0a5.7 5.7 0 1 0 11.4 0 5.7 5.7 0 1 0-11.4 0zm16 0a5.7 5.7 0 1 0 11.4 0 5.7 5.7 0 1 0-11.4 0zm16 0a5.7 5.7 0 1 0 11.4 0 5.7 5.7 0 1 0-11.4 0zm16 0a5.7 5.7 0 1 0 11.4 0 5.7 5.7 0 1 0-11.4 0zm16 0a5.7 5.7 0 1 0 11.4 0 5.7 5.7 0 1 0-11.4 0zm16 0a5.7 5.7 0 1 0 11.4 0 5.7 5.7 0 1 0-11.4 0zm16 0a5.7 5.7 0 1 0 11.4 0 5.7 5.7 0 1 0-11.4 0zm16 0a5.7 5.7 0 1 0 11.4 0 5.7 5.7 0 1 0-11.4 0zm16 0a5.7 5.7 0 1 0 11.4 0 5.7 5.7 0 1 0-11.4 0zm16 0a5.7 5.7 0 1 0 11.4 0 5.7 5.7 0 1 0-11.4 0zm16 0a5.7 5.7 0 1 0 11.4 0 5.7 5.7 0 1 0-11.4 0zm16 0a5.7 5.7 0 1 0 11.4 0 5.7 5.7 0 1 0-11.4 0zm16 0a5.7 5.7 0 1 0 11.4 0 5.7 5.7 0 1 0-11.4 0zm16 0a5.7 5.7 0 1 0 11.4 0 5.7 5.7 0 1 0-11.4 0zm16 0a5.7 5.7 0 1 0 11.4 0 5.7 5.7 0 1 0-11.4 0zm16 0a5.7 5.7 0 1 0 11.4 0 5.7 5.7 0 1 0-11.4 0zm-272 16a5.7 5.7 0 1 0 11.4 0 5.7 5.7 0 1 0-11.4 0zm16 0a5.7 5.7 0 1 0 11.4 0 5.7 5.7 0 1 0-11.4 0zm16 0a5.7 5.7 0 1 0 11.4 0 5.7 5.7 0 1 0-11.4 0zm16 0a5.7 5.7 0 1 0 11.4 0 5.7 5.7 0 1 0-11.4 0zm16 0a5.7 5.7 0 1 0 11.4 0 5.7 5.7 0 1 0-11.4 0zm16 0a5.7 5.7 0 1 0 11.4 0 5.7 5.7 0 1 0-11.4 0zm16 0a5.7 5.7 0 1 0 11.4 0 5.7 5.7 0 1 0-11.4 0zm16 0a5.7 5.7 0 1 0 11.4 0 5.7 5.7 0 1 0-11.4 0zm16 0a5.7 5.7 0 1 0 11.4 0 5.7 5.7 0 1 0-11.4 0zm16 0a5.7 5.7 0 1 0 11.4 0 5.7 5.7 0 1 0-11.4 0zm16 0a5.7 5.7 0 1 0 11.4 0 5.7 5.7 0 1 0-11.4 0zm16 0a5.7 5.7 0 1 0 11.4 0 5.7 5.7 0 1 0-11.4 0zm16 0a5.7 5.7 0 1 0 11.4 0 5.7 5.7 0 1 0-11.4 0zm16 0a5.7 5.7 0 1 0 11.4 0 5.7 5.7 0 1 0-11.4 0zm16 0a5.7 5.7 0 1 0 11.4 0 5.7 5.7 0 1 0-11.4 0zm16 0a5.7 5.7 0 1 0 11.4 0 5.7 5.7 0 1 0-11.4 0zm16 0a5.7 5.7 0 1 0 11.4 0 5.7 5.7 0 1 0-11.4 0zm-256 16a5.7 5.7 0 1 0 11.4 0 5.7 5.7 0 1 0-11.4 0zm16 0a5.7 5.7 0 1 0 11.4 0 5.7 5.7 0 1 0-11.4 0zm16 0a5.7 5.7 0 1 0 11.4 0 5.7 5.7 0 1 0-11.4 0zm16 0a5.7 5.7 0 1 0 11.4 0 5.7 5.7 0 1 0-11.4 0zm16 0a5.7 5.7 0 1 0 11.4 0 5.7 5.7 0 1 0-11.4 0zm16 0a5.7 5.7 0 1 0 11.4 0 5.7 5.7 0 1 0-11.4 0zm16 0a5.7 5.7 0 1 0 11.4 0 5.7 5.7 0 1 0-11.4 0zm16 0a5.7 5.7 0 1 0 11.4 0 5.7 5.7 0 1 0-11.4 0zm16 0a5.7 5.7 0 1 0 11.4 0 5.7 5.7 0 1 0-11.4 0zm16 0a5.7 5.7 0 1 0 11.4 0 5.7 5.7 0 1 0-11.4 0zm16 0a5.7 5.7 0 1 0 11.4 0 5.7 5.7 0 1 0-11.4 0zm16 0a5.7 5.7 0 1 0 11.4 0 5.7 5.7 0 1 0-11.4 0zm16 0a5.7 5.7 0 1 0 11.4 0 5.7 5.7 0 1 0-11.4 0zm16 0a5.7 5.7 0 1 0 11.4 0 5.7 5.7 0 1 0-11.4 0zm16 0a5.7 5.7 0 1 0 11.4 0 5.7 5.7 0 1 0-11.4 0zm16 0a5.7 5.7 0 1 0 11.4 0 5.7 5.7 0 1 0-11.4 0zm-240 16a5.7 5.7 0 1 0 11.4 0 5.7 5.7 0 1 0-11.4 0zm16 0a5.7 5.7 0 1 0 11.4 0 5.7 5.7 0 1 0-11.4 0zm16 0a5.7 5.7 0 1 0 11.4 0 5.7 5.7 0 1 0-11.4 0zm16 0a5.7 5.7 0 1 0 11.4 0 5.7 5.7 0 1 0-11.4 0zm16 0a5.7 5.7 0 1 0 11.4 0 5.7 5.7 0 1 0-11.4 0zm16 0a5.7 5.7 0 1 0 11.4 0 5.7 5.7 0 1 0-11.4 0zm16 0a5.7 5.7 0 1 0 11.4 0 5.7 5.7 0 1 0-11.4 0zm16 0a5.7 5.7 0 1 0 11.4 0 5.7 5.7 0 1 0-11.4 0zm16 0a5.7 5.7 0 1 0 11.4 0 5.7 5.7 0 1 0-11.4 0zm16 0a5.7 5.7 0 1 0 11.4 0 5.7 5.7 0 1 0-11.4 0zm16 0a5.7 5.7 0 1 0 11.4 0 5.7 5.7 0 1 0-11.4 0zm16 0a5.7 5.7 0 1 0 11.4 0 5.7 5.7 0 1 0-11.4 0zm16 0a5.7 5.7 0 1 0 11.4 0 5.7 5.7 0 1 0-11.4 0zm16 0a5.7 5.7 0 1 0 11.4 0 5.7 5.7 0 1 0-11.4 0zm16 0a5.7 5.7 0 1 0 11.4 0 5.7 5.7 0 1 0-11.4 0zm-224 16a5.7 5.7 0 1 0 11.4 0 5.7 5.7 0 1 0-11.4 0zm16 0a5.7 5.7 0 1 0 11.4 0 5.7 5.7 0 1 0-11.4 0zm16 0a5.7 5.7 0 1 0 11.4 0 5.7 5.7 0 1 0-11.4 0zm16 0a5.7 5.7 0 1 0 11.4 0 5.7 5.7 0 1 0-11.4 0zm16 0a5.7 5.7 0 1 0 11.4 0 5.7 5.7 0 1 0-11.4 0zm16 0a5.7 5.7 0 1 0 11.4 0 5.7 5.7 0 1 0-11.4 0zm16 0a5.7 5.7 0 1 0 11.4 0 5.7 5.7 0 1 0-11.4 0zm16 0a5.7 5.7 0 1 0 11.4 0 5.7 5.7 0 1 0-11.4 0zm16 0a5.7 5.7 0 1 0 11.4 0 5.7 5.7 0 1 0-11.4 0zm16 0a5.7 5.7 0 1 0 11.4 0 5.7 5.7 0 1 0-11.4 0zm16 0a5.7 5.7 0 1 0 11.4 0 5.7 5.7 0 1 0-11.4 0zm16 0a5.7 5.7 0 1 0 11.4 0 5.7 5.7 0 1 0-11.4 0zm16 0a5.7 5.7 0 1 0 11.4 0 5.7 5.7 0 1 0-11.4 0zm16 0a5.7 5.7 0 1 0 11.4 0 5.7 5.7 0 1 0-11.4 0zm-224 16a5.7 5.7 0 1 0 11.4 0 5.7 5.7 0 1 0-11.4 0zm16 0a5.7 5.7 0 1 0 11.4 0 5.7 5.7 0 1 0-11.4 0zm16 0a5.7 5.7 0 1 0 11.4 0 5.7 5.7 0 1 0-11.4 0zm16 0a5.7 5.7 0 1 0 11.4 0 5.7 5.7 0 1 0-11.4 0zm16 0a5.7 5.7 0 1 0 11.4 0 5.7 5.7 0 1 0-11.4 0zm16 0a5.7 5.7 0 1 0 11.4 0 5.7 5.7 0 1 0-11.4 0zm16 0a5.7 5.7 0 1 0 11.4 0 5.7 5.7 0 1 0-11.4 0zm16 0a5.7 5.7 0 1 0 11.4 0 5.7 5.7 0 1 0-11.4 0zm16 0a5.7 5.7 0 1 0 11.4 0 5.7 5.7 0 1 0-11.4 0zm16 0a5.7 5.7 0 1 0 11.4 0 5.7 5.7 0 1 0-11.4 0zm16 0a5.7 5.7 0 1 0 11.4 0 5.7 5.7 0 1 0-11.4 0zm16 0a5.7 5.7 0 1 0 11.4 0 5.7 5.7 0 1 0-11.4 0zm16 0a5.7 5.7 0 1 0 11.4 0 5.7 5.7 0 1 0-11.4 0zm16 0a5.7 5.7 0 1 0 11.4 0 5.7 5.7 0 1 0-11.4 0zm-208 16a5.7 5.7 0 1 0 11.4 0 5.7 5.7 0 1 0-11.4 0zm16 0a5.7 5.7 0 1 0 11.4 0 5.7 5.7 0 1 0-11.4 0zm16 0a5.7 5.7 0 1 0 11.4 0 5.7 5.7 0 1 0-11.4 0zm16 0a5.7 5.7 0 1 0 11.4 0 5.7 5.7 0 1 0-11.4 0zm16 0a5.7 5.7 0 1 0 11.4 0 5.7 5.7 0 1 0-11.4 0zm16 0a5.7 5.7 0 1 0 11.4 0 5.7 5.7 0 1 0-11.4 0zm16 0a5.7 5.7 0 1 0 11.4 0 5.7 5.7 0 1 0-11.4 0zm16 0a5.7 5.7 0 1 0 11.4 0 5.7 5.7 0 1 0-11.4 0zm16 0a5.7 5.7 0 1 0 11.4 0 5.7 5.7 0 1 0-11.4 0zm16 0a5.7 5.7 0 1 0 11.4 0 5.7 5.7 0 1 0-11.4 0zm16 0a5.7 5.7 0 1 0 11.4 0 5.7 5.7 0 1 0-11.4 0zm16 0a5.7 5.7 0 1 0 11.4 0 5.7 5.7 0 1 0-11.4 0zm16 0a5.7 5.7 0 1 0 11.4 0 5.7 5.7 0 1 0-11.4 0zm-192 16a5.7 5.7 0 1 0 11.4 0 5.7 5.7 0 1 0-11.4 0zm16 0a5.7 5.7 0 1 0 11.4 0 5.7 5.7 0 1 0-11.4 0zm16 0a5.7 5.7 0 1 0 11.4 0 5.7 5.7 0 1 0-11.4 0zm16 0a5.7 5.7 0 1 0 11.4 0 5.7 5.7 0 1 0-11.4 0zm16 0a5.7 5.7 0 1 0 11.4 0 5.7 5.7 0 1 0-11.4 0zm16 0a5.7 5.7 0 1 0 11.4 0 5.7 5.7 0 1 0-11.4 0zm16 0a5.7 5.7 0 1 0 11.4 0 5.7 5.7 0 1 0-11.4 0zm16 0a5.7 5.7 0 1 0 11.4 0 5.7 5.7 0 1 0-11.4 0zm16 0a5.7 5.7 0 1 0 11.4 0 5.7 5.7 0 1 0-11.4 0zm16 0a5.7 5.7 0 1 0 11.4 0 5.7 5.7 0 1 0-11.4 0zm16 0a5.7 5.7 0 1 0 11.4 0 5.7 5.7 0 1 0-11.4 0zm16 0a5.7 5.7 0 1 0 11.4 0 5.7 5.7 0 1 0-11.4 0zm-176 16a5.7 5.7 0 1 0 11.4 0 5.7 5.7 0 1 0-11.4 0zm16 0a5.7 5.7 0 1 0 11.4 0 5.7 5.7 0 1 0-11.4 0zm16 0a5.7 5.7 0 1 0 11.4 0 5.7 5.7 0 1 0-11.4 0zm16 0a5.7 5.7 0 1 0 11.4 0 5.7 5.7 0 1 0-11.4 0zm16 0a5.7 5.7 0 1 0 11.4 0 5.7 5.7 0 1 0-11.4 0zm16 0a5.7 5.7 0 1 0 11.4 0 5.7 5.7 0 1 0-11.4 0zm16 0a5.7 5.7 0 1 0 11.4 0 5.7 5.7 0 1 0-11.4 0zm16 0a5.7 5.7 0 1 0 11.4 0 5.7 5.7 0 1 0-11.4 0zm16 0a5.7 5.7 0 1 0 11.4 0 5.7 5.7 0 1 0-11.4 0zm16 0a5.7 5.7 0 1 0 11.4 0 5.7 5.7 0 1 0-11.4 0zm16 0a5.7 5.7 0 1 0 11.4 0 5.7 5.7 0 1 0-11.4 0zm-160 16a5.7 5.7 0 1 0 11.4 0 5.7 5.7 0 1 0-11.4 0zm16 0a5.7 5.7 0 1 0 11.4 0 5.7 5.7 0 1 0-11.4 0zm16 0a5.7 5.7 0 1 0 11.4 0 5.7 5.7 0 1 0-11.4 0zm16 0a5.7 5.7 0 1 0 11.4 0 5.7 5.7 0 1 0-11.4 0zm16 0a5.7 5.7 0 1 0 11.4 0 5.7 5.7 0 1 0-11.4 0zm16 0a5.7 5.7 0 1 0 11.4 0 5.7 5.7 0 1 0-11.4 0zm16 0a5.7 5.7 0 1 0 11.4 0 5.7 5.7 0 1 0-11.4 0zm16 0a5.7 5.7 0 1 0 11.4 0 5.7 5.7 0 1 0-11.4 0zm16 0a5.7 5.7 0 1 0 11.4 0 5.7 5.7 0 1 0-11.4 0zm16 0a5.7 5.7 0 1 0 11.4 0 5.7 5.7 0 1 0-11.4 0zm-128 16a5.7 5.7 0 1 0 11.4 0 5.7 5.7 0 1 0-11.4 0zm16 0a5.7 5.7 0 1 0 11.4 0 5.7 5.7 0 1 0-11.4 0zm16 0a5.7 5.7 0 1 0 11.4 0 5.7 5.7 0 1 0-11.4 0zm16 0a5.7 5.7 0 1 0 11.4 0 5.7 5.7 0 1 0-11.4 0zm16 0a5.7 5.7 0 1 0 11.4 0 5.7 5.7 0 1 0-11.4 0z"/></svg>