<svg xmlns="http://www.w3.org/2000/svg" viewBox="0 0 512 512"><path d="M322.3 8a5.7 5.7 0 1 0 11.4 0 5.7 5.7 0 1 0-11.4 0zm16 0a5.7 5.7 0 1 0 11.4 0 5.7 5.7 0 1 0-11.4 0zm-48 16a5.7 5.7 0 1 0 11.4 0 5.7 5.7 0 1 0-11.4 0zm16 0a5.7 5.7 0 1 0 11.4 0 5.7 5.7 0 1 0-11.4 0zm16 0a5.7 5.7 0 1 0 11.4 0 5.7 5.7 0 1 0-11.4 0zm16 0a5.7 5.7 0 1 0 11.4 0 5.7 5.7 0 1 0-11.4 0zm-64 16a5.7 5.7 0 1 0 11.4 0 5.7 5.7 0 1 0-11.4 0zm16 0a5.7 5.7 0 1 0 11.4 0 5.7 5.7 0 1 0-11.4 0zm16 0a5.7 5.7 0 1 0 11.4 0 5.7 5.7 0 1 0-11.4 0zm16 0a5.7 5.7 0 1 0 11.4 0 5.7 5.7 0 1 0-11.4 0zm16 0a5.7 5.7 0 1 0 11.4 0 5.7 5.7 0 1 0-11.4 0zm-64 16a5.7 5.7 0 1 0 11.4 0 5.7 5.7 0 1 0-11.4 0zm16 0a5.7 5.7 0 1 0 11.4 0 5.7 5.7 0 1 0-11.4 0zm16 0a5.7 5.7 0 1 0 11.4 0 5.7 5.7 0 1 0-11.4 0zm16 0a5.7 5.7 0 1 0 11.4 0 5.7 5.7 0 1 0-11.4 0zm-64 16a5.7 5.7 0 1 0 11.4 0 5.7 5.7 0 1 0-11.4 0zm16 0a5.7 5.7 0 1 0 11.4 0 5.7 5.7 0 1 0-11.4 0zm16 0a5.7 5.7 0 1 0 11.4 0 5.7 5.7 0 1 0-11.4 0zm16 0a5.7 5.7 0 1 0 11.4 0 5.7 5.7 0 1 0-11.4 0zm16 0a5.7 5.7 0 1 0 11.4 0 5.7 5.7 0 1 0-11.4 0zm-64 16a5.7 5.7 0 1 0 11.4 0 5.7 5.7 0 1 0-11.4 0zm16 0a5.7 5.7 0 1 0 11.4 0 5.7 5.7 0 1 0-11.4 0zm16 0a5.7 5.7 0 1 0 11.4 0 5.7 5.7 0 1 0-11.4 0zm16 0a5.7 5.7 0 1 0 11.4 0 5.7 5.7 0 1 0-11.4 0zm-48 16a5.7 5.7 0 1 0 11.4 0 5.7 5.7 0 1 0-11.4 0zm16 0a5.7 5.7 0 1 0 11.4 0 5.7 5.7 0 1 0-11.4 0zm-112 16a5.7 5.7 0 1 0 11.4 0 5.7 5.7 0 1 0-11.4 0zm16 0a5.7 5.7 0 1 0 11.4 0 5.7 5.7 0 1 0-11.4 0zm16 0a5.7 5.7 0 1 0 11.4 0 5.7 5.7 0 1 0-11.4 0zm128 0a5.7 5.7 0 1 0 11.4 0 5.7 5.7 0 1 0-11.4 0zm16 0a5.7 5.7 0 1 0 11.4 0 5.7 5.7 0 1 0-11.4 0zm16 0a5.7 5.7 0 1 0 11.4 0 5.7 5.7 0 1 0-11.4 0zm-224 16a5.7 5.7 0 1 0 11.4 0 5.7 5.7 0 1 0-11.4 0zm16 0a5.7 5.7 0 1 0 11.4 0 5.7 5.7 0 1 0-11.4 0zm16 0a5.7 5.7 0 1 0 11.4 0 5.7 5.7 0 1 0-11.4 0zm16 0a5.7 5.7 0 1 0 11.4 0 5.7 5.7 0 1 0-11.4 0zm16 0a5.7 5.7 0 1 0 11.4 0 5.7 5.7 0 1 0-11.4 0zm16 0a5.7 5.7 0 1 0 11.4 0 5.7 5.7 0 1 0-11.4 0zm16 0a5.7 5.7 0 1 0 11.4 0 5.7 5.7 0 1 0-11.4 0zm48 0a5.7 5.7 0 1 0 11.4 0 5.7 5.7 0 1 0-11.4 0zm16 0a5.7 5.7 0 1 0 11.4 0 5.7 5.7 0 1 0-11.4 0zm16 0a5.7 5.7 0 1 0 11.4 0 5.7 5.7 0 1 0-11.4 0zm16 0a5.7 5.7 0 1 0 11.4 0 5.7 5.7 0 1 0-11.4 0zm16 0a5.7 5.7 0 1 0 11.4 0 5.7 5.7 0 1 0-11.4 0zm16 0a5.7 5.7 0 1 0 11.4 0 5.7 5.7 0 1 0-11.4 0zm16 0a5.7 5.7 0 1 0 11.4 0 5.7 5.7 0 1 0-11.4 0zm16 0a5.7 5.7 0 1 0 11.4 0 5.7 5.7 0 1 0-11.4 0zm-288 16a5.7 5.7 0 1 0 11.4 0 5.7 5.7 0 1 0-11.4 0zm16 0a5.7 5.7 0 1 0 11.4 0 5.7 5.7 0 1 0-11.4 0zm16 0a5.7 5.7 0 1 0 11.4 0 5.7 5.7 0 1 0-11.4 0zm16 0a5.7 5.7 0 1 0 11.4 0 5.7 5.7 0 1 0-11.4 0zm16 0a5.7 5.7 0 1 0 11.4 0 5.7 5.7 0 1 0-11.4 0zm16 0a5.7 5.7 0 1 0 11.4 0 5.7 5.7 0 1 0-11.4 0zm16 0a5.7 5.7 0 1 0 11.4 0 5.7 5.7 0 1 0-11.4 0zm16 0a5.7 5.7 0 1 0 11.4 0 5.7 5.7 0 1 0-11.4 0zm16 0a5.7 5.7 0 1 0 11.4 0 5.7 5.7 0 1 0-11.4 0zm16 0a5.7 5.7 0 1 0 11.4 0 5.7 5.7 0 1 0-11.4 0zm16 0a5.7 5.7 0 1 0 11.4 0 5.7 5.7 0 1 0-11.4 0zm16 0a5.7 5.7 0 1 0 11.4 0 5.7 5.7 0 1 0-11.4 0zm16 0a5.7 5.7 0 1 0 11.4 0 5.7 5.7 0 1 0-11.4 0zm16 0a5.7 5.7 0 1 0 11.4 0 5.7 5.7 0 1 0-11.4 0zm16 0a5.7 5.7 0 1 0 11.4 0 5.7 5.7 0 1 0-11.4 0zm16 0a5.7 5.7 0 1 0 11.4 0 5.7 5.7 0 1 0-11.4 0zm16 0a5.7 5.7 0 1 0 11.4 0 5.7 5.7 0 1 0-11.4 0zm16 0a5.7 5.7 0 1 0 11.4 0 5.7 5.7 0 1 0-11.4 0zm16 0a5.7 5.7 0 1 0 11.4 0 5.7 5.7 0 1 0-11.4 0zm16 0a5.7 5.7 0 1 0 11.4 0 5.7 5.7 0 1 0-11.4 0zm16 0a5.7 5.7 0 1 0 11.4 0 5.7 5.7 0 1 0-11.4 0zm-336 16a5.7 5.7 0 1 0 11.4 0 5.7 5.7 0 1 0-11.4 0zm16 0a5.7 5.7 0 1 0 11.4 0 5.7 5.7 0 1 0-11.4 0zm16 0a5.7 5.7 0 1 0 11.4 0 5.7 5.7 0 1 0-11.4 0zm16 0a5.7 5.7 0 1 0 11.4 0 5.7 5.7 0 1 0-11.4 0zm16 0a5.7 5.7 0 1 0 11.4 0 5.7 5.7 0 1 0-11.4 0zm16 0a5.7 5.7 0 1 0 11.4 0 5.7 5.7 0 1 0-11.4 0zm16 0a5.7 5.7 0 1 0 11.4 0 5.7 5.7 0 1 0-11.4 0zm16 0a5.7 5.7 0 1 0 11.4 0 5.7 5.7 0 1 0-11.4 0zm16 0a5.7 5.7 0 1 0 11.4 0 5.7 5.7 0 1 0-11.4 0zm16 0a5.7 5.7 0 1 0 11.4 0 5.7 5.7 0 1 0-11.4 0zm16 0a5.7 5.7 0 1 0 11.4 0 5.7 5.7 0 1 0-11.4 0zm16 0a5.7 5.7 0 1 0 11.4 0 5.7 5.7 0 1 0-11.4 0zm16 0a5.7 5.7 0 1 0 11.4 0 5.7 5.7 0 1 0-11.4 0zm16 0a5.7 5.7 0 1 0 11.4 0 5.7 5.7 0 1 0-11.4 0zm16 0a5.7 5.7 0 1 0 11.4 0 5.7 5.7 0 1 0-11.4 0zm16 0a5.7 5.7 0 1 0 11.4 0 5.7 5.7 0 1 0-11.4 0zm16 0a5.7 5.7 0 1 0 11.4 0 5.7 5.7 0 1 0-11.4 0zm16 0a5.7 5.7 0 1 0 11.4 0 5.7 5.7 0 1 0-11.4 0zm16 0a5.7 5.7 0 1 0 11.4 0 5.7 5.7 0 1 0-11.4 0zm16 0a5.7 5.7 0 1 0 11.4 0 5.7 5.7 0 1 0-11.4 0zm16 0a5.7 5.7 0 1 0 11.4 0 5.7 5.7 0 1 0-11.4 0zm16 0a5.7 5.7 0 1 0 11.4 0 5.7 5.7 0 1 0-11.4 0zm16 0a5.7 5.7 0 1 0 11.4 0 5.7 5.7 0 1 0-11.4 0zm-352 16a5.7 5.7 0 1 0 11.4 0 5.7 5.7 0 1 0-11.4 0zm16 0a5.7 5.7 0 1 0 11.4 0 5.7 5.7 0 1 0-11.4 0zm16 0a5.7 5.7 0 1 0 11.4 0 5.7 5.7 0 1 0-11.4 0zm16 0a5.7 5.7 0 1 0 11.4 0 5.7 5.7 0 1 0-11.4 0zm16 0a5.7 5.7 0 1 0 11.4 0 5.7 5.7 0 1 0-11.4 0zm16 0a5.7 5.7 0 1 0 11.4 0 5.7 5.7 0 1 0-11.4 0zm16 0a5.7 5.7 0 1 0 11.4 0 5.7 5.7 0 1 0-11.4 0zm16 0a5.7 5.7 0 1 0 11.4 0 5.7 5.7 0 1 0-11.4 0zm16 0a5.7 5.7 0 1 0 11.4 0 5.7 5.7 0 1 0-11.4 0zm16 0a5.7 5.7 0 1 0 11.4 0 5.7 5.7 0 1 0-11.4 0zm16 0a5.7 5.7 0 1 0 11.4 0 5.7 5.7 0 1 0-11.4 0zm16 0a5.7 5.7 0 1 0 11.4 0 5.7 5.7 0 1 0-11.4 0zm16 0a5.7 5.7 0 1 0 11.4 0 5.7 5.7 0 1 0-11.4 0zm16 0a5.7 5.7 0 1 0 11.4 0 5.7 5.7 0 1 0-11.4 0zm16 0a5.7 5.7 0 1 0 11.4 0 5.7 5.7 0 1 0-11.4 0zm16 0a5.7 5.7 0 1 0 11.4 0 5.7 5.7 0 1 0-11.4 0zm16 0a5.7 5.7 0 1 0 11.4 0 5.7 5.7 0 1 0-11.4 0zm16 0a5.7 5.7 0 1 0 11.4 0 5.7 5.7 0 1 0-11.4 0zm16 0a5.7 5.7 0 1 0 11.4 0 5.7 5.7 0 1 0-11.4 0zm16 0a5.7 5.7 0 1 0 11.4 0 5.7 5.7 0 1 0-11.4 0zm16 0a5.7 5.7 0 1 0 11.4 0 5.7 5.7 0 1 0-11.4 0zm16 0a5.7 5.7 0 1 0 11.4 0 5.7 5.7 0 1 0-11.4 0zm16 0a5.7 5.7 0 1 0 11.4 0 5.7 5.7 0 1 0-11.4 0zm-368 16a5.7 5.7 0 1 0 11.4 0 5.7 5.7 0 1 0-11.4 0zm16 0a5.7 5.7 0 1 0 11.4 0 5.7 5.7 0 1 0-11.4 0zm16 0a5.7 5.7 0 1 0 11.4 0 5.7 5.7 0 1 0-11.4 0zm16 0a5.7 5.7 0 1 0 11.4 0 5.7 5.7 0 1 0-11.4 0zm16 0a5.7 5.7 0 1 0 11.4 0 5.7 5.7 0 1 0-11.4 0zm16 0a5.7 5.7 0 1 0 11.4 0 5.7 5.7 0 1 0-11.4 0zm16 0a5.7 5.7 0 1 0 11.4 0 5.7 5.7 0 1 0-11.4 0zm16 0a5.7 5.7 0 1 0 11.4 0 5.7 5.7 0 1 0-11.4 0zm16 0a5.7 5.7 0 1 0 11.4 0 5.7 5.7 0 1 0-11.4 0zm16 0a5.7 5.7 0 1 0 11.4 0 5.7 5.7 0 1 0-11.4 0zm16 0a5.7 5.7 0 1 0 11.4 0 5.7 5.7 0 1 0-11.4 0zm16 0a5.7 5.7 0 1 0 11.4 0 5.7 5.7 0 1 0-11.4 0zm16 0a5.7 5.7 0 1 0 11.4 0 5.7 5.7 0 1 0-11.4 0zm16 0a5.7 5.7 0 1 0 11.4 0 5.7 5.7 0 1 0-11.4 0zm16 0a5.7 5.7 0 1 0 11.4 0 5.7 5.7 0 1 0-11.4 0zm16 0a5.7 5.7 0 1 0 11.4 0 5.7 5.7 0 1 0-11.4 0zm16 0a5.7 5.7 0 1 0 11.4 0 5.7 5.7 0 1 0-11.4 0zm16 0a5.7 5.7 0 1 0 11.4 0 5.7 5.7 0 1 0-11.4 0zm16 0a5.7 5.7 0 1 0 11.4 0 5.7 5.7 0 1 0-11.4 0zm16 0a5.7 5.7 0 1 0 11.4 0 5.7 5.7 0 1 0-11.4 0zm16 0a5.7 5.7 0 1 0 11.4 0 5.7 5.7 0 1 0-11.4 0zm16 0a5.7 5.7 0 1 0 11.4 0 5.7 5.7 0 1 0-11.4 0zm16 0a5.7 5.7 0 1 0 11.4 0 5.7 5.7 0 1 0-11.4 0zm-352 16a5.7 5.7 0 1 0 11.4 0 5.7 5.7 0 1 0-11.4 0zm16 0a5.7 5.7 0 1 0 11.4 0 5.7 5.7 0 1 0-11.4 0zm16 0a5.7 5.7 0 1 0 11.4 0 5.7 5.7 0 1 0-11.4 0zm16 0a5.7 5.7 0 1 0 11.4 0 5.7 5.7 0 1 0-11.4 0zm16 0a5.7 5.7 0 1 0 11.4 0 5.7 5.7 0 1 0-11.4 0zm16 0a5.7 5.7 0 1 0 11.4 0 5.7 5.7 0 1 0-11.4 0zm16 0a5.7 5.7 0 1 0 11.4 0 5.7 5.7 0 1 0-11.4 0zm16 0a5.7 5.7 0 1 0 11.4 0 5.7 5.7 0 1 0-11.4 0zm16 0a5.7 5.7 0 1 0 11.4 0 5.7 5.7 0 1 0-11.4 0zm16 0a5.7 5.7 0 1 0 11.4 0 5.7 5.7 0 1 0-11.4 0zm16 0a5.7 5.7 0 1 0 11.4 0 5.7 5.7 0 1 0-11.4 0zm16 0a5.7 5.7 0 1 0 11.4 0 5.7 5.7 0 1 0-11.4 0zm16 0a5.7 5.7 0 1 0 11.4 0 5.7 5.7 0 1 0-11.4 0zm16 0a5.7 5.7 0 1 0 11.4 0 5.7 5.7 0 1 0-11.4 0zm16 0a5.7 5.7 0 1 0 11.4 0 5.7 5.7 0 1 0-11.4 0zm16 0a5.7 5.7 0 1 0 11.4 0 5.7 5.7 0 1 0-11.4 0zm16 0a5.7 5.7 0 1 0 11.4 0 5.7 5.7 0 1 0-11.4 0zm16 0a5.7 5.7 0 1 0 11.4 0 5.7 5.7 0 1 0-11.4 0zm16 0a5.7 5.7 0 1 0 11.4 0 5.7 5.7 0 1 0-11.4 0zm16 0a5.7 5.7 0 1 0 11.4 0 5.7 5.7 0 1 0-11.4 0zm16 0a5.7 5.7 0 1 0 11.4 0 5.7 5.7 0 1 0-11.4 0zm16 0a5.7 5.7 0 1 0 11.4 0 5.7 5.7 0 1 0-11.4 0zm-352 16a5.7 5.7 0 1 0 11.4 0 5.7 5.7 0 1 0-11.4 0zm16 0a5.7 5.7 0 1 0 11.4 0 5.7 5.7 0 1 0-11.4 0zm16 0a5.7 5.7 0 1 0 11.4 0 5.7 5.7 0 1 0-11.4 0zm16 0a5.7 5.7 0 1 0 11.4 0 5.7 5.7 0 1 0-11.4 0zm16 0a5.7 5.7 0 1 0 11.4 0 5.7 5.7 0 1 0-11.4 0zm16 0a5.7 5.7 0 1 0 11.4 0 5.7 5.7 0 1 0-11.4 0zm16 0a5.7 5.7 0 1 0 11.4 0 5.7 5.7 0 1 0-11.4 0zm16 0a5.7 5.7 0 1 0 11.4 0 5.7 5.7 0 1 0-11.4 0zm16 0a5.7 5.7 0 1 0 11.4 0 5.7 5.7 0 1 0-11.4 0zm16 0a5.7 5.7 0 1 0 11.4 0 5.7 5.7 0 1 0-11.4 0zm16 0a5.7 5.7 0 1 0 11.4 0 5.7 5.7 0 1 0-11.4 0zm16 0a5.7 5.7 0 1 0 11.4 0 5.7 5.7 0 1 0-11.4 0zm16 0a5.7 5.7 0 1 0 11.4 0 5.7 5.7 0 1 0-11.4 0zm16 0a5.7 5.7 0 1 0 11.4 0 5.7 5.7 0 1 0-11.4 0zm16 0a5.7 5.7 0 1 0 11.4 0 5.7 5.7 0 1 0-11.4 0zm16 0a5.7 5.7 0 1 0 11.4 0 5.7 5.7 0 1 0-11.4 0zm16 0a5.7 5.7 0 1 0 11.4 0 5.7 5.7 0 1 0-11.4 0zm16 0a5.7 5.7 0 1 0 11.4 0 5.7 5.7 0 1 0-11.4 0zm16 0a5.7 5.7 0 1 0 11.4 0 5.7 5.7 0 1 0-11.4 0zm16 0a5.7 5.7 0 1 0 11.4 0 5.7 5.7 0 1 0-11.4 0zm16 0a5.7 5.7 0 1 0 11.4 0 5.7 5.7 0 1 0-11.4 0zm16 0a5.7 5.7 0 1 0 11.4 0 5.7 5.7 0 1 0-11.4 0zm-336 16a5.7 5.7 0 1 0 11.4 0 5.7 5.7 0 1 0-11.4 0zm16 0a5.7 5.7 0 1 0 11.4 0 5.7 5.7 0 1 0-11.4 0zm16 0a5.7 5.7 0 1 0 11.4 0 5.7 5.7 0 1 0-11.4 0zm16 0a5.7 5.7 0 1 0 11.4 0 5.7 5.7 0 1 0-11.4 0zm16 0a5.7 5.7 0 1 0 11.4 0 5.7 5.7 0 1 0-11.4 0zm16 0a5.7 5.7 0 1 0 11.4 0 5.7 5.7 0 1 0-11.4 0zm16 0a5.7 5.7 0 1 0 11.4 0 5.7 5.7 0 1 0-11.4 0zm16 0a5.7 5.7 0 1 0 11.4 0 5.7 5.7 0 1 0-11.4 0zm16 0a5.7 5.7 0 1 0 11.4 0 5.7 5.7 0 1 0-11.4 0zm16 0a5.7 5.7 0 1 0 11.4 0 5.7 5.7 0 1 0-11.4 0zm16 0a5.7 5.7 0 1 0 11.4 0 5.7 5.7 0 1 0-11.4 0zm16 0a5.7 5.7 0 1 0 11.4 0 5.7 5.7 0 1 0-11.4 0zm16 0a5.7 5.7 0 1 0 11.4 0 5.7 5.7 0 1 0-11.4 0zm16 0a5.7 5.7 0 1 0 11.4 0 5.7 5.7 0 1 0-11.4 0zm16 0a5.7 5.7 0 1 0 11.4 0 5.7 5.7 0 1 0-11.4 0zm16 0a5.7 5.7 0 1 0 11.4 0 5.7 5.7 0 1 0-11.4 0zm16 0a5.7 5.7 0 1 0 11.4 0 5.7 5.7 0 1 0-11.4 0zm16 0a5.7 5.7 0 1 0 11.4 0 5.7 5.7 0 1 0-11.4 0zm16 0a5.7 5.7 0 1 0 11.4 0 5.7 5.7 0 1 0-11.4 0zm16 0a5.7 5.7 0 1 0 11.4 0 5.7 5.7 0 1 0-11.4 0zm16 0a5.7 5.7 0 1 0 11.4 0 5.7 5.7 0 1 0-11.4 0zm16 0a5.7 5.7 0 1 0 11.4 0 5.7 5.7 0 1 0-11.4 0zm-336 16a5.7 5.7 0 1 0 11.4 0 5.7 5.7 0 1 0-11.4 0zm16 0a5.7 5.7 0 1 0 11.4 0 5.7 5.7 0 1 0-11.4 0zm16 0a5.7 5.7 0 1 0 11.4 0 5.7 5.7 0 1 0-11.4 0zm16 0a5.7 5.7 0 1 0 11.4 0 5.7 5.7 0 1 0-11.4 0zm16 0a5.7 5.7 0 1 0 11.4 0 5.7 5.7 0 1 0-11.4 0zm16 0a5.7 5.7 0 1 0 11.4 0 5.7 5.7 0 1 0-11.4 0zm16 0a5.7 5.7 0 1 0 11.4 0 5.7 5.7 0 1 0-11.4 0zm16 0a5.7 5.7 0 1 0 11.4 0 5.7 5.7 0 1 0-11.4 0zm16 0a5.7 5.7 0 1 0 11.4 0 5.7 5.7 0 1 0-11.4 0zm16 0a5.7 5.7 0 1 0 11.4 0 5.7 5.7 0 1 0-11.4 0zm16 0a5.7 5.7 0 1 0 11.4 0 5.7 5.7 0 1 0-11.4 0zm16 0a5.7 5.7 0 1 0 11.4 0 5.7 5.7 0 1 0-11.4 0zm16 0a5.7 5.7 0 1 0 11.4 0 5.7 5.7 0 1 0-11.4 0zm16 0a5.7 5.7 0 1 0 11.4 0 5.7 5.7 0 1 0-11.4 0zm16 0a5.7 5.7 0 1 0 11.4 0 5.7 5.7 0 1 0-11.4 0zm16 0a5.7 5.7 0 1 0 11.4 0 5.7 5.7 0 1 0-11.4 0zm16 0a5.7 5.7 0 1 0 11.4 0 5.7 5.7 0 1 0-11.4 0zm16 0a5.7 5.7 0 1 0 11.4 0 5.7 5.7 0 1 0-11.4 0zm16 0a5.7 5.7 0 1 0 11.4 0 5.7 5.7 0 1 0-11.4 0zm16 0a5.7 5.7 0 1 0 11.4 0 5.7 5.7 0 1 0-11.4 0zm16 0a5.7 5.7 0 1 0 11.4 0 5.7 5.7 0 1 0-11.4 0zm16 0a5.7 5.7 0 1 0 11.4 0 5.7 5.7 0 1 0-11.4 0zm-336 16a5.7 5.7 0 1 0 11.4 0 5.7 5.7 0 1 0-11.4 0zm16 0a5.7 5.7 0 1 0 11.4 0 5.7 5.7 0 1 0-11.4 0zm16 0a5.7 5.7 0 1 0 11.4 0 5.7 5.7 0 1 0-11.4 0zm16 0a5.7 5.7 0 1 0 11.4 0 5.7 5.7 0 1 0-11.4 0zm16 0a5.7 5.7 0 1 0 11.4 0 5.7 5.7 0 1 0-11.4 0zm16 0a5.7 5.7 0 1 0 11.4 0 5.7 5.7 0 1 0-11.4 0zm16 0a5.7 5.7 0 1 0 11.4 0 5.7 5.7 0 1 0-11.4 0zm16 0a5.7 5.7 0 1 0 11.4 0 5.7 5.7 0 1 0-11.4 0zm16 0a5.7 5.7 0 1 0 11.4 0 5.7 5.7 0 1 0-11.4 0zm16 0a5.7 5.7 0 1 0 11.4 0 5.7 5.7 0 1 0-11.4 0zm16 0a5.7 5.7 0 1 0 11.4 0 5.7 5.7 0 1 0-11.4 0zm16 0a5.7 5.7 0 1 0 11.4 0 5.7 5.7 0 1 0-11.4 0zm16 0a5.7 5.7 0 1 0 11.4 0 5.7 5.7 0 1 0-11.4 0zm16 0a5.7 5.7 0 1 0 11.4 0 5.7 5.7 0 1 0-11.4 0zm16 0a5.7 5.7 0 1 0 11.4 0 5.7 5.7 0 1 0-11.4 0zm16 0a5.7 5.7 0 1 0 11.4 0 5.7 5.7 0 1 0-11.4 0zm16 0a5.7 5.7 0 1 0 11.4 0 5.7 5.7 0 1 0-11.4 0zm16 0a5.7 5.7 0 1 0 11.4 0 5.7 5.7 0 1 0-11.4 0zm16 0a5.7 5.7 0 1 0 11.4 0 5.7 5.7 0 1 0-11.4 0zm16 0a5.7 5.7 0 1 0 11.4 0 5.7 5.7 0 1 0-11.4 0zm16 0a5.7 5.7 0 1 0 11.4 0 5.7 5.7 0 1 0-11.4 0zm16 0a5.7 5.7 0 1 0 11.4 0 5.7 5.7 0 1 0-11.4 0zm-336 16a5.7 5.7 0 1 0 11.4 0 5.7 5.7 0 1 0-11.4 0zm16 0a5.7 5.7 0 1 0 11.4 0 5.7 5.7 0 1 0-11.4 0zm16 0a5.7 5.7 0 1 0 11.4 0 5.7 5.7 0 1 0-11.4 0zm16 0a5.7 5.7 0 1 0 11.4 0 5.7 5.7 0 1 0-11.4 0zm16 0a5.7 5.7 0 1 0 11.4 0 5.7 5.7 0 1 0-11.4 0zm16 0a5.7 5.7 0 1 0 11.4 0 5.7 5.7 0 1 0-11.4 0zm16 0a5.7 5.7 0 1 0 11.4 0 5.7 5.7 0 1 0-11.4 0zm16 0a5.7 5.7 0 1 0 11.4 0 5.7 5.7 0 1 0-11.4 0zm16 0a5.7 5.7 0 1 0 11.4 0 5.7 5.7 0 1 0-11.4 0zm16 0a5.7 5.7 0 1 0 11.4 0 5.7 5.7 0 1 0-11.4 0zm16 0a5.7 5.7 0 1 0 11.4 0 5.7 5.7 0 1 0-11.4 0zm16 0a5.7 5.7 0 1 0 11.4 0 5.7 5.7 0 1 0-11.4 0zm16 0a5.7 5.7 0 1 0 11.4 0 5.7 5.7 0 1 0-11.4 0zm16 0a5.7 5.7 0 1 0 11.4 0 5.7 5.7 0 1 0-11.4 0zm16 0a5.7 5.7 0 1 0 11.4 0 5.7 5.7 0 1 0-11.4 0zm16 0a5.7 5.7 0 1 0 11.4 0 5.7 5.7 0 1 0-11.4 0zm16 0a5.7 5.7 0 1 0 11.4 0 5.7 5.7 0 1 0-11.4 0zm16 0a5.7 5.7 0 1 0 11.4 0 5.7 5.7 0 1 0-11.4 0zm16 0a5.7 5.7 0 1 0 11.4 0 5.7 5.7 0 1 0-11.4 0zm16 0a5.7 5.7 0 1 0 11.4 0 5.7 5.7 0 1 0-11.4 0zm16 0a5.7 5.7 0 1 0 11.4 0 5.7 5.7 0 1 0-11.4 0zm16 0a5.7 5.7 0 1 0 11.4 0 5.7 5.7 0 1 0-11.4 0zm-336 16a5.7 5.7 0 1 0 11.4 0 5.7 5.7 0 1 0-11.4 0zm16 0a5.7 5.7 0 1 0 11.4 0 5.7 5.7 0 1 0-11.4 0zm16 0a5.7 5.7 0 1 0 11.4 0 5.7 5.7 0 1 0-11.4 0zm16 0a5.7 5.7 0 1 0 11.4 0 5.7 5.7 0 1 0-11.4 0zm16 0a5.7 5.7 0 1 0 11.4 0 5.7 5.7 0 1 0-11.4 0zm16 0a5.7 5.7 0 1 0 11.4 0 5.7 5.7 0 1 0-11.4 0zm16 0a5.7 5.7 0 1 0 11.4 0 5.7 5.7 0 1 0-11.4 0zm16 0a5.7 5.7 0 1 0 11.4 0 5.7 5.7 0 1 0-11.4 0zm16 0a5.7 5.7 0 1 0 11.4 0 5.7 5.7 0 1 0-11.4 0zm16 0a5.7 5.7 0 1 0 11.4 0 5.7 5.7 0 1 0-11.4 0zm16 0a5.7 5.7 0 1 0 11.4 0 5.7 5.7 0 1 0-11.4 0zm16 0a5.7 5.7 0 1 0 11.4 0 5.7 5.7 0 1 0-11.4 0zm16 0a5.7 5.7 0 1 0 11.4 0 5.7 5.7 0 1 0-11.4 0zm16 0a5.7 5.7 0 1 0 11.4 0 5.7 5.7 0 1 0-11.4 0zm16 0a5.7 5.7 0 1 0 11.4 0 5.7 5.7 0 1 0-11.4 0zm16 0a5.7 5.7 0 1 0 11.4 0 5.7 5.7 0 1 0-11.4 0zm16 0a5.7 5.7 0 1 0 11.4 0 5.7 5.7 0 1 0-11.4 0zm16 0a5.7 5.7 0 1 0 11.4 0 5.7 5.7 0 1 0-11.4 0zm16 0a5.7 5.7 0 1 0 11.4 0 5.7 5.7 0 1 0-11.4 0zm16 0a5.7 5.7 0 1 0 11.4 0 5.7 5.7 0 1 0-11.4 0zm16 0a5.7 5.7 0 1 0 11.4 0 5.7 5.7 0 1 0-11.4 0zm16 0a5.7 5.7 0 1 0 11.4 0 5.7 5.7 0 1 0-11.4 0zm-336 16a5.7 5.7 0 1 0 11.4 0 5.7 5.7 0 1 0-11.4 0zm16 0a5.7 5.7 0 1 0 11.4 0 5.7 5.7 0 1 0-11.4 0zm16 0a5.7 5.7 0 1 0 11.4 0 5.7 5.7 0 1 0-11.4 0zm16 0a5.7 5.7 0 1 0 11.4 0 5.7 5.7 0 1 0-11.4 0zm16 0a5.7 5.7 0 1 0 11.4 0 5.7 5.7 0 1 0-11.4 0zm16 0a5.7 5.7 0 1 0 11.4 0 5.7 5.7 0 1 0-11.4 0zm16 0a5.7 5.7 0 1 0 11.4 0 5.7 5.7 0 1 0-11.4 0zm16 0a5.7 5.7 0 1 0 11.4 0 5.7 5.7 0 1 0-11.4 0zm16 0a5.7 5.7 0 1 0 11.4 0 5.7 5.7 0 1 0-11.4 0zm16 0a5.7 5.7 0 1 0 11.4 0 5.7 5.7 0 1 0-11.4 0zm16 0a5.7 5.7 0 1 0 11.4 0 5.7 5.7 0 1 0-11.4 0zm16 0a5.7 5.7 0 1 0 11.4 0 5.7 5.7 0 1 0-11.4 0zm16 0a5.7 5.7 0 1 0 11.4 0 5.7 5.7 0 1 0-11.4 0zm16 0a5.7 5.7 0 1 0 11.4 0 5.7 5.7 0 1 0-11.4 0zm16 0a5.7 5.7 0 1 0 11.4 0 5.7 5.7 0 1 0-11.4 0zm16 0a5.7 5.7 0 1 0 11.4 0 5.7 5.7 0 1 0-11.4 0zm16 0a5.7 5.7 0 1 0 11.4 0 5.7 5.7 0 1 0-11.4 0zm16 0a5.7 5.7 0 1 0 11.4 0 5.7 5.7 0 1 0-11.4 0zm16 0a5.7 5.7 0 1 0 11.4 0 5.7 5.7 0 1 0-11.4 0zm16 0a5.7 5.7 0 1 0 11.4 0 5.7 5.7 0 1 0-11.4 0zm16 0a5.7 5.7 0 1 0 11.4 0 5.7 5.7 0 1 0-11.4 0zm16 0a5.7 5.7 0 1 0 11.4 0 5.7 5.7 0 1 0-11.4 0zm16 0a5.7 5.7 0 1 0 11.4 0 5.7 5.7 0 1 0-11.4 0zm-352 16a5.7 5.7 0 1 0 11.4 0 5.7 5.7 0 1 0-11.4 0zm16 0a5.7 5.7 0 1 0 11.4 0 5.7 5.7 0 1 0-11.4 0zm16 0a5.7 5.7 0 1 0 11.4 0 5.7 5.7 0 1 0-11.4 0zm16 0a5.7 5.7 0 1 0 11.4 0 5.7 5.7 0 1 0-11.4 0zm16 0a5.7 5.7 0 1 0 11.4 0 5.7 5.7 0 1 0-11.4 0zm16 0a5.7 5.7 0 1 0 11.4 0 5.7 5.7 0 1 0-11.4 0zm16 0a5.7 5.7 0 1 0 11.4 0 5.7 5.7 0 1 0-11.4 0zm16 0a5.7 5.7 0 1 0 11.4 0 5.7 5.7 0 1 0-11.4 0zm16 0a5.7 5.7 0 1 0 11.4 0 5.7 5.7 0 1 0-11.4 0zm16 0a5.7 5.7 0 1 0 11.4 0 5.7 5.7 0 1 0-11.4 0zm16 0a5.7 5.7 0 1 0 11.4 0 5.7 5.7 0 1 0-11.4 0zm16 0a5.7 5.7 0 1 0 11.4 0 5.7 5.7 0 1 0-11.4 0zm16 0a5.7 5.7 0 1 0 11.4 0 5.7 5.7 0 1 0-11.4 0zm16 0a5.7 5.7 0 1 0 11.4 0 5.7 5.7 0 1 0-11.4 0zm16 0a5.7 5.7 0 1 0 11.4 0 5.7 5.7 0 1 0-11.4 0zm16 0a5.7 5.7 0 1 0 11.4 0 5.7 5.7 0 1 0-11.4 0zm16 0a5.7 5.7 0 1 0 11.4 0 5.7 5.7 0 1 0-11.4 0zm16 0a5.7 5.7 0 1 0 11.4 0 5.7 5.7 0 1 0-11.4 0zm16 0a5.7 5.7 0 1 0 11.4 0 5.7 5.7 0 1 0-11.4 0zm16 0a5.7 5.7 0 1 0 11.4 0 5.7 5.7 0 1 0-11.4 0zm16 0a5.7 5.7 0 1 0 11.4 0 5.7 5.7 0 1 0-11.4 0zm16 0a5.7 5.7 0 1 0 11.4 0 5.7 5.7 0 1 0-11.4 0zm16 0a5.7 5.7 0 1 0 11.4 0 5.7 5.7 0 1 0-11.4 0zm16 0a5.7 5.7 0 1 0 11.4 0 5.7 5.7 0 1 0-11.4 0zm-352 16a5.7 5.7 0 1 0 11.4 0 5.7 5.7 0 1 0-11.4 0zm16 0a5.7 5.7 0 1 0 11.4 0 5.7 5.7 0 1 0-11.4 0zm16 0a5.7 5.7 0 1 0 11.4 0 5.7 5.7 0 1 0-11.4 0zm16 0a5.7 5.7 0 1 0 11.4 0 5.7 5.7 0 1 0-11.4 0zm16 0a5.7 5.7 0 1 0 11.4 0 5.7 5.7 0 1 0-11.4 0zm16 0a5.7 5.7 0 1 0 11.4 0 5.7 5.7 0 1 0-11.4 0zm16 0a5.7 5.7 0 1 0 11.4 0 5.7 5.7 0 1 0-11.4 0zm16 0a5.7 5.7 0 1 0 11.4 0 5.7 5.7 0 1 0-11.4 0zm16 0a5.7 5.7 0 1 0 11.4 0 5.7 5.7 0 1 0-11.4 0zm16 0a5.7 5.7 0 1 0 11.4 0 5.7 5.7 0 1 0-11.4 0zm16 0a5.7 5.7 0 1 0 11.4 0 5.7 5.7 0 1 0-11.4 0zm16 0a5.7 5.7 0 1 0 11.4 0 5.7 5.7 0 1 0-11.4 0zm16 0a5.7 5.7 0 1 0 11.4 0 5.7 5.7 0 1 0-11.4 0zm16 0a5.7 5.7 0 1 0 11.4 0 5.7 5.7 0 1 0-11.4 0zm16 0a5.7 5.7 0 1 0 11.4 0 5.7 5.7 0 1 0-11.4 0zm16 0a5.7 5.7 0 1 0 11.4 0 5.7 5.7 0 1 0-11.4 0zm16 0a5.7 5.7 0 1 0 11.4 0 5.7 5.7 0 1 0-11.4 0zm16 0a5.7 5.7 0 1 0 11.4 0 5.7 5.7 0 1 0-11.4 0zm16 0a5.7 5.7 0 1 0 11.4 0 5.7 5.7 0 1 0-11.4 0zm16 0a5.7 5.7 0 1 0 11.4 0 5.7 5.7 0 1 0-11.4 0zm16 0a5.7 5.7 0 1 0 11.4 0 5.7 5.7 0 1 0-11.4 0zm16 0a5.7 5.7 0 1 0 11.4 0 5.7 5.7 0 1 0-11.4 0zm16 0a5.7 5.7 0 1 0 11.4 0 5.7 5.7 0 1 0-11.4 0zm16 0a5.7 5.7 0 1 0 11.4 0 5.7 5.7 0 1 0-11.4 0zm-368 16a5.7 5.7 0 1 0 11.4 0 5.7 5.7 0 1 0-11.4 0zm16 0a5.7 5.7 0 1 0 11.4 0 5.7 5.7 0 1 0-11.4 0zm16 0a5.7 5.7 0 1 0 11.4 0 5.7 5.7 0 1 0-11.4 0zm16 0a5.7 5.7 0 1 0 11.4 0 5.7 5.7 0 1 0-11.4 0zm16 0a5.7 5.7 0 1 0 11.4 0 5.7 5.7 0 1 0-11.4 0zm16 0a5.7 5.7 0 1 0 11.4 0 5.7 5.7 0 1 0-11.4 0zm16 0a5.7 5.7 0 1 0 11.4 0 5.7 5.7 0 1 0-11.4 0zm16 0a5.7 5.7 0 1 0 11.4 0 5.7 5.7 0 1 0-11.4 0zm16 0a5.7 5.7 0 1 0 11.4 0 5.7 5.7 0 1 0-11.4 0zm16 0a5.7 5.7 0 1 0 11.4 0 5.7 5.7 0 1 0-11.4 0zm16 0a5.7 5.7 0 1 0 11.4 0 5.7 5.7 0 1 0-11.4 0zm16 0a5.7 5.7 0 1 0 11.4 0 5.7 5.7 0 1 0-11.4 0zm16 0a5.7 5.7 0 1 0 11.4 0 5.7 5.7 0 1 0-11.4 0zm16 0a5.7 5.7 0 1 0 11.4 0 5.7 5.7 0 1 0-11.4 0zm16 0a5.7 5.7 0 1 0 11.4 0 5.7 5.7 0 1 0-11.4 0zm16 0a5.7 5.7 0 1 0 11.4 0 5.7 5.7 0 1 0-11.4 0zm16 0a5.7 5.7 0 1 0 11.4 0 5.7 5.7 0 1 0-11.4 0zm16 0a5.7 5.7 0 1 0 11.4 0 5.7 5.7 0 1 0-11.4 0zm16 0a5.7 5.7 0 1 0 11.4 0 5.7 5.7 0 1 0-11.4 0zm16 0a5.7 5.7 0 1 0 11.4 0 5.7 5.7 0 1 0-11.4 0zm16 0a5.7 5.7 0 1 0 11.4 0 5.7 5.7 0 1 0-11.4 0zm16 0a5.7 5.7 0 1 0 11.4 0 5.7 5.7 0 1 0-11.4 0zm16 0a5.7 5.7 0 1 0 11.4 0 5.7 5.7 0 1 0-11.4 0zm16 0a5.7 5.7 0 1 0 11.4 0 5.7 5.7 0 1 0-11.4 0zm16 0a5.7 5.7 0 1 0 11.4 0 5.7 5.7 0 1 0-11.4 0zm-384 16a5.7 5.7 0 1 0 11.4 0 5.7 5.7 0 1 0-11.4 0zm16 0a5.7 5.7 0 1 0 11.4 0 5.7 5.7 0 1 0-11.4 0zm16 0a5.7 5.7 0 1 0 11.4 0 5.7 5.7 0 1 0-11.4 0zm16 0a5.7 5.7 0 1 0 11.4 0 5.7 5.7 0 1 0-11.4 0zm16 0a5.7 5.7 0 1 0 11.4 0 5.7 5.7 0 1 0-11.4 0zm16 0a5.7 5.7 0 1 0 11.4 0 5.7 5.7 0 1 0-11.4 0zm16 0a5.7 5.7 0 1 0 11.4 0 5.7 5.7 0 1 0-11.4 0zm16 0a5.7 5.7 0 1 0 11.4 0 5.7 5.7 0 1 0-11.4 0zm16 0a5.7 5.7 0 1 0 11.4 0 5.7 5.7 0 1 0-11.4 0zm16 0a5.7 5.7 0 1 0 11.4 0 5.7 5.7 0 1 0-11.4 0zm16 0a5.7 5.7 0 1 0 11.4 0 5.7 5.7 0 1 0-11.4 0zm16 0a5.7 5.7 0 1 0 11.4 0 5.7 5.7 0 1 0-11.4 0zm16 0a5.7 5.7 0 1 0 11.4 0 5.7 5.7 0 1 0-11.4 0zm16 0a5.7 5.7 0 1 0 11.4 0 5.7 5.7 0 1 0-11.4 0zm16 0a5.7 5.7 0 1 0 11.4 0 5.7 5.7 0 1 0-11.4 0zm16 0a5.7 5.7 0 1 0 11.4 0 5.7 5.7 0 1 0-11.4 0zm16 0a5.7 5.7 0 1 0 11.4 0 5.7 5.7 0 1 0-11.4 0zm16 0a5.7 5.7 0 1 0 11.4 0 5.7 5.7 0 1 0-11.4 0zm16 0a5.7 5.7 0 1 0 11.4 0 5.7 5.7 0 1 0-11.4 0zm16 0a5.7 5.7 0 1 0 11.4 0 5.7 5.7 0 1 0-11.4 0zm16 0a5.7 5.7 0 1 0 11.4 0 5.7 5.7 0 1 0-11.4 0zm16 0a5.7 5.7 0 1 0 11.4 0 5.7 5.7 0 1 0-11.4 0zm16 0a5.7 5.7 0 1 0 11.4 0 5.7 5.7 0 1 0-11.4 0zm16 0a5.7 5.7 0 1 0 11.4 0 5.7 5.7 0 1 0-11.4 0zm16 0a5.7 5.7 0 1 0 11.4 0 5.7 5.7 0 1 0-11.4 0zm-368 16a5.7 5.7 0 1 0 11.4 0 5.7 5.7 0 1 0-11.4 0zm16 0a5.7 5.7 0 1 0 11.4 0 5.7 5.7 0 1 0-11.4 0zm16 0a5.7 5.7 0 1 0 11.4 0 5.7 5.7 0 1 0-11.4 0zm16 0a5.7 5.7 0 1 0 11.4 0 5.7 5.7 0 1 0-11.4 0zm16 0a5.7 5.7 0 1 0 11.4 0 5.7 5.7 0 1 0-11.4 0zm16 0a5.7 5.7 0 1 0 11.4 0 5.7 5.7 0 1 0-11.4 0zm16 0a5.7 5.7 0 1 0 11.4 0 5.7 5.7 0 1 0-11.4 0zm16 0a5.7 5.7 0 1 0 11.4 0 5.7 5.7 0 1 0-11.4 0zm16 0a5.7 5.7 0 1 0 11.4 0 5.7 5.7 0 1 0-11.4 0zm16 0a5.7 5.7 0 1 0 11.4 0 5.7 5.7 0 1 0-11.4 0zm16 0a5.7 5.7 0 1 0 11.4 0 5.7 5.7 0 1 0-11.4 0zm16 0a5.7 5.7 0 1 0 11.4 0 5.7 5.7 0 1 0-11.4 0zm16 0a5.7 5.7 0 1 0 11.4 0 5.7 5.7 0 1 0-11.4 0zm16 0a5.7 5.7 0 1 0 11.4 0 5.7 5.7 0 1 0-11.4 0zm16 0a5.7 5.7 0 1 0 11.4 0 5.7 5.7 0 1 0-11.4 0zm16 0a5.7 5.7 0 1 0 11.4 0 5.7 5.7 0 1 0-11.4 0zm16 0a5.7 5.7 0 1 0 11.4 0 5.7 5.7 0 1 0-11.4 0zm16 0a5.7 5.7 0 1 0 11.4 0 5.7 5.7 0 1 0-11.4 0zm16 0a5.7 5.7 0 1 0 11.4 0 5.7 5.7 0 1 0-11.4 0zm16 0a5.7 5.7 0 1 0 11.4 0 5.7 5.7 0 1 0-11.4 0zm16 0a5.7 5.7 0 1 0 11.4 0 5.7 5.7 0 1 0-11.4 0zm16 0a5.7 5.7 0 1 0 11.4 0 5.7 5.7 0 1 0-11.4 0zm16 0a5.7 5.7 0 1 0 11.4 0 5.7 5.7 0 1 0-11.4 0zm-352 16a5.7 5.7 0 1 0 11.4 0 5.7 5.7 0 1 0-11.4 0zm16 0a5.7 5.7 0 1 0 11.4 0 5.7 5.7 0 1 0-11.4 0zm16 0a5.7 5.7 0 1 0 11.4 0 5.7 5.7 0 1 0-11.4 0zm16 0a5.7 5.7 0 1 0 11.4 0 5.7 5.7 0 1 0-11.4 0zm16 0a5.7 5.7 0 1 0 11.4 0 5.7 5.7 0 1 0-11.4 0zm16 0a5.7 5.7 0 1 0 11.4 0 5.7 5.7 0 1 0-11.4 0zm16 0a5.7 5.7 0 1 0 11.4 0 5.7 5.7 0 1 0-11.4 0zm16 0a5.7 5.7 0 1 0 11.4 0 5.7 5.7 0 1 0-11.4 0zm16 0a5.7 5.7 0 1 0 11.4 0 5.7 5.7 0 1 0-11.4 0zm16 0a5.7 5.7 0 1 0 11.4 0 5.7 5.7 0 1 0-11.4 0zm16 0a5.7 5.7 0 1 0 11.4 0 5.7 5.7 0 1 0-11.4 0zm16 0a5.7 5.7 0 1 0 11.4 0 5.7 5.7 0 1 0-11.4 0zm16 0a5.7 5.7 0 1 0 11.4 0 5.7 5.7 0 1 0-11.4 0zm16 0a5.7 5.7 0 1 0 11.4 0 5.7 5.7 0 1 0-11.4 0zm16 0a5.7 5.7 0 1 0 11.4 0 5.7 5.7 0 1 0-11.4 0zm16 0a5.7 5.7 0 1 0 11.4 0 5.7 5.7 0 1 0-11.4 0zm16 0a5.7 5.7 0 1 0 11.4 0 5.7 5.7 0 1 0-11.4 0zm16 0a5.7 5.7 0 1 0 11.4 0 5.7 5.7 0 1 0-11.4 0zm16 0a5.7 5.7 0 1 0 11.4 0 5.7 5.7 0 1 0-11.4 0zm16 0a5.7 5.7 0 1 0 11.4 0 5.7 5.7 0 1 0-11.4 0zm16 0a5.7 5.7 0 1 0 11.4 0 5.7 5.7 0 1 0-11.4 0zm16 0a5.7 5.7 0 1 0 11.4 0 5.7 5.7 0 1 0-11.4 0zm16 0a5.7 5.7 0 1 0 11.4 0 5.7 5.7 0 1 0-11.4 0zm-336 16a5.7 5.7 0 1 0 11.4 0 5.7 5.7 0 1 0-11.4 0zm16 0a5.7 5.7 0 1 0 11.4 0 5.7 5.7 0 1 0-11.4 0zm16 0a5.7 5.7 0 1 0 11.4 0 5.7 5.7 0 1 0-11.4 0zm16 0a5.7 5.7 0 1 0 11.4 0 5.7 5.7 0 1 0-11.4 0zm16 0a5.7 5.7 0 1 0 11.4 0 5.7 5.7 0 1 0-11.4 0zm16 0a5.7 5.7 0 1 0 11.4 0 5.7 5.7 0 1 0-11.4 0zm16 0a5.7 5.7 0 1 0 11.4 0 5.7 5.7 0 1 0-11.4 0zm16 0a5.7 5.7 0 1 0 11.4 0 5.7 5.7 0 1 0-11.4 0zm16 0a5.7 5.7 0 1 0 11.4 0 5.7 5.7 0 1 0-11.4 0zm16 0a5.7 5.7 0 1 0 11.4 0 5.7 5.7 0 1 0-11.4 0zm16 0a5.7 5.7 0 1 0 11.4 0 5.7 5.7 0 1 0-11.4 0zm16 0a5.7 5.7 0 1 0 11.4 0 5.7 5.7 0 1 0-11.4 0zm16 0a5.7 5.7 0 1 0 11.4 0 5.7 5.7 0 1 0-11.4 0zm16 0a5.7 5.7 0 1 0 11.4 0 5.7 5.7 0 1 0-11.4 0zm16 0a5.7 5.7 0 1 0 11.4 0 5.7 5.7 0 1 0-11.4 0zm16 0a5.7 5.7 0 1 0 11.4 0 5.7 5.7 0 1 0-11.4 0zm16 0a5.7 5.7 0 1 0 11.4 0 5.7 5.7 0 1 0-11.4 0zm16 0a5.7 5.7 0 1 0 11.4 0 5.7 5.7 0 1 0-11.4 0zm16 0a5.7 5.7 0 1 0 11.4 0 5.7 5.7 0 1 0-11.4 0zm16 0a5.7 5.7 0 1 0 11.4 0 5.7 5.7 0 1 0-11.4 0zm16 0a5.7 5.7 0 1 0 11.4 0 5.7 5.7 0 1 0-11.4 0zm-304 16a5.7 5.7 0 1 0 11.4 0 5.7 5.7 0 1 0-11.4 0zm16 0a5.7 5.7 0 1 0 11.4 0 5.7 5.7 0 1 0-11.4 0zm16 0a5.7 5.7 0 1 0 11.4 0 5.7 5.7 0 1 0-11.4 0zm16 0a5.7 5.7 0 1 0 11.4 0 5.7 5.7 0 1 0-11.4 0zm16 0a5.7 5.7 0 1 0 11.4 0 5.7 5.7 0 1 0-11.4 0zm16 0a5.7 5.7 0 1 0 11.4 0 5.7 5.7 0 1 0-11.4 0zm16 0a5.7 5.7 0 1 0 11.4 0 5.7 5.7 0 1 0-11.4 0zm16 0a5.7 5.7 0 1 0 11.4 0 5.7 5.7 0 1 0-11.4 0zm16 0a5.7 5.7 0 1 0 11.4 0 5.7 5.7 0 1 0-11.4 0zm16 0a5.7 5.7 0 1 0 11.4 0 5.7 5.7 0 1 0-11.4 0zm16 0a5.7 5.7 0 1 0 11.4 0 5.7 5.7 0 1 0-11.4 0zm16 0a5.7 5.7 0 1 0 11.4 0 5.7 5.7 0 1 0-11.4 0zm16 0a5.7 5.7 0 1 0 11.4 0 5.7 5.7 0 1 0-11.4 0zm16 0a5.7 5.7 0 1 0 11.4 0 5.7 5.7 0 1 0-11.4 0zm16 0a5.7 5.7 0 1 0 11.4 0 5.7 5.7 0 1 0-11.4 0zm16 0a5.7 5.7 0 1 0 11.4 0 5.7 5.7 0 1 0-11.4 0zm16 0a5.7 5.7 0 1 0 11.4 0 5.7 5.7 0 1 0-11.4 0zm16 0a5.7 5.7 0 1 0 11.4 0 5.7 5.7 0 1 0-11.4 0zm16 0a5.7 5.7 0 1 0 11.4 0 5.7 5.7 0 1 0-11.4 0zm16 0a5.7 5.7 0 1 0 11.4 0 5.7 5.7 0 1 0-11.4 0zm-304 16a5.7 5.7 0 1 0 11.4 0 5.7 5.7 0 1 0-11.4 0zm16 0a5.7 5.7 0 1 0 11.4 0 5.7 5.7 0 1 0-11.4 0zm16 0a5.7 5.7 0 1 0 11.4 0 5.7 5.7 0 1 0-11.4 0zm16 0a5.7 5.7 0 1 0 11.4 0 5.7 5.7 0 1 0-11.4 0zm16 0a5.7 5.7 0 1 0 11.4 0 5.7 5.7 0 1 0-11.4 0zm16 0a5.7 5.7 0 1 0 11.4 0 5.7 5.7 0 1 0-11.4 0zm16 0a5.7 5.7 0 1 0 11.4 0 5.7 5.7 0 1 0-11.4 0zm16 0a5.7 5.7 0 1 0 11.4 0 5.7 5.7 0 1 0-11.4 0zm16 0a5.7 5.7 0 1 0 11.4 0 5.7 5.7 0 1 0-11.4 0zm16 0a5.7 5.7 0 1 0 11.4 0 5.7 5.7 0 1 0-11.4 0zm16 0a5.7 5.7 0 1 0 11.4 0 5.7 5.7 0 1 0-11.4 0zm16 0a5.7 5.7 0 1 0 11.4 0 5.7 5.7 0 1 0-11.4 0zm16 0a5.7 5.7 0 1 0 11.4 0 5.7 5.7 0 1 0-11.4 0zm16 0a5.7 5.7 0 1 0 11.4 0 5.7 5.7 0 1 0-11.4 0zm16 0a5.7 5.7 0 1 0 11.4 0 5.7 5.7 0 1 0-11.4 0zm16 0a5.7 5.7 0 1 0 11.4 0 5.7 5.7 0 1 0-11.4 0zm16 0a5.7 5.7 0 1 0 11.4 0 5.7 5.7 0 1 0-11.4 0zm16 0a5.7 5.7 0 1 0 11.4 0 5.7 5.7 0 1 0-11.4 0zm16 0a5.7 5.7 0 1 0 11.4 0 5.7 5.7 0 1 0-11.4 0zm-272 16a5.7 5.7 0 1 0 11.4 0 5.7 5.7 0 1 0-11.4 0zm16 0a5.7 5.7 0 1 0 11.4 0 5.7 5.7 0 1 0-11.4 0zm16 0a5.7 5.7 0 1 0 11.4 0 5.7 5.7 0 1 0-11.4 0zm16 0a5.7 5.7 0 1 0 11.4 0 5.7 5.7 0 1 0-11.4 0zm16 0a5.7 5.7 0 1 0 11.4 0 5.7 5.7 0 1 0-11.4 0zm16 0a5.7 5.7 0 1 0 11.4 0 5.7 5.7 0 1 0-11.4 0zm16 0a5.7 5.7 0 1 0 11.4 0 5.7 5.7 0 1 0-11.4 0zm16 0a5.7 5.7 0 1 0 11.4 0 5.7 5.7 0 1 0-11.4 0zm16 0a5.7 5.7 0 1 0 11.4 0 5.7 5.7 0 1 0-11.4 0zm16 0a5.7 5.7 0 1 0 11.4 0 5.7 5.7 0 1 0-11.4 0zm16 0a5.7 5.7 0 1 0 11.4 0 5.7 5.7 0 1 0-11.4 0zm16 0a5.7 5.7 0 1 0 11.4 0 5.7 5.7 0 1 0-11.4 0zm16 0a5.7 5.7 0 1 0 11.4 0 5.7 5.7 0 1 0-11.4 0zm16 0a5.7 5.7 0 1 0 11.4 0 5.7 5.7 0 1 0-11.4 0zm16 0a5.7 5.7 0 1 0 11.4 0 5.7 5.7 0 1 0-11.4 0zm16 0a5.7 5.7 0 1 0 11.4 0 5.7 5.7 0 1 0-11.4 0zm16 0a5.7 5.7 0 1 0 11.4 0 5.7 5.7 0 1 0-11.4 0zm-224 16a5.7 5.7 0 1 0 11.4 0 5.7 5.7 0 1 0-11.4 0zm16 0a5.7 5.7 0 1 0 11.4 0 5.7 5.7 0 1 0-11.4 0zm16 0a5.7 5.7 0 1 0 11.4 0 5.7 5.7 0 1 0-11.4 0zm16 0a5.7 5.7 0 1 0 11.4 0 5.7 5.7 0 1 0-11.4 0zm112 0a5.7 5.7 0 1 0 11.4 0 5.7 5.7 0 1 0-11.4 0zm16 0a5.7 5.7 0 1 0 11.4 0 5.7 5.7 0 1 0-11.4 0zm16 0a5.7 5.7 0 1 0 11.4 0 5.7 5.7 0 1 0-11.4 0zm16 0a5.7 5.7 0 1 0 11.4 0 5.7 5.7 0 1 0-11.4 0z"/></svg>