<svg xmlns="http://www.w3.org/2000/svg" viewBox="0 0 512 512"><path d="M146.3 40a5.7 5.7 0 1 0 11.4 0 5.7 5.7 0 1 0-11.4 0m16 0a5.7 5.7 0 1 0 11.4 0 5.7 5.7 0 1 0-11.4 0m16 0a5.7 5.7 0 1 0 11.4 0 5.7 5.7 0 1 0-11.4 0m16 0a5.7 5.7 0 1 0 11.4 0 5.7 5.7 0 1 0-11.4 0m16 0a5.7 5.7 0 1 0 11.4 0 5.7 5.7 0 1 0-11.4 0m16 0a5.7 5.7 0 1 0 11.4 0 5.7 5.7 0 1 0-11.4 0m16 0a5.7 5.7 0 1 0 11.4 0 5.7 5.7 0 1 0-11.4 0m16 0a5.7 5.7 0 1 0 11.4 0 5.7 5.7 0 1 0-11.4 0m16 0a5.7 5.7 0 1 0 11.4 0 5.7 5.7 0 1 0-11.4 0m16 0a5.7 5.7 0 1 0 11.4 0 5.7 5.7 0 1 0-11.4 0m16 0a5.7 5.7 0 1 0 11.4 0 5.7 5.7 0 1 0-11.4 0m16 0a5.7 5.7 0 1 0 11.4 0 5.7 5.7 0 1 0-11.4 0m16 0a5.7 5.7 0 1 0 11.4 0 5.7 5.7 0 1 0-11.4 0m16 0a5.7 5.7 0 1 0 11.4 0 5.7 5.7 0 1 0-11.4 0m-224 16a5.7 5.7 0 1 0 11.4 0 5.7 5.7 0 1 0-11.4 0m16 0a5.7 5.7 0 1 0 11.4 0 5.7 5.7 0 1 0-11.4 0m16 0a5.7 5.7 0 1 0 11.4 0 5.7 5.7 0 1 0-11.4 0m16 0a5.7 5.7 0 1 0 11.4 0 5.7 5.7 0 1 0-11.4 0m16 0a5.7 5.7 0 1 0 11.4 0 5.7 5.7 0 1 0-11.4 0m16 0a5.7 5.7 0 1 0 11.4 0 5.7 5.7 0 1 0-11.4 0m16 0a5.7 5.7 0 1 0 11.4 0 5.7 5.7 0 1 0-11.4 0m16 0a5.7 5.7 0 1 0 11.4 0 5.7 5.7 0 1 0-11.4 0m16 0a5.7 5.7 0 1 0 11.4 0 5.7 5.7 0 1 0-11.4 0m16 0a5.7 5.7 0 1 0 11.4 0 5.7 5.7 0 1 0-11.4 0m16 0a5.7 5.7 0 1 0 11.4 0 5.7 5.7 0 1 0-11.4 0m16 0a5.7 5.7 0 1 0 11.4 0 5.7 5.7 0 1 0-11.4 0m16 0a5.7 5.7 0 1 0 11.4 0 5.7 5.7 0 1 0-11.4 0m16 0a5.7 5.7 0 1 0 11.4 0 5.7 5.7 0 1 0-11.4 0m16 0a5.7 5.7 0 1 0 11.4 0 5.7 5.7 0 1 0-11.4 0m16 0a5.7 5.7 0 1 0 11.4 0 5.7 5.7 0 1 0-11.4 0m-240 16a5.7 5.7 0 1 0 11.4 0 5.7 5.7 0 1 0-11.4 0m16 0a5.7 5.7 0 1 0 11.4 0 5.7 5.7 0 1 0-11.4 0m16 0a5.7 5.7 0 1 0 11.4 0 5.7 5.7 0 1 0-11.4 0m16 0a5.7 5.7 0 1 0 11.4 0 5.7 5.7 0 1 0-11.4 0m16 0a5.7 5.7 0 1 0 11.4 0 5.7 5.7 0 1 0-11.4 0m16 0a5.7 5.7 0 1 0 11.4 0 5.7 5.7 0 1 0-11.4 0m16 0a5.7 5.7 0 1 0 11.4 0 5.7 5.7 0 1 0-11.4 0m16 0a5.7 5.7 0 1 0 11.4 0 5.7 5.7 0 1 0-11.4 0m16 0a5.7 5.7 0 1 0 11.4 0 5.7 5.7 0 1 0-11.4 0m16 0a5.7 5.7 0 1 0 11.4 0 5.7 5.7 0 1 0-11.4 0m16 0a5.7 5.7 0 1 0 11.4 0 5.7 5.7 0 1 0-11.4 0m16 0a5.7 5.7 0 1 0 11.4 0 5.7 5.7 0 1 0-11.4 0m16 0a5.7 5.7 0 1 0 11.4 0 5.7 5.7 0 1 0-11.4 0m16 0a5.7 5.7 0 1 0 11.4 0 5.7 5.7 0 1 0-11.4 0m16 0a5.7 5.7 0 1 0 11.4 0 5.7 5.7 0 1 0-11.4 0m16 0a5.7 5.7 0 1 0 11.4 0 5.7 5.7 0 1 0-11.4 0m-256 16a5.7 5.7 0 1 0 11.4 0 5.7 5.7 0 1 0-11.4 0m16 0a5.7 5.7 0 1 0 11.4 0 5.7 5.7 0 1 0-11.4 0m16 0a5.7 5.7 0 1 0 11.4 0 5.7 5.7 0 1 0-11.4 0m16 0a5.7 5.7 0 1 0 11.4 0 5.7 5.7 0 1 0-11.4 0m16 0a5.7 5.7 0 1 0 11.4 0 5.7 5.7 0 1 0-11.4 0m16 0a5.7 5.7 0 1 0 11.4 0 5.7 5.7 0 1 0-11.4 0m16 0a5.7 5.7 0 1 0 11.4 0 5.7 5.7 0 1 0-11.4 0m16 0a5.7 5.7 0 1 0 11.4 0 5.7 5.7 0 1 0-11.4 0m16 0a5.7 5.7 0 1 0 11.4 0 5.7 5.7 0 1 0-11.4 0m16 0a5.7 5.7 0 1 0 11.4 0 5.7 5.7 0 1 0-11.4 0m16 0a5.7 5.7 0 1 0 11.4 0 5.7 5.7 0 1 0-11.4 0m16 0a5.7 5.7 0 1 0 11.4 0 5.7 5.7 0 1 0-11.4 0m16 0a5.7 5.7 0 1 0 11.4 0 5.7 5.7 0 1 0-11.4 0m16 0a5.7 5.7 0 1 0 11.4 0 5.7 5.7 0 1 0-11.4 0m16 0a5.7 5.7 0 1 0 11.4 0 5.7 5.7 0 1 0-11.4 0m16 0a5.7 5.7 0 1 0 11.4 0 5.7 5.7 0 1 0-11.4 0m16 0a5.7 5.7 0 1 0 11.4 0 5.7 5.7 0 1 0-11.4 0m16 0a5.7 5.7 0 1 0 11.4 0 5.7 5.7 0 1 0-11.4 0m-352 16a5.7 5.7 0 1 0 11.4 0 5.7 5.7 0 1 0-11.4 0m16 0a5.7 5.7 0 1 0 11.4 0 5.7 5.7 0 1 0-11.4 0m16 0a5.7 5.7 0 1 0 11.4 0 5.7 5.7 0 1 0-11.4 0m16 0a5.7 5.7 0 1 0 11.4 0 5.7 5.7 0 1 0-11.4 0m16 0a5.7 5.7 0 1 0 11.4 0 5.7 5.7 0 1 0-11.4 0m16 0a5.7 5.7 0 1 0 11.4 0 5.7 5.7 0 1 0-11.4 0m16 0a5.7 5.7 0 1 0 11.4 0 5.7 5.7 0 1 0-11.4 0m16 0a5.7 5.7 0 1 0 11.4 0 5.7 5.7 0 1 0-11.4 0m16 0a5.7 5.7 0 1 0 11.4 0 5.7 5.7 0 1 0-11.4 0m16 0a5.7 5.7 0 1 0 11.4 0 5.7 5.7 0 1 0-11.4 0m16 0a5.7 5.7 0 1 0 11.4 0 5.7 5.7 0 1 0-11.4 0m16 0a5.7 5.7 0 1 0 11.4 0 5.7 5.7 0 1 0-11.4 0m16 0a5.7 5.7 0 1 0 11.4 0 5.7 5.7 0 1 0-11.4 0m16 0a5.7 5.7 0 1 0 11.4 0 5.7 5.7 0 1 0-11.4 0m16 0a5.7 5.7 0 1 0 11.4 0 5.7 5.7 0 1 0-11.4 0m16 0a5.7 5.7 0 1 0 11.4 0 5.7 5.7 0 1 0-11.4 0m16 0a5.7 5.7 0 1 0 11.4 0 5.7 5.7 0 1 0-11.4 0m16 0a5.7 5.7 0 1 0 11.4 0 5.7 5.7 0 1 0-11.4 0m16 0a5.7 5.7 0 1 0 11.4 0 5.7 5.7 0 1 0-11.4 0m16 0a5.7 5.7 0 1 0 11.4 0 5.7 5.7 0 1 0-11.4 0m16 0a5.7 5.7 0 1 0 11.4 0 5.7 5.7 0 1 0-11.4 0m16 0a5.7 5.7 0 1 0 11.4 0 5.7 5.7 0 1 0-11.4 0m16 0a5.7 5.7 0 1 0 11.4 0 5.7 5.7 0 1 0-11.4 0m16 0a5.7 5.7 0 1 0 11.4 0 5.7 5.7 0 1 0-11.4 0m16 0a5.7 5.7 0 1 0 11.4 0 5.7 5.7 0 1 0-11.4 0m16 0a5.7 5.7 0 1 0 11.4 0 5.7 5.7 0 1 0-11.4 0m16 0a5.7 5.7 0 1 0 11.4 0 5.7 5.7 0 1 0-11.4 0m16 0a5.7 5.7 0 1 0 11.4 0 5.7 5.7 0 1 0-11.4 0m-448 16a5.7 5.7 0 1 0 11.4 0 5.7 5.7 0 1 0-11.4 0m16 0a5.7 5.7 0 1 0 11.4 0 5.7 5.7 0 1 0-11.4 0m16 0a5.7 5.7 0 1 0 11.4 0 5.7 5.7 0 1 0-11.4 0m16 0a5.7 5.7 0 1 0 11.4 0 5.7 5.7 0 1 0-11.4 0m16 0a5.7 5.7 0 1 0 11.4 0 5.7 5.7 0 1 0-11.4 0m16 0a5.7 5.7 0 1 0 11.4 0 5.7 5.7 0 1 0-11.4 0m16 0a5.7 5.7 0 1 0 11.4 0 5.7 5.7 0 1 0-11.4 0m16 0a5.7 5.7 0 1 0 11.4 0 5.7 5.7 0 1 0-11.4 0m16 0a5.7 5.7 0 1 0 11.4 0 5.7 5.7 0 1 0-11.4 0m16 0a5.7 5.7 0 1 0 11.4 0 5.7 5.7 0 1 0-11.4 0m16 0a5.7 5.7 0 1 0 11.4 0 5.7 5.7 0 1 0-11.4 0m16 0a5.7 5.7 0 1 0 11.4 0 5.7 5.7 0 1 0-11.4 0m16 0a5.7 5.7 0 1 0 11.4 0 5.7 5.7 0 1 0-11.4 0m16 0a5.7 5.7 0 1 0 11.4 0 5.7 5.7 0 1 0-11.4 0m16 0a5.7 5.7 0 1 0 11.4 0 5.7 5.7 0 1 0-11.4 0m16 0a5.7 5.7 0 1 0 11.4 0 5.7 5.7 0 1 0-11.4 0m16 0a5.7 5.7 0 1 0 11.4 0 5.7 5.7 0 1 0-11.4 0m16 0a5.7 5.7 0 1 0 11.4 0 5.7 5.7 0 1 0-11.4 0m16 0a5.7 5.7 0 1 0 11.4 0 5.7 5.7 0 1 0-11.4 0m16 0a5.7 5.7 0 1 0 11.4 0 5.7 5.7 0 1 0-11.4 0m16 0a5.7 5.7 0 1 0 11.4 0 5.7 5.7 0 1 0-11.4 0m16 0a5.7 5.7 0 1 0 11.4 0 5.7 5.7 0 1 0-11.4 0m16 0a5.7 5.7 0 1 0 11.4 0 5.7 5.7 0 1 0-11.4 0m16 0a5.7 5.7 0 1 0 11.4 0 5.7 5.7 0 1 0-11.4 0m16 0a5.7 5.7 0 1 0 11.4 0 5.7 5.7 0 1 0-11.4 0m16 0a5.7 5.7 0 1 0 11.4 0 5.7 5.7 0 1 0-11.4 0m16 0a5.7 5.7 0 1 0 11.4 0 5.7 5.7 0 1 0-11.4 0m16 0a5.7 5.7 0 1 0 11.4 0 5.7 5.7 0 1 0-11.4 0m16 0a5.7 5.7 0 1 0 11.4 0 5.7 5.7 0 1 0-11.4 0m16 0a5.7 5.7 0 1 0 11.4 0 5.7 5.7 0 1 0-11.4 0m-480 16a5.7 5.7 0 1 0 11.4 0 5.7 5.7 0 1 0-11.4 0m16 0a5.7 5.7 0 1 0 11.4 0 5.7 5.7 0 1 0-11.4 0m16 0a5.7 5.7 0 1 0 11.4 0 5.7 5.7 0 1 0-11.4 0m16 0a5.7 5.7 0 1 0 11.4 0 5.7 5.7 0 1 0-11.4 0m16 0a5.7 5.7 0 1 0 11.4 0 5.7 5.7 0 1 0-11.4 0m16 0a5.7 5.7 0 1 0 11.4 0 5.7 5.7 0 1 0-11.4 0m16 0a5.7 5.7 0 1 0 11.4 0 5.7 5.7 0 1 0-11.4 0m16 0a5.7 5.7 0 1 0 11.4 0 5.7 5.7 0 1 0-11.4 0m16 0a5.7 5.7 0 1 0 11.4 0 5.7 5.7 0 1 0-11.4 0m16 0a5.7 5.7 0 1 0 11.4 0 5.7 5.7 0 1 0-11.4 0m16 0a5.7 5.7 0 1 0 11.4 0 5.7 5.7 0 1 0-11.4 0m16 0a5.7 5.7 0 1 0 11.4 0 5.7 5.7 0 1 0-11.4 0m16 0a5.7 5.7 0 1 0 11.4 0 5.7 5.7 0 1 0-11.4 0m16 0a5.7 5.7 0 1 0 11.4 0 5.7 5.7 0 1 0-11.4 0m16 0a5.7 5.7 0 1 0 11.4 0 5.7 5.7 0 1 0-11.4 0m16 0a5.7 5.7 0 1 0 11.4 0 5.7 5.7 0 1 0-11.4 0m16 0a5.7 5.7 0 1 0 11.4 0 5.7 5.7 0 1 0-11.4 0m16 0a5.7 5.7 0 1 0 11.4 0 5.7 5.7 0 1 0-11.4 0m16 0a5.7 5.7 0 1 0 11.4 0 5.7 5.7 0 1 0-11.4 0m16 0a5.7 5.7 0 1 0 11.4 0 5.7 5.7 0 1 0-11.4 0m16 0a5.7 5.7 0 1 0 11.4 0 5.7 5.7 0 1 0-11.4 0m16 0a5.7 5.7 0 1 0 11.4 0 5.7 5.7 0 1 0-11.4 0m16 0a5.7 5.7 0 1 0 11.4 0 5.7 5.7 0 1 0-11.4 0m16 0a5.7 5.7 0 1 0 11.4 0 5.7 5.7 0 1 0-11.4 0m16 0a5.7 5.7 0 1 0 11.4 0 5.7 5.7 0 1 0-11.4 0m16 0a5.7 5.7 0 1 0 11.4 0 5.7 5.7 0 1 0-11.4 0m16 0a5.7 5.7 0 1 0 11.4 0 5.7 5.7 0 1 0-11.4 0m16 0a5.7 5.7 0 1 0 11.4 0 5.7 5.7 0 1 0-11.4 0m16 0a5.7 5.7 0 1 0 11.4 0 5.7 5.7 0 1 0-11.4 0m16 0a5.7 5.7 0 1 0 11.4 0 5.7 5.7 0 1 0-11.4 0m16 0a5.7 5.7 0 1 0 11.4 0 5.7 5.7 0 1 0-11.4 0m16 0a5.7 5.7 0 1 0 11.4 0 5.7 5.7 0 1 0-11.4 0m-496 16a5.7 5.7 0 1 0 11.4 0 5.7 5.7 0 1 0-11.4 0m16 0a5.7 5.7 0 1 0 11.4 0 5.7 5.7 0 1 0-11.4 0m16 0a5.7 5.7 0 1 0 11.4 0 5.7 5.7 0 1 0-11.4 0m16 0a5.7 5.7 0 1 0 11.4 0 5.7 5.7 0 1 0-11.4 0m16 0a5.7 5.7 0 1 0 11.4 0 5.7 5.7 0 1 0-11.4 0m16 0a5.7 5.7 0 1 0 11.4 0 5.7 5.7 0 1 0-11.4 0m16 0a5.7 5.7 0 1 0 11.4 0 5.7 5.7 0 1 0-11.4 0m16 0a5.7 5.7 0 1 0 11.4 0 5.7 5.7 0 1 0-11.4 0m16 0a5.7 5.7 0 1 0 11.4 0 5.7 5.7 0 1 0-11.4 0m16 0a5.7 5.7 0 1 0 11.4 0 5.7 5.7 0 1 0-11.4 0m16 0a5.7 5.7 0 1 0 11.4 0 5.7 5.7 0 1 0-11.4 0m16 0a5.7 5.7 0 1 0 11.4 0 5.7 5.7 0 1 0-11.4 0m16 0a5.7 5.7 0 1 0 11.4 0 5.7 5.7 0 1 0-11.4 0m16 0a5.7 5.7 0 1 0 11.4 0 5.7 5.7 0 1 0-11.4 0m16 0a5.7 5.7 0 1 0 11.4 0 5.7 5.7 0 1 0-11.4 0m16 0a5.7 5.7 0 1 0 11.4 0 5.7 5.7 0 1 0-11.4 0m16 0a5.7 5.7 0 1 0 11.4 0 5.7 5.7 0 1 0-11.4 0m16 0a5.7 5.7 0 1 0 11.4 0 5.7 5.7 0 1 0-11.4 0m16 0a5.7 5.7 0 1 0 11.4 0 5.7 5.7 0 1 0-11.4 0m16 0a5.7 5.7 0 1 0 11.4 0 5.7 5.7 0 1 0-11.4 0m16 0a5.7 5.7 0 1 0 11.4 0 5.7 5.7 0 1 0-11.4 0m16 0a5.7 5.7 0 1 0 11.4 0 5.7 5.7 0 1 0-11.4 0m16 0a5.7 5.7 0 1 0 11.4 0 5.7 5.7 0 1 0-11.4 0m16 0a5.7 5.7 0 1 0 11.4 0 5.7 5.7 0 1 0-11.4 0m16 0a5.7 5.7 0 1 0 11.4 0 5.7 5.7 0 1 0-11.4 0m16 0a5.7 5.7 0 1 0 11.4 0 5.7 5.7 0 1 0-11.4 0m16 0a5.7 5.7 0 1 0 11.4 0 5.7 5.7 0 1 0-11.4 0m16 0a5.7 5.7 0 1 0 11.4 0 5.7 5.7 0 1 0-11.4 0m16 0a5.7 5.7 0 1 0 11.4 0 5.7 5.7 0 1 0-11.4 0m16 0a5.7 5.7 0 1 0 11.4 0 5.7 5.7 0 1 0-11.4 0m16 0a5.7 5.7 0 1 0 11.4 0 5.7 5.7 0 1 0-11.4 0m16 0a5.7 5.7 0 1 0 11.4 0 5.7 5.7 0 1 0-11.4 0m-496 16a5.7 5.7 0 1 0 11.4 0 5.7 5.7 0 1 0-11.4 0m16 0a5.7 5.7 0 1 0 11.4 0 5.7 5.7 0 1 0-11.4 0m16 0a5.7 5.7 0 1 0 11.4 0 5.7 5.7 0 1 0-11.4 0m16 0a5.7 5.7 0 1 0 11.4 0 5.7 5.7 0 1 0-11.4 0m16 0a5.7 5.7 0 1 0 11.4 0 5.7 5.7 0 1 0-11.4 0m16 0a5.7 5.7 0 1 0 11.4 0 5.7 5.7 0 1 0-11.4 0m16 0a5.7 5.7 0 1 0 11.4 0 5.7 5.7 0 1 0-11.4 0m16 0a5.7 5.7 0 1 0 11.4 0 5.7 5.7 0 1 0-11.4 0m16 0a5.7 5.7 0 1 0 11.4 0 5.7 5.7 0 1 0-11.4 0m16 0a5.7 5.7 0 1 0 11.4 0 5.7 5.7 0 1 0-11.4 0m16 0a5.7 5.7 0 1 0 11.4 0 5.7 5.7 0 1 0-11.4 0m16 0a5.7 5.7 0 1 0 11.4 0 5.7 5.7 0 1 0-11.4 0m16 0a5.7 5.7 0 1 0 11.4 0 5.7 5.7 0 1 0-11.4 0m112 0a5.7 5.7 0 1 0 11.4 0 5.7 5.7 0 1 0-11.4 0m16 0a5.7 5.7 0 1 0 11.4 0 5.7 5.7 0 1 0-11.4 0m16 0a5.7 5.7 0 1 0 11.4 0 5.7 5.7 0 1 0-11.4 0m16 0a5.7 5.7 0 1 0 11.4 0 5.7 5.7 0 1 0-11.4 0m16 0a5.7 5.7 0 1 0 11.4 0 5.7 5.7 0 1 0-11.4 0m16 0a5.7 5.7 0 1 0 11.4 0 5.7 5.7 0 1 0-11.4 0m16 0a5.7 5.7 0 1 0 11.4 0 5.7 5.7 0 1 0-11.4 0m16 0a5.7 5.7 0 1 0 11.4 0 5.7 5.7 0 1 0-11.4 0m16 0a5.7 5.7 0 1 0 11.4 0 5.7 5.7 0 1 0-11.4 0m16 0a5.7 5.7 0 1 0 11.4 0 5.7 5.7 0 1 0-11.4 0m16 0a5.7 5.7 0 1 0 11.4 0 5.7 5.7 0 1 0-11.4 0m16 0a5.7 5.7 0 1 0 11.4 0 5.7 5.7 0 1 0-11.4 0m16 0a5.7 5.7 0 1 0 11.4 0 5.7 5.7 0 1 0-11.4 0m-496 16a5.7 5.7 0 1 0 11.4 0 5.7 5.7 0 1 0-11.4 0m16 0a5.7 5.7 0 1 0 11.4 0 5.7 5.7 0 1 0-11.4 0m16 0a5.7 5.7 0 1 0 11.4 0 5.7 5.7 0 1 0-11.4 0m16 0a5.7 5.7 0 1 0 11.4 0 5.7 5.7 0 1 0-11.4 0m16 0a5.7 5.7 0 1 0 11.4 0 5.7 5.7 0 1 0-11.4 0m16 0a5.7 5.7 0 1 0 11.4 0 5.7 5.7 0 1 0-11.4 0m16 0a5.7 5.7 0 1 0 11.4 0 5.7 5.7 0 1 0-11.4 0m16 0a5.7 5.7 0 1 0 11.4 0 5.7 5.7 0 1 0-11.4 0m16 0a5.7 5.7 0 1 0 11.4 0 5.7 5.7 0 1 0-11.4 0m16 0a5.7 5.7 0 1 0 11.4 0 5.7 5.7 0 1 0-11.4 0m16 0a5.7 5.7 0 1 0 11.4 0 5.7 5.7 0 1 0-11.4 0m176 0a5.7 5.7 0 1 0 11.4 0 5.7 5.7 0 1 0-11.4 0m16 0a5.7 5.7 0 1 0 11.4 0 5.7 5.7 0 1 0-11.4 0m16 0a5.7 5.7 0 1 0 11.4 0 5.7 5.7 0 1 0-11.4 0m16 0a5.7 5.7 0 1 0 11.4 0 5.7 5.7 0 1 0-11.4 0m16 0a5.7 5.7 0 1 0 11.4 0 5.7 5.7 0 1 0-11.4 0m16 0a5.7 5.7 0 1 0 11.4 0 5.7 5.7 0 1 0-11.4 0m16 0a5.7 5.7 0 1 0 11.4 0 5.7 5.7 0 1 0-11.4 0m16 0a5.7 5.7 0 1 0 11.4 0 5.7 5.7 0 1 0-11.4 0m16 0a5.7 5.7 0 1 0 11.4 0 5.7 5.7 0 1 0-11.4 0m16 0a5.7 5.7 0 1 0 11.4 0 5.7 5.7 0 1 0-11.4 0m16 0a5.7 5.7 0 1 0 11.4 0 5.7 5.7 0 1 0-11.4 0m-496 16a5.7 5.7 0 1 0 11.4 0 5.7 5.7 0 1 0-11.4 0m16 0a5.7 5.7 0 1 0 11.4 0 5.7 5.7 0 1 0-11.4 0m16 0a5.7 5.7 0 1 0 11.4 0 5.7 5.7 0 1 0-11.4 0m16 0a5.7 5.7 0 1 0 11.4 0 5.7 5.7 0 1 0-11.4 0m16 0a5.7 5.7 0 1 0 11.4 0 5.7 5.7 0 1 0-11.4 0m16 0a5.7 5.7 0 1 0 11.4 0 5.7 5.7 0 1 0-11.4 0m16 0a5.7 5.7 0 1 0 11.4 0 5.7 5.7 0 1 0-11.4 0m16 0a5.7 5.7 0 1 0 11.4 0 5.7 5.7 0 1 0-11.4 0m16 0a5.7 5.7 0 1 0 11.4 0 5.7 5.7 0 1 0-11.4 0m16 0a5.7 5.7 0 1 0 11.4 0 5.7 5.7 0 1 0-11.4 0m80 0a5.7 5.7 0 1 0 11.4 0 5.7 5.7 0 1 0-11.4 0m16 0a5.7 5.7 0 1 0 11.4 0 5.7 5.7 0 1 0-11.4 0m16 0a5.7 5.7 0 1 0 11.4 0 5.7 5.7 0 1 0-11.4 0m16 0a5.7 5.7 0 1 0 11.4 0 5.7 5.7 0 1 0-11.4 0m80 0a5.7 5.7 0 1 0 11.4 0 5.7 5.7 0 1 0-11.4 0m16 0a5.7 5.7 0 1 0 11.4 0 5.7 5.7 0 1 0-11.4 0m16 0a5.7 5.7 0 1 0 11.4 0 5.7 5.7 0 1 0-11.4 0m16 0a5.7 5.7 0 1 0 11.4 0 5.7 5.7 0 1 0-11.4 0m16 0a5.7 5.7 0 1 0 11.4 0 5.7 5.7 0 1 0-11.4 0m16 0a5.7 5.7 0 1 0 11.4 0 5.7 5.7 0 1 0-11.4 0m16 0a5.7 5.7 0 1 0 11.4 0 5.7 5.7 0 1 0-11.4 0m16 0a5.7 5.7 0 1 0 11.4 0 5.7 5.7 0 1 0-11.4 0m16 0a5.7 5.7 0 1 0 11.4 0 5.7 5.7 0 1 0-11.4 0m16 0a5.7 5.7 0 1 0 11.4 0 5.7 5.7 0 1 0-11.4 0m-496 16a5.7 5.7 0 1 0 11.4 0 5.7 5.7 0 1 0-11.4 0m16 0a5.7 5.7 0 1 0 11.4 0 5.7 5.7 0 1 0-11.4 0m16 0a5.7 5.7 0 1 0 11.4 0 5.7 5.7 0 1 0-11.4 0m16 0a5.7 5.7 0 1 0 11.4 0 5.7 5.7 0 1 0-11.4 0m16 0a5.7 5.7 0 1 0 11.4 0 5.7 5.7 0 1 0-11.4 0m16 0a5.7 5.7 0 1 0 11.4 0 5.7 5.7 0 1 0-11.4 0m16 0a5.7 5.7 0 1 0 11.4 0 5.7 5.7 0 1 0-11.4 0m16 0a5.7 5.7 0 1 0 11.4 0 5.7 5.7 0 1 0-11.4 0m16 0a5.7 5.7 0 1 0 11.4 0 5.7 5.7 0 1 0-11.4 0m64 0a5.7 5.7 0 1 0 11.4 0 5.7 5.7 0 1 0-11.4 0m16 0a5.7 5.7 0 1 0 11.4 0 5.7 5.7 0 1 0-11.4 0m16 0a5.7 5.7 0 1 0 11.4 0 5.7 5.7 0 1 0-11.4 0m16 0a5.7 5.7 0 1 0 11.4 0 5.7 5.7 0 1 0-11.4 0m16 0a5.7 5.7 0 1 0 11.4 0 5.7 5.7 0 1 0-11.4 0m16 0a5.7 5.7 0 1 0 11.4 0 5.7 5.7 0 1 0-11.4 0m16 0a5.7 5.7 0 1 0 11.4 0 5.7 5.7 0 1 0-11.4 0m16 0a5.7 5.7 0 1 0 11.4 0 5.7 5.7 0 1 0-11.4 0m64 0a5.7 5.7 0 1 0 11.4 0 5.7 5.7 0 1 0-11.4 0m16 0a5.7 5.7 0 1 0 11.4 0 5.7 5.7 0 1 0-11.4 0m16 0a5.7 5.7 0 1 0 11.4 0 5.7 5.7 0 1 0-11.4 0m16 0a5.7 5.7 0 1 0 11.4 0 5.7 5.7 0 1 0-11.4 0m16 0a5.7 5.7 0 1 0 11.4 0 5.7 5.7 0 1 0-11.4 0m16 0a5.7 5.7 0 1 0 11.4 0 5.7 5.7 0 1 0-11.4 0m16 0a5.7 5.7 0 1 0 11.4 0 5.7 5.7 0 1 0-11.4 0m16 0a5.7 5.7 0 1 0 11.4 0 5.7 5.7 0 1 0-11.4 0m16 0a5.7 5.7 0 1 0 11.4 0 5.7 5.7 0 1 0-11.4 0m-496 16a5.7 5.7 0 1 0 11.4 0 5.7 5.7 0 1 0-11.4 0m16 0a5.7 5.7 0 1 0 11.4 0 5.7 5.7 0 1 0-11.4 0m16 0a5.7 5.7 0 1 0 11.4 0 5.7 5.7 0 1 0-11.4 0m16 0a5.7 5.7 0 1 0 11.4 0 5.7 5.7 0 1 0-11.4 0m16 0a5.7 5.7 0 1 0 11.4 0 5.7 5.7 0 1 0-11.4 0m16 0a5.7 5.7 0 1 0 11.4 0 5.7 5.7 0 1 0-11.4 0m16 0a5.7 5.7 0 1 0 11.4 0 5.7 5.7 0 1 0-11.4 0m16 0a5.7 5.7 0 1 0 11.4 0 5.7 5.7 0 1 0-11.4 0m16 0a5.7 5.7 0 1 0 11.4 0 5.7 5.7 0 1 0-11.4 0m48 0a5.7 5.7 0 1 0 11.4 0 5.7 5.7 0 1 0-11.4 0m16 0a5.7 5.7 0 1 0 11.4 0 5.7 5.7 0 1 0-11.4 0m16 0a5.7 5.7 0 1 0 11.4 0 5.7 5.7 0 1 0-11.4 0m16 0a5.7 5.7 0 1 0 11.4 0 5.7 5.7 0 1 0-11.4 0m16 0a5.7 5.7 0 1 0 11.4 0 5.7 5.7 0 1 0-11.4 0m16 0a5.7 5.7 0 1 0 11.4 0 5.7 5.7 0 1 0-11.4 0m16 0a5.7 5.7 0 1 0 11.4 0 5.7 5.7 0 1 0-11.4 0m16 0a5.7 5.7 0 1 0 11.4 0 5.7 5.7 0 1 0-11.4 0m16 0a5.7 5.7 0 1 0 11.4 0 5.7 5.7 0 1 0-11.4 0m16 0a5.7 5.7 0 1 0 11.4 0 5.7 5.7 0 1 0-11.4 0m48 0a5.7 5.7 0 1 0 11.4 0 5.7 5.7 0 1 0-11.4 0m16 0a5.7 5.7 0 1 0 11.4 0 5.7 5.7 0 1 0-11.4 0m16 0a5.7 5.7 0 1 0 11.4 0 5.7 5.7 0 1 0-11.4 0m16 0a5.7 5.7 0 1 0 11.4 0 5.7 5.7 0 1 0-11.4 0m16 0a5.7 5.7 0 1 0 11.4 0 5.7 5.7 0 1 0-11.4 0m16 0a5.7 5.7 0 1 0 11.4 0 5.7 5.7 0 1 0-11.4 0m16 0a5.7 5.7 0 1 0 11.4 0 5.7 5.7 0 1 0-11.4 0m16 0a5.7 5.7 0 1 0 11.4 0 5.7 5.7 0 1 0-11.4 0m16 0a5.7 5.7 0 1 0 11.4 0 5.7 5.7 0 1 0-11.4 0m-496 16a5.7 5.7 0 1 0 11.4 0 5.7 5.7 0 1 0-11.4 0m16 0a5.7 5.7 0 1 0 11.4 0 5.7 5.7 0 1 0-11.4 0m16 0a5.7 5.7 0 1 0 11.4 0 5.7 5.7 0 1 0-11.4 0m16 0a5.7 5.7 0 1 0 11.4 0 5.7 5.7 0 1 0-11.4 0m16 0a5.7 5.7 0 1 0 11.4 0 5.7 5.7 0 1 0-11.4 0m16 0a5.7 5.7 0 1 0 11.4 0 5.7 5.7 0 1 0-11.4 0m16 0a5.7 5.7 0 1 0 11.4 0 5.7 5.7 0 1 0-11.4 0m16 0a5.7 5.7 0 1 0 11.4 0 5.7 5.7 0 1 0-11.4 0m64 0a5.7 5.7 0 1 0 11.4 0 5.7 5.7 0 1 0-11.4 0m16 0a5.7 5.7 0 1 0 11.4 0 5.7 5.7 0 1 0-11.4 0m16 0a5.7 5.7 0 1 0 11.4 0 5.7 5.7 0 1 0-11.4 0m16 0a5.7 5.7 0 1 0 11.4 0 5.7 5.7 0 1 0-11.4 0m16 0a5.7 5.7 0 1 0 11.4 0 5.7 5.7 0 1 0-11.4 0m16 0a5.7 5.7 0 1 0 11.4 0 5.7 5.7 0 1 0-11.4 0m16 0a5.7 5.7 0 1 0 11.4 0 5.7 5.7 0 1 0-11.4 0m16 0a5.7 5.7 0 1 0 11.4 0 5.7 5.7 0 1 0-11.4 0m16 0a5.7 5.7 0 1 0 11.4 0 5.7 5.7 0 1 0-11.4 0m16 0a5.7 5.7 0 1 0 11.4 0 5.7 5.7 0 1 0-11.4 0m64 0a5.7 5.7 0 1 0 11.4 0 5.7 5.7 0 1 0-11.4 0m16 0a5.7 5.7 0 1 0 11.4 0 5.7 5.7 0 1 0-11.4 0m16 0a5.7 5.7 0 1 0 11.4 0 5.7 5.7 0 1 0-11.4 0m16 0a5.7 5.7 0 1 0 11.4 0 5.7 5.7 0 1 0-11.4 0m16 0a5.7 5.7 0 1 0 11.4 0 5.7 5.7 0 1 0-11.4 0m16 0a5.7 5.7 0 1 0 11.4 0 5.7 5.7 0 1 0-11.4 0m16 0a5.7 5.7 0 1 0 11.4 0 5.7 5.7 0 1 0-11.4 0m16 0a5.7 5.7 0 1 0 11.4 0 5.7 5.7 0 1 0-11.4 0m-496 16a5.7 5.7 0 1 0 11.4 0 5.7 5.7 0 1 0-11.4 0m16 0a5.7 5.7 0 1 0 11.4 0 5.7 5.7 0 1 0-11.4 0m16 0a5.7 5.7 0 1 0 11.4 0 5.7 5.7 0 1 0-11.4 0m16 0a5.7 5.7 0 1 0 11.4 0 5.7 5.7 0 1 0-11.4 0m16 0a5.7 5.7 0 1 0 11.4 0 5.7 5.7 0 1 0-11.4 0m16 0a5.7 5.7 0 1 0 11.4 0 5.7 5.7 0 1 0-11.4 0m16 0a5.7 5.7 0 1 0 11.4 0 5.7 5.7 0 1 0-11.4 0m16 0a5.7 5.7 0 1 0 11.4 0 5.7 5.7 0 1 0-11.4 0m48 0a5.7 5.7 0 1 0 11.4 0 5.7 5.7 0 1 0-11.4 0m16 0a5.7 5.7 0 1 0 11.4 0 5.7 5.7 0 1 0-11.4 0m16 0a5.7 5.7 0 1 0 11.4 0 5.7 5.7 0 1 0-11.4 0m16 0a5.7 5.7 0 1 0 11.4 0 5.7 5.7 0 1 0-11.4 0m16 0a5.7 5.7 0 1 0 11.4 0 5.7 5.7 0 1 0-11.4 0m16 0a5.7 5.7 0 1 0 11.4 0 5.7 5.7 0 1 0-11.4 0m16 0a5.7 5.7 0 1 0 11.4 0 5.7 5.7 0 1 0-11.4 0m16 0a5.7 5.7 0 1 0 11.4 0 5.7 5.7 0 1 0-11.4 0m16 0a5.7 5.7 0 1 0 11.4 0 5.7 5.7 0 1 0-11.4 0m16 0a5.7 5.7 0 1 0 11.4 0 5.7 5.7 0 1 0-11.4 0m16 0a5.7 5.7 0 1 0 11.4 0 5.7 5.7 0 1 0-11.4 0m16 0a5.7 5.7 0 1 0 11.4 0 5.7 5.7 0 1 0-11.4 0m48 0a5.7 5.7 0 1 0 11.4 0 5.7 5.7 0 1 0-11.4 0m16 0a5.7 5.7 0 1 0 11.4 0 5.7 5.7 0 1 0-11.4 0m16 0a5.7 5.7 0 1 0 11.4 0 5.7 5.7 0 1 0-11.4 0m16 0a5.7 5.7 0 1 0 11.4 0 5.7 5.7 0 1 0-11.4 0m16 0a5.7 5.7 0 1 0 11.4 0 5.7 5.7 0 1 0-11.4 0m16 0a5.7 5.7 0 1 0 11.4 0 5.7 5.7 0 1 0-11.4 0m16 0a5.7 5.7 0 1 0 11.4 0 5.7 5.7 0 1 0-11.4 0m16 0a5.7 5.7 0 1 0 11.4 0 5.7 5.7 0 1 0-11.4 0m-496 16a5.7 5.7 0 1 0 11.4 0 5.7 5.7 0 1 0-11.4 0m16 0a5.7 5.7 0 1 0 11.4 0 5.7 5.7 0 1 0-11.4 0m16 0a5.7 5.7 0 1 0 11.4 0 5.7 5.7 0 1 0-11.4 0m16 0a5.7 5.7 0 1 0 11.4 0 5.7 5.7 0 1 0-11.4 0m16 0a5.7 5.7 0 1 0 11.4 0 5.7 5.7 0 1 0-11.4 0m16 0a5.7 5.7 0 1 0 11.4 0 5.7 5.7 0 1 0-11.4 0m16 0a5.7 5.7 0 1 0 11.4 0 5.7 5.7 0 1 0-11.4 0m16 0a5.7 5.7 0 1 0 11.4 0 5.7 5.7 0 1 0-11.4 0m48 0a5.7 5.7 0 1 0 11.4 0 5.7 5.7 0 1 0-11.4 0m16 0a5.7 5.7 0 1 0 11.4 0 5.7 5.7 0 1 0-11.4 0m16 0a5.7 5.7 0 1 0 11.4 0 5.7 5.7 0 1 0-11.4 0m16 0a5.7 5.7 0 1 0 11.4 0 5.7 5.7 0 1 0-11.4 0m16 0a5.7 5.7 0 1 0 11.4 0 5.7 5.7 0 1 0-11.4 0m16 0a5.7 5.7 0 1 0 11.4 0 5.7 5.7 0 1 0-11.4 0m16 0a5.7 5.7 0 1 0 11.4 0 5.7 5.7 0 1 0-11.4 0m16 0a5.7 5.7 0 1 0 11.4 0 5.7 5.7 0 1 0-11.4 0m16 0a5.7 5.7 0 1 0 11.4 0 5.7 5.7 0 1 0-11.4 0m16 0a5.7 5.7 0 1 0 11.4 0 5.7 5.7 0 1 0-11.4 0m16 0a5.7 5.7 0 1 0 11.4 0 5.7 5.7 0 1 0-11.4 0m16 0a5.7 5.7 0 1 0 11.4 0 5.7 5.7 0 1 0-11.4 0m48 0a5.7 5.7 0 1 0 11.4 0 5.7 5.7 0 1 0-11.4 0m16 0a5.7 5.7 0 1 0 11.4 0 5.7 5.7 0 1 0-11.4 0m16 0a5.7 5.7 0 1 0 11.4 0 5.7 5.7 0 1 0-11.4 0m16 0a5.7 5.7 0 1 0 11.4 0 5.7 5.7 0 1 0-11.4 0m16 0a5.7 5.7 0 1 0 11.4 0 5.7 5.7 0 1 0-11.4 0m16 0a5.7 5.7 0 1 0 11.4 0 5.7 5.7 0 1 0-11.4 0m16 0a5.7 5.7 0 1 0 11.4 0 5.7 5.7 0 1 0-11.4 0m16 0a5.7 5.7 0 1 0 11.4 0 5.7 5.7 0 1 0-11.4 0m-496 16a5.7 5.7 0 1 0 11.4 0 5.7 5.7 0 1 0-11.4 0m16 0a5.7 5.7 0 1 0 11.4 0 5.7 5.7 0 1 0-11.4 0m16 0a5.7 5.7 0 1 0 11.4 0 5.7 5.7 0 1 0-11.4 0m16 0a5.7 5.7 0 1 0 11.4 0 5.7 5.7 0 1 0-11.4 0m16 0a5.7 5.7 0 1 0 11.4 0 5.7 5.7 0 1 0-11.4 0m16 0a5.7 5.7 0 1 0 11.4 0 5.7 5.7 0 1 0-11.4 0m16 0a5.7 5.7 0 1 0 11.4 0 5.7 5.7 0 1 0-11.4 0m16 0a5.7 5.7 0 1 0 11.4 0 5.7 5.7 0 1 0-11.4 0m48 0a5.7 5.7 0 1 0 11.4 0 5.7 5.7 0 1 0-11.4 0m16 0a5.7 5.7 0 1 0 11.4 0 5.7 5.7 0 1 0-11.4 0m16 0a5.7 5.7 0 1 0 11.4 0 5.7 5.7 0 1 0-11.4 0m16 0a5.7 5.7 0 1 0 11.4 0 5.7 5.7 0 1 0-11.4 0m16 0a5.7 5.7 0 1 0 11.4 0 5.7 5.7 0 1 0-11.4 0m16 0a5.7 5.7 0 1 0 11.4 0 5.7 5.7 0 1 0-11.4 0m16 0a5.7 5.7 0 1 0 11.4 0 5.7 5.7 0 1 0-11.4 0m16 0a5.7 5.7 0 1 0 11.4 0 5.7 5.7 0 1 0-11.4 0m16 0a5.7 5.7 0 1 0 11.4 0 5.7 5.7 0 1 0-11.4 0m16 0a5.7 5.7 0 1 0 11.4 0 5.7 5.7 0 1 0-11.4 0m16 0a5.7 5.7 0 1 0 11.4 0 5.7 5.7 0 1 0-11.4 0m16 0a5.7 5.7 0 1 0 11.4 0 5.7 5.7 0 1 0-11.4 0m48 0a5.7 5.7 0 1 0 11.4 0 5.7 5.7 0 1 0-11.4 0m16 0a5.7 5.7 0 1 0 11.4 0 5.7 5.7 0 1 0-11.4 0m16 0a5.7 5.7 0 1 0 11.4 0 5.7 5.7 0 1 0-11.4 0m16 0a5.7 5.7 0 1 0 11.4 0 5.7 5.7 0 1 0-11.4 0m16 0a5.7 5.7 0 1 0 11.4 0 5.7 5.7 0 1 0-11.4 0m16 0a5.7 5.7 0 1 0 11.4 0 5.7 5.7 0 1 0-11.4 0m16 0a5.7 5.7 0 1 0 11.4 0 5.7 5.7 0 1 0-11.4 0m16 0a5.7 5.7 0 1 0 11.4 0 5.7 5.7 0 1 0-11.4 0m-496 16a5.7 5.7 0 1 0 11.4 0 5.7 5.7 0 1 0-11.4 0m16 0a5.7 5.7 0 1 0 11.4 0 5.7 5.7 0 1 0-11.4 0m16 0a5.7 5.7 0 1 0 11.4 0 5.7 5.7 0 1 0-11.4 0m16 0a5.7 5.7 0 1 0 11.4 0 5.7 5.7 0 1 0-11.4 0m16 0a5.7 5.7 0 1 0 11.4 0 5.7 5.7 0 1 0-11.4 0m16 0a5.7 5.7 0 1 0 11.4 0 5.7 5.7 0 1 0-11.4 0m16 0a5.7 5.7 0 1 0 11.4 0 5.7 5.7 0 1 0-11.4 0m16 0a5.7 5.7 0 1 0 11.4 0 5.7 5.7 0 1 0-11.4 0m48 0a5.7 5.7 0 1 0 11.4 0 5.7 5.7 0 1 0-11.4 0m16 0a5.7 5.7 0 1 0 11.4 0 5.7 5.7 0 1 0-11.4 0m16 0a5.7 5.7 0 1 0 11.4 0 5.7 5.7 0 1 0-11.4 0m16 0a5.7 5.7 0 1 0 11.4 0 5.7 5.7 0 1 0-11.4 0m16 0a5.7 5.7 0 1 0 11.4 0 5.7 5.7 0 1 0-11.4 0m16 0a5.7 5.7 0 1 0 11.4 0 5.7 5.7 0 1 0-11.4 0m16 0a5.7 5.7 0 1 0 11.4 0 5.7 5.7 0 1 0-11.4 0m16 0a5.7 5.7 0 1 0 11.4 0 5.7 5.7 0 1 0-11.4 0m16 0a5.7 5.7 0 1 0 11.4 0 5.7 5.7 0 1 0-11.4 0m16 0a5.7 5.7 0 1 0 11.4 0 5.7 5.7 0 1 0-11.4 0m16 0a5.7 5.7 0 1 0 11.4 0 5.7 5.7 0 1 0-11.4 0m16 0a5.7 5.7 0 1 0 11.4 0 5.7 5.7 0 1 0-11.4 0m48 0a5.7 5.7 0 1 0 11.4 0 5.7 5.7 0 1 0-11.4 0m16 0a5.7 5.7 0 1 0 11.4 0 5.7 5.7 0 1 0-11.4 0m16 0a5.7 5.7 0 1 0 11.4 0 5.7 5.7 0 1 0-11.4 0m16 0a5.7 5.7 0 1 0 11.4 0 5.7 5.7 0 1 0-11.4 0m16 0a5.7 5.7 0 1 0 11.4 0 5.7 5.7 0 1 0-11.4 0m16 0a5.7 5.7 0 1 0 11.4 0 5.7 5.7 0 1 0-11.4 0m16 0a5.7 5.7 0 1 0 11.4 0 5.7 5.7 0 1 0-11.4 0m16 0a5.7 5.7 0 1 0 11.4 0 5.7 5.7 0 1 0-11.4 0m-496 16a5.7 5.7 0 1 0 11.4 0 5.7 5.7 0 1 0-11.4 0m16 0a5.7 5.7 0 1 0 11.4 0 5.7 5.7 0 1 0-11.4 0m16 0a5.7 5.7 0 1 0 11.4 0 5.7 5.7 0 1 0-11.4 0m16 0a5.7 5.7 0 1 0 11.4 0 5.7 5.7 0 1 0-11.4 0m16 0a5.7 5.7 0 1 0 11.4 0 5.7 5.7 0 1 0-11.4 0m16 0a5.7 5.7 0 1 0 11.4 0 5.7 5.7 0 1 0-11.4 0m16 0a5.7 5.7 0 1 0 11.4 0 5.7 5.7 0 1 0-11.4 0m16 0a5.7 5.7 0 1 0 11.4 0 5.7 5.7 0 1 0-11.4 0m64 0a5.7 5.7 0 1 0 11.4 0 5.7 5.7 0 1 0-11.4 0m16 0a5.7 5.7 0 1 0 11.4 0 5.7 5.7 0 1 0-11.4 0m16 0a5.7 5.7 0 1 0 11.4 0 5.7 5.7 0 1 0-11.4 0m16 0a5.7 5.7 0 1 0 11.4 0 5.7 5.7 0 1 0-11.4 0m16 0a5.7 5.7 0 1 0 11.4 0 5.7 5.7 0 1 0-11.4 0m16 0a5.7 5.7 0 1 0 11.4 0 5.7 5.7 0 1 0-11.4 0m16 0a5.7 5.7 0 1 0 11.4 0 5.7 5.7 0 1 0-11.4 0m16 0a5.7 5.7 0 1 0 11.4 0 5.7 5.7 0 1 0-11.4 0m16 0a5.7 5.7 0 1 0 11.4 0 5.7 5.7 0 1 0-11.4 0m16 0a5.7 5.7 0 1 0 11.4 0 5.7 5.7 0 1 0-11.4 0m64 0a5.7 5.7 0 1 0 11.4 0 5.7 5.7 0 1 0-11.4 0m16 0a5.7 5.7 0 1 0 11.4 0 5.7 5.7 0 1 0-11.4 0m16 0a5.7 5.7 0 1 0 11.4 0 5.7 5.7 0 1 0-11.4 0m16 0a5.7 5.7 0 1 0 11.4 0 5.7 5.7 0 1 0-11.4 0m16 0a5.7 5.7 0 1 0 11.4 0 5.7 5.7 0 1 0-11.4 0m16 0a5.7 5.7 0 1 0 11.4 0 5.7 5.7 0 1 0-11.4 0m16 0a5.7 5.7 0 1 0 11.4 0 5.7 5.7 0 1 0-11.4 0m16 0a5.7 5.7 0 1 0 11.4 0 5.7 5.7 0 1 0-11.4 0m-496 16a5.7 5.7 0 1 0 11.4 0 5.7 5.7 0 1 0-11.4 0m16 0a5.7 5.7 0 1 0 11.4 0 5.7 5.7 0 1 0-11.4 0m16 0a5.7 5.7 0 1 0 11.4 0 5.7 5.7 0 1 0-11.4 0m16 0a5.7 5.7 0 1 0 11.4 0 5.7 5.7 0 1 0-11.4 0m16 0a5.7 5.7 0 1 0 11.4 0 5.7 5.7 0 1 0-11.4 0m16 0a5.7 5.7 0 1 0 11.4 0 5.7 5.7 0 1 0-11.4 0m16 0a5.7 5.7 0 1 0 11.4 0 5.7 5.7 0 1 0-11.4 0m16 0a5.7 5.7 0 1 0 11.4 0 5.7 5.7 0 1 0-11.4 0m16 0a5.7 5.7 0 1 0 11.4 0 5.7 5.7 0 1 0-11.4 0m48 0a5.7 5.7 0 1 0 11.4 0 5.7 5.7 0 1 0-11.4 0m16 0a5.7 5.7 0 1 0 11.4 0 5.7 5.7 0 1 0-11.4 0m16 0a5.7 5.7 0 1 0 11.4 0 5.7 5.7 0 1 0-11.4 0m16 0a5.7 5.7 0 1 0 11.4 0 5.7 5.7 0 1 0-11.4 0m16 0a5.7 5.7 0 1 0 11.4 0 5.7 5.7 0 1 0-11.4 0m16 0a5.7 5.7 0 1 0 11.4 0 5.7 5.7 0 1 0-11.4 0m16 0a5.7 5.7 0 1 0 11.4 0 5.7 5.7 0 1 0-11.4 0m16 0a5.7 5.7 0 1 0 11.4 0 5.7 5.7 0 1 0-11.4 0m16 0a5.7 5.7 0 1 0 11.4 0 5.7 5.7 0 1 0-11.4 0m16 0a5.7 5.7 0 1 0 11.4 0 5.7 5.7 0 1 0-11.4 0m48 0a5.7 5.7 0 1 0 11.4 0 5.7 5.7 0 1 0-11.4 0m16 0a5.7 5.7 0 1 0 11.4 0 5.7 5.7 0 1 0-11.4 0m16 0a5.7 5.7 0 1 0 11.4 0 5.7 5.7 0 1 0-11.4 0m16 0a5.7 5.7 0 1 0 11.4 0 5.7 5.7 0 1 0-11.4 0m16 0a5.7 5.7 0 1 0 11.4 0 5.7 5.7 0 1 0-11.4 0m16 0a5.7 5.7 0 1 0 11.4 0 5.7 5.7 0 1 0-11.4 0m16 0a5.7 5.7 0 1 0 11.4 0 5.7 5.7 0 1 0-11.4 0m16 0a5.7 5.7 0 1 0 11.4 0 5.7 5.7 0 1 0-11.4 0m16 0a5.7 5.7 0 1 0 11.4 0 5.7 5.7 0 1 0-11.4 0m-496 16a5.7 5.7 0 1 0 11.4 0 5.7 5.7 0 1 0-11.4 0m16 0a5.7 5.7 0 1 0 11.4 0 5.7 5.7 0 1 0-11.4 0m16 0a5.7 5.7 0 1 0 11.4 0 5.7 5.7 0 1 0-11.4 0m16 0a5.7 5.7 0 1 0 11.4 0 5.7 5.7 0 1 0-11.4 0m16 0a5.7 5.7 0 1 0 11.4 0 5.7 5.7 0 1 0-11.4 0m16 0a5.7 5.7 0 1 0 11.4 0 5.7 5.7 0 1 0-11.4 0m16 0a5.7 5.7 0 1 0 11.4 0 5.7 5.7 0 1 0-11.4 0m16 0a5.7 5.7 0 1 0 11.4 0 5.7 5.7 0 1 0-11.4 0m16 0a5.7 5.7 0 1 0 11.4 0 5.7 5.7 0 1 0-11.4 0m64 0a5.7 5.7 0 1 0 11.4 0 5.7 5.7 0 1 0-11.4 0m16 0a5.7 5.7 0 1 0 11.4 0 5.7 5.7 0 1 0-11.4 0m16 0a5.7 5.7 0 1 0 11.4 0 5.7 5.7 0 1 0-11.4 0m16 0a5.7 5.7 0 1 0 11.4 0 5.7 5.7 0 1 0-11.4 0m16 0a5.7 5.7 0 1 0 11.4 0 5.7 5.7 0 1 0-11.4 0m16 0a5.7 5.7 0 1 0 11.4 0 5.7 5.7 0 1 0-11.4 0m16 0a5.7 5.7 0 1 0 11.4 0 5.7 5.7 0 1 0-11.4 0m16 0a5.7 5.7 0 1 0 11.4 0 5.7 5.7 0 1 0-11.4 0m64 0a5.7 5.7 0 1 0 11.4 0 5.7 5.7 0 1 0-11.4 0m16 0a5.7 5.7 0 1 0 11.4 0 5.7 5.7 0 1 0-11.4 0m16 0a5.7 5.7 0 1 0 11.4 0 5.7 5.7 0 1 0-11.4 0m16 0a5.7 5.7 0 1 0 11.4 0 5.7 5.7 0 1 0-11.4 0m16 0a5.7 5.7 0 1 0 11.4 0 5.7 5.7 0 1 0-11.4 0m16 0a5.7 5.7 0 1 0 11.4 0 5.7 5.7 0 1 0-11.4 0m16 0a5.7 5.7 0 1 0 11.4 0 5.7 5.7 0 1 0-11.4 0m16 0a5.7 5.7 0 1 0 11.4 0 5.7 5.7 0 1 0-11.4 0m16 0a5.7 5.7 0 1 0 11.4 0 5.7 5.7 0 1 0-11.4 0m-496 16a5.7 5.7 0 1 0 11.4 0 5.7 5.7 0 1 0-11.4 0m16 0a5.7 5.7 0 1 0 11.4 0 5.7 5.7 0 1 0-11.4 0m16 0a5.7 5.7 0 1 0 11.4 0 5.7 5.7 0 1 0-11.4 0m16 0a5.7 5.7 0 1 0 11.4 0 5.7 5.7 0 1 0-11.4 0m16 0a5.7 5.7 0 1 0 11.4 0 5.7 5.7 0 1 0-11.4 0m16 0a5.7 5.7 0 1 0 11.4 0 5.7 5.7 0 1 0-11.4 0m16 0a5.7 5.7 0 1 0 11.4 0 5.7 5.7 0 1 0-11.4 0m16 0a5.7 5.7 0 1 0 11.4 0 5.7 5.7 0 1 0-11.4 0m16 0a5.7 5.7 0 1 0 11.4 0 5.7 5.7 0 1 0-11.4 0m16 0a5.7 5.7 0 1 0 11.4 0 5.7 5.7 0 1 0-11.4 0m80 0a5.7 5.7 0 1 0 11.4 0 5.7 5.7 0 1 0-11.4 0m16 0a5.7 5.7 0 1 0 11.4 0 5.7 5.7 0 1 0-11.4 0m16 0a5.7 5.7 0 1 0 11.4 0 5.7 5.7 0 1 0-11.4 0m16 0a5.7 5.7 0 1 0 11.4 0 5.7 5.7 0 1 0-11.4 0m80 0a5.7 5.7 0 1 0 11.4 0 5.7 5.7 0 1 0-11.4 0m16 0a5.7 5.7 0 1 0 11.4 0 5.7 5.7 0 1 0-11.4 0m16 0a5.7 5.7 0 1 0 11.4 0 5.7 5.7 0 1 0-11.4 0m16 0a5.7 5.7 0 1 0 11.4 0 5.7 5.7 0 1 0-11.4 0m16 0a5.7 5.7 0 1 0 11.4 0 5.7 5.7 0 1 0-11.4 0m16 0a5.7 5.7 0 1 0 11.4 0 5.7 5.7 0 1 0-11.4 0m16 0a5.7 5.7 0 1 0 11.4 0 5.7 5.7 0 1 0-11.4 0m16 0a5.7 5.7 0 1 0 11.4 0 5.7 5.7 0 1 0-11.4 0m16 0a5.7 5.7 0 1 0 11.4 0 5.7 5.7 0 1 0-11.4 0m16 0a5.7 5.7 0 1 0 11.4 0 5.7 5.7 0 1 0-11.4 0m-496 16a5.7 5.7 0 1 0 11.4 0 5.7 5.7 0 1 0-11.4 0m16 0a5.7 5.7 0 1 0 11.4 0 5.7 5.7 0 1 0-11.4 0m16 0a5.7 5.7 0 1 0 11.4 0 5.7 5.7 0 1 0-11.4 0m16 0a5.7 5.7 0 1 0 11.4 0 5.7 5.7 0 1 0-11.4 0m16 0a5.7 5.7 0 1 0 11.4 0 5.7 5.7 0 1 0-11.4 0m16 0a5.7 5.7 0 1 0 11.4 0 5.7 5.7 0 1 0-11.4 0m16 0a5.7 5.7 0 1 0 11.4 0 5.7 5.7 0 1 0-11.4 0m16 0a5.7 5.7 0 1 0 11.4 0 5.7 5.7 0 1 0-11.4 0m16 0a5.7 5.7 0 1 0 11.4 0 5.7 5.7 0 1 0-11.4 0m16 0a5.7 5.7 0 1 0 11.4 0 5.7 5.7 0 1 0-11.4 0m16 0a5.7 5.7 0 1 0 11.4 0 5.7 5.7 0 1 0-11.4 0m176 0a5.7 5.7 0 1 0 11.4 0 5.7 5.7 0 1 0-11.4 0m16 0a5.7 5.7 0 1 0 11.4 0 5.7 5.7 0 1 0-11.4 0m16 0a5.7 5.7 0 1 0 11.4 0 5.7 5.7 0 1 0-11.4 0m16 0a5.7 5.7 0 1 0 11.4 0 5.7 5.7 0 1 0-11.4 0m16 0a5.7 5.7 0 1 0 11.4 0 5.7 5.7 0 1 0-11.4 0m16 0a5.7 5.7 0 1 0 11.4 0 5.7 5.7 0 1 0-11.4 0m16 0a5.7 5.7 0 1 0 11.4 0 5.7 5.7 0 1 0-11.4 0m16 0a5.7 5.7 0 1 0 11.4 0 5.7 5.7 0 1 0-11.4 0m16 0a5.7 5.7 0 1 0 11.4 0 5.7 5.7 0 1 0-11.4 0m16 0a5.7 5.7 0 1 0 11.4 0 5.7 5.7 0 1 0-11.4 0m16 0a5.7 5.7 0 1 0 11.4 0 5.7 5.7 0 1 0-11.4 0m-496 16a5.7 5.7 0 1 0 11.4 0 5.7 5.7 0 1 0-11.4 0m16 0a5.7 5.7 0 1 0 11.4 0 5.7 5.7 0 1 0-11.4 0m16 0a5.7 5.7 0 1 0 11.4 0 5.7 5.7 0 1 0-11.4 0m16 0a5.7 5.7 0 1 0 11.4 0 5.7 5.7 0 1 0-11.4 0m16 0a5.7 5.7 0 1 0 11.4 0 5.7 5.7 0 1 0-11.4 0m16 0a5.7 5.7 0 1 0 11.4 0 5.7 5.7 0 1 0-11.4 0m16 0a5.7 5.7 0 1 0 11.4 0 5.7 5.7 0 1 0-11.4 0m16 0a5.7 5.7 0 1 0 11.4 0 5.7 5.7 0 1 0-11.4 0m16 0a5.7 5.7 0 1 0 11.4 0 5.7 5.7 0 1 0-11.4 0m16 0a5.7 5.7 0 1 0 11.4 0 5.7 5.7 0 1 0-11.4 0m16 0a5.7 5.7 0 1 0 11.4 0 5.7 5.7 0 1 0-11.4 0m16 0a5.7 5.7 0 1 0 11.4 0 5.7 5.7 0 1 0-11.4 0m16 0a5.7 5.7 0 1 0 11.4 0 5.7 5.7 0 1 0-11.4 0m112 0a5.7 5.7 0 1 0 11.4 0 5.7 5.7 0 1 0-11.4 0m16 0a5.7 5.7 0 1 0 11.4 0 5.7 5.7 0 1 0-11.4 0m16 0a5.7 5.7 0 1 0 11.4 0 5.7 5.7 0 1 0-11.4 0m16 0a5.7 5.7 0 1 0 11.4 0 5.7 5.7 0 1 0-11.4 0m16 0a5.7 5.7 0 1 0 11.4 0 5.7 5.7 0 1 0-11.4 0m16 0a5.7 5.7 0 1 0 11.4 0 5.7 5.7 0 1 0-11.4 0m16 0a5.7 5.7 0 1 0 11.4 0 5.7 5.7 0 1 0-11.4 0m16 0a5.7 5.7 0 1 0 11.4 0 5.7 5.7 0 1 0-11.4 0m16 0a5.7 5.7 0 1 0 11.4 0 5.7 5.7 0 1 0-11.4 0m16 0a5.7 5.7 0 1 0 11.4 0 5.7 5.7 0 1 0-11.4 0m16 0a5.7 5.7 0 1 0 11.4 0 5.7 5.7 0 1 0-11.4 0m16 0a5.7 5.7 0 1 0 11.4 0 5.7 5.7 0 1 0-11.4 0m16 0a5.7 5.7 0 1 0 11.4 0 5.7 5.7 0 1 0-11.4 0m-496 16a5.7 5.7 0 1 0 11.4 0 5.7 5.7 0 1 0-11.4 0m16 0a5.7 5.7 0 1 0 11.4 0 5.7 5.7 0 1 0-11.4 0m16 0a5.7 5.7 0 1 0 11.4 0 5.7 5.7 0 1 0-11.4 0m16 0a5.7 5.7 0 1 0 11.4 0 5.7 5.7 0 1 0-11.4 0m16 0a5.7 5.7 0 1 0 11.4 0 5.7 5.7 0 1 0-11.4 0m16 0a5.7 5.7 0 1 0 11.4 0 5.7 5.7 0 1 0-11.4 0m16 0a5.7 5.7 0 1 0 11.4 0 5.7 5.7 0 1 0-11.4 0m16 0a5.7 5.7 0 1 0 11.4 0 5.7 5.7 0 1 0-11.4 0m16 0a5.7 5.7 0 1 0 11.4 0 5.7 5.7 0 1 0-11.4 0m16 0a5.7 5.7 0 1 0 11.4 0 5.7 5.7 0 1 0-11.4 0m16 0a5.7 5.7 0 1 0 11.4 0 5.7 5.7 0 1 0-11.4 0m16 0a5.7 5.7 0 1 0 11.4 0 5.7 5.7 0 1 0-11.4 0m16 0a5.7 5.7 0 1 0 11.4 0 5.7 5.7 0 1 0-11.4 0m16 0a5.7 5.7 0 1 0 11.4 0 5.7 5.7 0 1 0-11.4 0m16 0a5.7 5.7 0 1 0 11.4 0 5.7 5.7 0 1 0-11.4 0m16 0a5.7 5.7 0 1 0 11.4 0 5.7 5.7 0 1 0-11.4 0m16 0a5.7 5.7 0 1 0 11.4 0 5.7 5.7 0 1 0-11.4 0m16 0a5.7 5.7 0 1 0 11.4 0 5.7 5.7 0 1 0-11.4 0m16 0a5.7 5.7 0 1 0 11.4 0 5.7 5.7 0 1 0-11.4 0m16 0a5.7 5.7 0 1 0 11.4 0 5.7 5.7 0 1 0-11.4 0m16 0a5.7 5.7 0 1 0 11.4 0 5.7 5.7 0 1 0-11.4 0m16 0a5.7 5.7 0 1 0 11.4 0 5.7 5.7 0 1 0-11.4 0m16 0a5.7 5.7 0 1 0 11.4 0 5.7 5.7 0 1 0-11.4 0m16 0a5.7 5.7 0 1 0 11.4 0 5.7 5.7 0 1 0-11.4 0m16 0a5.7 5.7 0 1 0 11.4 0 5.7 5.7 0 1 0-11.4 0m16 0a5.7 5.7 0 1 0 11.4 0 5.7 5.7 0 1 0-11.4 0m16 0a5.7 5.7 0 1 0 11.4 0 5.7 5.7 0 1 0-11.4 0m16 0a5.7 5.7 0 1 0 11.4 0 5.7 5.7 0 1 0-11.4 0m16 0a5.7 5.7 0 1 0 11.4 0 5.7 5.7 0 1 0-11.4 0m16 0a5.7 5.7 0 1 0 11.4 0 5.7 5.7 0 1 0-11.4 0m16 0a5.7 5.7 0 1 0 11.4 0 5.7 5.7 0 1 0-11.4 0m16 0a5.7 5.7 0 1 0 11.4 0 5.7 5.7 0 1 0-11.4 0m-496 16a5.7 5.7 0 1 0 11.4 0 5.7 5.7 0 1 0-11.4 0m16 0a5.7 5.7 0 1 0 11.4 0 5.7 5.7 0 1 0-11.4 0m16 0a5.7 5.7 0 1 0 11.4 0 5.7 5.7 0 1 0-11.4 0m16 0a5.7 5.7 0 1 0 11.4 0 5.7 5.7 0 1 0-11.4 0m16 0a5.7 5.7 0 1 0 11.4 0 5.7 5.7 0 1 0-11.4 0m16 0a5.7 5.7 0 1 0 11.4 0 5.7 5.7 0 1 0-11.4 0m16 0a5.7 5.7 0 1 0 11.4 0 5.7 5.7 0 1 0-11.4 0m16 0a5.7 5.7 0 1 0 11.4 0 5.7 5.7 0 1 0-11.4 0m16 0a5.7 5.7 0 1 0 11.4 0 5.7 5.7 0 1 0-11.4 0m16 0a5.7 5.7 0 1 0 11.4 0 5.7 5.7 0 1 0-11.4 0m16 0a5.7 5.7 0 1 0 11.4 0 5.7 5.7 0 1 0-11.4 0m16 0a5.7 5.7 0 1 0 11.4 0 5.7 5.7 0 1 0-11.4 0m16 0a5.7 5.7 0 1 0 11.4 0 5.7 5.7 0 1 0-11.4 0m16 0a5.7 5.7 0 1 0 11.4 0 5.7 5.7 0 1 0-11.4 0m16 0a5.7 5.7 0 1 0 11.4 0 5.7 5.7 0 1 0-11.4 0m16 0a5.7 5.7 0 1 0 11.4 0 5.7 5.7 0 1 0-11.4 0m16 0a5.7 5.7 0 1 0 11.4 0 5.7 5.7 0 1 0-11.4 0m16 0a5.7 5.7 0 1 0 11.4 0 5.7 5.7 0 1 0-11.4 0m16 0a5.7 5.7 0 1 0 11.4 0 5.7 5.7 0 1 0-11.4 0m16 0a5.7 5.7 0 1 0 11.4 0 5.7 5.7 0 1 0-11.4 0m16 0a5.7 5.7 0 1 0 11.4 0 5.7 5.7 0 1 0-11.4 0m16 0a5.7 5.7 0 1 0 11.4 0 5.7 5.7 0 1 0-11.4 0m16 0a5.7 5.7 0 1 0 11.4 0 5.7 5.7 0 1 0-11.4 0m16 0a5.7 5.7 0 1 0 11.4 0 5.7 5.7 0 1 0-11.4 0m16 0a5.7 5.7 0 1 0 11.4 0 5.7 5.7 0 1 0-11.4 0m16 0a5.7 5.7 0 1 0 11.4 0 5.7 5.7 0 1 0-11.4 0m16 0a5.7 5.7 0 1 0 11.4 0 5.7 5.7 0 1 0-11.4 0m16 0a5.7 5.7 0 1 0 11.4 0 5.7 5.7 0 1 0-11.4 0m16 0a5.7 5.7 0 1 0 11.4 0 5.7 5.7 0 1 0-11.4 0m16 0a5.7 5.7 0 1 0 11.4 0 5.7 5.7 0 1 0-11.4 0m16 0a5.7 5.7 0 1 0 11.4 0 5.7 5.7 0 1 0-11.4 0m16 0a5.7 5.7 0 1 0 11.4 0 5.7 5.7 0 1 0-11.4 0m-480 16a5.7 5.7 0 1 0 11.4 0 5.7 5.7 0 1 0-11.4 0m16 0a5.7 5.7 0 1 0 11.4 0 5.7 5.7 0 1 0-11.4 0m16 0a5.7 5.7 0 1 0 11.4 0 5.7 5.7 0 1 0-11.4 0m16 0a5.7 5.7 0 1 0 11.4 0 5.7 5.7 0 1 0-11.4 0m16 0a5.7 5.7 0 1 0 11.4 0 5.7 5.7 0 1 0-11.4 0m16 0a5.7 5.7 0 1 0 11.4 0 5.7 5.7 0 1 0-11.4 0m16 0a5.7 5.7 0 1 0 11.4 0 5.7 5.7 0 1 0-11.4 0m16 0a5.7 5.7 0 1 0 11.4 0 5.7 5.7 0 1 0-11.4 0m16 0a5.7 5.7 0 1 0 11.4 0 5.7 5.7 0 1 0-11.4 0m16 0a5.7 5.7 0 1 0 11.4 0 5.7 5.7 0 1 0-11.4 0m16 0a5.7 5.7 0 1 0 11.4 0 5.7 5.7 0 1 0-11.4 0m16 0a5.7 5.7 0 1 0 11.4 0 5.7 5.7 0 1 0-11.4 0m16 0a5.7 5.7 0 1 0 11.4 0 5.7 5.7 0 1 0-11.4 0m16 0a5.7 5.7 0 1 0 11.4 0 5.7 5.7 0 1 0-11.4 0m16 0a5.7 5.7 0 1 0 11.4 0 5.7 5.7 0 1 0-11.4 0m16 0a5.7 5.7 0 1 0 11.4 0 5.7 5.7 0 1 0-11.4 0m16 0a5.7 5.7 0 1 0 11.4 0 5.7 5.7 0 1 0-11.4 0m16 0a5.7 5.7 0 1 0 11.4 0 5.7 5.7 0 1 0-11.4 0m16 0a5.7 5.7 0 1 0 11.4 0 5.7 5.7 0 1 0-11.4 0m16 0a5.7 5.7 0 1 0 11.4 0 5.7 5.7 0 1 0-11.4 0m16 0a5.7 5.7 0 1 0 11.4 0 5.7 5.7 0 1 0-11.4 0m16 0a5.7 5.7 0 1 0 11.4 0 5.7 5.7 0 1 0-11.4 0m16 0a5.7 5.7 0 1 0 11.4 0 5.7 5.7 0 1 0-11.4 0m16 0a5.7 5.7 0 1 0 11.4 0 5.7 5.7 0 1 0-11.4 0m16 0a5.7 5.7 0 1 0 11.4 0 5.7 5.7 0 1 0-11.4 0m16 0a5.7 5.7 0 1 0 11.4 0 5.7 5.7 0 1 0-11.4 0m16 0a5.7 5.7 0 1 0 11.4 0 5.7 5.7 0 1 0-11.4 0m16 0a5.7 5.7 0 1 0 11.4 0 5.7 5.7 0 1 0-11.4 0m16 0a5.7 5.7 0 1 0 11.4 0 5.7 5.7 0 1 0-11.4 0m16 0a5.7 5.7 0 1 0 11.4 0 5.7 5.7 0 1 0-11.4 0m-448 16a5.7 5.7 0 1 0 11.4 0 5.7 5.7 0 1 0-11.4 0m16 0a5.7 5.7 0 1 0 11.4 0 5.7 5.7 0 1 0-11.4 0m16 0a5.7 5.7 0 1 0 11.4 0 5.7 5.7 0 1 0-11.4 0m16 0a5.7 5.7 0 1 0 11.4 0 5.7 5.7 0 1 0-11.4 0m16 0a5.7 5.7 0 1 0 11.4 0 5.7 5.7 0 1 0-11.4 0m16 0a5.7 5.7 0 1 0 11.4 0 5.7 5.7 0 1 0-11.4 0m16 0a5.7 5.7 0 1 0 11.4 0 5.7 5.7 0 1 0-11.4 0m16 0a5.7 5.7 0 1 0 11.4 0 5.7 5.7 0 1 0-11.4 0m16 0a5.7 5.7 0 1 0 11.4 0 5.7 5.7 0 1 0-11.4 0m16 0a5.7 5.7 0 1 0 11.4 0 5.7 5.7 0 1 0-11.4 0m16 0a5.7 5.7 0 1 0 11.4 0 5.7 5.7 0 1 0-11.4 0m16 0a5.7 5.7 0 1 0 11.4 0 5.7 5.7 0 1 0-11.4 0m16 0a5.7 5.7 0 1 0 11.4 0 5.7 5.7 0 1 0-11.4 0m16 0a5.7 5.7 0 1 0 11.4 0 5.7 5.7 0 1 0-11.4 0m16 0a5.7 5.7 0 1 0 11.4 0 5.7 5.7 0 1 0-11.4 0m16 0a5.7 5.7 0 1 0 11.4 0 5.7 5.7 0 1 0-11.4 0m16 0a5.7 5.7 0 1 0 11.4 0 5.7 5.7 0 1 0-11.4 0m16 0a5.7 5.7 0 1 0 11.4 0 5.7 5.7 0 1 0-11.4 0m16 0a5.7 5.7 0 1 0 11.4 0 5.7 5.7 0 1 0-11.4 0m16 0a5.7 5.7 0 1 0 11.4 0 5.7 5.7 0 1 0-11.4 0m16 0a5.7 5.7 0 1 0 11.4 0 5.7 5.7 0 1 0-11.4 0m16 0a5.7 5.7 0 1 0 11.4 0 5.7 5.7 0 1 0-11.4 0m16 0a5.7 5.7 0 1 0 11.4 0 5.7 5.7 0 1 0-11.4 0m16 0a5.7 5.7 0 1 0 11.4 0 5.7 5.7 0 1 0-11.4 0m16 0a5.7 5.7 0 1 0 11.4 0 5.7 5.7 0 1 0-11.4 0m16 0a5.7 5.7 0 1 0 11.4 0 5.7 5.7 0 1 0-11.4 0m16 0a5.7 5.7 0 1 0 11.4 0 5.7 5.7 0 1 0-11.4 0m16 0a5.7 5.7 0 1 0 11.4 0 5.7 5.7 0 1 0-11.4 0"/></svg>