<svg xmlns="http://www.w3.org/2000/svg" viewBox="0 0 512 512"><path d="M98.3 8a5.7 5.7 0 1 0 11.4 0 5.7 5.7 0 1 0-11.4 0m16 0a5.7 5.7 0 1 0 11.4 0 5.7 5.7 0 1 0-11.4 0m16 0a5.7 5.7 0 1 0 11.4 0 5.7 5.7 0 1 0-11.4 0m16 0a5.7 5.7 0 1 0 11.4 0 5.7 5.7 0 1 0-11.4 0m16 0a5.7 5.7 0 1 0 11.4 0 5.7 5.7 0 1 0-11.4 0m16 0a5.7 5.7 0 1 0 11.4 0 5.7 5.7 0 1 0-11.4 0m16 0a5.7 5.7 0 1 0 11.4 0 5.7 5.7 0 1 0-11.4 0m16 0a5.7 5.7 0 1 0 11.4 0 5.7 5.7 0 1 0-11.4 0m16 0a5.7 5.7 0 1 0 11.4 0 5.7 5.7 0 1 0-11.4 0m16 0a5.7 5.7 0 1 0 11.4 0 5.7 5.7 0 1 0-11.4 0m16 0a5.7 5.7 0 1 0 11.4 0 5.7 5.7 0 1 0-11.4 0m16 0a5.7 5.7 0 1 0 11.4 0 5.7 5.7 0 1 0-11.4 0m16 0a5.7 5.7 0 1 0 11.4 0 5.7 5.7 0 1 0-11.4 0m16 0a5.7 5.7 0 1 0 11.4 0 5.7 5.7 0 1 0-11.4 0m16 0a5.7 5.7 0 1 0 11.4 0 5.7 5.7 0 1 0-11.4 0m16 0a5.7 5.7 0 1 0 11.4 0 5.7 5.7 0 1 0-11.4 0m16 0a5.7 5.7 0 1 0 11.4 0 5.7 5.7 0 1 0-11.4 0m16 0a5.7 5.7 0 1 0 11.4 0 5.7 5.7 0 1 0-11.4 0m16 0a5.7 5.7 0 1 0 11.4 0 5.7 5.7 0 1 0-11.4 0m16 0a5.7 5.7 0 1 0 11.4 0 5.7 5.7 0 1 0-11.4 0m16 0a5.7 5.7 0 1 0 11.4 0 5.7 5.7 0 1 0-11.4 0m-336 16a5.7 5.7 0 1 0 11.4 0 5.7 5.7 0 1 0-11.4 0m16 0a5.7 5.7 0 1 0 11.4 0 5.7 5.7 0 1 0-11.4 0m16 0a5.7 5.7 0 1 0 11.4 0 5.7 5.7 0 1 0-11.4 0m16 0a5.7 5.7 0 1 0 11.4 0 5.7 5.7 0 1 0-11.4 0m16 0a5.7 5.7 0 1 0 11.4 0 5.7 5.7 0 1 0-11.4 0m16 0a5.7 5.7 0 1 0 11.4 0 5.7 5.7 0 1 0-11.4 0m16 0a5.7 5.7 0 1 0 11.4 0 5.7 5.7 0 1 0-11.4 0m16 0a5.7 5.7 0 1 0 11.4 0 5.7 5.7 0 1 0-11.4 0m16 0a5.7 5.7 0 1 0 11.4 0 5.7 5.7 0 1 0-11.4 0m16 0a5.7 5.7 0 1 0 11.4 0 5.7 5.7 0 1 0-11.4 0m16 0a5.7 5.7 0 1 0 11.4 0 5.7 5.7 0 1 0-11.4 0m16 0a5.7 5.7 0 1 0 11.4 0 5.7 5.7 0 1 0-11.4 0m16 0a5.7 5.7 0 1 0 11.4 0 5.7 5.7 0 1 0-11.4 0m16 0a5.7 5.7 0 1 0 11.4 0 5.7 5.7 0 1 0-11.4 0m16 0a5.7 5.7 0 1 0 11.4 0 5.7 5.7 0 1 0-11.4 0m16 0a5.7 5.7 0 1 0 11.4 0 5.7 5.7 0 1 0-11.4 0m16 0a5.7 5.7 0 1 0 11.4 0 5.7 5.7 0 1 0-11.4 0m16 0a5.7 5.7 0 1 0 11.4 0 5.7 5.7 0 1 0-11.4 0m16 0a5.7 5.7 0 1 0 11.4 0 5.7 5.7 0 1 0-11.4 0m16 0a5.7 5.7 0 1 0 11.4 0 5.7 5.7 0 1 0-11.4 0m16 0a5.7 5.7 0 1 0 11.4 0 5.7 5.7 0 1 0-11.4 0m16 0a5.7 5.7 0 1 0 11.4 0 5.7 5.7 0 1 0-11.4 0m16 0a5.7 5.7 0 1 0 11.4 0 5.7 5.7 0 1 0-11.4 0m-352 16a5.7 5.7 0 1 0 11.4 0 5.7 5.7 0 1 0-11.4 0m16 0a5.7 5.7 0 1 0 11.4 0 5.7 5.7 0 1 0-11.4 0m16 0a5.7 5.7 0 1 0 11.4 0 5.7 5.7 0 1 0-11.4 0m16 0a5.7 5.7 0 1 0 11.4 0 5.7 5.7 0 1 0-11.4 0m16 0a5.7 5.7 0 1 0 11.4 0 5.7 5.7 0 1 0-11.4 0m16 0a5.7 5.7 0 1 0 11.4 0 5.7 5.7 0 1 0-11.4 0m16 0a5.7 5.7 0 1 0 11.4 0 5.7 5.7 0 1 0-11.4 0m16 0a5.7 5.7 0 1 0 11.4 0 5.7 5.7 0 1 0-11.4 0m16 0a5.7 5.7 0 1 0 11.4 0 5.7 5.7 0 1 0-11.4 0m16 0a5.7 5.7 0 1 0 11.4 0 5.7 5.7 0 1 0-11.4 0m16 0a5.7 5.7 0 1 0 11.4 0 5.7 5.7 0 1 0-11.4 0m16 0a5.7 5.7 0 1 0 11.4 0 5.7 5.7 0 1 0-11.4 0m16 0a5.7 5.7 0 1 0 11.4 0 5.7 5.7 0 1 0-11.4 0m16 0a5.7 5.7 0 1 0 11.4 0 5.7 5.7 0 1 0-11.4 0m16 0a5.7 5.7 0 1 0 11.4 0 5.7 5.7 0 1 0-11.4 0m16 0a5.7 5.7 0 1 0 11.4 0 5.7 5.7 0 1 0-11.4 0m16 0a5.7 5.7 0 1 0 11.4 0 5.7 5.7 0 1 0-11.4 0m16 0a5.7 5.7 0 1 0 11.4 0 5.7 5.7 0 1 0-11.4 0m16 0a5.7 5.7 0 1 0 11.4 0 5.7 5.7 0 1 0-11.4 0m16 0a5.7 5.7 0 1 0 11.4 0 5.7 5.7 0 1 0-11.4 0m16 0a5.7 5.7 0 1 0 11.4 0 5.7 5.7 0 1 0-11.4 0m16 0a5.7 5.7 0 1 0 11.4 0 5.7 5.7 0 1 0-11.4 0m16 0a5.7 5.7 0 1 0 11.4 0 5.7 5.7 0 1 0-11.4 0m-352 16a5.7 5.7 0 1 0 11.4 0 5.7 5.7 0 1 0-11.4 0m16 0a5.7 5.7 0 1 0 11.4 0 5.7 5.7 0 1 0-11.4 0m16 0a5.7 5.7 0 1 0 11.4 0 5.7 5.7 0 1 0-11.4 0m16 0a5.7 5.7 0 1 0 11.4 0 5.7 5.7 0 1 0-11.4 0m16 0a5.7 5.7 0 1 0 11.4 0 5.7 5.7 0 1 0-11.4 0m16 0a5.7 5.7 0 1 0 11.4 0 5.7 5.7 0 1 0-11.4 0m16 0a5.7 5.7 0 1 0 11.4 0 5.7 5.7 0 1 0-11.4 0m16 0a5.7 5.7 0 1 0 11.4 0 5.7 5.7 0 1 0-11.4 0m16 0a5.7 5.7 0 1 0 11.4 0 5.7 5.7 0 1 0-11.4 0m16 0a5.7 5.7 0 1 0 11.4 0 5.7 5.7 0 1 0-11.4 0m16 0a5.7 5.7 0 1 0 11.4 0 5.7 5.7 0 1 0-11.4 0m16 0a5.7 5.7 0 1 0 11.4 0 5.7 5.7 0 1 0-11.4 0m16 0a5.7 5.7 0 1 0 11.4 0 5.7 5.7 0 1 0-11.4 0m16 0a5.7 5.7 0 1 0 11.4 0 5.7 5.7 0 1 0-11.4 0m16 0a5.7 5.7 0 1 0 11.4 0 5.7 5.7 0 1 0-11.4 0m16 0a5.7 5.7 0 1 0 11.4 0 5.7 5.7 0 1 0-11.4 0m16 0a5.7 5.7 0 1 0 11.4 0 5.7 5.7 0 1 0-11.4 0m16 0a5.7 5.7 0 1 0 11.4 0 5.7 5.7 0 1 0-11.4 0m16 0a5.7 5.7 0 1 0 11.4 0 5.7 5.7 0 1 0-11.4 0m16 0a5.7 5.7 0 1 0 11.4 0 5.7 5.7 0 1 0-11.4 0m16 0a5.7 5.7 0 1 0 11.4 0 5.7 5.7 0 1 0-11.4 0m16 0a5.7 5.7 0 1 0 11.4 0 5.7 5.7 0 1 0-11.4 0m16 0a5.7 5.7 0 1 0 11.4 0 5.7 5.7 0 1 0-11.4 0m-352 16a5.7 5.7 0 1 0 11.4 0 5.7 5.7 0 1 0-11.4 0m16 0a5.7 5.7 0 1 0 11.4 0 5.7 5.7 0 1 0-11.4 0m16 0a5.7 5.7 0 1 0 11.4 0 5.7 5.7 0 1 0-11.4 0m272 0a5.7 5.7 0 1 0 11.4 0 5.7 5.7 0 1 0-11.4 0m16 0a5.7 5.7 0 1 0 11.4 0 5.7 5.7 0 1 0-11.4 0m16 0a5.7 5.7 0 1 0 11.4 0 5.7 5.7 0 1 0-11.4 0m16 0a5.7 5.7 0 1 0 11.4 0 5.7 5.7 0 1 0-11.4 0m-352 16a5.7 5.7 0 1 0 11.4 0 5.7 5.7 0 1 0-11.4 0m16 0a5.7 5.7 0 1 0 11.4 0 5.7 5.7 0 1 0-11.4 0m16 0a5.7 5.7 0 1 0 11.4 0 5.7 5.7 0 1 0-11.4 0m256 0a5.7 5.7 0 1 0 11.4 0 5.7 5.7 0 1 0-11.4 0m16 0a5.7 5.7 0 1 0 11.4 0 5.7 5.7 0 1 0-11.4 0m16 0a5.7 5.7 0 1 0 11.4 0 5.7 5.7 0 1 0-11.4 0m16 0a5.7 5.7 0 1 0 11.4 0 5.7 5.7 0 1 0-11.4 0m16 0a5.7 5.7 0 1 0 11.4 0 5.7 5.7 0 1 0-11.4 0m-352 16a5.7 5.7 0 1 0 11.4 0 5.7 5.7 0 1 0-11.4 0m16 0a5.7 5.7 0 1 0 11.4 0 5.7 5.7 0 1 0-11.4 0m16 0a5.7 5.7 0 1 0 11.4 0 5.7 5.7 0 1 0-11.4 0m256 0a5.7 5.7 0 1 0 11.4 0 5.7 5.7 0 1 0-11.4 0m16 0a5.7 5.7 0 1 0 11.4 0 5.7 5.7 0 1 0-11.4 0m16 0a5.7 5.7 0 1 0 11.4 0 5.7 5.7 0 1 0-11.4 0m16 0a5.7 5.7 0 1 0 11.4 0 5.7 5.7 0 1 0-11.4 0m16 0a5.7 5.7 0 1 0 11.4 0 5.7 5.7 0 1 0-11.4 0m-352 16a5.7 5.7 0 1 0 11.4 0 5.7 5.7 0 1 0-11.4 0m16 0a5.7 5.7 0 1 0 11.4 0 5.7 5.7 0 1 0-11.4 0m16 0a5.7 5.7 0 1 0 11.4 0 5.7 5.7 0 1 0-11.4 0m256 0a5.7 5.7 0 1 0 11.4 0 5.7 5.7 0 1 0-11.4 0m16 0a5.7 5.7 0 1 0 11.4 0 5.7 5.7 0 1 0-11.4 0m16 0a5.7 5.7 0 1 0 11.4 0 5.7 5.7 0 1 0-11.4 0m16 0a5.7 5.7 0 1 0 11.4 0 5.7 5.7 0 1 0-11.4 0m-336 16a5.7 5.7 0 1 0 11.4 0 5.7 5.7 0 1 0-11.4 0m16 0a5.7 5.7 0 1 0 11.4 0 5.7 5.7 0 1 0-11.4 0m16 0a5.7 5.7 0 1 0 11.4 0 5.7 5.7 0 1 0-11.4 0m240 0a5.7 5.7 0 1 0 11.4 0 5.7 5.7 0 1 0-11.4 0m16 0a5.7 5.7 0 1 0 11.4 0 5.7 5.7 0 1 0-11.4 0m16 0a5.7 5.7 0 1 0 11.4 0 5.7 5.7 0 1 0-11.4 0m16 0a5.7 5.7 0 1 0 11.4 0 5.7 5.7 0 1 0-11.4 0m16 0a5.7 5.7 0 1 0 11.4 0 5.7 5.7 0 1 0-11.4 0m-336 16a5.7 5.7 0 1 0 11.4 0 5.7 5.7 0 1 0-11.4 0m16 0a5.7 5.7 0 1 0 11.4 0 5.7 5.7 0 1 0-11.4 0m16 0a5.7 5.7 0 1 0 11.4 0 5.7 5.7 0 1 0-11.4 0m128 0a5.7 5.7 0 1 0 11.4 0 5.7 5.7 0 1 0-11.4 0m16 0a5.7 5.7 0 1 0 11.4 0 5.7 5.7 0 1 0-11.4 0m16 0a5.7 5.7 0 1 0 11.4 0 5.7 5.7 0 1 0-11.4 0m16 0a5.7 5.7 0 1 0 11.4 0 5.7 5.7 0 1 0-11.4 0m16 0a5.7 5.7 0 1 0 11.4 0 5.7 5.7 0 1 0-11.4 0m16 0a5.7 5.7 0 1 0 11.4 0 5.7 5.7 0 1 0-11.4 0m16 0a5.7 5.7 0 1 0 11.4 0 5.7 5.7 0 1 0-11.4 0m16 0a5.7 5.7 0 1 0 11.4 0 5.7 5.7 0 1 0-11.4 0m16 0a5.7 5.7 0 1 0 11.4 0 5.7 5.7 0 1 0-11.4 0m16 0a5.7 5.7 0 1 0 11.4 0 5.7 5.7 0 1 0-11.4 0m16 0a5.7 5.7 0 1 0 11.4 0 5.7 5.7 0 1 0-11.4 0m16 0a5.7 5.7 0 1 0 11.4 0 5.7 5.7 0 1 0-11.4 0m-336 16a5.7 5.7 0 1 0 11.4 0 5.7 5.7 0 1 0-11.4 0m16 0a5.7 5.7 0 1 0 11.4 0 5.7 5.7 0 1 0-11.4 0m16 0a5.7 5.7 0 1 0 11.4 0 5.7 5.7 0 1 0-11.4 0m112 0a5.7 5.7 0 1 0 11.4 0 5.7 5.7 0 1 0-11.4 0m16 0a5.7 5.7 0 1 0 11.4 0 5.7 5.7 0 1 0-11.4 0m16 0a5.7 5.7 0 1 0 11.4 0 5.7 5.7 0 1 0-11.4 0m16 0a5.7 5.7 0 1 0 11.4 0 5.7 5.7 0 1 0-11.4 0m16 0a5.7 5.7 0 1 0 11.4 0 5.7 5.7 0 1 0-11.4 0m16 0a5.7 5.7 0 1 0 11.4 0 5.7 5.7 0 1 0-11.4 0m16 0a5.7 5.7 0 1 0 11.4 0 5.7 5.7 0 1 0-11.4 0m16 0a5.7 5.7 0 1 0 11.4 0 5.7 5.7 0 1 0-11.4 0m16 0a5.7 5.7 0 1 0 11.4 0 5.7 5.7 0 1 0-11.4 0m16 0a5.7 5.7 0 1 0 11.4 0 5.7 5.7 0 1 0-11.4 0m16 0a5.7 5.7 0 1 0 11.4 0 5.7 5.7 0 1 0-11.4 0m16 0a5.7 5.7 0 1 0 11.4 0 5.7 5.7 0 1 0-11.4 0m16 0a5.7 5.7 0 1 0 11.4 0 5.7 5.7 0 1 0-11.4 0m-336 16a5.7 5.7 0 1 0 11.4 0 5.7 5.7 0 1 0-11.4 0m16 0a5.7 5.7 0 1 0 11.4 0 5.7 5.7 0 1 0-11.4 0m16 0a5.7 5.7 0 1 0 11.4 0 5.7 5.7 0 1 0-11.4 0m112 0a5.7 5.7 0 1 0 11.4 0 5.7 5.7 0 1 0-11.4 0m16 0a5.7 5.7 0 1 0 11.4 0 5.7 5.7 0 1 0-11.4 0m16 0a5.7 5.7 0 1 0 11.4 0 5.7 5.7 0 1 0-11.4 0m16 0a5.7 5.7 0 1 0 11.4 0 5.7 5.7 0 1 0-11.4 0m16 0a5.7 5.7 0 1 0 11.4 0 5.7 5.7 0 1 0-11.4 0m16 0a5.7 5.7 0 1 0 11.4 0 5.7 5.7 0 1 0-11.4 0m16 0a5.7 5.7 0 1 0 11.4 0 5.7 5.7 0 1 0-11.4 0m16 0a5.7 5.7 0 1 0 11.4 0 5.7 5.7 0 1 0-11.4 0m16 0a5.7 5.7 0 1 0 11.4 0 5.7 5.7 0 1 0-11.4 0m16 0a5.7 5.7 0 1 0 11.4 0 5.7 5.7 0 1 0-11.4 0m16 0a5.7 5.7 0 1 0 11.4 0 5.7 5.7 0 1 0-11.4 0m16 0a5.7 5.7 0 1 0 11.4 0 5.7 5.7 0 1 0-11.4 0m-320 16a5.7 5.7 0 1 0 11.4 0 5.7 5.7 0 1 0-11.4 0m16 0a5.7 5.7 0 1 0 11.4 0 5.7 5.7 0 1 0-11.4 0m16 0a5.7 5.7 0 1 0 11.4 0 5.7 5.7 0 1 0-11.4 0m128 0a5.7 5.7 0 1 0 11.4 0 5.7 5.7 0 1 0-11.4 0m16 0a5.7 5.7 0 1 0 11.4 0 5.7 5.7 0 1 0-11.4 0m16 0a5.7 5.7 0 1 0 11.4 0 5.7 5.7 0 1 0-11.4 0m16 0a5.7 5.7 0 1 0 11.4 0 5.7 5.7 0 1 0-11.4 0m16 0a5.7 5.7 0 1 0 11.4 0 5.7 5.7 0 1 0-11.4 0m16 0a5.7 5.7 0 1 0 11.4 0 5.7 5.7 0 1 0-11.4 0m16 0a5.7 5.7 0 1 0 11.4 0 5.7 5.7 0 1 0-11.4 0m16 0a5.7 5.7 0 1 0 11.4 0 5.7 5.7 0 1 0-11.4 0m16 0a5.7 5.7 0 1 0 11.4 0 5.7 5.7 0 1 0-11.4 0m16 0a5.7 5.7 0 1 0 11.4 0 5.7 5.7 0 1 0-11.4 0m16 0a5.7 5.7 0 1 0 11.4 0 5.7 5.7 0 1 0-11.4 0m-320 16a5.7 5.7 0 1 0 11.4 0 5.7 5.7 0 1 0-11.4 0m16 0a5.7 5.7 0 1 0 11.4 0 5.7 5.7 0 1 0-11.4 0m16 0a5.7 5.7 0 1 0 11.4 0 5.7 5.7 0 1 0-11.4 0m240 0a5.7 5.7 0 1 0 11.4 0 5.7 5.7 0 1 0-11.4 0m16 0a5.7 5.7 0 1 0 11.4 0 5.7 5.7 0 1 0-11.4 0m16 0a5.7 5.7 0 1 0 11.4 0 5.7 5.7 0 1 0-11.4 0m16 0a5.7 5.7 0 1 0 11.4 0 5.7 5.7 0 1 0-11.4 0m-320 16a5.7 5.7 0 1 0 11.4 0 5.7 5.7 0 1 0-11.4 0m16 0a5.7 5.7 0 1 0 11.4 0 5.7 5.7 0 1 0-11.4 0m16 0a5.7 5.7 0 1 0 11.4 0 5.7 5.7 0 1 0-11.4 0m240 0a5.7 5.7 0 1 0 11.4 0 5.7 5.7 0 1 0-11.4 0m16 0a5.7 5.7 0 1 0 11.4 0 5.7 5.7 0 1 0-11.4 0m16 0a5.7 5.7 0 1 0 11.4 0 5.7 5.7 0 1 0-11.4 0m16 0a5.7 5.7 0 1 0 11.4 0 5.7 5.7 0 1 0-11.4 0m-320 16a5.7 5.7 0 1 0 11.4 0 5.7 5.7 0 1 0-11.4 0m16 0a5.7 5.7 0 1 0 11.4 0 5.7 5.7 0 1 0-11.4 0m16 0a5.7 5.7 0 1 0 11.4 0 5.7 5.7 0 1 0-11.4 0m224 0a5.7 5.7 0 1 0 11.4 0 5.7 5.7 0 1 0-11.4 0m16 0a5.7 5.7 0 1 0 11.4 0 5.7 5.7 0 1 0-11.4 0m16 0a5.7 5.7 0 1 0 11.4 0 5.7 5.7 0 1 0-11.4 0m16 0a5.7 5.7 0 1 0 11.4 0 5.7 5.7 0 1 0-11.4 0m-304 16a5.7 5.7 0 1 0 11.4 0 5.7 5.7 0 1 0-11.4 0m16 0a5.7 5.7 0 1 0 11.4 0 5.7 5.7 0 1 0-11.4 0m16 0a5.7 5.7 0 1 0 11.4 0 5.7 5.7 0 1 0-11.4 0m224 0a5.7 5.7 0 1 0 11.4 0 5.7 5.7 0 1 0-11.4 0m16 0a5.7 5.7 0 1 0 11.4 0 5.7 5.7 0 1 0-11.4 0m16 0a5.7 5.7 0 1 0 11.4 0 5.7 5.7 0 1 0-11.4 0m16 0a5.7 5.7 0 1 0 11.4 0 5.7 5.7 0 1 0-11.4 0m-304 16a5.7 5.7 0 1 0 11.4 0 5.7 5.7 0 1 0-11.4 0m16 0a5.7 5.7 0 1 0 11.4 0 5.7 5.7 0 1 0-11.4 0m16 0a5.7 5.7 0 1 0 11.4 0 5.7 5.7 0 1 0-11.4 0m208 0a5.7 5.7 0 1 0 11.4 0 5.7 5.7 0 1 0-11.4 0m16 0a5.7 5.7 0 1 0 11.4 0 5.7 5.7 0 1 0-11.4 0m16 0a5.7 5.7 0 1 0 11.4 0 5.7 5.7 0 1 0-11.4 0m16 0a5.7 5.7 0 1 0 11.4 0 5.7 5.7 0 1 0-11.4 0m16 0a5.7 5.7 0 1 0 11.4 0 5.7 5.7 0 1 0-11.4 0m-304 16a5.7 5.7 0 1 0 11.4 0 5.7 5.7 0 1 0-11.4 0m16 0a5.7 5.7 0 1 0 11.4 0 5.7 5.7 0 1 0-11.4 0m16 0a5.7 5.7 0 1 0 11.4 0 5.7 5.7 0 1 0-11.4 0m128 0a5.7 5.7 0 1 0 11.4 0 5.7 5.7 0 1 0-11.4 0m16 0a5.7 5.7 0 1 0 11.4 0 5.7 5.7 0 1 0-11.4 0m16 0a5.7 5.7 0 1 0 11.4 0 5.7 5.7 0 1 0-11.4 0m16 0a5.7 5.7 0 1 0 11.4 0 5.7 5.7 0 1 0-11.4 0m16 0a5.7 5.7 0 1 0 11.4 0 5.7 5.7 0 1 0-11.4 0m16 0a5.7 5.7 0 1 0 11.4 0 5.7 5.7 0 1 0-11.4 0m16 0a5.7 5.7 0 1 0 11.4 0 5.7 5.7 0 1 0-11.4 0m16 0a5.7 5.7 0 1 0 11.4 0 5.7 5.7 0 1 0-11.4 0m16 0a5.7 5.7 0 1 0 11.4 0 5.7 5.7 0 1 0-11.4 0m-288 16a5.7 5.7 0 1 0 11.4 0 5.7 5.7 0 1 0-11.4 0m16 0a5.7 5.7 0 1 0 11.4 0 5.7 5.7 0 1 0-11.4 0m16 0a5.7 5.7 0 1 0 11.4 0 5.7 5.7 0 1 0-11.4 0m112 0a5.7 5.7 0 1 0 11.4 0 5.7 5.7 0 1 0-11.4 0m16 0a5.7 5.7 0 1 0 11.4 0 5.7 5.7 0 1 0-11.4 0m16 0a5.7 5.7 0 1 0 11.4 0 5.7 5.7 0 1 0-11.4 0m16 0a5.7 5.7 0 1 0 11.4 0 5.7 5.7 0 1 0-11.4 0m16 0a5.7 5.7 0 1 0 11.4 0 5.7 5.7 0 1 0-11.4 0m16 0a5.7 5.7 0 1 0 11.4 0 5.7 5.7 0 1 0-11.4 0m16 0a5.7 5.7 0 1 0 11.4 0 5.7 5.7 0 1 0-11.4 0m16 0a5.7 5.7 0 1 0 11.4 0 5.7 5.7 0 1 0-11.4 0m16 0a5.7 5.7 0 1 0 11.4 0 5.7 5.7 0 1 0-11.4 0m16 0a5.7 5.7 0 1 0 11.4 0 5.7 5.7 0 1 0-11.4 0m-288 16a5.7 5.7 0 1 0 11.4 0 5.7 5.7 0 1 0-11.4 0m16 0a5.7 5.7 0 1 0 11.4 0 5.7 5.7 0 1 0-11.4 0m16 0a5.7 5.7 0 1 0 11.4 0 5.7 5.7 0 1 0-11.4 0m96 0a5.7 5.7 0 1 0 11.4 0 5.7 5.7 0 1 0-11.4 0m16 0a5.7 5.7 0 1 0 11.4 0 5.7 5.7 0 1 0-11.4 0m16 0a5.7 5.7 0 1 0 11.4 0 5.7 5.7 0 1 0-11.4 0m16 0a5.7 5.7 0 1 0 11.4 0 5.7 5.7 0 1 0-11.4 0m16 0a5.7 5.7 0 1 0 11.4 0 5.7 5.7 0 1 0-11.4 0m16 0a5.7 5.7 0 1 0 11.4 0 5.7 5.7 0 1 0-11.4 0m16 0a5.7 5.7 0 1 0 11.4 0 5.7 5.7 0 1 0-11.4 0m16 0a5.7 5.7 0 1 0 11.4 0 5.7 5.7 0 1 0-11.4 0m16 0a5.7 5.7 0 1 0 11.4 0 5.7 5.7 0 1 0-11.4 0m16 0a5.7 5.7 0 1 0 11.4 0 5.7 5.7 0 1 0-11.4 0m16 0a5.7 5.7 0 1 0 11.4 0 5.7 5.7 0 1 0-11.4 0m-288 16a5.7 5.7 0 1 0 11.4 0 5.7 5.7 0 1 0-11.4 0m16 0a5.7 5.7 0 1 0 11.4 0 5.7 5.7 0 1 0-11.4 0m16 0a5.7 5.7 0 1 0 11.4 0 5.7 5.7 0 1 0-11.4 0m80 0a5.7 5.7 0 1 0 11.4 0 5.7 5.7 0 1 0-11.4 0m16 0a5.7 5.7 0 1 0 11.4 0 5.7 5.7 0 1 0-11.4 0m16 0a5.7 5.7 0 1 0 11.4 0 5.7 5.7 0 1 0-11.4 0m16 0a5.7 5.7 0 1 0 11.4 0 5.7 5.7 0 1 0-11.4 0m16 0a5.7 5.7 0 1 0 11.4 0 5.7 5.7 0 1 0-11.4 0m16 0a5.7 5.7 0 1 0 11.4 0 5.7 5.7 0 1 0-11.4 0m16 0a5.7 5.7 0 1 0 11.4 0 5.7 5.7 0 1 0-11.4 0m16 0a5.7 5.7 0 1 0 11.4 0 5.7 5.7 0 1 0-11.4 0m16 0a5.7 5.7 0 1 0 11.4 0 5.7 5.7 0 1 0-11.4 0m16 0a5.7 5.7 0 1 0 11.4 0 5.7 5.7 0 1 0-11.4 0m16 0a5.7 5.7 0 1 0 11.4 0 5.7 5.7 0 1 0-11.4 0m-272 16a5.7 5.7 0 1 0 11.4 0 5.7 5.7 0 1 0-11.4 0m16 0a5.7 5.7 0 1 0 11.4 0 5.7 5.7 0 1 0-11.4 0m16 0a5.7 5.7 0 1 0 11.4 0 5.7 5.7 0 1 0-11.4 0m64 0a5.7 5.7 0 1 0 11.4 0 5.7 5.7 0 1 0-11.4 0m16 0a5.7 5.7 0 1 0 11.4 0 5.7 5.7 0 1 0-11.4 0m16 0a5.7 5.7 0 1 0 11.4 0 5.7 5.7 0 1 0-11.4 0m16 0a5.7 5.7 0 1 0 11.4 0 5.7 5.7 0 1 0-11.4 0m16 0a5.7 5.7 0 1 0 11.4 0 5.7 5.7 0 1 0-11.4 0m-160 16a5.7 5.7 0 1 0 11.4 0 5.7 5.7 0 1 0-11.4 0m16 0a5.7 5.7 0 1 0 11.4 0 5.7 5.7 0 1 0-11.4 0m16 0a5.7 5.7 0 1 0 11.4 0 5.7 5.7 0 1 0-11.4 0m48 0a5.7 5.7 0 1 0 11.4 0 5.7 5.7 0 1 0-11.4 0m16 0a5.7 5.7 0 1 0 11.4 0 5.7 5.7 0 1 0-11.4 0m16 0a5.7 5.7 0 1 0 11.4 0 5.7 5.7 0 1 0-11.4 0m16 0a5.7 5.7 0 1 0 11.4 0 5.7 5.7 0 1 0-11.4 0m16 0a5.7 5.7 0 1 0 11.4 0 5.7 5.7 0 1 0-11.4 0m-144 16a5.7 5.7 0 1 0 11.4 0 5.7 5.7 0 1 0-11.4 0m16 0a5.7 5.7 0 1 0 11.4 0 5.7 5.7 0 1 0-11.4 0m16 0a5.7 5.7 0 1 0 11.4 0 5.7 5.7 0 1 0-11.4 0m32 0a5.7 5.7 0 1 0 11.4 0 5.7 5.7 0 1 0-11.4 0m16 0a5.7 5.7 0 1 0 11.4 0 5.7 5.7 0 1 0-11.4 0m16 0a5.7 5.7 0 1 0 11.4 0 5.7 5.7 0 1 0-11.4 0m16 0a5.7 5.7 0 1 0 11.4 0 5.7 5.7 0 1 0-11.4 0m16 0a5.7 5.7 0 1 0 11.4 0 5.7 5.7 0 1 0-11.4 0m-128 16a5.7 5.7 0 1 0 11.4 0 5.7 5.7 0 1 0-11.4 0m16 0a5.7 5.7 0 1 0 11.4 0 5.7 5.7 0 1 0-11.4 0m16 0a5.7 5.7 0 1 0 11.4 0 5.7 5.7 0 1 0-11.4 0m16 0a5.7 5.7 0 1 0 11.4 0 5.7 5.7 0 1 0-11.4 0m16 0a5.7 5.7 0 1 0 11.4 0 5.7 5.7 0 1 0-11.4 0m16 0a5.7 5.7 0 1 0 11.4 0 5.7 5.7 0 1 0-11.4 0m16 0a5.7 5.7 0 1 0 11.4 0 5.7 5.7 0 1 0-11.4 0m16 0a5.7 5.7 0 1 0 11.4 0 5.7 5.7 0 1 0-11.4 0m-112 16a5.7 5.7 0 1 0 11.4 0 5.7 5.7 0 1 0-11.4 0m16 0a5.7 5.7 0 1 0 11.4 0 5.7 5.7 0 1 0-11.4 0m16 0a5.7 5.7 0 1 0 11.4 0 5.7 5.7 0 1 0-11.4 0m16 0a5.7 5.7 0 1 0 11.4 0 5.7 5.7 0 1 0-11.4 0m16 0a5.7 5.7 0 1 0 11.4 0 5.7 5.7 0 1 0-11.4 0m16 0a5.7 5.7 0 1 0 11.4 0 5.7 5.7 0 1 0-11.4 0m16 0a5.7 5.7 0 1 0 11.4 0 5.7 5.7 0 1 0-11.4 0m-96 16a5.7 5.7 0 1 0 11.4 0 5.7 5.7 0 1 0-11.4 0m16 0a5.7 5.7 0 1 0 11.4 0 5.7 5.7 0 1 0-11.4 0m16 0a5.7 5.7 0 1 0 11.4 0 5.7 5.7 0 1 0-11.4 0m16 0a5.7 5.7 0 1 0 11.4 0 5.7 5.7 0 1 0-11.4 0m16 0a5.7 5.7 0 1 0 11.4 0 5.7 5.7 0 1 0-11.4 0m16 0a5.7 5.7 0 1 0 11.4 0 5.7 5.7 0 1 0-11.4 0m-80 16a5.7 5.7 0 1 0 11.4 0 5.7 5.7 0 1 0-11.4 0m16 0a5.7 5.7 0 1 0 11.4 0 5.7 5.7 0 1 0-11.4 0m16 0a5.7 5.7 0 1 0 11.4 0 5.7 5.7 0 1 0-11.4 0m16 0a5.7 5.7 0 1 0 11.4 0 5.7 5.7 0 1 0-11.4 0m16 0a5.7 5.7 0 1 0 11.4 0 5.7 5.7 0 1 0-11.4 0m-64 16a5.7 5.7 0 1 0 11.4 0 5.7 5.7 0 1 0-11.4 0m16 0a5.7 5.7 0 1 0 11.4 0 5.7 5.7 0 1 0-11.4 0m16 0a5.7 5.7 0 1 0 11.4 0 5.7 5.7 0 1 0-11.4 0m16 0a5.7 5.7 0 1 0 11.4 0 5.7 5.7 0 1 0-11.4 0m-48 16a5.7 5.7 0 1 0 11.4 0 5.7 5.7 0 1 0-11.4 0m16 0a5.7 5.7 0 1 0 11.4 0 5.7 5.7 0 1 0-11.4 0m16 0a5.7 5.7 0 1 0 11.4 0 5.7 5.7 0 1 0-11.4 0m-32 16a5.7 5.7 0 1 0 11.4 0 5.7 5.7 0 1 0-11.4 0m16 0a5.7 5.7 0 1 0 11.4 0 5.7 5.7 0 1 0-11.4 0"/></svg>