<svg xmlns="http://www.w3.org/2000/svg" viewBox="0 0 512 512"><path d="M130.3 8a5.7 5.7 0 1 0 11.4 0 5.7 5.7 0 1 0-11.4 0m16 0a5.7 5.7 0 1 0 11.4 0 5.7 5.7 0 1 0-11.4 0m16 0a5.7 5.7 0 1 0 11.4 0 5.7 5.7 0 1 0-11.4 0m192 0a5.7 5.7 0 1 0 11.4 0 5.7 5.7 0 1 0-11.4 0m16 0a5.7 5.7 0 1 0 11.4 0 5.7 5.7 0 1 0-11.4 0m16 0a5.7 5.7 0 1 0 11.4 0 5.7 5.7 0 1 0-11.4 0m16 0a5.7 5.7 0 1 0 11.4 0 5.7 5.7 0 1 0-11.4 0m-304 16a5.7 5.7 0 1 0 11.4 0 5.7 5.7 0 1 0-11.4 0m16 0a5.7 5.7 0 1 0 11.4 0 5.7 5.7 0 1 0-11.4 0m16 0a5.7 5.7 0 1 0 11.4 0 5.7 5.7 0 1 0-11.4 0m16 0a5.7 5.7 0 1 0 11.4 0 5.7 5.7 0 1 0-11.4 0m16 0a5.7 5.7 0 1 0 11.4 0 5.7 5.7 0 1 0-11.4 0m16 0a5.7 5.7 0 1 0 11.4 0 5.7 5.7 0 1 0-11.4 0m16 0a5.7 5.7 0 1 0 11.4 0 5.7 5.7 0 1 0-11.4 0m144 0a5.7 5.7 0 1 0 11.4 0 5.7 5.7 0 1 0-11.4 0m16 0a5.7 5.7 0 1 0 11.4 0 5.7 5.7 0 1 0-11.4 0m16 0a5.7 5.7 0 1 0 11.4 0 5.7 5.7 0 1 0-11.4 0m16 0a5.7 5.7 0 1 0 11.4 0 5.7 5.7 0 1 0-11.4 0m16 0a5.7 5.7 0 1 0 11.4 0 5.7 5.7 0 1 0-11.4 0m-320 16a5.7 5.7 0 1 0 11.4 0 5.7 5.7 0 1 0-11.4 0m16 0a5.7 5.7 0 1 0 11.4 0 5.7 5.7 0 1 0-11.4 0m16 0a5.7 5.7 0 1 0 11.4 0 5.7 5.7 0 1 0-11.4 0m16 0a5.7 5.7 0 1 0 11.4 0 5.7 5.7 0 1 0-11.4 0m16 0a5.7 5.7 0 1 0 11.4 0 5.7 5.7 0 1 0-11.4 0m16 0a5.7 5.7 0 1 0 11.4 0 5.7 5.7 0 1 0-11.4 0m16 0a5.7 5.7 0 1 0 11.4 0 5.7 5.7 0 1 0-11.4 0m16 0a5.7 5.7 0 1 0 11.4 0 5.7 5.7 0 1 0-11.4 0m144 0a5.7 5.7 0 1 0 11.4 0 5.7 5.7 0 1 0-11.4 0m16 0a5.7 5.7 0 1 0 11.4 0 5.7 5.7 0 1 0-11.4 0m16 0a5.7 5.7 0 1 0 11.4 0 5.7 5.7 0 1 0-11.4 0m16 0a5.7 5.7 0 1 0 11.4 0 5.7 5.7 0 1 0-11.4 0m16 0a5.7 5.7 0 1 0 11.4 0 5.7 5.7 0 1 0-11.4 0m-336 16a5.7 5.7 0 1 0 11.4 0 5.7 5.7 0 1 0-11.4 0m16 0a5.7 5.7 0 1 0 11.4 0 5.7 5.7 0 1 0-11.4 0m16 0a5.7 5.7 0 1 0 11.4 0 5.7 5.7 0 1 0-11.4 0m16 0a5.7 5.7 0 1 0 11.4 0 5.7 5.7 0 1 0-11.4 0m16 0a5.7 5.7 0 1 0 11.4 0 5.7 5.7 0 1 0-11.4 0m16 0a5.7 5.7 0 1 0 11.4 0 5.7 5.7 0 1 0-11.4 0m16 0a5.7 5.7 0 1 0 11.4 0 5.7 5.7 0 1 0-11.4 0m16 0a5.7 5.7 0 1 0 11.4 0 5.7 5.7 0 1 0-11.4 0m16 0a5.7 5.7 0 1 0 11.4 0 5.7 5.7 0 1 0-11.4 0m16 0a5.7 5.7 0 1 0 11.4 0 5.7 5.7 0 1 0-11.4 0m128 0a5.7 5.7 0 1 0 11.4 0 5.7 5.7 0 1 0-11.4 0m16 0a5.7 5.7 0 1 0 11.4 0 5.7 5.7 0 1 0-11.4 0m16 0a5.7 5.7 0 1 0 11.4 0 5.7 5.7 0 1 0-11.4 0m16 0a5.7 5.7 0 1 0 11.4 0 5.7 5.7 0 1 0-11.4 0m16 0a5.7 5.7 0 1 0 11.4 0 5.7 5.7 0 1 0-11.4 0m-352 16a5.7 5.7 0 1 0 11.4 0 5.7 5.7 0 1 0-11.4 0m16 0a5.7 5.7 0 1 0 11.4 0 5.7 5.7 0 1 0-11.4 0m16 0a5.7 5.7 0 1 0 11.4 0 5.7 5.7 0 1 0-11.4 0m16 0a5.7 5.7 0 1 0 11.4 0 5.7 5.7 0 1 0-11.4 0m16 0a5.7 5.7 0 1 0 11.4 0 5.7 5.7 0 1 0-11.4 0m16 0a5.7 5.7 0 1 0 11.4 0 5.7 5.7 0 1 0-11.4 0m16 0a5.7 5.7 0 1 0 11.4 0 5.7 5.7 0 1 0-11.4 0m16 0a5.7 5.7 0 1 0 11.4 0 5.7 5.7 0 1 0-11.4 0m16 0a5.7 5.7 0 1 0 11.4 0 5.7 5.7 0 1 0-11.4 0m16 0a5.7 5.7 0 1 0 11.4 0 5.7 5.7 0 1 0-11.4 0m16 0a5.7 5.7 0 1 0 11.4 0 5.7 5.7 0 1 0-11.4 0m112 0a5.7 5.7 0 1 0 11.4 0 5.7 5.7 0 1 0-11.4 0m16 0a5.7 5.7 0 1 0 11.4 0 5.7 5.7 0 1 0-11.4 0m16 0a5.7 5.7 0 1 0 11.4 0 5.7 5.7 0 1 0-11.4 0m16 0a5.7 5.7 0 1 0 11.4 0 5.7 5.7 0 1 0-11.4 0m16 0a5.7 5.7 0 1 0 11.4 0 5.7 5.7 0 1 0-11.4 0m-352 16a5.7 5.7 0 1 0 11.4 0 5.7 5.7 0 1 0-11.4 0m16 0a5.7 5.7 0 1 0 11.4 0 5.7 5.7 0 1 0-11.4 0m16 0a5.7 5.7 0 1 0 11.4 0 5.7 5.7 0 1 0-11.4 0m16 0a5.7 5.7 0 1 0 11.4 0 5.7 5.7 0 1 0-11.4 0m16 0a5.7 5.7 0 1 0 11.4 0 5.7 5.7 0 1 0-11.4 0m16 0a5.7 5.7 0 1 0 11.4 0 5.7 5.7 0 1 0-11.4 0m16 0a5.7 5.7 0 1 0 11.4 0 5.7 5.7 0 1 0-11.4 0m16 0a5.7 5.7 0 1 0 11.4 0 5.7 5.7 0 1 0-11.4 0m16 0a5.7 5.7 0 1 0 11.4 0 5.7 5.7 0 1 0-11.4 0m16 0a5.7 5.7 0 1 0 11.4 0 5.7 5.7 0 1 0-11.4 0m16 0a5.7 5.7 0 1 0 11.4 0 5.7 5.7 0 1 0-11.4 0m16 0a5.7 5.7 0 1 0 11.4 0 5.7 5.7 0 1 0-11.4 0m112 0a5.7 5.7 0 1 0 11.4 0 5.7 5.7 0 1 0-11.4 0m16 0a5.7 5.7 0 1 0 11.4 0 5.7 5.7 0 1 0-11.4 0m16 0a5.7 5.7 0 1 0 11.4 0 5.7 5.7 0 1 0-11.4 0m16 0a5.7 5.7 0 1 0 11.4 0 5.7 5.7 0 1 0-11.4 0m16 0a5.7 5.7 0 1 0 11.4 0 5.7 5.7 0 1 0-11.4 0m-352 16a5.7 5.7 0 1 0 11.4 0 5.7 5.7 0 1 0-11.4 0m16 0a5.7 5.7 0 1 0 11.4 0 5.7 5.7 0 1 0-11.4 0m16 0a5.7 5.7 0 1 0 11.4 0 5.7 5.7 0 1 0-11.4 0m16 0a5.7 5.7 0 1 0 11.4 0 5.7 5.7 0 1 0-11.4 0m64 0a5.7 5.7 0 1 0 11.4 0 5.7 5.7 0 1 0-11.4 0m16 0a5.7 5.7 0 1 0 11.4 0 5.7 5.7 0 1 0-11.4 0m16 0a5.7 5.7 0 1 0 11.4 0 5.7 5.7 0 1 0-11.4 0m16 0a5.7 5.7 0 1 0 11.4 0 5.7 5.7 0 1 0-11.4 0m16 0a5.7 5.7 0 1 0 11.4 0 5.7 5.7 0 1 0-11.4 0m112 0a5.7 5.7 0 1 0 11.4 0 5.7 5.7 0 1 0-11.4 0m16 0a5.7 5.7 0 1 0 11.4 0 5.7 5.7 0 1 0-11.4 0m16 0a5.7 5.7 0 1 0 11.4 0 5.7 5.7 0 1 0-11.4 0m16 0a5.7 5.7 0 1 0 11.4 0 5.7 5.7 0 1 0-11.4 0m16 0a5.7 5.7 0 1 0 11.4 0 5.7 5.7 0 1 0-11.4 0m-368 16a5.7 5.7 0 1 0 11.4 0 5.7 5.7 0 1 0-11.4 0m16 0a5.7 5.7 0 1 0 11.4 0 5.7 5.7 0 1 0-11.4 0m16 0a5.7 5.7 0 1 0 11.4 0 5.7 5.7 0 1 0-11.4 0m16 0a5.7 5.7 0 1 0 11.4 0 5.7 5.7 0 1 0-11.4 0m80 0a5.7 5.7 0 1 0 11.4 0 5.7 5.7 0 1 0-11.4 0m16 0a5.7 5.7 0 1 0 11.4 0 5.7 5.7 0 1 0-11.4 0m16 0a5.7 5.7 0 1 0 11.4 0 5.7 5.7 0 1 0-11.4 0m16 0a5.7 5.7 0 1 0 11.4 0 5.7 5.7 0 1 0-11.4 0m16 0a5.7 5.7 0 1 0 11.4 0 5.7 5.7 0 1 0-11.4 0m112 0a5.7 5.7 0 1 0 11.4 0 5.7 5.7 0 1 0-11.4 0m16 0a5.7 5.7 0 1 0 11.4 0 5.7 5.7 0 1 0-11.4 0m16 0a5.7 5.7 0 1 0 11.4 0 5.7 5.7 0 1 0-11.4 0m16 0a5.7 5.7 0 1 0 11.4 0 5.7 5.7 0 1 0-11.4 0m16 0a5.7 5.7 0 1 0 11.4 0 5.7 5.7 0 1 0-11.4 0m-368 16a5.7 5.7 0 1 0 11.4 0 5.7 5.7 0 1 0-11.4 0m16 0a5.7 5.7 0 1 0 11.4 0 5.7 5.7 0 1 0-11.4 0m16 0a5.7 5.7 0 1 0 11.4 0 5.7 5.7 0 1 0-11.4 0m96 0a5.7 5.7 0 1 0 11.4 0 5.7 5.7 0 1 0-11.4 0m16 0a5.7 5.7 0 1 0 11.4 0 5.7 5.7 0 1 0-11.4 0m16 0a5.7 5.7 0 1 0 11.4 0 5.7 5.7 0 1 0-11.4 0m16 0a5.7 5.7 0 1 0 11.4 0 5.7 5.7 0 1 0-11.4 0m16 0a5.7 5.7 0 1 0 11.4 0 5.7 5.7 0 1 0-11.4 0m16 0a5.7 5.7 0 1 0 11.4 0 5.7 5.7 0 1 0-11.4 0m80 0a5.7 5.7 0 1 0 11.4 0 5.7 5.7 0 1 0-11.4 0m16 0a5.7 5.7 0 1 0 11.4 0 5.7 5.7 0 1 0-11.4 0m16 0a5.7 5.7 0 1 0 11.4 0 5.7 5.7 0 1 0-11.4 0m16 0a5.7 5.7 0 1 0 11.4 0 5.7 5.7 0 1 0-11.4 0m16 0a5.7 5.7 0 1 0 11.4 0 5.7 5.7 0 1 0-11.4 0m-368 16a5.7 5.7 0 1 0 11.4 0 5.7 5.7 0 1 0-11.4 0m16 0a5.7 5.7 0 1 0 11.4 0 5.7 5.7 0 1 0-11.4 0m16 0a5.7 5.7 0 1 0 11.4 0 5.7 5.7 0 1 0-11.4 0m128 0a5.7 5.7 0 1 0 11.4 0 5.7 5.7 0 1 0-11.4 0m16 0a5.7 5.7 0 1 0 11.4 0 5.7 5.7 0 1 0-11.4 0m16 0a5.7 5.7 0 1 0 11.4 0 5.7 5.7 0 1 0-11.4 0m16 0a5.7 5.7 0 1 0 11.4 0 5.7 5.7 0 1 0-11.4 0m16 0a5.7 5.7 0 1 0 11.4 0 5.7 5.7 0 1 0-11.4 0m80 0a5.7 5.7 0 1 0 11.4 0 5.7 5.7 0 1 0-11.4 0m16 0a5.7 5.7 0 1 0 11.4 0 5.7 5.7 0 1 0-11.4 0m16 0a5.7 5.7 0 1 0 11.4 0 5.7 5.7 0 1 0-11.4 0m16 0a5.7 5.7 0 1 0 11.4 0 5.7 5.7 0 1 0-11.4 0m16 0a5.7 5.7 0 1 0 11.4 0 5.7 5.7 0 1 0-11.4 0m-368 16a5.7 5.7 0 1 0 11.4 0 5.7 5.7 0 1 0-11.4 0m16 0a5.7 5.7 0 1 0 11.4 0 5.7 5.7 0 1 0-11.4 0m16 0a5.7 5.7 0 1 0 11.4 0 5.7 5.7 0 1 0-11.4 0m128 0a5.7 5.7 0 1 0 11.4 0 5.7 5.7 0 1 0-11.4 0m16 0a5.7 5.7 0 1 0 11.4 0 5.7 5.7 0 1 0-11.4 0m16 0a5.7 5.7 0 1 0 11.4 0 5.7 5.7 0 1 0-11.4 0m16 0a5.7 5.7 0 1 0 11.4 0 5.7 5.7 0 1 0-11.4 0m96 0a5.7 5.7 0 1 0 11.4 0 5.7 5.7 0 1 0-11.4 0m16 0a5.7 5.7 0 1 0 11.4 0 5.7 5.7 0 1 0-11.4 0m16 0a5.7 5.7 0 1 0 11.4 0 5.7 5.7 0 1 0-11.4 0m16 0a5.7 5.7 0 1 0 11.4 0 5.7 5.7 0 1 0-11.4 0m16 0a5.7 5.7 0 1 0 11.4 0 5.7 5.7 0 1 0-11.4 0m-368 16a5.7 5.7 0 1 0 11.4 0 5.7 5.7 0 1 0-11.4 0m16 0a5.7 5.7 0 1 0 11.4 0 5.7 5.7 0 1 0-11.4 0m128 0a5.7 5.7 0 1 0 11.4 0 5.7 5.7 0 1 0-11.4 0m16 0a5.7 5.7 0 1 0 11.4 0 5.7 5.7 0 1 0-11.4 0m16 0a5.7 5.7 0 1 0 11.4 0 5.7 5.7 0 1 0-11.4 0m16 0a5.7 5.7 0 1 0 11.4 0 5.7 5.7 0 1 0-11.4 0m16 0a5.7 5.7 0 1 0 11.4 0 5.7 5.7 0 1 0-11.4 0m96 0a5.7 5.7 0 1 0 11.4 0 5.7 5.7 0 1 0-11.4 0m16 0a5.7 5.7 0 1 0 11.4 0 5.7 5.7 0 1 0-11.4 0m16 0a5.7 5.7 0 1 0 11.4 0 5.7 5.7 0 1 0-11.4 0m16 0a5.7 5.7 0 1 0 11.4 0 5.7 5.7 0 1 0-11.4 0m16 0a5.7 5.7 0 1 0 11.4 0 5.7 5.7 0 1 0-11.4 0m-368 16a5.7 5.7 0 1 0 11.4 0 5.7 5.7 0 1 0-11.4 0m16 0a5.7 5.7 0 1 0 11.4 0 5.7 5.7 0 1 0-11.4 0m128 0a5.7 5.7 0 1 0 11.4 0 5.7 5.7 0 1 0-11.4 0m16 0a5.7 5.7 0 1 0 11.4 0 5.7 5.7 0 1 0-11.4 0m16 0a5.7 5.7 0 1 0 11.4 0 5.7 5.7 0 1 0-11.4 0m16 0a5.7 5.7 0 1 0 11.4 0 5.7 5.7 0 1 0-11.4 0m16 0a5.7 5.7 0 1 0 11.4 0 5.7 5.7 0 1 0-11.4 0m16 0a5.7 5.7 0 1 0 11.4 0 5.7 5.7 0 1 0-11.4 0m64 0a5.7 5.7 0 1 0 11.4 0 5.7 5.7 0 1 0-11.4 0m16 0a5.7 5.7 0 1 0 11.4 0 5.7 5.7 0 1 0-11.4 0m16 0a5.7 5.7 0 1 0 11.4 0 5.7 5.7 0 1 0-11.4 0m16 0a5.7 5.7 0 1 0 11.4 0 5.7 5.7 0 1 0-11.4 0m16 0a5.7 5.7 0 1 0 11.4 0 5.7 5.7 0 1 0-11.4 0m16 0a5.7 5.7 0 1 0 11.4 0 5.7 5.7 0 1 0-11.4 0m-224 16a5.7 5.7 0 1 0 11.4 0 5.7 5.7 0 1 0-11.4 0m16 0a5.7 5.7 0 1 0 11.4 0 5.7 5.7 0 1 0-11.4 0m16 0a5.7 5.7 0 1 0 11.4 0 5.7 5.7 0 1 0-11.4 0m16 0a5.7 5.7 0 1 0 11.4 0 5.7 5.7 0 1 0-11.4 0m16 0a5.7 5.7 0 1 0 11.4 0 5.7 5.7 0 1 0-11.4 0m16 0a5.7 5.7 0 1 0 11.4 0 5.7 5.7 0 1 0-11.4 0m16 0a5.7 5.7 0 1 0 11.4 0 5.7 5.7 0 1 0-11.4 0m16 0a5.7 5.7 0 1 0 11.4 0 5.7 5.7 0 1 0-11.4 0m16 0a5.7 5.7 0 1 0 11.4 0 5.7 5.7 0 1 0-11.4 0m16 0a5.7 5.7 0 1 0 11.4 0 5.7 5.7 0 1 0-11.4 0m16 0a5.7 5.7 0 1 0 11.4 0 5.7 5.7 0 1 0-11.4 0m16 0a5.7 5.7 0 1 0 11.4 0 5.7 5.7 0 1 0-11.4 0m16 0a5.7 5.7 0 1 0 11.4 0 5.7 5.7 0 1 0-11.4 0m16 0a5.7 5.7 0 1 0 11.4 0 5.7 5.7 0 1 0-11.4 0m-208 16a5.7 5.7 0 1 0 11.4 0 5.7 5.7 0 1 0-11.4 0m16 0a5.7 5.7 0 1 0 11.4 0 5.7 5.7 0 1 0-11.4 0m16 0a5.7 5.7 0 1 0 11.4 0 5.7 5.7 0 1 0-11.4 0m16 0a5.7 5.7 0 1 0 11.4 0 5.7 5.7 0 1 0-11.4 0m16 0a5.7 5.7 0 1 0 11.4 0 5.7 5.7 0 1 0-11.4 0m16 0a5.7 5.7 0 1 0 11.4 0 5.7 5.7 0 1 0-11.4 0m16 0a5.7 5.7 0 1 0 11.4 0 5.7 5.7 0 1 0-11.4 0m16 0a5.7 5.7 0 1 0 11.4 0 5.7 5.7 0 1 0-11.4 0m16 0a5.7 5.7 0 1 0 11.4 0 5.7 5.7 0 1 0-11.4 0m16 0a5.7 5.7 0 1 0 11.4 0 5.7 5.7 0 1 0-11.4 0m16 0a5.7 5.7 0 1 0 11.4 0 5.7 5.7 0 1 0-11.4 0m16 0a5.7 5.7 0 1 0 11.4 0 5.7 5.7 0 1 0-11.4 0m16 0a5.7 5.7 0 1 0 11.4 0 5.7 5.7 0 1 0-11.4 0m16 0a5.7 5.7 0 1 0 11.4 0 5.7 5.7 0 1 0-11.4 0m-208 16a5.7 5.7 0 1 0 11.4 0 5.7 5.7 0 1 0-11.4 0m16 0a5.7 5.7 0 1 0 11.4 0 5.7 5.7 0 1 0-11.4 0m16 0a5.7 5.7 0 1 0 11.4 0 5.7 5.7 0 1 0-11.4 0m16 0a5.7 5.7 0 1 0 11.4 0 5.7 5.7 0 1 0-11.4 0m16 0a5.7 5.7 0 1 0 11.4 0 5.7 5.7 0 1 0-11.4 0m16 0a5.7 5.7 0 1 0 11.4 0 5.7 5.7 0 1 0-11.4 0m16 0a5.7 5.7 0 1 0 11.4 0 5.7 5.7 0 1 0-11.4 0m16 0a5.7 5.7 0 1 0 11.4 0 5.7 5.7 0 1 0-11.4 0m16 0a5.7 5.7 0 1 0 11.4 0 5.7 5.7 0 1 0-11.4 0m16 0a5.7 5.7 0 1 0 11.4 0 5.7 5.7 0 1 0-11.4 0m16 0a5.7 5.7 0 1 0 11.4 0 5.7 5.7 0 1 0-11.4 0m16 0a5.7 5.7 0 1 0 11.4 0 5.7 5.7 0 1 0-11.4 0m16 0a5.7 5.7 0 1 0 11.4 0 5.7 5.7 0 1 0-11.4 0m16 0a5.7 5.7 0 1 0 11.4 0 5.7 5.7 0 1 0-11.4 0m-208 16a5.7 5.7 0 1 0 11.4 0 5.7 5.7 0 1 0-11.4 0m16 0a5.7 5.7 0 1 0 11.4 0 5.7 5.7 0 1 0-11.4 0m16 0a5.7 5.7 0 1 0 11.4 0 5.7 5.7 0 1 0-11.4 0m16 0a5.7 5.7 0 1 0 11.4 0 5.7 5.7 0 1 0-11.4 0m16 0a5.7 5.7 0 1 0 11.4 0 5.7 5.7 0 1 0-11.4 0m16 0a5.7 5.7 0 1 0 11.4 0 5.7 5.7 0 1 0-11.4 0m16 0a5.7 5.7 0 1 0 11.4 0 5.7 5.7 0 1 0-11.4 0m16 0a5.7 5.7 0 1 0 11.4 0 5.7 5.7 0 1 0-11.4 0m16 0a5.7 5.7 0 1 0 11.4 0 5.7 5.7 0 1 0-11.4 0m16 0a5.7 5.7 0 1 0 11.4 0 5.7 5.7 0 1 0-11.4 0m16 0a5.7 5.7 0 1 0 11.4 0 5.7 5.7 0 1 0-11.4 0m16 0a5.7 5.7 0 1 0 11.4 0 5.7 5.7 0 1 0-11.4 0m16 0a5.7 5.7 0 1 0 11.4 0 5.7 5.7 0 1 0-11.4 0m16 0a5.7 5.7 0 1 0 11.4 0 5.7 5.7 0 1 0-11.4 0m-208 16a5.7 5.7 0 1 0 11.4 0 5.7 5.7 0 1 0-11.4 0m16 0a5.7 5.7 0 1 0 11.4 0 5.7 5.7 0 1 0-11.4 0m16 0a5.7 5.7 0 1 0 11.4 0 5.7 5.7 0 1 0-11.4 0m16 0a5.7 5.7 0 1 0 11.4 0 5.7 5.7 0 1 0-11.4 0m16 0a5.7 5.7 0 1 0 11.4 0 5.7 5.7 0 1 0-11.4 0m80 0a5.7 5.7 0 1 0 11.4 0 5.7 5.7 0 1 0-11.4 0m16 0a5.7 5.7 0 1 0 11.4 0 5.7 5.7 0 1 0-11.4 0m16 0a5.7 5.7 0 1 0 11.4 0 5.7 5.7 0 1 0-11.4 0m16 0a5.7 5.7 0 1 0 11.4 0 5.7 5.7 0 1 0-11.4 0m16 0a5.7 5.7 0 1 0 11.4 0 5.7 5.7 0 1 0-11.4 0m-208 16a5.7 5.7 0 1 0 11.4 0 5.7 5.7 0 1 0-11.4 0m16 0a5.7 5.7 0 1 0 11.4 0 5.7 5.7 0 1 0-11.4 0m16 0a5.7 5.7 0 1 0 11.4 0 5.7 5.7 0 1 0-11.4 0m16 0a5.7 5.7 0 1 0 11.4 0 5.7 5.7 0 1 0-11.4 0m16 0a5.7 5.7 0 1 0 11.4 0 5.7 5.7 0 1 0-11.4 0m80 0a5.7 5.7 0 1 0 11.4 0 5.7 5.7 0 1 0-11.4 0m16 0a5.7 5.7 0 1 0 11.4 0 5.7 5.7 0 1 0-11.4 0m16 0a5.7 5.7 0 1 0 11.4 0 5.7 5.7 0 1 0-11.4 0m16 0a5.7 5.7 0 1 0 11.4 0 5.7 5.7 0 1 0-11.4 0m16 0a5.7 5.7 0 1 0 11.4 0 5.7 5.7 0 1 0-11.4 0m-224 16a5.7 5.7 0 1 0 11.4 0 5.7 5.7 0 1 0-11.4 0m16 0a5.7 5.7 0 1 0 11.4 0 5.7 5.7 0 1 0-11.4 0m16 0a5.7 5.7 0 1 0 11.4 0 5.7 5.7 0 1 0-11.4 0m16 0a5.7 5.7 0 1 0 11.4 0 5.7 5.7 0 1 0-11.4 0m16 0a5.7 5.7 0 1 0 11.4 0 5.7 5.7 0 1 0-11.4 0m96 0a5.7 5.7 0 1 0 11.4 0 5.7 5.7 0 1 0-11.4 0m16 0a5.7 5.7 0 1 0 11.4 0 5.7 5.7 0 1 0-11.4 0m16 0a5.7 5.7 0 1 0 11.4 0 5.7 5.7 0 1 0-11.4 0m16 0a5.7 5.7 0 1 0 11.4 0 5.7 5.7 0 1 0-11.4 0m16 0a5.7 5.7 0 1 0 11.4 0 5.7 5.7 0 1 0-11.4 0m128 0a5.7 5.7 0 1 0 11.4 0 5.7 5.7 0 1 0-11.4 0m16 0a5.7 5.7 0 1 0 11.4 0 5.7 5.7 0 1 0-11.4 0m-368 16a5.7 5.7 0 1 0 11.4 0 5.7 5.7 0 1 0-11.4 0m16 0a5.7 5.7 0 1 0 11.4 0 5.7 5.7 0 1 0-11.4 0m16 0a5.7 5.7 0 1 0 11.4 0 5.7 5.7 0 1 0-11.4 0m16 0a5.7 5.7 0 1 0 11.4 0 5.7 5.7 0 1 0-11.4 0m16 0a5.7 5.7 0 1 0 11.4 0 5.7 5.7 0 1 0-11.4 0m96 0a5.7 5.7 0 1 0 11.4 0 5.7 5.7 0 1 0-11.4 0m16 0a5.7 5.7 0 1 0 11.4 0 5.7 5.7 0 1 0-11.4 0m16 0a5.7 5.7 0 1 0 11.4 0 5.7 5.7 0 1 0-11.4 0m16 0a5.7 5.7 0 1 0 11.4 0 5.7 5.7 0 1 0-11.4 0m144 0a5.7 5.7 0 1 0 11.4 0 5.7 5.7 0 1 0-11.4 0m16 0a5.7 5.7 0 1 0 11.4 0 5.7 5.7 0 1 0-11.4 0m-368 16a5.7 5.7 0 1 0 11.4 0 5.7 5.7 0 1 0-11.4 0m16 0a5.7 5.7 0 1 0 11.4 0 5.7 5.7 0 1 0-11.4 0m16 0a5.7 5.7 0 1 0 11.4 0 5.7 5.7 0 1 0-11.4 0m16 0a5.7 5.7 0 1 0 11.4 0 5.7 5.7 0 1 0-11.4 0m16 0a5.7 5.7 0 1 0 11.4 0 5.7 5.7 0 1 0-11.4 0m80 0a5.7 5.7 0 1 0 11.4 0 5.7 5.7 0 1 0-11.4 0m16 0a5.7 5.7 0 1 0 11.4 0 5.7 5.7 0 1 0-11.4 0m16 0a5.7 5.7 0 1 0 11.4 0 5.7 5.7 0 1 0-11.4 0m16 0a5.7 5.7 0 1 0 11.4 0 5.7 5.7 0 1 0-11.4 0m16 0a5.7 5.7 0 1 0 11.4 0 5.7 5.7 0 1 0-11.4 0m128 0a5.7 5.7 0 1 0 11.4 0 5.7 5.7 0 1 0-11.4 0m16 0a5.7 5.7 0 1 0 11.4 0 5.7 5.7 0 1 0-11.4 0m16 0a5.7 5.7 0 1 0 11.4 0 5.7 5.7 0 1 0-11.4 0m-368 16a5.7 5.7 0 1 0 11.4 0 5.7 5.7 0 1 0-11.4 0m16 0a5.7 5.7 0 1 0 11.4 0 5.7 5.7 0 1 0-11.4 0m16 0a5.7 5.7 0 1 0 11.4 0 5.7 5.7 0 1 0-11.4 0m16 0a5.7 5.7 0 1 0 11.4 0 5.7 5.7 0 1 0-11.4 0m16 0a5.7 5.7 0 1 0 11.4 0 5.7 5.7 0 1 0-11.4 0m80 0a5.7 5.7 0 1 0 11.4 0 5.7 5.7 0 1 0-11.4 0m16 0a5.7 5.7 0 1 0 11.4 0 5.7 5.7 0 1 0-11.4 0m16 0a5.7 5.7 0 1 0 11.4 0 5.7 5.7 0 1 0-11.4 0m16 0a5.7 5.7 0 1 0 11.4 0 5.7 5.7 0 1 0-11.4 0m16 0a5.7 5.7 0 1 0 11.4 0 5.7 5.7 0 1 0-11.4 0m128 0a5.7 5.7 0 1 0 11.4 0 5.7 5.7 0 1 0-11.4 0m16 0a5.7 5.7 0 1 0 11.4 0 5.7 5.7 0 1 0-11.4 0m16 0a5.7 5.7 0 1 0 11.4 0 5.7 5.7 0 1 0-11.4 0m-368 16a5.7 5.7 0 1 0 11.4 0 5.7 5.7 0 1 0-11.4 0m16 0a5.7 5.7 0 1 0 11.4 0 5.7 5.7 0 1 0-11.4 0m16 0a5.7 5.7 0 1 0 11.4 0 5.7 5.7 0 1 0-11.4 0m16 0a5.7 5.7 0 1 0 11.4 0 5.7 5.7 0 1 0-11.4 0m16 0a5.7 5.7 0 1 0 11.4 0 5.7 5.7 0 1 0-11.4 0m80 0a5.7 5.7 0 1 0 11.4 0 5.7 5.7 0 1 0-11.4 0m16 0a5.7 5.7 0 1 0 11.4 0 5.7 5.7 0 1 0-11.4 0m16 0a5.7 5.7 0 1 0 11.4 0 5.7 5.7 0 1 0-11.4 0m16 0a5.7 5.7 0 1 0 11.4 0 5.7 5.7 0 1 0-11.4 0m16 0a5.7 5.7 0 1 0 11.4 0 5.7 5.7 0 1 0-11.4 0m16 0a5.7 5.7 0 1 0 11.4 0 5.7 5.7 0 1 0-11.4 0m96 0a5.7 5.7 0 1 0 11.4 0 5.7 5.7 0 1 0-11.4 0m16 0a5.7 5.7 0 1 0 11.4 0 5.7 5.7 0 1 0-11.4 0m16 0a5.7 5.7 0 1 0 11.4 0 5.7 5.7 0 1 0-11.4 0m-368 16a5.7 5.7 0 1 0 11.4 0 5.7 5.7 0 1 0-11.4 0m16 0a5.7 5.7 0 1 0 11.4 0 5.7 5.7 0 1 0-11.4 0m16 0a5.7 5.7 0 1 0 11.4 0 5.7 5.7 0 1 0-11.4 0m16 0a5.7 5.7 0 1 0 11.4 0 5.7 5.7 0 1 0-11.4 0m16 0a5.7 5.7 0 1 0 11.4 0 5.7 5.7 0 1 0-11.4 0m112 0a5.7 5.7 0 1 0 11.4 0 5.7 5.7 0 1 0-11.4 0m16 0a5.7 5.7 0 1 0 11.4 0 5.7 5.7 0 1 0-11.4 0m16 0a5.7 5.7 0 1 0 11.4 0 5.7 5.7 0 1 0-11.4 0m16 0a5.7 5.7 0 1 0 11.4 0 5.7 5.7 0 1 0-11.4 0m16 0a5.7 5.7 0 1 0 11.4 0 5.7 5.7 0 1 0-11.4 0m80 0a5.7 5.7 0 1 0 11.4 0 5.7 5.7 0 1 0-11.4 0m16 0a5.7 5.7 0 1 0 11.4 0 5.7 5.7 0 1 0-11.4 0m16 0a5.7 5.7 0 1 0 11.4 0 5.7 5.7 0 1 0-11.4 0m16 0a5.7 5.7 0 1 0 11.4 0 5.7 5.7 0 1 0-11.4 0m-368 16a5.7 5.7 0 1 0 11.4 0 5.7 5.7 0 1 0-11.4 0m16 0a5.7 5.7 0 1 0 11.4 0 5.7 5.7 0 1 0-11.4 0m16 0a5.7 5.7 0 1 0 11.4 0 5.7 5.7 0 1 0-11.4 0m16 0a5.7 5.7 0 1 0 11.4 0 5.7 5.7 0 1 0-11.4 0m16 0a5.7 5.7 0 1 0 11.4 0 5.7 5.7 0 1 0-11.4 0m112 0a5.7 5.7 0 1 0 11.4 0 5.7 5.7 0 1 0-11.4 0m16 0a5.7 5.7 0 1 0 11.4 0 5.7 5.7 0 1 0-11.4 0m16 0a5.7 5.7 0 1 0 11.4 0 5.7 5.7 0 1 0-11.4 0m16 0a5.7 5.7 0 1 0 11.4 0 5.7 5.7 0 1 0-11.4 0m16 0a5.7 5.7 0 1 0 11.4 0 5.7 5.7 0 1 0-11.4 0m64 0a5.7 5.7 0 1 0 11.4 0 5.7 5.7 0 1 0-11.4 0m16 0a5.7 5.7 0 1 0 11.4 0 5.7 5.7 0 1 0-11.4 0m16 0a5.7 5.7 0 1 0 11.4 0 5.7 5.7 0 1 0-11.4 0m16 0a5.7 5.7 0 1 0 11.4 0 5.7 5.7 0 1 0-11.4 0m-352 16a5.7 5.7 0 1 0 11.4 0 5.7 5.7 0 1 0-11.4 0m16 0a5.7 5.7 0 1 0 11.4 0 5.7 5.7 0 1 0-11.4 0m16 0a5.7 5.7 0 1 0 11.4 0 5.7 5.7 0 1 0-11.4 0m16 0a5.7 5.7 0 1 0 11.4 0 5.7 5.7 0 1 0-11.4 0m16 0a5.7 5.7 0 1 0 11.4 0 5.7 5.7 0 1 0-11.4 0m112 0a5.7 5.7 0 1 0 11.4 0 5.7 5.7 0 1 0-11.4 0m16 0a5.7 5.7 0 1 0 11.4 0 5.7 5.7 0 1 0-11.4 0m16 0a5.7 5.7 0 1 0 11.4 0 5.7 5.7 0 1 0-11.4 0m16 0a5.7 5.7 0 1 0 11.4 0 5.7 5.7 0 1 0-11.4 0m16 0a5.7 5.7 0 1 0 11.4 0 5.7 5.7 0 1 0-11.4 0m16 0a5.7 5.7 0 1 0 11.4 0 5.7 5.7 0 1 0-11.4 0m16 0a5.7 5.7 0 1 0 11.4 0 5.7 5.7 0 1 0-11.4 0m16 0a5.7 5.7 0 1 0 11.4 0 5.7 5.7 0 1 0-11.4 0m16 0a5.7 5.7 0 1 0 11.4 0 5.7 5.7 0 1 0-11.4 0m16 0a5.7 5.7 0 1 0 11.4 0 5.7 5.7 0 1 0-11.4 0m16 0a5.7 5.7 0 1 0 11.4 0 5.7 5.7 0 1 0-11.4 0m16 0a5.7 5.7 0 1 0 11.4 0 5.7 5.7 0 1 0-11.4 0m-352 16a5.7 5.7 0 1 0 11.4 0 5.7 5.7 0 1 0-11.4 0m16 0a5.7 5.7 0 1 0 11.4 0 5.7 5.7 0 1 0-11.4 0m16 0a5.7 5.7 0 1 0 11.4 0 5.7 5.7 0 1 0-11.4 0m16 0a5.7 5.7 0 1 0 11.4 0 5.7 5.7 0 1 0-11.4 0m16 0a5.7 5.7 0 1 0 11.4 0 5.7 5.7 0 1 0-11.4 0m112 0a5.7 5.7 0 1 0 11.4 0 5.7 5.7 0 1 0-11.4 0m16 0a5.7 5.7 0 1 0 11.4 0 5.7 5.7 0 1 0-11.4 0m16 0a5.7 5.7 0 1 0 11.4 0 5.7 5.7 0 1 0-11.4 0m16 0a5.7 5.7 0 1 0 11.4 0 5.7 5.7 0 1 0-11.4 0m16 0a5.7 5.7 0 1 0 11.4 0 5.7 5.7 0 1 0-11.4 0m16 0a5.7 5.7 0 1 0 11.4 0 5.7 5.7 0 1 0-11.4 0m16 0a5.7 5.7 0 1 0 11.4 0 5.7 5.7 0 1 0-11.4 0m16 0a5.7 5.7 0 1 0 11.4 0 5.7 5.7 0 1 0-11.4 0m16 0a5.7 5.7 0 1 0 11.4 0 5.7 5.7 0 1 0-11.4 0m16 0a5.7 5.7 0 1 0 11.4 0 5.7 5.7 0 1 0-11.4 0m16 0a5.7 5.7 0 1 0 11.4 0 5.7 5.7 0 1 0-11.4 0m-352 16a5.7 5.7 0 1 0 11.4 0 5.7 5.7 0 1 0-11.4 0m16 0a5.7 5.7 0 1 0 11.4 0 5.7 5.7 0 1 0-11.4 0m16 0a5.7 5.7 0 1 0 11.4 0 5.7 5.7 0 1 0-11.4 0m16 0a5.7 5.7 0 1 0 11.4 0 5.7 5.7 0 1 0-11.4 0m16 0a5.7 5.7 0 1 0 11.4 0 5.7 5.7 0 1 0-11.4 0m128 0a5.7 5.7 0 1 0 11.4 0 5.7 5.7 0 1 0-11.4 0m16 0a5.7 5.7 0 1 0 11.4 0 5.7 5.7 0 1 0-11.4 0m16 0a5.7 5.7 0 1 0 11.4 0 5.7 5.7 0 1 0-11.4 0m16 0a5.7 5.7 0 1 0 11.4 0 5.7 5.7 0 1 0-11.4 0m16 0a5.7 5.7 0 1 0 11.4 0 5.7 5.7 0 1 0-11.4 0m16 0a5.7 5.7 0 1 0 11.4 0 5.7 5.7 0 1 0-11.4 0m16 0a5.7 5.7 0 1 0 11.4 0 5.7 5.7 0 1 0-11.4 0m16 0a5.7 5.7 0 1 0 11.4 0 5.7 5.7 0 1 0-11.4 0m16 0a5.7 5.7 0 1 0 11.4 0 5.7 5.7 0 1 0-11.4 0m16 0a5.7 5.7 0 1 0 11.4 0 5.7 5.7 0 1 0-11.4 0m-336 16a5.7 5.7 0 1 0 11.4 0 5.7 5.7 0 1 0-11.4 0m16 0a5.7 5.7 0 1 0 11.4 0 5.7 5.7 0 1 0-11.4 0m16 0a5.7 5.7 0 1 0 11.4 0 5.7 5.7 0 1 0-11.4 0m16 0a5.7 5.7 0 1 0 11.4 0 5.7 5.7 0 1 0-11.4 0m16 0a5.7 5.7 0 1 0 11.4 0 5.7 5.7 0 1 0-11.4 0m144 0a5.7 5.7 0 1 0 11.4 0 5.7 5.7 0 1 0-11.4 0m16 0a5.7 5.7 0 1 0 11.4 0 5.7 5.7 0 1 0-11.4 0m16 0a5.7 5.7 0 1 0 11.4 0 5.7 5.7 0 1 0-11.4 0m16 0a5.7 5.7 0 1 0 11.4 0 5.7 5.7 0 1 0-11.4 0m16 0a5.7 5.7 0 1 0 11.4 0 5.7 5.7 0 1 0-11.4 0m16 0a5.7 5.7 0 1 0 11.4 0 5.7 5.7 0 1 0-11.4 0m16 0a5.7 5.7 0 1 0 11.4 0 5.7 5.7 0 1 0-11.4 0m16 0a5.7 5.7 0 1 0 11.4 0 5.7 5.7 0 1 0-11.4 0m-320 16a5.7 5.7 0 1 0 11.4 0 5.7 5.7 0 1 0-11.4 0m16 0a5.7 5.7 0 1 0 11.4 0 5.7 5.7 0 1 0-11.4 0m16 0a5.7 5.7 0 1 0 11.4 0 5.7 5.7 0 1 0-11.4 0m16 0a5.7 5.7 0 1 0 11.4 0 5.7 5.7 0 1 0-11.4 0m16 0a5.7 5.7 0 1 0 11.4 0 5.7 5.7 0 1 0-11.4 0m144 0a5.7 5.7 0 1 0 11.4 0 5.7 5.7 0 1 0-11.4 0m16 0a5.7 5.7 0 1 0 11.4 0 5.7 5.7 0 1 0-11.4 0m16 0a5.7 5.7 0 1 0 11.4 0 5.7 5.7 0 1 0-11.4 0m16 0a5.7 5.7 0 1 0 11.4 0 5.7 5.7 0 1 0-11.4 0m16 0a5.7 5.7 0 1 0 11.4 0 5.7 5.7 0 1 0-11.4 0m16 0a5.7 5.7 0 1 0 11.4 0 5.7 5.7 0 1 0-11.4 0m16 0a5.7 5.7 0 1 0 11.4 0 5.7 5.7 0 1 0-11.4 0m-304 16a5.7 5.7 0 1 0 11.4 0 5.7 5.7 0 1 0-11.4 0m16 0a5.7 5.7 0 1 0 11.4 0 5.7 5.7 0 1 0-11.4 0m16 0a5.7 5.7 0 1 0 11.4 0 5.7 5.7 0 1 0-11.4 0m16 0a5.7 5.7 0 1 0 11.4 0 5.7 5.7 0 1 0-11.4 0m192 0a5.7 5.7 0 1 0 11.4 0 5.7 5.7 0 1 0-11.4 0m16 0a5.7 5.7 0 1 0 11.4 0 5.7 5.7 0 1 0-11.4 0m16 0a5.7 5.7 0 1 0 11.4 0 5.7 5.7 0 1 0-11.4 0"/></svg>