<svg xmlns="http://www.w3.org/2000/svg" viewBox="0 0 512 512"><path d="M322.3 72a5.7 5.7 0 1 0 11.4 0 5.7 5.7 0 1 0-11.4 0zm16 0a5.7 5.7 0 1 0 11.4 0 5.7 5.7 0 1 0-11.4 0zm16 0a5.7 5.7 0 1 0 11.4 0 5.7 5.7 0 1 0-11.4 0zm-64 16a5.7 5.7 0 1 0 11.4 0 5.7 5.7 0 1 0-11.4 0zm16 0a5.7 5.7 0 1 0 11.4 0 5.7 5.7 0 1 0-11.4 0zm16 0a5.7 5.7 0 1 0 11.4 0 5.7 5.7 0 1 0-11.4 0zm16 0a5.7 5.7 0 1 0 11.4 0 5.7 5.7 0 1 0-11.4 0zm16 0a5.7 5.7 0 1 0 11.4 0 5.7 5.7 0 1 0-11.4 0zm16 0a5.7 5.7 0 1 0 11.4 0 5.7 5.7 0 1 0-11.4 0zm16 0a5.7 5.7 0 1 0 11.4 0 5.7 5.7 0 1 0-11.4 0zm-112 16a5.7 5.7 0 1 0 11.4 0 5.7 5.7 0 1 0-11.4 0zm16 0a5.7 5.7 0 1 0 11.4 0 5.7 5.7 0 1 0-11.4 0zm16 0a5.7 5.7 0 1 0 11.4 0 5.7 5.7 0 1 0-11.4 0zm64 0a5.7 5.7 0 1 0 11.4 0 5.7 5.7 0 1 0-11.4 0zm16 0a5.7 5.7 0 1 0 11.4 0 5.7 5.7 0 1 0-11.4 0zm16 0a5.7 5.7 0 1 0 11.4 0 5.7 5.7 0 1 0-11.4 0zm-144 16a5.7 5.7 0 1 0 11.4 0 5.7 5.7 0 1 0-11.4 0zm16 0a5.7 5.7 0 1 0 11.4 0 5.7 5.7 0 1 0-11.4 0zm112 0a5.7 5.7 0 1 0 11.4 0 5.7 5.7 0 1 0-11.4 0zm16 0a5.7 5.7 0 1 0 11.4 0 5.7 5.7 0 1 0-11.4 0zm16 0a5.7 5.7 0 1 0 11.4 0 5.7 5.7 0 1 0-11.4 0zm-176 16a5.7 5.7 0 1 0 11.4 0 5.7 5.7 0 1 0-11.4 0zm16 0a5.7 5.7 0 1 0 11.4 0 5.7 5.7 0 1 0-11.4 0zm16 0a5.7 5.7 0 1 0 11.4 0 5.7 5.7 0 1 0-11.4 0zm128 0a5.7 5.7 0 1 0 11.4 0 5.7 5.7 0 1 0-11.4 0zm16 0a5.7 5.7 0 1 0 11.4 0 5.7 5.7 0 1 0-11.4 0zm-176 16a5.7 5.7 0 1 0 11.4 0 5.7 5.7 0 1 0-11.4 0zm16 0a5.7 5.7 0 1 0 11.4 0 5.7 5.7 0 1 0-11.4 0zm160 0a5.7 5.7 0 1 0 11.4 0 5.7 5.7 0 1 0-11.4 0zm16 0a5.7 5.7 0 1 0 11.4 0 5.7 5.7 0 1 0-11.4 0zm-192 16a5.7 5.7 0 1 0 11.4 0 5.7 5.7 0 1 0-11.4 0zm16 0a5.7 5.7 0 1 0 11.4 0 5.7 5.7 0 1 0-11.4 0zm160 0a5.7 5.7 0 1 0 11.4 0 5.7 5.7 0 1 0-11.4 0zm16 0a5.7 5.7 0 1 0 11.4 0 5.7 5.7 0 1 0-11.4 0zm-192 16a5.7 5.7 0 1 0 11.4 0 5.7 5.7 0 1 0-11.4 0zm16 0a5.7 5.7 0 1 0 11.4 0 5.7 5.7 0 1 0-11.4 0zm160 0a5.7 5.7 0 1 0 11.4 0 5.7 5.7 0 1 0-11.4 0zm16 0a5.7 5.7 0 1 0 11.4 0 5.7 5.7 0 1 0-11.4 0zm-192 16a5.7 5.7 0 1 0 11.4 0 5.7 5.7 0 1 0-11.4 0zm16 0a5.7 5.7 0 1 0 11.4 0 5.7 5.7 0 1 0-11.4 0zm-16 16a5.7 5.7 0 1 0 11.4 0 5.7 5.7 0 1 0-11.4 0zm16 0a5.7 5.7 0 1 0 11.4 0 5.7 5.7 0 1 0-11.4 0zm-160 16a5.7 5.7 0 1 0 11.4 0 5.7 5.7 0 1 0-11.4 0zm16 0a5.7 5.7 0 1 0 11.4 0 5.7 5.7 0 1 0-11.4 0zm16 0a5.7 5.7 0 1 0 11.4 0 5.7 5.7 0 1 0-11.4 0zm16 0a5.7 5.7 0 1 0 11.4 0 5.7 5.7 0 1 0-11.4 0zm16 0a5.7 5.7 0 1 0 11.4 0 5.7 5.7 0 1 0-11.4 0zm16 0a5.7 5.7 0 1 0 11.4 0 5.7 5.7 0 1 0-11.4 0zm16 0a5.7 5.7 0 1 0 11.4 0 5.7 5.7 0 1 0-11.4 0zm16 0a5.7 5.7 0 1 0 11.4 0 5.7 5.7 0 1 0-11.4 0zm16 0a5.7 5.7 0 1 0 11.4 0 5.7 5.7 0 1 0-11.4 0zm16 0a5.7 5.7 0 1 0 11.4 0 5.7 5.7 0 1 0-11.4 0zm16 0a5.7 5.7 0 1 0 11.4 0 5.7 5.7 0 1 0-11.4 0zm16 0a5.7 5.7 0 1 0 11.4 0 5.7 5.7 0 1 0-11.4 0zm16 0a5.7 5.7 0 1 0 11.4 0 5.7 5.7 0 1 0-11.4 0zm-208 16a5.7 5.7 0 1 0 11.4 0 5.7 5.7 0 1 0-11.4 0zm16 0a5.7 5.7 0 1 0 11.4 0 5.7 5.7 0 1 0-11.4 0zm16 0a5.7 5.7 0 1 0 11.4 0 5.7 5.7 0 1 0-11.4 0zm16 0a5.7 5.7 0 1 0 11.4 0 5.7 5.7 0 1 0-11.4 0zm16 0a5.7 5.7 0 1 0 11.4 0 5.7 5.7 0 1 0-11.4 0zm16 0a5.7 5.7 0 1 0 11.4 0 5.7 5.7 0 1 0-11.4 0zm16 0a5.7 5.7 0 1 0 11.4 0 5.7 5.7 0 1 0-11.4 0zm16 0a5.7 5.7 0 1 0 11.4 0 5.7 5.7 0 1 0-11.4 0zm16 0a5.7 5.7 0 1 0 11.4 0 5.7 5.7 0 1 0-11.4 0zm16 0a5.7 5.7 0 1 0 11.4 0 5.7 5.7 0 1 0-11.4 0zm16 0a5.7 5.7 0 1 0 11.4 0 5.7 5.7 0 1 0-11.4 0zm16 0a5.7 5.7 0 1 0 11.4 0 5.7 5.7 0 1 0-11.4 0zm16 0a5.7 5.7 0 1 0 11.4 0 5.7 5.7 0 1 0-11.4 0zm16 0a5.7 5.7 0 1 0 11.4 0 5.7 5.7 0 1 0-11.4 0zm16 0a5.7 5.7 0 1 0 11.4 0 5.7 5.7 0 1 0-11.4 0zm-240 16a5.7 5.7 0 1 0 11.4 0 5.7 5.7 0 1 0-11.4 0zm16 0a5.7 5.7 0 1 0 11.4 0 5.7 5.7 0 1 0-11.4 0zm16 0a5.7 5.7 0 1 0 11.4 0 5.7 5.7 0 1 0-11.4 0zm192 0a5.7 5.7 0 1 0 11.4 0 5.7 5.7 0 1 0-11.4 0zm16 0a5.7 5.7 0 1 0 11.4 0 5.7 5.7 0 1 0-11.4 0zm16 0a5.7 5.7 0 1 0 11.4 0 5.7 5.7 0 1 0-11.4 0zm-256 16a5.7 5.7 0 1 0 11.4 0 5.7 5.7 0 1 0-11.4 0zm16 0a5.7 5.7 0 1 0 11.4 0 5.7 5.7 0 1 0-11.4 0zm224 0a5.7 5.7 0 1 0 11.4 0 5.7 5.7 0 1 0-11.4 0zm16 0a5.7 5.7 0 1 0 11.4 0 5.7 5.7 0 1 0-11.4 0zm-256 16a5.7 5.7 0 1 0 11.4 0 5.7 5.7 0 1 0-11.4 0zm16 0a5.7 5.7 0 1 0 11.4 0 5.7 5.7 0 1 0-11.4 0zm224 0a5.7 5.7 0 1 0 11.4 0 5.7 5.7 0 1 0-11.4 0zm16 0a5.7 5.7 0 1 0 11.4 0 5.7 5.7 0 1 0-11.4 0zm-256 16a5.7 5.7 0 1 0 11.4 0 5.7 5.7 0 1 0-11.4 0zm16 0a5.7 5.7 0 1 0 11.4 0 5.7 5.7 0 1 0-11.4 0zm224 0a5.7 5.7 0 1 0 11.4 0 5.7 5.7 0 1 0-11.4 0zm16 0a5.7 5.7 0 1 0 11.4 0 5.7 5.7 0 1 0-11.4 0zm-256 16a5.7 5.7 0 1 0 11.4 0 5.7 5.7 0 1 0-11.4 0zm16 0a5.7 5.7 0 1 0 11.4 0 5.7 5.7 0 1 0-11.4 0zm224 0a5.7 5.7 0 1 0 11.4 0 5.7 5.7 0 1 0-11.4 0zm16 0a5.7 5.7 0 1 0 11.4 0 5.7 5.7 0 1 0-11.4 0zm-256 16a5.7 5.7 0 1 0 11.4 0 5.7 5.7 0 1 0-11.4 0zm16 0a5.7 5.7 0 1 0 11.4 0 5.7 5.7 0 1 0-11.4 0zm224 0a5.7 5.7 0 1 0 11.4 0 5.7 5.7 0 1 0-11.4 0zm16 0a5.7 5.7 0 1 0 11.4 0 5.7 5.7 0 1 0-11.4 0zm-256 16a5.7 5.7 0 1 0 11.4 0 5.7 5.7 0 1 0-11.4 0zm16 0a5.7 5.7 0 1 0 11.4 0 5.7 5.7 0 1 0-11.4 0zm224 0a5.7 5.7 0 1 0 11.4 0 5.7 5.7 0 1 0-11.4 0zm16 0a5.7 5.7 0 1 0 11.4 0 5.7 5.7 0 1 0-11.4 0zm-256 16a5.7 5.7 0 1 0 11.4 0 5.7 5.7 0 1 0-11.4 0zm16 0a5.7 5.7 0 1 0 11.4 0 5.7 5.7 0 1 0-11.4 0zm224 0a5.7 5.7 0 1 0 11.4 0 5.7 5.7 0 1 0-11.4 0zm16 0a5.7 5.7 0 1 0 11.4 0 5.7 5.7 0 1 0-11.4 0zm-256 16a5.7 5.7 0 1 0 11.4 0 5.7 5.7 0 1 0-11.4 0zm16 0a5.7 5.7 0 1 0 11.4 0 5.7 5.7 0 1 0-11.4 0zm224 0a5.7 5.7 0 1 0 11.4 0 5.7 5.7 0 1 0-11.4 0zm16 0a5.7 5.7 0 1 0 11.4 0 5.7 5.7 0 1 0-11.4 0zm-256 16a5.7 5.7 0 1 0 11.4 0 5.7 5.7 0 1 0-11.4 0zm16 0a5.7 5.7 0 1 0 11.4 0 5.7 5.7 0 1 0-11.4 0zm16 0a5.7 5.7 0 1 0 11.4 0 5.7 5.7 0 1 0-11.4 0zm192 0a5.7 5.7 0 1 0 11.4 0 5.7 5.7 0 1 0-11.4 0zm16 0a5.7 5.7 0 1 0 11.4 0 5.7 5.7 0 1 0-11.4 0zm16 0a5.7 5.7 0 1 0 11.4 0 5.7 5.7 0 1 0-11.4 0zm-240 16a5.7 5.7 0 1 0 11.4 0 5.7 5.7 0 1 0-11.4 0zm16 0a5.7 5.7 0 1 0 11.4 0 5.7 5.7 0 1 0-11.4 0zm16 0a5.7 5.7 0 1 0 11.4 0 5.7 5.7 0 1 0-11.4 0zm16 0a5.7 5.7 0 1 0 11.4 0 5.7 5.7 0 1 0-11.4 0zm16 0a5.7 5.7 0 1 0 11.4 0 5.7 5.7 0 1 0-11.4 0zm16 0a5.7 5.7 0 1 0 11.4 0 5.7 5.7 0 1 0-11.4 0zm16 0a5.7 5.7 0 1 0 11.4 0 5.7 5.7 0 1 0-11.4 0zm16 0a5.7 5.7 0 1 0 11.4 0 5.7 5.7 0 1 0-11.4 0zm16 0a5.7 5.7 0 1 0 11.4 0 5.7 5.7 0 1 0-11.4 0zm16 0a5.7 5.7 0 1 0 11.4 0 5.7 5.7 0 1 0-11.4 0zm16 0a5.7 5.7 0 1 0 11.4 0 5.7 5.7 0 1 0-11.4 0zm16 0a5.7 5.7 0 1 0 11.4 0 5.7 5.7 0 1 0-11.4 0zm16 0a5.7 5.7 0 1 0 11.4 0 5.7 5.7 0 1 0-11.4 0zm16 0a5.7 5.7 0 1 0 11.4 0 5.7 5.7 0 1 0-11.4 0zm16 0a5.7 5.7 0 1 0 11.4 0 5.7 5.7 0 1 0-11.4 0zm-208 16a5.7 5.7 0 1 0 11.4 0 5.7 5.7 0 1 0-11.4 0zm16 0a5.7 5.7 0 1 0 11.4 0 5.7 5.7 0 1 0-11.4 0zm16 0a5.7 5.7 0 1 0 11.4 0 5.7 5.7 0 1 0-11.4 0zm16 0a5.7 5.7 0 1 0 11.4 0 5.7 5.7 0 1 0-11.4 0zm16 0a5.7 5.7 0 1 0 11.4 0 5.7 5.7 0 1 0-11.4 0zm16 0a5.7 5.7 0 1 0 11.4 0 5.7 5.7 0 1 0-11.4 0zm16 0a5.7 5.7 0 1 0 11.4 0 5.7 5.7 0 1 0-11.4 0zm16 0a5.7 5.7 0 1 0 11.4 0 5.7 5.7 0 1 0-11.4 0zm16 0a5.7 5.7 0 1 0 11.4 0 5.7 5.7 0 1 0-11.4 0zm16 0a5.7 5.7 0 1 0 11.4 0 5.7 5.7 0 1 0-11.4 0zm16 0a5.7 5.7 0 1 0 11.4 0 5.7 5.7 0 1 0-11.4 0zm16 0a5.7 5.7 0 1 0 11.4 0 5.7 5.7 0 1 0-11.4 0zm16 0a5.7 5.7 0 1 0 11.4 0 5.7 5.7 0 1 0-11.4 0z"/></svg>