<svg xmlns="http://www.w3.org/2000/svg" viewBox="0 0 512 512"><path d="M290.3 56a5.7 5.7 0 1 0 11.4 0 5.7 5.7 0 1 0-11.4 0m16 0a5.7 5.7 0 1 0 11.4 0 5.7 5.7 0 1 0-11.4 0m-16 16a5.7 5.7 0 1 0 11.4 0 5.7 5.7 0 1 0-11.4 0m16 0a5.7 5.7 0 1 0 11.4 0 5.7 5.7 0 1 0-11.4 0m16 0a5.7 5.7 0 1 0 11.4 0 5.7 5.7 0 1 0-11.4 0m-16 16a5.7 5.7 0 1 0 11.4 0 5.7 5.7 0 1 0-11.4 0m16 0a5.7 5.7 0 1 0 11.4 0 5.7 5.7 0 1 0-11.4 0m16 0a5.7 5.7 0 1 0 11.4 0 5.7 5.7 0 1 0-11.4 0m-16 16a5.7 5.7 0 1 0 11.4 0 5.7 5.7 0 1 0-11.4 0m16 0a5.7 5.7 0 1 0 11.4 0 5.7 5.7 0 1 0-11.4 0m-112 16a5.7 5.7 0 1 0 11.4 0 5.7 5.7 0 1 0-11.4 0m16 0a5.7 5.7 0 1 0 11.4 0 5.7 5.7 0 1 0-11.4 0m16 0a5.7 5.7 0 1 0 11.4 0 5.7 5.7 0 1 0-11.4 0m64 0a5.7 5.7 0 1 0 11.4 0 5.7 5.7 0 1 0-11.4 0m16 0a5.7 5.7 0 1 0 11.4 0 5.7 5.7 0 1 0-11.4 0m16 0a5.7 5.7 0 1 0 11.4 0 5.7 5.7 0 1 0-11.4 0m-128 16a5.7 5.7 0 1 0 11.4 0 5.7 5.7 0 1 0-11.4 0m16 0a5.7 5.7 0 1 0 11.4 0 5.7 5.7 0 1 0-11.4 0m16 0a5.7 5.7 0 1 0 11.4 0 5.7 5.7 0 1 0-11.4 0m16 0a5.7 5.7 0 1 0 11.4 0 5.7 5.7 0 1 0-11.4 0m64 0a5.7 5.7 0 1 0 11.4 0 5.7 5.7 0 1 0-11.4 0m16 0a5.7 5.7 0 1 0 11.4 0 5.7 5.7 0 1 0-11.4 0m16 0a5.7 5.7 0 1 0 11.4 0 5.7 5.7 0 1 0-11.4 0m-128 16a5.7 5.7 0 1 0 11.4 0 5.7 5.7 0 1 0-11.4 0m16 0a5.7 5.7 0 1 0 11.4 0 5.7 5.7 0 1 0-11.4 0m16 0a5.7 5.7 0 1 0 11.4 0 5.7 5.7 0 1 0-11.4 0m16 0a5.7 5.7 0 1 0 11.4 0 5.7 5.7 0 1 0-11.4 0m64 0a5.7 5.7 0 1 0 11.4 0 5.7 5.7 0 1 0-11.4 0m16 0a5.7 5.7 0 1 0 11.4 0 5.7 5.7 0 1 0-11.4 0m16 0a5.7 5.7 0 1 0 11.4 0 5.7 5.7 0 1 0-11.4 0m-128 16a5.7 5.7 0 1 0 11.4 0 5.7 5.7 0 1 0-11.4 0m16 0a5.7 5.7 0 1 0 11.4 0 5.7 5.7 0 1 0-11.4 0m16 0a5.7 5.7 0 1 0 11.4 0 5.7 5.7 0 1 0-11.4 0m16 0a5.7 5.7 0 1 0 11.4 0 5.7 5.7 0 1 0-11.4 0m64 0a5.7 5.7 0 1 0 11.4 0 5.7 5.7 0 1 0-11.4 0m16 0a5.7 5.7 0 1 0 11.4 0 5.7 5.7 0 1 0-11.4 0m-96 16a5.7 5.7 0 1 0 11.4 0 5.7 5.7 0 1 0-11.4 0m16 0a5.7 5.7 0 1 0 11.4 0 5.7 5.7 0 1 0-11.4 0m16 0a5.7 5.7 0 1 0 11.4 0 5.7 5.7 0 1 0-11.4 0m48 0a5.7 5.7 0 1 0 11.4 0 5.7 5.7 0 1 0-11.4 0m16 0a5.7 5.7 0 1 0 11.4 0 5.7 5.7 0 1 0-11.4 0m16 0a5.7 5.7 0 1 0 11.4 0 5.7 5.7 0 1 0-11.4 0m-224 16a5.7 5.7 0 1 0 11.4 0 5.7 5.7 0 1 0-11.4 0m16 0a5.7 5.7 0 1 0 11.4 0 5.7 5.7 0 1 0-11.4 0m16 0a5.7 5.7 0 1 0 11.4 0 5.7 5.7 0 1 0-11.4 0m96 0a5.7 5.7 0 1 0 11.4 0 5.7 5.7 0 1 0-11.4 0m16 0a5.7 5.7 0 1 0 11.4 0 5.7 5.7 0 1 0-11.4 0m16 0a5.7 5.7 0 1 0 11.4 0 5.7 5.7 0 1 0-11.4 0m16 0a5.7 5.7 0 1 0 11.4 0 5.7 5.7 0 1 0-11.4 0m32 0a5.7 5.7 0 1 0 11.4 0 5.7 5.7 0 1 0-11.4 0m16 0a5.7 5.7 0 1 0 11.4 0 5.7 5.7 0 1 0-11.4 0m-224 16a5.7 5.7 0 1 0 11.4 0 5.7 5.7 0 1 0-11.4 0m16 0a5.7 5.7 0 1 0 11.4 0 5.7 5.7 0 1 0-11.4 0m16 0a5.7 5.7 0 1 0 11.4 0 5.7 5.7 0 1 0-11.4 0m16 0a5.7 5.7 0 1 0 11.4 0 5.7 5.7 0 1 0-11.4 0m16 0a5.7 5.7 0 1 0 11.4 0 5.7 5.7 0 1 0-11.4 0m80 0a5.7 5.7 0 1 0 11.4 0 5.7 5.7 0 1 0-11.4 0m16 0a5.7 5.7 0 1 0 11.4 0 5.7 5.7 0 1 0-11.4 0m16 0a5.7 5.7 0 1 0 11.4 0 5.7 5.7 0 1 0-11.4 0m16 0a5.7 5.7 0 1 0 11.4 0 5.7 5.7 0 1 0-11.4 0m-160 16a5.7 5.7 0 1 0 11.4 0 5.7 5.7 0 1 0-11.4 0m16 0a5.7 5.7 0 1 0 11.4 0 5.7 5.7 0 1 0-11.4 0m16 0a5.7 5.7 0 1 0 11.4 0 5.7 5.7 0 1 0-11.4 0m16 0a5.7 5.7 0 1 0 11.4 0 5.7 5.7 0 1 0-11.4 0m16 0a5.7 5.7 0 1 0 11.4 0 5.7 5.7 0 1 0-11.4 0m64 0a5.7 5.7 0 1 0 11.4 0 5.7 5.7 0 1 0-11.4 0m16 0a5.7 5.7 0 1 0 11.4 0 5.7 5.7 0 1 0-11.4 0m16 0a5.7 5.7 0 1 0 11.4 0 5.7 5.7 0 1 0-11.4 0m-128 16a5.7 5.7 0 1 0 11.4 0 5.7 5.7 0 1 0-11.4 0m16 0a5.7 5.7 0 1 0 11.4 0 5.7 5.7 0 1 0-11.4 0m16 0a5.7 5.7 0 1 0 11.4 0 5.7 5.7 0 1 0-11.4 0m16 0a5.7 5.7 0 1 0 11.4 0 5.7 5.7 0 1 0-11.4 0m16 0a5.7 5.7 0 1 0 11.4 0 5.7 5.7 0 1 0-11.4 0m16 0a5.7 5.7 0 1 0 11.4 0 5.7 5.7 0 1 0-11.4 0m32 0a5.7 5.7 0 1 0 11.4 0 5.7 5.7 0 1 0-11.4 0m-80 16a5.7 5.7 0 1 0 11.4 0 5.7 5.7 0 1 0-11.4 0m16 0a5.7 5.7 0 1 0 11.4 0 5.7 5.7 0 1 0-11.4 0m16 0a5.7 5.7 0 1 0 11.4 0 5.7 5.7 0 1 0-11.4 0m16 0a5.7 5.7 0 1 0 11.4 0 5.7 5.7 0 1 0-11.4 0m16 0a5.7 5.7 0 1 0 11.4 0 5.7 5.7 0 1 0-11.4 0m-192 16a5.7 5.7 0 1 0 11.4 0 5.7 5.7 0 1 0-11.4 0m16 0a5.7 5.7 0 1 0 11.4 0 5.7 5.7 0 1 0-11.4 0m16 0a5.7 5.7 0 1 0 11.4 0 5.7 5.7 0 1 0-11.4 0m16 0a5.7 5.7 0 1 0 11.4 0 5.7 5.7 0 1 0-11.4 0m112 0a5.7 5.7 0 1 0 11.4 0 5.7 5.7 0 1 0-11.4 0m16 0a5.7 5.7 0 1 0 11.4 0 5.7 5.7 0 1 0-11.4 0m16 0a5.7 5.7 0 1 0 11.4 0 5.7 5.7 0 1 0-11.4 0m-192 16a5.7 5.7 0 1 0 11.4 0 5.7 5.7 0 1 0-11.4 0m16 0a5.7 5.7 0 1 0 11.4 0 5.7 5.7 0 1 0-11.4 0m16 0a5.7 5.7 0 1 0 11.4 0 5.7 5.7 0 1 0-11.4 0m16 0a5.7 5.7 0 1 0 11.4 0 5.7 5.7 0 1 0-11.4 0m16 0a5.7 5.7 0 1 0 11.4 0 5.7 5.7 0 1 0-11.4 0m16 0a5.7 5.7 0 1 0 11.4 0 5.7 5.7 0 1 0-11.4 0m16 0a5.7 5.7 0 1 0 11.4 0 5.7 5.7 0 1 0-11.4 0m16 0a5.7 5.7 0 1 0 11.4 0 5.7 5.7 0 1 0-11.4 0m16 0a5.7 5.7 0 1 0 11.4 0 5.7 5.7 0 1 0-11.4 0m-96 16a5.7 5.7 0 1 0 11.4 0 5.7 5.7 0 1 0-11.4 0m16 0a5.7 5.7 0 1 0 11.4 0 5.7 5.7 0 1 0-11.4 0m16 0a5.7 5.7 0 1 0 11.4 0 5.7 5.7 0 1 0-11.4 0m16 0a5.7 5.7 0 1 0 11.4 0 5.7 5.7 0 1 0-11.4 0m16 0a5.7 5.7 0 1 0 11.4 0 5.7 5.7 0 1 0-11.4 0m16 0a5.7 5.7 0 1 0 11.4 0 5.7 5.7 0 1 0-11.4 0m16 0a5.7 5.7 0 1 0 11.4 0 5.7 5.7 0 1 0-11.4 0m16 0a5.7 5.7 0 1 0 11.4 0 5.7 5.7 0 1 0-11.4 0m16 0a5.7 5.7 0 1 0 11.4 0 5.7 5.7 0 1 0-11.4 0m16 0a5.7 5.7 0 1 0 11.4 0 5.7 5.7 0 1 0-11.4 0m-256 16a5.7 5.7 0 1 0 11.4 0 5.7 5.7 0 1 0-11.4 0m16 0a5.7 5.7 0 1 0 11.4 0 5.7 5.7 0 1 0-11.4 0m16 0a5.7 5.7 0 1 0 11.4 0 5.7 5.7 0 1 0-11.4 0m160 0a5.7 5.7 0 1 0 11.4 0 5.7 5.7 0 1 0-11.4 0m16 0a5.7 5.7 0 1 0 11.4 0 5.7 5.7 0 1 0-11.4 0m16 0a5.7 5.7 0 1 0 11.4 0 5.7 5.7 0 1 0-11.4 0m16 0a5.7 5.7 0 1 0 11.4 0 5.7 5.7 0 1 0-11.4 0m16 0a5.7 5.7 0 1 0 11.4 0 5.7 5.7 0 1 0-11.4 0m48 0a5.7 5.7 0 1 0 11.4 0 5.7 5.7 0 1 0-11.4 0m16 0a5.7 5.7 0 1 0 11.4 0 5.7 5.7 0 1 0-11.4 0m16 0a5.7 5.7 0 1 0 11.4 0 5.7 5.7 0 1 0-11.4 0m-336 16a5.7 5.7 0 1 0 11.4 0 5.7 5.7 0 1 0-11.4 0m16 0a5.7 5.7 0 1 0 11.4 0 5.7 5.7 0 1 0-11.4 0m16 0a5.7 5.7 0 1 0 11.4 0 5.7 5.7 0 1 0-11.4 0m272 0a5.7 5.7 0 1 0 11.4 0 5.7 5.7 0 1 0-11.4 0m16 0a5.7 5.7 0 1 0 11.4 0 5.7 5.7 0 1 0-11.4 0m16 0a5.7 5.7 0 1 0 11.4 0 5.7 5.7 0 1 0-11.4 0m-336 16a5.7 5.7 0 1 0 11.4 0 5.7 5.7 0 1 0-11.4 0m16 0a5.7 5.7 0 1 0 11.4 0 5.7 5.7 0 1 0-11.4 0m16 0a5.7 5.7 0 1 0 11.4 0 5.7 5.7 0 1 0-11.4 0m48 0a5.7 5.7 0 1 0 11.4 0 5.7 5.7 0 1 0-11.4 0m16 0a5.7 5.7 0 1 0 11.4 0 5.7 5.7 0 1 0-11.4 0m16 0a5.7 5.7 0 1 0 11.4 0 5.7 5.7 0 1 0-11.4 0m16 0a5.7 5.7 0 1 0 11.4 0 5.7 5.7 0 1 0-11.4 0m16 0a5.7 5.7 0 1 0 11.4 0 5.7 5.7 0 1 0-11.4 0m16 0a5.7 5.7 0 1 0 11.4 0 5.7 5.7 0 1 0-11.4 0m16 0a5.7 5.7 0 1 0 11.4 0 5.7 5.7 0 1 0-11.4 0m16 0a5.7 5.7 0 1 0 11.4 0 5.7 5.7 0 1 0-11.4 0m16 0a5.7 5.7 0 1 0 11.4 0 5.7 5.7 0 1 0-11.4 0m16 0a5.7 5.7 0 1 0 11.4 0 5.7 5.7 0 1 0-11.4 0m16 0a5.7 5.7 0 1 0 11.4 0 5.7 5.7 0 1 0-11.4 0m16 0a5.7 5.7 0 1 0 11.4 0 5.7 5.7 0 1 0-11.4 0m48 0a5.7 5.7 0 1 0 11.4 0 5.7 5.7 0 1 0-11.4 0m16 0a5.7 5.7 0 1 0 11.4 0 5.7 5.7 0 1 0-11.4 0m16 0a5.7 5.7 0 1 0 11.4 0 5.7 5.7 0 1 0-11.4 0m-336 16a5.7 5.7 0 1 0 11.4 0 5.7 5.7 0 1 0-11.4 0m16 0a5.7 5.7 0 1 0 11.4 0 5.7 5.7 0 1 0-11.4 0m16 0a5.7 5.7 0 1 0 11.4 0 5.7 5.7 0 1 0-11.4 0m48 0a5.7 5.7 0 1 0 11.4 0 5.7 5.7 0 1 0-11.4 0m16 0a5.7 5.7 0 1 0 11.4 0 5.7 5.7 0 1 0-11.4 0m16 0a5.7 5.7 0 1 0 11.4 0 5.7 5.7 0 1 0-11.4 0m16 0a5.7 5.7 0 1 0 11.4 0 5.7 5.7 0 1 0-11.4 0m16 0a5.7 5.7 0 1 0 11.4 0 5.7 5.7 0 1 0-11.4 0m16 0a5.7 5.7 0 1 0 11.4 0 5.7 5.7 0 1 0-11.4 0m16 0a5.7 5.7 0 1 0 11.4 0 5.7 5.7 0 1 0-11.4 0m16 0a5.7 5.7 0 1 0 11.4 0 5.7 5.7 0 1 0-11.4 0m16 0a5.7 5.7 0 1 0 11.4 0 5.7 5.7 0 1 0-11.4 0m16 0a5.7 5.7 0 1 0 11.4 0 5.7 5.7 0 1 0-11.4 0m16 0a5.7 5.7 0 1 0 11.4 0 5.7 5.7 0 1 0-11.4 0m16 0a5.7 5.7 0 1 0 11.4 0 5.7 5.7 0 1 0-11.4 0m48 0a5.7 5.7 0 1 0 11.4 0 5.7 5.7 0 1 0-11.4 0m16 0a5.7 5.7 0 1 0 11.4 0 5.7 5.7 0 1 0-11.4 0m16 0a5.7 5.7 0 1 0 11.4 0 5.7 5.7 0 1 0-11.4 0m-336 16a5.7 5.7 0 1 0 11.4 0 5.7 5.7 0 1 0-11.4 0m16 0a5.7 5.7 0 1 0 11.4 0 5.7 5.7 0 1 0-11.4 0m16 0a5.7 5.7 0 1 0 11.4 0 5.7 5.7 0 1 0-11.4 0m48 0a5.7 5.7 0 1 0 11.4 0 5.7 5.7 0 1 0-11.4 0m16 0a5.7 5.7 0 1 0 11.4 0 5.7 5.7 0 1 0-11.4 0m16 0a5.7 5.7 0 1 0 11.4 0 5.7 5.7 0 1 0-11.4 0m16 0a5.7 5.7 0 1 0 11.4 0 5.7 5.7 0 1 0-11.4 0m16 0a5.7 5.7 0 1 0 11.4 0 5.7 5.7 0 1 0-11.4 0m16 0a5.7 5.7 0 1 0 11.4 0 5.7 5.7 0 1 0-11.4 0m16 0a5.7 5.7 0 1 0 11.4 0 5.7 5.7 0 1 0-11.4 0m16 0a5.7 5.7 0 1 0 11.4 0 5.7 5.7 0 1 0-11.4 0m16 0a5.7 5.7 0 1 0 11.4 0 5.7 5.7 0 1 0-11.4 0m16 0a5.7 5.7 0 1 0 11.4 0 5.7 5.7 0 1 0-11.4 0m16 0a5.7 5.7 0 1 0 11.4 0 5.7 5.7 0 1 0-11.4 0m16 0a5.7 5.7 0 1 0 11.4 0 5.7 5.7 0 1 0-11.4 0m48 0a5.7 5.7 0 1 0 11.4 0 5.7 5.7 0 1 0-11.4 0m16 0a5.7 5.7 0 1 0 11.4 0 5.7 5.7 0 1 0-11.4 0m16 0a5.7 5.7 0 1 0 11.4 0 5.7 5.7 0 1 0-11.4 0m-336 16a5.7 5.7 0 1 0 11.4 0 5.7 5.7 0 1 0-11.4 0m16 0a5.7 5.7 0 1 0 11.4 0 5.7 5.7 0 1 0-11.4 0m16 0a5.7 5.7 0 1 0 11.4 0 5.7 5.7 0 1 0-11.4 0m272 0a5.7 5.7 0 1 0 11.4 0 5.7 5.7 0 1 0-11.4 0m16 0a5.7 5.7 0 1 0 11.4 0 5.7 5.7 0 1 0-11.4 0m16 0a5.7 5.7 0 1 0 11.4 0 5.7 5.7 0 1 0-11.4 0m-336 16a5.7 5.7 0 1 0 11.4 0 5.7 5.7 0 1 0-11.4 0m16 0a5.7 5.7 0 1 0 11.4 0 5.7 5.7 0 1 0-11.4 0m16 0a5.7 5.7 0 1 0 11.4 0 5.7 5.7 0 1 0-11.4 0m272 0a5.7 5.7 0 1 0 11.4 0 5.7 5.7 0 1 0-11.4 0m16 0a5.7 5.7 0 1 0 11.4 0 5.7 5.7 0 1 0-11.4 0m16 0a5.7 5.7 0 1 0 11.4 0 5.7 5.7 0 1 0-11.4 0m-336 16a5.7 5.7 0 1 0 11.4 0 5.7 5.7 0 1 0-11.4 0m16 0a5.7 5.7 0 1 0 11.4 0 5.7 5.7 0 1 0-11.4 0m16 0a5.7 5.7 0 1 0 11.4 0 5.7 5.7 0 1 0-11.4 0m16 0a5.7 5.7 0 1 0 11.4 0 5.7 5.7 0 1 0-11.4 0m16 0a5.7 5.7 0 1 0 11.4 0 5.7 5.7 0 1 0-11.4 0m16 0a5.7 5.7 0 1 0 11.4 0 5.7 5.7 0 1 0-11.4 0m16 0a5.7 5.7 0 1 0 11.4 0 5.7 5.7 0 1 0-11.4 0m16 0a5.7 5.7 0 1 0 11.4 0 5.7 5.7 0 1 0-11.4 0m16 0a5.7 5.7 0 1 0 11.4 0 5.7 5.7 0 1 0-11.4 0m16 0a5.7 5.7 0 1 0 11.4 0 5.7 5.7 0 1 0-11.4 0m16 0a5.7 5.7 0 1 0 11.4 0 5.7 5.7 0 1 0-11.4 0m16 0a5.7 5.7 0 1 0 11.4 0 5.7 5.7 0 1 0-11.4 0m16 0a5.7 5.7 0 1 0 11.4 0 5.7 5.7 0 1 0-11.4 0m16 0a5.7 5.7 0 1 0 11.4 0 5.7 5.7 0 1 0-11.4 0m16 0a5.7 5.7 0 1 0 11.4 0 5.7 5.7 0 1 0-11.4 0m16 0a5.7 5.7 0 1 0 11.4 0 5.7 5.7 0 1 0-11.4 0m16 0a5.7 5.7 0 1 0 11.4 0 5.7 5.7 0 1 0-11.4 0m16 0a5.7 5.7 0 1 0 11.4 0 5.7 5.7 0 1 0-11.4 0m16 0a5.7 5.7 0 1 0 11.4 0 5.7 5.7 0 1 0-11.4 0m16 0a5.7 5.7 0 1 0 11.4 0 5.7 5.7 0 1 0-11.4 0m16 0a5.7 5.7 0 1 0 11.4 0 5.7 5.7 0 1 0-11.4 0m16 0a5.7 5.7 0 1 0 11.4 0 5.7 5.7 0 1 0-11.4 0m-336 16a5.7 5.7 0 1 0 11.4 0 5.7 5.7 0 1 0-11.4 0m16 0a5.7 5.7 0 1 0 11.4 0 5.7 5.7 0 1 0-11.4 0m16 0a5.7 5.7 0 1 0 11.4 0 5.7 5.7 0 1 0-11.4 0m16 0a5.7 5.7 0 1 0 11.4 0 5.7 5.7 0 1 0-11.4 0m16 0a5.7 5.7 0 1 0 11.4 0 5.7 5.7 0 1 0-11.4 0m16 0a5.7 5.7 0 1 0 11.4 0 5.7 5.7 0 1 0-11.4 0m16 0a5.7 5.7 0 1 0 11.4 0 5.7 5.7 0 1 0-11.4 0m16 0a5.7 5.7 0 1 0 11.4 0 5.7 5.7 0 1 0-11.4 0m16 0a5.7 5.7 0 1 0 11.4 0 5.7 5.7 0 1 0-11.4 0m16 0a5.7 5.7 0 1 0 11.4 0 5.7 5.7 0 1 0-11.4 0m16 0a5.7 5.7 0 1 0 11.4 0 5.7 5.7 0 1 0-11.4 0m16 0a5.7 5.7 0 1 0 11.4 0 5.7 5.7 0 1 0-11.4 0m16 0a5.7 5.7 0 1 0 11.4 0 5.7 5.7 0 1 0-11.4 0m16 0a5.7 5.7 0 1 0 11.4 0 5.7 5.7 0 1 0-11.4 0m16 0a5.7 5.7 0 1 0 11.4 0 5.7 5.7 0 1 0-11.4 0m16 0a5.7 5.7 0 1 0 11.4 0 5.7 5.7 0 1 0-11.4 0m16 0a5.7 5.7 0 1 0 11.4 0 5.7 5.7 0 1 0-11.4 0m16 0a5.7 5.7 0 1 0 11.4 0 5.7 5.7 0 1 0-11.4 0m16 0a5.7 5.7 0 1 0 11.4 0 5.7 5.7 0 1 0-11.4 0m16 0a5.7 5.7 0 1 0 11.4 0 5.7 5.7 0 1 0-11.4 0m16 0a5.7 5.7 0 1 0 11.4 0 5.7 5.7 0 1 0-11.4 0m16 0a5.7 5.7 0 1 0 11.4 0 5.7 5.7 0 1 0-11.4 0m-336 16a5.7 5.7 0 1 0 11.4 0 5.7 5.7 0 1 0-11.4 0m16 0a5.7 5.7 0 1 0 11.4 0 5.7 5.7 0 1 0-11.4 0m16 0a5.7 5.7 0 1 0 11.4 0 5.7 5.7 0 1 0-11.4 0m16 0a5.7 5.7 0 1 0 11.4 0 5.7 5.7 0 1 0-11.4 0m16 0a5.7 5.7 0 1 0 11.4 0 5.7 5.7 0 1 0-11.4 0m16 0a5.7 5.7 0 1 0 11.4 0 5.7 5.7 0 1 0-11.4 0m16 0a5.7 5.7 0 1 0 11.4 0 5.7 5.7 0 1 0-11.4 0m16 0a5.7 5.7 0 1 0 11.4 0 5.7 5.7 0 1 0-11.4 0m16 0a5.7 5.7 0 1 0 11.4 0 5.7 5.7 0 1 0-11.4 0m16 0a5.7 5.7 0 1 0 11.4 0 5.7 5.7 0 1 0-11.4 0m16 0a5.7 5.7 0 1 0 11.4 0 5.7 5.7 0 1 0-11.4 0m16 0a5.7 5.7 0 1 0 11.4 0 5.7 5.7 0 1 0-11.4 0m16 0a5.7 5.7 0 1 0 11.4 0 5.7 5.7 0 1 0-11.4 0m16 0a5.7 5.7 0 1 0 11.4 0 5.7 5.7 0 1 0-11.4 0m16 0a5.7 5.7 0 1 0 11.4 0 5.7 5.7 0 1 0-11.4 0m16 0a5.7 5.7 0 1 0 11.4 0 5.7 5.7 0 1 0-11.4 0m16 0a5.7 5.7 0 1 0 11.4 0 5.7 5.7 0 1 0-11.4 0m16 0a5.7 5.7 0 1 0 11.4 0 5.7 5.7 0 1 0-11.4 0m16 0a5.7 5.7 0 1 0 11.4 0 5.7 5.7 0 1 0-11.4 0m16 0a5.7 5.7 0 1 0 11.4 0 5.7 5.7 0 1 0-11.4 0m16 0a5.7 5.7 0 1 0 11.4 0 5.7 5.7 0 1 0-11.4 0m16 0a5.7 5.7 0 1 0 11.4 0 5.7 5.7 0 1 0-11.4 0"/></svg>