<svg xmlns="http://www.w3.org/2000/svg" viewBox="0 0 512 512"><path d="M82.3 120a5.7 5.7 0 1 0 11.4 0 5.7 5.7 0 1 0-11.4 0zm16 0a5.7 5.7 0 1 0 11.4 0 5.7 5.7 0 1 0-11.4 0zm16 0a5.7 5.7 0 1 0 11.4 0 5.7 5.7 0 1 0-11.4 0zm16 0a5.7 5.7 0 1 0 11.4 0 5.7 5.7 0 1 0-11.4 0zm16 0a5.7 5.7 0 1 0 11.4 0 5.7 5.7 0 1 0-11.4 0zm16 0a5.7 5.7 0 1 0 11.4 0 5.7 5.7 0 1 0-11.4 0zm16 0a5.7 5.7 0 1 0 11.4 0 5.7 5.7 0 1 0-11.4 0zm16 0a5.7 5.7 0 1 0 11.4 0 5.7 5.7 0 1 0-11.4 0zm16 0a5.7 5.7 0 1 0 11.4 0 5.7 5.7 0 1 0-11.4 0zm16 0a5.7 5.7 0 1 0 11.4 0 5.7 5.7 0 1 0-11.4 0zm16 0a5.7 5.7 0 1 0 11.4 0 5.7 5.7 0 1 0-11.4 0zm16 0a5.7 5.7 0 1 0 11.4 0 5.7 5.7 0 1 0-11.4 0zm16 0a5.7 5.7 0 1 0 11.4 0 5.7 5.7 0 1 0-11.4 0zm16 0a5.7 5.7 0 1 0 11.4 0 5.7 5.7 0 1 0-11.4 0zm16 0a5.7 5.7 0 1 0 11.4 0 5.7 5.7 0 1 0-11.4 0zm16 0a5.7 5.7 0 1 0 11.4 0 5.7 5.7 0 1 0-11.4 0zm16 0a5.7 5.7 0 1 0 11.4 0 5.7 5.7 0 1 0-11.4 0zm16 0a5.7 5.7 0 1 0 11.4 0 5.7 5.7 0 1 0-11.4 0zm16 0a5.7 5.7 0 1 0 11.4 0 5.7 5.7 0 1 0-11.4 0zm16 0a5.7 5.7 0 1 0 11.4 0 5.7 5.7 0 1 0-11.4 0zm16 0a5.7 5.7 0 1 0 11.4 0 5.7 5.7 0 1 0-11.4 0zm16 0a5.7 5.7 0 1 0 11.4 0 5.7 5.7 0 1 0-11.4 0zm-336 16a5.7 5.7 0 1 0 11.4 0 5.7 5.7 0 1 0-11.4 0zm16 0a5.7 5.7 0 1 0 11.4 0 5.7 5.7 0 1 0-11.4 0zm16 0a5.7 5.7 0 1 0 11.4 0 5.7 5.7 0 1 0-11.4 0zm16 0a5.7 5.7 0 1 0 11.4 0 5.7 5.7 0 1 0-11.4 0zm16 0a5.7 5.7 0 1 0 11.4 0 5.7 5.7 0 1 0-11.4 0zm16 0a5.7 5.7 0 1 0 11.4 0 5.7 5.7 0 1 0-11.4 0zm16 0a5.7 5.7 0 1 0 11.4 0 5.7 5.7 0 1 0-11.4 0zm16 0a5.7 5.7 0 1 0 11.4 0 5.7 5.7 0 1 0-11.4 0zm16 0a5.7 5.7 0 1 0 11.4 0 5.7 5.7 0 1 0-11.4 0zm16 0a5.7 5.7 0 1 0 11.4 0 5.7 5.7 0 1 0-11.4 0zm16 0a5.7 5.7 0 1 0 11.4 0 5.7 5.7 0 1 0-11.4 0zm16 0a5.7 5.7 0 1 0 11.4 0 5.7 5.7 0 1 0-11.4 0zm16 0a5.7 5.7 0 1 0 11.4 0 5.7 5.7 0 1 0-11.4 0zm16 0a5.7 5.7 0 1 0 11.4 0 5.7 5.7 0 1 0-11.4 0zm16 0a5.7 5.7 0 1 0 11.4 0 5.7 5.7 0 1 0-11.4 0zm16 0a5.7 5.7 0 1 0 11.4 0 5.7 5.7 0 1 0-11.4 0zm16 0a5.7 5.7 0 1 0 11.4 0 5.7 5.7 0 1 0-11.4 0zm16 0a5.7 5.7 0 1 0 11.4 0 5.7 5.7 0 1 0-11.4 0zm16 0a5.7 5.7 0 1 0 11.4 0 5.7 5.7 0 1 0-11.4 0zm16 0a5.7 5.7 0 1 0 11.4 0 5.7 5.7 0 1 0-11.4 0zm16 0a5.7 5.7 0 1 0 11.4 0 5.7 5.7 0 1 0-11.4 0zm16 0a5.7 5.7 0 1 0 11.4 0 5.7 5.7 0 1 0-11.4 0zm-336 112a5.7 5.7 0 1 0 11.4 0 5.7 5.7 0 1 0-11.4 0zm16 0a5.7 5.7 0 1 0 11.4 0 5.7 5.7 0 1 0-11.4 0zm16 0a5.7 5.7 0 1 0 11.4 0 5.7 5.7 0 1 0-11.4 0zm16 0a5.7 5.7 0 1 0 11.4 0 5.7 5.7 0 1 0-11.4 0zm16 0a5.7 5.7 0 1 0 11.4 0 5.7 5.7 0 1 0-11.4 0zm16 0a5.7 5.7 0 1 0 11.4 0 5.7 5.7 0 1 0-11.4 0zm16 0a5.7 5.7 0 1 0 11.4 0 5.7 5.7 0 1 0-11.4 0zm16 0a5.7 5.7 0 1 0 11.4 0 5.7 5.7 0 1 0-11.4 0zm16 0a5.7 5.7 0 1 0 11.4 0 5.7 5.7 0 1 0-11.4 0zm16 0a5.7 5.7 0 1 0 11.4 0 5.7 5.7 0 1 0-11.4 0zm16 0a5.7 5.7 0 1 0 11.4 0 5.7 5.7 0 1 0-11.4 0zm16 0a5.7 5.7 0 1 0 11.4 0 5.7 5.7 0 1 0-11.4 0zm16 0a5.7 5.7 0 1 0 11.4 0 5.7 5.7 0 1 0-11.4 0zm16 0a5.7 5.7 0 1 0 11.4 0 5.7 5.7 0 1 0-11.4 0zm16 0a5.7 5.7 0 1 0 11.4 0 5.7 5.7 0 1 0-11.4 0zm16 0a5.7 5.7 0 1 0 11.4 0 5.7 5.7 0 1 0-11.4 0zm16 0a5.7 5.7 0 1 0 11.4 0 5.7 5.7 0 1 0-11.4 0zm16 0a5.7 5.7 0 1 0 11.4 0 5.7 5.7 0 1 0-11.4 0zm16 0a5.7 5.7 0 1 0 11.4 0 5.7 5.7 0 1 0-11.4 0zm16 0a5.7 5.7 0 1 0 11.4 0 5.7 5.7 0 1 0-11.4 0zm16 0a5.7 5.7 0 1 0 11.4 0 5.7 5.7 0 1 0-11.4 0zm16 0a5.7 5.7 0 1 0 11.4 0 5.7 5.7 0 1 0-11.4 0zm-336 16a5.7 5.7 0 1 0 11.4 0 5.7 5.7 0 1 0-11.4 0zm16 0a5.7 5.7 0 1 0 11.4 0 5.7 5.7 0 1 0-11.4 0zm16 0a5.7 5.7 0 1 0 11.4 0 5.7 5.7 0 1 0-11.4 0zm16 0a5.7 5.7 0 1 0 11.4 0 5.7 5.7 0 1 0-11.4 0zm16 0a5.7 5.7 0 1 0 11.4 0 5.7 5.7 0 1 0-11.4 0zm16 0a5.7 5.7 0 1 0 11.4 0 5.7 5.7 0 1 0-11.4 0zm16 0a5.7 5.7 0 1 0 11.4 0 5.7 5.7 0 1 0-11.4 0zm16 0a5.7 5.7 0 1 0 11.4 0 5.7 5.7 0 1 0-11.4 0zm16 0a5.7 5.7 0 1 0 11.4 0 5.7 5.7 0 1 0-11.4 0zm16 0a5.7 5.7 0 1 0 11.4 0 5.7 5.7 0 1 0-11.4 0zm16 0a5.7 5.7 0 1 0 11.4 0 5.7 5.7 0 1 0-11.4 0zm16 0a5.7 5.7 0 1 0 11.4 0 5.7 5.7 0 1 0-11.4 0zm16 0a5.7 5.7 0 1 0 11.4 0 5.7 5.7 0 1 0-11.4 0zm16 0a5.7 5.7 0 1 0 11.4 0 5.7 5.7 0 1 0-11.4 0zm16 0a5.7 5.7 0 1 0 11.4 0 5.7 5.7 0 1 0-11.4 0zm16 0a5.7 5.7 0 1 0 11.4 0 5.7 5.7 0 1 0-11.4 0zm16 0a5.7 5.7 0 1 0 11.4 0 5.7 5.7 0 1 0-11.4 0zm16 0a5.7 5.7 0 1 0 11.4 0 5.7 5.7 0 1 0-11.4 0zm16 0a5.7 5.7 0 1 0 11.4 0 5.7 5.7 0 1 0-11.4 0zm16 0a5.7 5.7 0 1 0 11.4 0 5.7 5.7 0 1 0-11.4 0zm16 0a5.7 5.7 0 1 0 11.4 0 5.7 5.7 0 1 0-11.4 0zm16 0a5.7 5.7 0 1 0 11.4 0 5.7 5.7 0 1 0-11.4 0zm-336 112a5.7 5.7 0 1 0 11.4 0 5.7 5.7 0 1 0-11.4 0zm16 0a5.7 5.7 0 1 0 11.4 0 5.7 5.7 0 1 0-11.4 0zm16 0a5.7 5.7 0 1 0 11.4 0 5.7 5.7 0 1 0-11.4 0zm16 0a5.7 5.7 0 1 0 11.4 0 5.7 5.7 0 1 0-11.4 0zm16 0a5.7 5.7 0 1 0 11.4 0 5.7 5.7 0 1 0-11.4 0zm16 0a5.7 5.7 0 1 0 11.4 0 5.7 5.7 0 1 0-11.4 0zm16 0a5.7 5.7 0 1 0 11.4 0 5.7 5.7 0 1 0-11.4 0zm16 0a5.7 5.7 0 1 0 11.4 0 5.7 5.7 0 1 0-11.4 0zm16 0a5.7 5.7 0 1 0 11.4 0 5.7 5.7 0 1 0-11.4 0zm16 0a5.7 5.7 0 1 0 11.4 0 5.7 5.7 0 1 0-11.4 0zm16 0a5.7 5.7 0 1 0 11.4 0 5.7 5.7 0 1 0-11.4 0zm16 0a5.7 5.7 0 1 0 11.4 0 5.7 5.7 0 1 0-11.4 0zm16 0a5.7 5.7 0 1 0 11.4 0 5.7 5.7 0 1 0-11.4 0zm16 0a5.7 5.7 0 1 0 11.4 0 5.7 5.7 0 1 0-11.4 0zm16 0a5.7 5.7 0 1 0 11.4 0 5.7 5.7 0 1 0-11.4 0zm16 0a5.7 5.7 0 1 0 11.4 0 5.7 5.7 0 1 0-11.4 0zm16 0a5.7 5.7 0 1 0 11.4 0 5.7 5.7 0 1 0-11.4 0zm16 0a5.7 5.7 0 1 0 11.4 0 5.7 5.7 0 1 0-11.4 0zm16 0a5.7 5.7 0 1 0 11.4 0 5.7 5.7 0 1 0-11.4 0zm16 0a5.7 5.7 0 1 0 11.4 0 5.7 5.7 0 1 0-11.4 0zm16 0a5.7 5.7 0 1 0 11.4 0 5.7 5.7 0 1 0-11.4 0zm16 0a5.7 5.7 0 1 0 11.4 0 5.7 5.7 0 1 0-11.4 0zm-336 16a5.7 5.7 0 1 0 11.4 0 5.7 5.7 0 1 0-11.4 0zm16 0a5.7 5.7 0 1 0 11.4 0 5.7 5.7 0 1 0-11.4 0zm16 0a5.7 5.7 0 1 0 11.4 0 5.7 5.7 0 1 0-11.4 0zm16 0a5.7 5.7 0 1 0 11.4 0 5.7 5.7 0 1 0-11.4 0zm16 0a5.7 5.7 0 1 0 11.4 0 5.7 5.7 0 1 0-11.4 0zm16 0a5.7 5.7 0 1 0 11.4 0 5.7 5.7 0 1 0-11.4 0zm16 0a5.7 5.7 0 1 0 11.4 0 5.7 5.7 0 1 0-11.4 0zm16 0a5.7 5.7 0 1 0 11.4 0 5.7 5.7 0 1 0-11.4 0zm16 0a5.7 5.7 0 1 0 11.4 0 5.7 5.7 0 1 0-11.4 0zm16 0a5.7 5.7 0 1 0 11.4 0 5.7 5.7 0 1 0-11.4 0zm16 0a5.7 5.7 0 1 0 11.4 0 5.7 5.7 0 1 0-11.4 0zm16 0a5.7 5.7 0 1 0 11.4 0 5.7 5.7 0 1 0-11.4 0zm16 0a5.7 5.7 0 1 0 11.4 0 5.7 5.7 0 1 0-11.4 0zm16 0a5.7 5.7 0 1 0 11.4 0 5.7 5.7 0 1 0-11.4 0zm16 0a5.7 5.7 0 1 0 11.4 0 5.7 5.7 0 1 0-11.4 0zm16 0a5.7 5.7 0 1 0 11.4 0 5.7 5.7 0 1 0-11.4 0zm16 0a5.7 5.7 0 1 0 11.4 0 5.7 5.7 0 1 0-11.4 0zm16 0a5.7 5.7 0 1 0 11.4 0 5.7 5.7 0 1 0-11.4 0zm16 0a5.7 5.7 0 1 0 11.4 0 5.7 5.7 0 1 0-11.4 0zm16 0a5.7 5.7 0 1 0 11.4 0 5.7 5.7 0 1 0-11.4 0zm16 0a5.7 5.7 0 1 0 11.4 0 5.7 5.7 0 1 0-11.4 0zm16 0a5.7 5.7 0 1 0 11.4 0 5.7 5.7 0 1 0-11.4 0z"/></svg>